<?xml version="1.0" encoding="utf-8"?>
<!-- Generator: Adobe Illustrator 25.0.0, SVG Export Plug-In . SVG Version: 6.00 Build 0)  -->
<svg version="1.1" id="Layer_1" xmlns="http://www.w3.org/2000/svg" xmlns:xlink="http://www.w3.org/1999/xlink" x="0px" y="0px"
	 viewBox="0 0 671.98 437" style="enable-background:new 0 0 671.98 437;" xml:space="preserve">
<style type="text/css">
	.st0{opacity:0.1;fill:#575DA7;enable-background:new    ;}
	.st1{opacity:0.2;}
	.st2{opacity:0.2;fill:#403D56;enable-background:new    ;}
	.st3{opacity:0.2;fill:#575DA7;enable-background:new    ;}
	.st4{opacity:0.1;fill:#010202;enable-background:new    ;}
	.st5{fill:url(#SVGID_1_);}
	.st6{fill:#FFFFFF;}
	.st7{fill:#EDEDF4;}
	.st8{opacity:0.8;fill:#EB5A5C;enable-background:new    ;}
	.st9{opacity:0.8;fill:#FFD254;enable-background:new    ;}
	.st10{opacity:0.8;fill:#8EC150;enable-background:new    ;}
	.st11{fill:url(#SVGID_2_);}
	.st12{fill:url(#SVGID_3_);}
	.st13{fill:#A2626A;}
	.st14{fill:#403D56;}
	.st15{fill:#575DA7;}
</style>
<path class="st0" d="M296.69,436.85c184.79,0,334.59-8.6,334.59-19.2c0-10.61-149.8-19.2-334.59-19.2s-334.59,8.6-334.59,19.2
	C-37.9,428.25,111.9,436.85,296.69,436.85z"/>
<g class="st1">
	<path class="st2" d="M572.84,418.51c-0.31,0.58-0.66,1.14-1.07,1.65c-3.56-2.51-7.19-4.98-10.87-7.39
		c0.07-0.15,0.15-0.32,0.24-0.47c0.85-1.65,2.14-3.05,3.71-4.04c2.04-1.24,4.33-1.54,6.18-0.53c1.85,1,2.94,3.06,3.05,5.44
		C574.16,415.03,573.72,416.87,572.84,418.51z"/>
	<path class="st2" d="M577.82,409.18c2.24-4.23,1.44-9.06-1.79-10.77c-3.23-1.71-7.66,0.33-9.9,4.57
		c-2.24,4.24-1.44,9.06,1.79,10.77C571.14,415.46,575.58,413.42,577.82,409.18z"/>
	<path class="st2" d="M582.77,399.81c2.24-4.24,1.44-9.06-1.79-10.77c-3.23-1.71-7.66,0.33-9.9,4.57
		c-2.24,4.24-1.44,9.06,1.79,10.77C576.1,406.08,580.53,404.04,582.77,399.81z"/>
	<path class="st2" d="M587.73,390.43c2.24-4.24,1.44-9.06-1.79-10.77c-3.23-1.71-7.66,0.33-9.9,4.57
		c-2.24,4.24-1.44,9.06,1.79,10.77C581.06,396.71,585.49,394.66,587.73,390.43z"/>
	<path class="st2" d="M592.69,381.05c2.24-4.24,1.44-9.06-1.79-10.77c-3.23-1.71-7.66,0.33-9.9,4.57
		c-2.24,4.24-1.44,9.06,1.79,10.77C586.02,387.33,590.45,385.28,592.69,381.05z"/>
	<path class="st3" d="M598.84,302.12c-0.26-1.43-0.42-2.88-0.48-4.34l16.7,5.62l-16.7-8.67c0.24-4.33,1.37-8.57,3.31-12.46
		c1.94-3.88,4.65-7.33,7.97-10.12l16.15,23.45l-12.56-26.06c3.69-2.31,7.82-3.83,12.12-4.48c4.3-0.64,8.69-0.39,12.9,0.74
		c4.2,1.13,8.13,3.11,11.53,5.83c3.4,2.71,6.22,6.1,8.26,9.95c2.04,3.85,3.27,8.08,3.61,12.42c0.34,4.34-0.22,8.71-1.64,12.83
		c-1.42,4.12-3.67,7.9-6.61,11.12c-2.94,3.21-6.51,5.78-10.49,7.55c0.41,2.25,0.57,4.53,0.5,6.81l-25.45-0.2l25.06,4.13
		c-0.85,5.22-2.98,10.14-6.2,14.32c-3.22,4.18-7.43,7.5-12.26,9.64c1.06,5.87,0.46,11.91-1.75,17.45
		c-2.21,5.54-5.92,10.34-10.73,13.86c-4.8,3.52-10.5,5.62-16.44,6.05c-5.94,0.43-11.87-0.82-17.13-3.61
		c-5.26-2.79-9.63-7.01-12.61-12.17c-2.98-5.16-4.45-11.06-4.24-17.01c0.21-5.96,2.09-11.74,5.42-16.68
		c3.33-4.94,7.99-8.84,13.43-11.26c-1.26-7-0.14-14.23,3.19-20.52c3.33-6.29,8.67-11.28,15.16-14.17L598.84,302.12z"/>
	<path class="st4" d="M639.72,346.02c-3.32,6.3-8.66,11.3-15.17,14.17c1.06,5.86,0.46,11.91-1.75,17.45
		c-2.21,5.54-5.92,10.34-10.73,13.86c-4.8,3.52-10.5,5.62-16.44,6.05c-5.94,0.43-11.87-0.82-17.13-3.61
		c-5.26-2.79-9.63-7-12.61-12.17c-2.98-5.16-4.45-11.06-4.24-17.01c0.21-5.96,2.09-11.74,5.42-16.68
		c3.33-4.94,7.99-8.84,13.43-11.26C579.26,330.06,641.39,342.88,639.72,346.02z"/>
</g>
<g class="st1">
	<path class="st2" d="M552.97,231.15c-0.38,0.99-0.85,1.96-1.39,2.87c-6.23-3.33-12.54-6.56-18.93-9.7
		c0.09-0.27,0.19-0.55,0.29-0.81c1.04-2.82,2.81-5.32,5.13-7.22c3.01-2.42,6.64-3.33,9.9-2.09c3.25,1.23,5.33,4.34,5.98,8.12
		C554.41,225.3,554.07,228.35,552.97,231.15z"/>
	<path class="st2" d="M559.08,215.12c2.76-7.26,0.51-14.84-5.03-16.95c-5.53-2.11-12.25,2.06-15.01,9.32
		c-2.76,7.25-0.51,14.84,5.03,16.95C549.6,226.54,556.32,222.37,559.08,215.12z"/>
	<path class="st2" d="M565.19,199.07c2.76-7.26,0.51-14.84-5.03-16.95c-5.53-2.11-12.25,2.06-15.01,9.32
		c-2.76,7.25-0.51,14.84,5.02,16.95C555.71,210.49,562.43,206.32,565.19,199.07z"/>
	<path class="st2" d="M571.28,183.01c2.76-7.26,0.51-14.85-5.02-16.95c-5.53-2.11-12.25,2.06-15.01,9.32
		c-2.76,7.26-0.51,14.84,5.02,16.95C561.8,194.43,568.52,190.26,571.28,183.01z"/>
	<path class="st2" d="M577.39,166.96c2.76-7.26,0.51-14.85-5.02-16.95c-5.53-2.11-12.25,2.06-15.01,9.32
		c-2.76,7.26-0.51,14.85,5.02,16.95C567.91,178.39,574.63,174.22,577.39,166.96z"/>
	<path class="st3" d="M571.59,38.97c-0.7-2.27-1.25-4.58-1.64-6.93l27.97,5.7l-28.55-10.64c-0.47-6.99,0.49-14,2.82-20.6
		c2.33-6.6,5.98-12.66,10.73-17.8l30.65,34.35l-25.36-39.35c5.47-4.43,11.79-7.68,18.58-9.56c6.78-1.88,13.87-2.34,20.84-1.36
		c6.97,0.98,13.66,3.39,19.65,7.07c6,3.68,11.18,8.56,15.22,14.32c4.04,5.77,6.85,12.31,8.26,19.21c1.41,6.9,1.39,14.02-0.06,20.91
		c-1.45,6.89-4.3,13.42-8.37,19.16c-4.07,5.74-9.28,10.59-15.3,14.23c1.1,3.53,1.82,7.16,2.14,10.85l-40.92,4.76l41.08,1.64
		c-0.32,8.55-2.77,16.88-7.11,24.25c-4.35,7.36-10.46,13.53-17.78,17.93c2.87,9.21,3.09,19.04,0.64,28.37
		c-2.45,9.33-7.46,17.78-14.48,24.39c-7.01,6.61-15.74,11.11-25.19,12.98c-9.45,1.87-19.23,1.05-28.23-2.38
		c-9-3.43-16.86-9.33-22.67-17.02c-5.81-7.69-9.35-16.86-10.2-26.47c-0.85-9.61,1.01-19.26,5.37-27.86s11.06-15.79,19.31-20.76
		c-3.44-11.01-3.07-22.85,1.02-33.63c4.1-10.78,11.69-19.86,21.57-25.79L571.59,38.97z"/>
	<path class="st4" d="M646,101.35c-4.08,10.78-11.68,19.86-21.56,25.77c2.87,9.21,3.09,19.04,0.64,28.37
		c-2.45,9.33-7.46,17.78-14.48,24.39c-7.01,6.61-15.74,11.11-25.19,12.98c-9.45,1.87-19.23,1.05-28.23-2.38
		c-9-3.43-16.86-9.33-22.67-17.02c-5.81-7.69-9.35-16.86-10.2-26.47c-0.85-9.61,1.01-19.26,5.37-27.86s11.06-15.79,19.31-20.76
		C545.69,87.76,648.05,95.96,646,101.35z"/>
</g>
<g class="st1">
	<path class="st2" d="M60.2,284.55c0.31,1.23,0.73,2.43,1.24,3.59c7.83-3.01,15.76-5.9,23.77-8.67c-0.07-0.33-0.14-0.67-0.22-1
		c-0.81-3.49-2.53-6.69-4.99-9.29c-3.2-3.3-7.35-4.91-11.34-3.93c-3.99,0.98-6.93,4.34-8.26,8.67
		C59.38,277.38,59.31,281.05,60.2,284.55z"/>
	<path class="st2" d="M71.74,277.9c6.84-1.67,10.61-10.3,8.43-19.26c-2.19-8.97-9.5-14.88-16.34-13.21
		c-6.84,1.67-10.61,10.3-8.43,19.26C57.58,273.66,64.9,279.57,71.74,277.9z"/>
	<path class="st2" d="M66.9,258.06c6.84-1.67,10.61-10.3,8.43-19.26c-2.19-8.97-9.5-14.88-16.34-13.21
		c-6.84,1.67-10.61,10.3-8.43,19.26C52.74,253.82,60.06,259.73,66.9,258.06z"/>
	<path class="st2" d="M62.06,238.22c6.84-1.67,10.61-10.3,8.43-19.26c-2.19-8.97-9.5-14.88-16.34-13.21
		c-6.84,1.67-10.61,10.3-8.43,19.26C47.91,233.98,55.23,239.89,62.06,238.22z"/>
	<path class="st2" d="M57.22,218.37c6.84-1.67,10.61-10.3,8.43-19.26c-2.19-8.97-9.5-14.88-16.34-13.21
		c-6.84,1.67-10.61,10.3-8.43,19.26C43.07,214.13,50.39,220.04,57.22,218.37z"/>
	<path class="st3" d="M66.51,55.03c1.17-2.57,2.16-5.22,2.96-7.93l-33.84,2.59l35.25-8.34c1.59-8.18,1.49-16.6-0.29-24.74
		c-1.78-8.14-5.2-15.83-10.04-22.6L19.31,30.09L55.04-12.6c-5.8-6.05-12.79-10.84-20.52-14.07c-7.73-3.23-16.04-4.84-24.42-4.71
		c-8.38,0.12-16.64,1.97-24.27,5.43s-14.47,8.45-20.09,14.67c-5.62,6.22-9.91,13.53-12.59,21.48s-3.7,16.36-2.99,24.72
		c0.71,8.36,3.12,16.48,7.1,23.87c3.98,7.38,9.43,13.87,16.01,19.05c-1.82,4-3.2,8.19-4.13,12.49l47.59,11.65l-48.72-4.13
		c-0.88,10.13,0.78,20.32,4.82,29.65c4.04,9.33,10.34,17.51,18.33,23.78c-4.74,10.44-6.46,22.01-4.95,33.39
		c1.51,11.37,6.19,22.09,13.49,30.93c7.31,8.84,16.95,15.44,27.82,19.05c10.88,3.61,22.54,4.08,33.67,1.36s21.27-8.52,29.26-16.74
		c7.99-8.22,13.51-18.53,15.93-29.74c2.42-11.21,1.64-22.89-2.25-33.68c-3.89-10.79-10.73-20.27-19.75-27.35
		c5.67-12.48,6.98-26.51,3.73-39.84c-3.25-13.32-10.88-25.16-21.66-33.62H66.51z"/>
	<path class="st4" d="M-30.48,117.65c3.23,13.33,10.85,25.18,21.65,33.63c-4.74,10.44-6.46,22.01-4.95,33.39
		c1.51,11.37,6.19,22.09,13.49,30.93c7.31,8.84,16.95,15.44,27.82,19.05c10.88,3.61,22.54,4.08,33.67,1.36
		c11.13-2.72,21.27-8.52,29.26-16.74c7.99-8.22,13.51-18.53,15.93-29.74c2.42-11.21,1.64-22.89-2.25-33.68
		c-3.89-10.79-10.73-20.27-19.75-27.35C89.9,116.44-32.09,111.02-30.48,117.65z"/>
</g>
<linearGradient id="SVGID_1_" gradientUnits="userSpaceOnUse" x1="427.7643" y1="-64.5423" x2="427.7643" y2="318.8837" gradientTransform="matrix(1 0 0 -1 -124.1649 357.8622)">
	<stop  offset="0" style="stop-color:#808081;stop-opacity:0.25"/>
	<stop  offset="0.54" style="stop-color:#808081;stop-opacity:0.12"/>
	<stop  offset="1" style="stop-color:#808081;stop-opacity:0.1"/>
</linearGradient>
<path class="st5" d="M603.17,38.98H4.03c-0.7,0-1.4,0.14-2.05,0.41c-0.65,0.27-1.24,0.67-1.73,1.16c-0.5,0.5-0.89,1.09-1.16,1.74
	c-0.27,0.65-0.4,1.35-0.4,2.05v367.25c0,1.42,0.27,2.82,0.81,4.13c0.54,1.31,1.33,2.5,2.33,3.51c1,1,2.19,1.8,3.49,2.35
	c1.31,0.54,2.71,0.83,4.12,0.83h588.29c1.41,0,2.82-0.28,4.12-0.83c1.31-0.55,2.49-1.34,3.49-2.35c1-1,1.79-2.2,2.33-3.51
	c0.54-1.31,0.82-2.71,0.81-4.13V44.34c0-1.42-0.56-2.78-1.56-3.79C605.94,39.55,604.58,38.98,603.17,38.98z"/>
<path class="st6" d="M606.08,61.78v347.65c0,2.83-1.13,5.55-3.13,7.55c-2,2-4.71,3.13-7.54,3.13H11.89c-2.83,0-5.55-1.13-7.55-3.13
	c-2-2-3.13-4.72-3.13-7.56V61.78H606.08z"/>
<path class="st7" d="M606.08,46.33v15.45H1.22V46.33c0-1.41,0.56-2.75,1.55-3.75c0.99-0.99,2.34-1.55,3.74-1.55h594.27
	c1.4,0,2.75,0.56,3.74,1.55S606.08,44.92,606.08,46.33z"/>
<path class="st8" d="M10.8,53.73c1.37,0,2.47-1.11,2.47-2.48c0-1.37-1.11-2.48-2.47-2.48c-1.37,0-2.47,1.11-2.47,2.48
	C8.33,52.62,9.44,53.73,10.8,53.73z"/>
<path class="st9" d="M17.61,53.73c1.37,0,2.47-1.11,2.47-2.48c0-1.37-1.11-2.48-2.47-2.48c-1.37,0-2.47,1.11-2.47,2.48
	C15.13,52.62,16.24,53.73,17.61,53.73z"/>
<path class="st10" d="M24.41,53.73c1.37,0,2.47-1.11,2.47-2.48c0-1.37-1.11-2.48-2.47-2.48c-1.37,0-2.47,1.11-2.47,2.48
	C21.94,52.62,23.04,53.73,24.41,53.73z"/>
<linearGradient id="SVGID_2_" gradientUnits="userSpaceOnUse" x1="-3294.073" y1="326.9302" x2="-3271.8076" y2="326.9302" gradientTransform="matrix(1 0 0 -1 -124.1649 357.8622)">
	<stop  offset="0" style="stop-color:#808081;stop-opacity:0.25"/>
	<stop  offset="0.54" style="stop-color:#808081;stop-opacity:0.12"/>
	<stop  offset="1" style="stop-color:#808081;stop-opacity:0.1"/>
</linearGradient>
<path class="st11" d="M338.85,32.17v-2.48h-3.71v2.48H338.85z"/>
<path class="st7" d="M198.46,92.25h-58.14v6.19h58.14V92.25z"/>
<path class="st7" d="M466.88,110.21H140.32v6.19h326.55V110.21z"/>
<path class="st7" d="M466.88,128.18H140.32v6.19h326.55V128.18z"/>
<path class="st7" d="M466.88,146.14H140.32v6.19h326.55V146.14z"/>
<path class="st7" d="M466.88,164.1H140.32v6.19h326.55V164.1z"/>
<path class="st7" d="M404.3,198.37H202.68v156.1H404.3V198.37z"/>
<linearGradient id="SVGID_3_" gradientUnits="userSpaceOnUse" x1="428.0028" y1="-89973.9609" x2="428.0028" y2="-62686.4102" gradientTransform="matrix(1 0 0 -1 -124.1649 357.8622)">
	<stop  offset="0" style="stop-color:#808081;stop-opacity:0.25"/>
	<stop  offset="0.54" style="stop-color:#808081;stop-opacity:0.12"/>
	<stop  offset="1" style="stop-color:#808081;stop-opacity:0.1"/>
</linearGradient>
<path class="st12" d="M338.87,246.73c-0.26,0-0.52,0.04-0.79,0.04c0.09-0.36,0.12-0.73,0.09-1.1c-0.08-1.56-0.5-3.09-1.24-4.47
	c-0.45-0.81-0.97-1.59-1.53-2.33c-1.68-2.33-3.24-4.71-5.09-6.91c-0.8-0.85-1.46-1.83-1.96-2.89c-0.19-0.57-0.41-1.13-0.67-1.68
	c-0.36-0.56-0.86-1.01-1.46-1.29c-0.59-0.29-1.26-0.41-1.91-0.35c-1.32,0.16-2.54,0.8-3.41,1.81c-0.52,0.56-0.95,1.42-0.51,2.05
	c0.43,0.63,1.37,0.71,1.43,1.41c0,0.37,0,0.98-0.38,1.1c-0.67,0.18-1.31,0.46-1.89,0.83c-0.29,0.19-0.53,0.45-0.7,0.75
	c-0.17,0.3-0.27,0.64-0.29,0.99c1.07,0.16,1.97-0.74,2.94-1.24c1.23-0.53,2.62-0.58,3.88-0.14c0.49,0.13,0.94,0.36,1.34,0.68
	c0.35,0.34,0.64,0.73,0.87,1.16c1.19,1.72,1.93,3.72,2.14,5.81l0.54,3.48c-0.8,0.06-1.61,0.17-2.4,0.32
	c-2.14,0.32-4.32,0.17-6.39-0.43c-2.16-0.62-4.33-1.75-6.56-1.24c-1.05,0.23-2,0.81-3.06,0.98c-0.83,0.08-1.66,0.04-2.47-0.13
	l-1.7-0.27c-0.06-0.14-0.1-0.29-0.14-0.44c-0.35-1.24-0.51-2.53-0.48-3.82c1.11-0.06,2.19-0.39,3.14-0.96
	c0.95-0.57,1.75-1.37,2.32-2.32c0.57-0.95,0.9-2.03,0.97-3.14c0.06-1.11-0.15-2.22-0.61-3.23c0.92-0.51,1.68-1.27,2.2-2.19
	l-0.43-0.08l0.41-0.62c-0.1-0.06-0.18-0.14-0.24-0.23c-0.06-0.1-0.1-0.2-0.11-0.32c-0.01-0.11,0-0.22,0.04-0.33
	c0.04-0.11,0.1-0.2,0.19-0.28c-0.36-0.19-0.76-0.28-1.17-0.26c0.13-0.24-0.08-0.54-0.33-0.62c-0.26-0.05-0.53-0.07-0.8-0.05
	c-0.39-0.03-0.78-0.12-1.15-0.27c-2.64-0.91-5.5-1.71-8.2-0.95c-1.19,0.37-2.29,0.95-3.27,1.72c-0.95,0.54-1.66,1.42-1.99,2.46
	c-0.32,1.05-0.24,2.17,0.24,3.16c0.41,1.02,0.7,2.07,0.87,3.15c0.04,1.01-0.08,2.02-0.34,2.99c0.59,0.18,1.19,0.31,1.8,0.4
	c-0.34,1.33-0.95,2.58-1.79,3.67c-0.38,0.48-0.8,0.94-1.24,1.37h-0.07c-1.23,0.23-2.47,0.38-3.71,0.46c-1.31,0-2.6-0.5-3.9-0.4
	c-0.77,0.09-1.53,0.26-2.27,0.51c-3.39,1-6.92,1.47-10.46,1.4l-0.43,0.04l0.4-2.53c0.21-2.09,0.95-4.09,2.14-5.81
	c0.23-0.43,0.52-0.82,0.87-1.16c0.4-0.32,0.85-0.55,1.34-0.67c1.27-0.44,2.65-0.38,3.88,0.14c0.97,0.48,1.86,1.37,2.94,1.24
	c-0.02-0.35-0.13-0.68-0.3-0.98c-0.17-0.3-0.42-0.56-0.7-0.75c-0.58-0.37-1.22-0.65-1.89-0.83c-0.36-0.12-0.41-0.72-0.38-1.1
	c0.06-0.69,1.04-0.84,1.43-1.41c0.39-0.57,0-1.49-0.51-2.05c-0.88-1.01-2.09-1.65-3.41-1.8c-0.66-0.06-1.32,0.06-1.91,0.35
	c-0.59,0.29-1.1,0.74-1.45,1.29c-0.26,0.54-0.49,1.1-0.67,1.68c-0.5,1.06-1.16,2.04-1.96,2.89c-1.85,2.2-3.41,4.58-5.09,6.91
	c-0.56,0.74-1.08,1.52-1.53,2.32c-0.73,1.38-1.16,2.91-1.24,4.47c-0.03,0.37,0,0.75,0.09,1.11c-0.04,0.09-0.06,0.18-0.07,0.28
	c0.02,0.17,0.07,0.33,0.15,0.48c0.08,0.15,0.19,0.28,0.33,0.38c0.95,0.95,1.94,1.94,3.22,2.35c0.79,0.19,1.6,0.33,2.41,0.41
	c1.95,0.35,3.75,1.49,5.74,1.48c1.37,0,2.72-0.55,4.06-0.35c1.85,0.25,3.19,1.77,4.33,3.23c0.97,1.15,1.69,2.48,2.13,3.91
	c0.44,1.73,0.17,3.67,1.09,5.2c0.23,0.31,0.41,0.66,0.53,1.03c0.02,0.58-0.11,1.16-0.38,1.68c-0.78,2.4,0.93,4.96,0.75,7.43
	c-0.09,1.21-0.62,2.35-0.67,3.56c-0.09,1.55,0.54,3.3-0.33,4.59c0.53-0.27,1.06-0.51,1.6-0.73c-2.6,7.63-4.95,15.49-4.77,23.5
	c0.14,5.2,1.24,10.92-1.74,15.19c-0.42,0.51-0.76,1.08-1,1.7c-0.24,0.84,0,1.72,0.15,2.58c0.55,3.72-1.45,7.38-1.59,11.15
	c-0.02,1.16,0.06,2.32,0.22,3.48l0.73,6.28c-0.73,0.16-1.42,0.5-1.99,0.99c-0.77,0.62-1.44,1.64-1.08,2.56
	c0.29,0.75,1.15,1.11,1.93,1.29c0.81,0.09,1.58,0.38,2.24,0.85c0.21,0.23,0.44,0.46,0.67,0.67c0.46,0.25,0.98,0.35,1.5,0.28
	c0.95-0.04,1.86-0.12,2.82-0.25c0.2-0.01,0.39-0.07,0.56-0.18c0.11-0.13,0.2-0.27,0.25-0.43c0.05-0.16,0.07-0.33,0.06-0.5
	c0.07-0.94,0.03-1.89-0.12-2.82c-0.04-0.18-0.09-0.35-0.14-0.53c0.32-0.8,0.56-1.63,0.69-2.48c0.19-1.24,0.22-2.53,0.3-3.8
	c0.19-3.23,0.62-6.44,1.11-9.65l0.62-4.13c0.19-1.36,0.39-2.71,0.62-4.07c1.15-7.35,2.93-14.58,5.33-21.62
	c0.53-1.51,1.42-3.27,3.01-3.31l0.95,1.86c1.24,2.33,1.99,4.91,2.93,7.36c1.24,3.22,0.82,6.97,2.47,9.99
	c0.27,0.5,0.62,0.98,0.82,1.51c0.29,0.81,0.46,1.66,0.51,2.52l1.09,11.15c0.49,5.01,1.03,10.16,3.27,14.66
	c0.14,0.29,0.31,0.57,0.5,0.83c-0.07,0.75-0.08,1.5-0.03,2.26c-0.03,0.13-0.04,0.27-0.01,0.41c0.03,0.13,0.09,0.26,0.17,0.37
	c0.08,0.11,0.19,0.19,0.32,0.25c0.13,0.06,0.26,0.09,0.4,0.08c0.93,0.12,1.86,0.2,2.81,0.24c0.51,0.07,1.04-0.03,1.5-0.28
	c0.24-0.21,0.47-0.43,0.68-0.67c0.66-0.47,1.43-0.76,2.23-0.85c0.78-0.18,1.64-0.54,1.93-1.29c0.36-0.93-0.32-1.94-1.08-2.56
	c-0.62-0.54-1.39-0.9-2.2-1.02c-0.34,0.02-0.67-0.01-1-0.08c0.08-0.41,0.1-0.83,0.07-1.24c-0.08-0.49-0.1-0.98-0.06-1.47
	c0.13-0.5,0.3-0.98,0.51-1.45c0.71-2.19-0.8-4.42-1.34-6.67c-0.71-2.99,0.35-6.11,0.15-9.18c-0.3-4.81-3.65-9.33-2.76-14.07
	c0.71-3.79,0.1-7.69-0.57-11.48l-2.47-14.13c-0.17-1.15-0.48-2.27-0.9-3.35c0.46-0.08,0.91-0.2,1.35-0.36
	c0.62-1.51,0.51-3.18,0.33-4.8c-0.19-1.62-0.62-3.21-0.83-4.82c-0.19-1.29-0.29-2.6-0.32-3.91c-0.07-1.29,0.02-2.58,0.27-3.85
	c0.28-1.11,0.67-2.2,1.16-3.24c1.2-3.01,2.65-5.91,4.33-8.67c2.54-0.2,5-0.42,7.54-0.62c0.61-0.03,1.21-0.11,1.81-0.24
	c0.76-0.26,1.53-0.48,2.31-0.66c0.29-0.02,0.58-0.07,0.85-0.17c0.56-0.25,0.9-0.97,1.51-0.99c0.23,0.03,0.46,0.03,0.69,0
	c0.27-0.09,0.41-0.38,0.62-0.62c0.38-0.43,1.01-0.51,1.51-0.79c0.43-0.28,0.75-0.7,0.9-1.19
	C339.09,247.73,339.07,247.2,338.87,246.73z"/>
<path class="st13" d="M306.7,239.95c3.76,0,6.8-3.05,6.8-6.81c0-3.76-3.05-6.81-6.8-6.81c-3.76,0-6.8,3.05-6.8,6.81
	C299.89,236.9,302.94,239.95,306.7,239.95z"/>
<path class="st13" d="M298.84,241.62c-0.7,0.86-1.47,1.64-2.32,2.35c4,2.39,8.75,3.17,13.3,2.19c-0.17-0.46-0.77-0.53-1.2-0.77
	c-0.55-0.39-0.93-0.99-1.05-1.66c-0.46-1.63-0.59-3.34-0.4-5.02c0.08-0.41,0.08-0.83,0-1.24c-0.24-0.61-0.69-1.12-1.28-1.41
	c-0.96-0.6-2-1.07-3.09-1.39c-1.13-0.33-1.77-0.49-1.81,0.83C300.94,237.71,300.19,239.85,298.84,241.62z"/>
<path class="st13" d="M330.41,245.9l-0.69-4.4c-0.11-0.89-0.3-1.76-0.55-2.61c-0.42-1.11-0.95-2.17-1.58-3.17
	c-0.23-0.43-0.52-0.82-0.87-1.16c-0.39-0.32-0.85-0.55-1.34-0.68c-1.26-0.43-2.64-0.38-3.87,0.15c-0.97,0.47-1.86,1.36-2.94,1.21
	c0.02-0.35,0.12-0.68,0.3-0.98c0.17-0.3,0.42-0.56,0.71-0.74c0.57-0.37,1.2-0.65,1.85-0.83c0.35-0.11,0.41-0.72,0.38-1.09
	c-0.06-0.69-1.04-0.84-1.43-1.4c-0.39-0.56,0-1.48,0.51-2.04c0.87-1,2.09-1.64,3.41-1.79c0.66-0.07,1.32,0.05,1.91,0.34
	c0.59,0.29,1.1,0.73,1.45,1.29c0.26,0.54,0.49,1.1,0.67,1.67c0.5,1.06,1.16,2.03,1.96,2.88c1.85,2.19,3.41,4.55,5.08,6.87
	c0.56,0.74,1.07,1.51,1.53,2.32c0.74,1.37,1.16,2.89,1.24,4.45c0.06,0.48-0.02,0.96-0.2,1.4c-0.19,0.32-0.46,0.59-0.79,0.78
	c-0.32,0.19-0.69,0.29-1.07,0.29c-0.76-0.02-1.51-0.17-2.22-0.45l-2.7-0.91c-0.33-0.07-0.63-0.24-0.87-0.48
	c-0.1-0.14-0.14-0.31-0.12-0.48C330.2,246.17,330.28,246.01,330.41,245.9z"/>
<path class="st13" d="M276.51,246.88l0.69-4.4c0.12-0.89,0.3-1.76,0.56-2.61c0.41-1.11,0.94-2.17,1.58-3.17
	c0.22-0.43,0.51-0.82,0.86-1.15c0.39-0.32,0.85-0.55,1.34-0.68c1.27-0.43,2.65-0.38,3.88,0.14c0.97,0.47,1.85,1.36,2.94,1.21
	c-0.02-0.35-0.12-0.68-0.3-0.98c-0.17-0.3-0.42-0.56-0.7-0.75c-0.57-0.37-1.2-0.65-1.86-0.83c-0.35-0.11-0.41-0.72-0.38-1.09
	c0.06-0.69,1.03-0.84,1.43-1.4c0.4-0.56,0-1.48-0.51-2.04c-0.87-1-2.09-1.64-3.41-1.8c-0.66-0.06-1.32,0.05-1.91,0.34
	c-0.59,0.29-1.1,0.73-1.45,1.29c-0.26,0.54-0.48,1.1-0.67,1.67c-0.5,1.06-1.16,2.03-1.95,2.88c-1.85,2.19-3.41,4.55-5.09,6.87
	c-0.56,0.74-1.07,1.51-1.53,2.32c-0.73,1.37-1.16,2.89-1.24,4.45c-0.05,0.48,0.02,0.97,0.21,1.41c0.19,0.32,0.47,0.59,0.8,0.78
	c0.33,0.19,0.7,0.28,1.08,0.28c0.76-0.02,1.51-0.17,2.22-0.45l2.7-0.89c0.33-0.07,0.63-0.24,0.86-0.48c0.1-0.14,0.14-0.32,0.12-0.5
	C276.74,247.14,276.65,246.98,276.51,246.88z"/>
<path class="st14" d="M325.49,347.27c0.77,0.62,1.44,1.63,1.08,2.55c-0.3,0.75-1.14,1.1-1.93,1.29c-0.8,0.09-1.57,0.38-2.23,0.84
	c-0.21,0.23-0.44,0.44-0.67,0.64c-0.46,0.25-0.98,0.35-1.5,0.28c-0.94-0.04-1.86-0.12-2.81-0.24c-0.2-0.01-0.39-0.07-0.56-0.18
	c-0.11-0.12-0.2-0.27-0.25-0.43c-0.05-0.16-0.07-0.33-0.06-0.49c-0.07-0.94-0.04-1.88,0.11-2.81c0.16-0.93,0.64-1.78,1.35-2.4
	c0.72-0.56,2.89-2.21,3.71-1.15c0.22,0.28,0.13,0.68,0.43,0.91c0.3,0.24,0.78,0.1,1.13,0.15
	C324.11,346.36,324.87,346.72,325.49,347.27z"/>
<path class="st14" d="M283.7,347.6c-0.77,0.62-1.44,1.63-1.08,2.55c0.29,0.75,1.14,1.11,1.92,1.29c0.8,0.09,1.57,0.38,2.23,0.84
	c0.21,0.24,0.44,0.46,0.68,0.67c0.45,0.25,0.98,0.34,1.49,0.28c0.94-0.04,1.85-0.12,2.81-0.25c0.2-0.01,0.39-0.07,0.56-0.18
	c0.11-0.12,0.2-0.27,0.26-0.43c0.05-0.16,0.07-0.33,0.06-0.5c0.07-0.94,0.03-1.88-0.12-2.81c-0.15-0.94-0.63-1.79-1.35-2.4
	c-0.71-0.56-2.89-2.21-3.71-1.15c-0.22,0.28-0.13,0.68-0.44,0.91c-0.31,0.23-0.77,0.1-1.13,0.15
	C285.08,346.7,284.32,347.06,283.7,347.6z"/>
<path class="st14" d="M294.22,281.5c-2.79,8.05-5.5,16.38-5.29,24.93c0.14,5.17,1.24,10.87-1.74,15.11c-0.42,0.51-0.76,1.08-1,1.7
	c-0.24,0.83,0,1.71,0.15,2.56c0.56,3.72-1.44,7.35-1.58,11.1c-0.01,1.16,0.06,2.31,0.22,3.46l0.77,6.62
	c0.26,2.27,3.18,3.2,5.43,3.51c1.06-1.27,1.72-2.81,1.91-4.45c0.19-1.24,0.22-2.52,0.3-3.78c0.19-3.22,0.66-6.42,1.11-9.61
	l0.62-4.11c0.2-1.35,0.39-2.7,0.62-4.05c1.15-7.29,2.94-14.47,5.34-21.45c0.52-1.5,1.42-3.26,3-3.3l0.95,1.82
	c1.24,2.31,1.99,4.89,2.93,7.32c1.24,3.2,0.81,6.93,2.47,9.95c0.27,0.5,0.62,0.97,0.82,1.49c0.29,0.8,0.46,1.63,0.51,2.48
	l1.09,11.08c0.5,4.99,1.02,10.11,3.27,14.59c0.22,0.53,0.58,1,1.03,1.36c0.92,0.62,2.2,0.3,3.09-0.34c0.71-0.52,1.28-1.21,1.65-2.01
	c0.37-0.8,0.54-1.68,0.49-2.56c-0.07-0.49-0.09-0.98-0.06-1.47c0.13-0.49,0.3-0.98,0.51-1.44c0.72-2.18-0.8-4.4-1.34-6.63
	c-0.71-2.97,0.35-6.08,0.16-9.14c-0.3-4.79-3.64-9.29-2.76-14.01c0.71-3.77,0.11-7.65-0.56-11.43l-2.5-14.06
	c-0.4-2.22-0.99-4.72-2.96-5.8c-1.13-0.51-2.37-0.72-3.61-0.62C304.14,280.32,299.26,281.03,294.22,281.5z"/>
<path class="st15" d="M338.87,247.23c-1.8,0.18-3.61-0.19-5.2-1.08c-0.6-0.4-1.24-0.74-1.91-1c-1.24-0.4-2.6-0.05-3.9,0.14
	c-2.13,0.31-4.31,0.16-6.38-0.43c-2.17-0.62-4.33-1.74-6.56-1.24c-1.04,0.23-1.99,0.81-3.05,0.97c-0.83,0.08-1.66,0.04-2.47-0.13
	l-7.05-1.1c-1.59-0.32-3.22-0.44-4.84-0.35c-1.23,0.23-2.47,0.38-3.71,0.46c-1.31,0-2.59-0.5-3.9-0.41
	c-0.77,0.09-1.53,0.26-2.26,0.51c-3.39,0.99-6.9,1.46-10.43,1.39c-2.81,0.19-5.53,1.13-7.85,2.73c-0.16,0.09-0.3,0.21-0.41,0.36
	c-0.11,0.15-0.18,0.32-0.21,0.5c0.02,0.17,0.07,0.33,0.16,0.48c0.08,0.15,0.2,0.27,0.33,0.38c0.94,0.95,1.94,1.93,3.21,2.34
	c0.79,0.19,1.59,0.32,2.4,0.41c1.95,0.36,3.75,1.48,5.73,1.48c1.37,0,2.71-0.55,4.06-0.35c1.86,0.25,3.18,1.75,4.33,3.21
	c0.96,1.14,1.69,2.47,2.13,3.89c0.43,1.72,0.16,3.65,1.08,5.17c0.23,0.31,0.41,0.65,0.53,1.02c0.02,0.58-0.11,1.16-0.38,1.68
	c-0.78,2.38,0.93,4.9,0.75,7.43c-0.09,1.2-0.62,2.34-0.67,3.53c-0.09,1.55,0.54,3.28-0.33,4.57c3.34-1.69,7.05-2.5,10.79-2.36
	c0.62,0.01,1.24,0.07,1.85,0.17c1.19,0.24,2.37,0.57,3.51,0.98c2.58,0.82,5.43,1.41,7.98,0.47c0.62-1.5,0.51-3.17,0.32-4.77
	c-0.19-1.61-0.59-3.2-0.83-4.8c-0.19-1.29-0.3-2.59-0.32-3.89c-0.07-1.28,0.02-2.57,0.27-3.83c0.28-1.11,0.67-2.19,1.16-3.22
	c1.19-3.01,2.64-5.91,4.33-8.67c2.54-0.2,4.99-0.42,7.53-0.62c0.61-0.03,1.21-0.12,1.8-0.24c0.76-0.26,1.52-0.48,2.3-0.66
	c0.29-0.02,0.58-0.07,0.85-0.17c0.56-0.26,0.9-0.96,1.51-0.98c0.23,0.03,0.46,0.03,0.69,0c0.27-0.08,0.4-0.38,0.62-0.62
	c0.38-0.43,1.01-0.51,1.51-0.79c0.42-0.26,0.74-0.66,0.91-1.13C339.03,248.21,339.03,247.7,338.87,247.23z"/>
<path class="st14" d="M307.88,235.6c0.2,0.16,0.44,0.25,0.69,0.26c0.25,0.01,0.5-0.05,0.71-0.18c0.27-0.25,0.45-0.59,0.52-0.95
	c0.22-0.77,0.4-1.56,0.54-2.35c0.04-0.35,0.14-0.68,0.31-0.98c0.45-0.69,1.43-0.73,2.19-1.05c0.94-0.51,1.72-1.27,2.24-2.21
	l-0.43-0.09l0.4-0.62c-0.1-0.06-0.18-0.14-0.24-0.23c-0.06-0.09-0.1-0.2-0.11-0.31c-0.01-0.11,0-0.22,0.04-0.33
	c0.04-0.1,0.1-0.2,0.19-0.27c-0.36-0.19-0.77-0.28-1.17-0.27c0.13-0.24-0.08-0.53-0.33-0.62c-0.26-0.06-0.53-0.07-0.8-0.04
	c-0.4-0.03-0.78-0.12-1.15-0.27c-2.63-0.9-5.49-1.7-8.18-0.94c-1.19,0.37-2.29,0.95-3.27,1.72c-0.95,0.53-1.65,1.4-1.97,2.44
	c-0.32,1.04-0.24,2.16,0.24,3.13c0.4,1.01,0.7,2.06,0.87,3.13c0.04,1.01-0.07,2.01-0.33,2.99c0.73,0.24,1.49,0.38,2.26,0.44
	c0.77,0.06,1.54-0.16,2.17-0.62c0.62-0.53,0.96-1.36,1.47-2.03c0.19-0.29,0.46-0.54,0.77-0.7c0.31-0.16,0.66-0.25,1.01-0.24
	C307.2,234.51,307.33,235.21,307.88,235.6z"/>
<path class="st14" d="M289.99,352.59h-7.24c-0.21,0.04-0.41,0.16-0.55,0.33c-0.14,0.17-0.21,0.38-0.21,0.6
	c0,0.22,0.08,0.43,0.21,0.6c0.14,0.17,0.33,0.29,0.55,0.33h1.45v12.31h-24.78c-0.06-0.1-0.14-0.18-0.23-0.24
	c-0.1-0.06-0.2-0.09-0.32-0.1h-7.24c-0.21,0.04-0.41,0.16-0.55,0.33c-0.14,0.17-0.21,0.38-0.21,0.6c0,0.22,0.08,0.43,0.21,0.6
	c0.14,0.17,0.33,0.29,0.55,0.33h1.45v12.64h-23.93c-0.02-0.17-0.1-0.33-0.22-0.45c-0.12-0.12-0.28-0.2-0.46-0.22h-7.23
	c-0.22,0.04-0.42,0.15-0.56,0.32c-0.14,0.17-0.22,0.39-0.22,0.61c0,0.22,0.08,0.44,0.22,0.61c0.14,0.17,0.34,0.28,0.56,0.32h0.72
	v13.01h-24.32c-0.09-0.05-0.19-0.08-0.3-0.08h-7.24c-0.21,0.04-0.41,0.16-0.55,0.33c-0.14,0.17-0.21,0.38-0.21,0.6
	c0,0.22,0.08,0.43,0.21,0.6c0.14,0.17,0.33,0.29,0.55,0.33h0.72v12.39h-24.02c-0.05-0.12-0.14-0.23-0.25-0.3
	c-0.11-0.07-0.24-0.12-0.37-0.12h-7.24c-0.21,0.04-0.41,0.16-0.55,0.33c-0.14,0.17-0.21,0.38-0.21,0.6c0,0.22,0.08,0.43,0.21,0.6
	c0.14,0.17,0.33,0.29,0.55,0.33h0.72v13.72h163.6v-71.85H289.99z"/>
<path class="st0" d="M56.89,114.92c-0.71-0.95-1.52-1.81-2.42-2.59c-0.24-0.21-0.43-0.48-0.56-0.77c-0.12-0.3-0.18-0.62-0.15-0.94
	c0.02-0.32,0.12-0.63,0.28-0.91c0.16-0.28,0.39-0.51,0.66-0.69c0.3-0.19,0.59-0.4,0.88-0.62c3.38-2.57,5.08-6.02,3.8-7.71
	c-1.28-1.69-5.06-0.97-8.44,1.6c-0.39,0.29-0.76,0.6-1.12,0.94c-0.24,0.21-0.52,0.37-0.83,0.46s-0.63,0.1-0.94,0.04
	c-0.31-0.06-0.61-0.19-0.86-0.38c-0.25-0.19-0.46-0.44-0.6-0.73c-0.47-0.93-1.03-1.82-1.66-2.65c-3.01-3.96-7.04-5.97-9.01-4.47
	c-1.97,1.5-1.14,5.93,1.86,9.91c0.59,0.78,1.24,1.5,1.95,2.17c0.23,0.23,0.41,0.51,0.52,0.82c0.11,0.31,0.14,0.64,0.09,0.97
	c-0.04,0.32-0.16,0.64-0.35,0.9c-0.19,0.27-0.43,0.49-0.72,0.65c-3.71,2.12-5.81,5.33-4.76,7.17c1.05,1.84,4.9,1.61,8.58-0.51
	c0.57-0.33,1.12-0.7,1.65-1.1c0.25-0.19,0.53-0.32,0.84-0.38c0.3-0.06,0.62-0.06,0.92,0.01c0.3,0.07,0.58,0.21,0.83,0.41
	c0.24,0.2,0.44,0.45,0.57,0.73c0.5,1.1,1.12,2.14,1.86,3.1c3,3.96,7.04,5.96,9.01,4.47C60.71,123.3,59.89,118.89,56.89,114.92z"/>
<path class="st0" d="M494.96,221.96c0.7-0.96,1.29-1.98,1.78-3.07c0.13-0.29,0.33-0.55,0.57-0.76c0.25-0.2,0.54-0.35,0.85-0.42
	c0.31-0.07,0.64-0.07,0.95,0c0.31,0.08,0.6,0.22,0.85,0.43c0.27,0.22,0.56,0.44,0.85,0.66c3.44,2.48,7.24,3.1,8.47,1.39
	c1.24-1.7-0.54-5.13-3.98-7.62c-0.41-0.29-0.83-0.56-1.24-0.8c-0.27-0.17-0.51-0.39-0.68-0.66c-0.17-0.27-0.28-0.58-0.31-0.9
	c-0.03-0.32,0.01-0.64,0.12-0.94c0.11-0.3,0.29-0.57,0.52-0.79c0.75-0.72,1.44-1.52,2.04-2.37c2.91-4.03,3.64-8.48,1.64-9.91
	c-2-1.43-6,0.62-8.91,4.68c-0.57,0.78-1.07,1.61-1.5,2.48c-0.15,0.29-0.37,0.54-0.63,0.74c-0.26,0.19-0.57,0.32-0.89,0.37
	c-0.32,0.05-0.65,0.03-0.97-0.07c-0.31-0.1-0.6-0.27-0.83-0.5c-3.09-2.91-6.8-4.01-8.23-2.48c-1.43,1.53-0.11,5.16,2.99,8.05
	c0.48,0.45,0.99,0.86,1.53,1.24c0.25,0.18,0.46,0.42,0.61,0.69c0.15,0.27,0.24,0.58,0.25,0.89c0.02,0.31-0.04,0.62-0.15,0.91
	c-0.12,0.29-0.3,0.55-0.53,0.76c-0.91,0.82-1.72,1.73-2.43,2.72c-2.91,4.03-3.64,8.48-1.63,9.91
	C488.08,228.03,492.05,226,494.96,221.96z"/>
<path class="st15" d="M498.13,431.06c11.54,0,20.9-1.8,20.9-4.03c0-2.22-9.36-4.03-20.9-4.03c-11.55,0-20.9,1.8-20.9,4.03
	C477.22,429.26,486.58,431.06,498.13,431.06z"/>
<path class="st14" d="M497.78,428.52c1.35,0,2.44-1.43,2.44-3.19c0-1.76-1.09-3.19-2.44-3.19c-1.35,0-2.44,1.43-2.44,3.19
	C495.34,427.09,496.43,428.52,497.78,428.52z"/>
<path class="st14" d="M497.78,424.62c1.35,0,2.44-1.43,2.44-3.19s-1.09-3.19-2.44-3.19c-1.35,0-2.44,1.43-2.44,3.19
	S496.43,424.62,497.78,424.62z"/>
<path class="st14" d="M497.78,420.72c1.35,0,2.44-1.43,2.44-3.19c0-1.76-1.09-3.19-2.44-3.19c-1.35,0-2.44,1.43-2.44,3.19
	C495.34,419.29,496.43,420.72,497.78,420.72z"/>
<path class="st14" d="M497.78,416.82c1.35,0,2.44-1.43,2.44-3.19c0-1.76-1.09-3.19-2.44-3.19c-1.35,0-2.44,1.43-2.44,3.19
	C495.34,415.39,496.43,416.82,497.78,416.82z"/>
<path class="st14" d="M497.78,412.91c1.35,0,2.44-1.43,2.44-3.19c0-1.76-1.09-3.19-2.44-3.19c-1.35,0-2.44,1.43-2.44,3.19
	C495.34,411.49,496.43,412.91,497.78,412.91z"/>
<path class="st14" d="M497.78,409.02c1.35,0,2.44-1.43,2.44-3.19s-1.09-3.19-2.44-3.19c-1.35,0-2.44,1.43-2.44,3.19
	S496.43,409.02,497.78,409.02z"/>
<path class="st14" d="M497.78,405.12c1.35,0,2.44-1.43,2.44-3.19c0-1.76-1.09-3.19-2.44-3.19c-1.35,0-2.44,1.43-2.44,3.19
	C495.34,403.69,496.43,405.12,497.78,405.12z"/>
<path class="st15" d="M506.89,375.24c0.33-0.43,0.63-0.87,0.9-1.34l-6.39-1.05l6.91,0.06c0.67-1.45,1.03-3.01,1.07-4.6
	c0.04-1.59-0.25-3.17-0.84-4.65l-9.28,4.82l8.56-6.3c-0.81-1.38-1.89-2.58-3.17-3.53c-1.29-0.95-2.75-1.62-4.31-1.97
	c-1.56-0.35-3.17-0.38-4.74-0.09c-1.57,0.3-3.06,0.91-4.38,1.81c-1.32,0.9-2.45,2.06-3.3,3.41c-0.86,1.35-1.43,2.86-1.67,4.44
	c-0.25,1.58-0.17,3.19,0.23,4.74c0.4,1.55,1.11,3,2.1,4.26c-0.52,0.66-0.96,1.38-1.33,2.13l8.31,4.34l-8.86-2.97
	c-0.62,1.84-0.78,3.8-0.46,5.72c0.32,1.91,1.12,3.72,2.31,5.25c-1.35,1.72-2.19,3.79-2.43,5.97c-0.23,2.18,0.15,4.38,1.11,6.35
	s2.45,3.63,4.3,4.79c1.85,1.16,4,1.78,6.19,1.78c2.19,0,4.33-0.62,6.18-1.78c1.85-1.16,3.34-2.82,4.3-4.79
	c0.96-1.97,1.34-4.17,1.11-6.35c-0.23-2.18-1.07-4.25-2.43-5.97c1.61-2.06,2.49-4.6,2.49-7.22c0-2.62-0.88-5.16-2.49-7.22
	L506.89,375.24z"/>
<path class="st4" d="M486.07,382.45c-0.01,2.62,0.86,5.16,2.47,7.22c-1.35,1.72-2.19,3.79-2.43,5.97c-0.23,2.18,0.15,4.38,1.11,6.35
	c0.96,1.97,2.45,3.63,4.3,4.79c1.85,1.16,4,1.78,6.19,1.78c2.19,0,4.33-0.62,6.18-1.78c1.85-1.16,3.34-2.82,4.3-4.79
	c0.96-1.97,1.34-4.17,1.11-6.35c-0.23-2.18-1.07-4.25-2.43-5.97C508.45,387.69,486.07,381.14,486.07,382.45z"/>
<path class="st15" d="M117.15,429.82c5.23,0,9.46-0.82,9.46-1.82c0-1.01-4.24-1.82-9.46-1.82c-5.23,0-9.46,0.82-9.46,1.82
	C107.69,429,111.92,429.82,117.15,429.82z"/>
<path class="st14" d="M117,428.67c0.61,0,1.1-0.65,1.1-1.44c0-0.8-0.49-1.44-1.1-1.44c-0.61,0-1.1,0.65-1.1,1.44
	C115.89,428.02,116.39,428.67,117,428.67z"/>
<path class="st14" d="M117,426.9c0.61,0,1.1-0.65,1.1-1.44s-0.49-1.44-1.1-1.44c-0.61,0-1.1,0.65-1.1,1.44S116.39,426.9,117,426.9z"
	/>
<path class="st14" d="M117,425.14c0.61,0,1.1-0.65,1.1-1.44s-0.49-1.44-1.1-1.44c-0.61,0-1.1,0.65-1.1,1.44
	S116.39,425.14,117,425.14z"/>
<path class="st14" d="M117,423.37c0.61,0,1.1-0.65,1.1-1.44c0-0.8-0.49-1.44-1.1-1.44c-0.61,0-1.1,0.65-1.1,1.44
	C115.89,422.72,116.39,423.37,117,423.37z"/>
<path class="st14" d="M117,421.61c0.61,0,1.1-0.65,1.1-1.44c0-0.8-0.49-1.44-1.1-1.44c-0.61,0-1.1,0.65-1.1,1.44
	C115.89,420.96,116.39,421.61,117,421.61z"/>
<path class="st14" d="M117,419.84c0.61,0,1.1-0.65,1.1-1.44c0-0.8-0.49-1.44-1.1-1.44c-0.61,0-1.1,0.65-1.1,1.44
	C115.89,419.19,116.39,419.84,117,419.84z"/>
<path class="st14" d="M117,418.07c0.61,0,1.1-0.65,1.1-1.44s-0.49-1.44-1.1-1.44c-0.61,0-1.1,0.65-1.1,1.44
	S116.39,418.07,117,418.07z"/>
<path class="st15" d="M121.11,404.55c0.15-0.2,0.29-0.4,0.41-0.62l-2.89-0.48h3.13c0.32-0.69,0.48-1.45,0.48-2.21
	c0-0.68-0.13-1.35-0.38-1.98l-4.2,2.18l3.87-2.85c-0.37-0.62-0.85-1.17-1.44-1.6c-0.58-0.43-1.25-0.73-1.95-0.89
	c-0.7-0.16-1.44-0.17-2.15-0.04c-0.71,0.13-1.39,0.41-1.98,0.82c-0.6,0.41-1.11,0.93-1.49,1.54c-0.39,0.61-0.64,1.29-0.76,2.01
	c-0.11,0.72-0.08,1.45,0.1,2.15c0.18,0.7,0.51,1.36,0.95,1.93c-0.24,0.3-0.45,0.62-0.62,0.96l3.75,1.96l-4.01-1.35
	c-0.28,0.83-0.35,1.72-0.2,2.59c0.15,0.87,0.51,1.68,1.05,2.37c-0.61,0.78-1,1.72-1.1,2.71c-0.11,0.99,0.06,1.98,0.5,2.88
	c0.43,0.89,1.11,1.65,1.95,2.17c0.84,0.53,1.81,0.81,2.8,0.81c0.99,0,1.96-0.28,2.8-0.81c0.84-0.53,1.52-1.28,1.95-2.17
	c0.43-0.89,0.6-1.89,0.5-2.88c-0.11-0.99-0.49-1.93-1.1-2.71c0.73-0.93,1.13-2.08,1.13-3.27c0-1.19-0.4-2.34-1.13-3.27
	L121.11,404.55z"/>
<path class="st4" d="M111.69,407.81c0,1.19,0.4,2.34,1.13,3.27c-0.61,0.78-1,1.72-1.1,2.7c-0.11,0.99,0.06,1.99,0.5,2.88
	c0.43,0.89,1.11,1.65,1.95,2.17c0.84,0.53,1.81,0.81,2.8,0.81c0.99,0,1.96-0.28,2.8-0.81c0.84-0.53,1.52-1.28,1.95-2.17
	c0.43-0.89,0.61-1.89,0.5-2.88c-0.11-0.99-0.49-1.92-1.1-2.7C121.83,410.2,111.69,407.22,111.69,407.81z"/>
</svg>
