<?xml version="1.0" encoding="utf-8"?>
<!-- Generator: Adobe Illustrator 25.0.0, SVG Export Plug-In . SVG Version: 6.00 Build 0)  -->
<svg version="1.1" id="Layer_1" xmlns="http://www.w3.org/2000/svg" xmlns:xlink="http://www.w3.org/1999/xlink" x="0px" y="0px"
	 viewBox="0 0 551 437" style="enable-background:new 0 0 551 437;" xml:space="preserve">
<style type="text/css">
	.st0{opacity:0.1;fill:#575DA7;enable-background:new    ;}
	.st1{fill:#D0D2D5;}
	.st2{opacity:0.1;fill:#010202;enable-background:new    ;}
	.st3{fill:#444053;}
	.st4{fill:#575DA7;}
	.st5{fill:#FFFFFF;}
	.st6{opacity:0.3;fill:#575DA7;enable-background:new    ;}
	.st7{opacity:0.2;fill:#403D56;enable-background:new    ;}
	.st8{fill:#EE8E9E;}
	.st9{fill:#454B69;}
	.st10{opacity:0.1;}
	.st11{opacity:0.6;fill:#444053;enable-background:new    ;}
	.st12{fill:#403D56;}
	.st13{fill:url(#SVGID_1_);}
	.st14{fill:#A26565;}
	.st15{fill:#F0B7B9;}
</style>
<path class="st0" d="M301.95,65.56c-38.01-1.32-74.22-13.62-108.79-27.06C158.59,25.06,124.34,10.16,87.25,3.04
	c-23.87-4.58-51.16-5.22-70.38,7.58C-1.64,22.95-7.62,44.25-10.83,63.98c-2.42,14.86-3.84,30.48,2.78,44.41
	c4.6,9.65,12.77,17.77,18.42,27.02c19.65,32.19,5.77,71.88-15.54,103.3c-9.97,14.74-21.58,28.81-29.29,44.5
	c-7.71,15.7-11.28,33.67-4.53,49.68c6.69,15.87,22.62,27.79,39.88,36.17c35.06,17.03,76.37,21.9,116.65,24.66
	c89.18,6.08,178.83,3.46,268.24,0.83c33.09-0.98,66.32-1.98,98.88-7.1c18.07-2.84,36.73-7.36,49.85-18.26
	c16.66-13.84,20.79-37.28,9.62-54.65c-18.72-29.11-70.5-36.34-83.58-67.58c-7.2-17.19,0.19-36.35,10.66-52.3
	c22.46-34.21,60.1-64.22,62.09-103.33c1.36-26.86-16.73-53.76-44.71-66.46c-29.33-13.32-70-11.64-91.64,10.4
	C374.67,57.99,335.51,66.73,301.95,65.56z"/>
<path class="st1" d="M305.96,397.24l-102.32-1.31l0.3-2.63l4.95-43.35h89.86l6.61,43.35l0.5,3.28L305.96,397.24z"/>
<path class="st2" d="M305.86,396.58H254.8l-51.16-0.66l0.3-2.63h101.42L305.86,396.58z"/>
<path class="st1" d="M322.36,393.95H186.58v3.28h135.78V393.95z"/>
<path class="st3" d="M451.9,89.56c0.01-1.12-0.21-2.24-0.63-3.28c-0.42-1.04-1.05-1.98-1.84-2.78c-0.79-0.8-1.73-1.43-2.76-1.87
	c-1.03-0.43-2.14-0.66-3.26-0.67H64.22c-1.12,0-2.23,0.23-3.26,0.67c-1.03,0.43-1.97,1.07-2.76,1.87c-0.79,0.8-1.41,1.74-1.84,2.78
	c-0.42,1.04-0.64,2.15-0.63,3.28v230.16H451.9V89.56z"/>
<path class="st1" d="M55.72,317.43v26.96c0,2.26,0.9,4.42,2.49,6.02c1.59,1.6,3.76,2.49,6.01,2.49H443.4c2.25,0,4.41-0.9,6.01-2.49
	c1.59-1.6,2.49-3.76,2.49-6.02v-26.96H55.72z"/>
<path class="st0" d="M437.47,95.42H72.12v206.91h365.35V95.42z"/>
<path class="st4" d="M255.78,342.67c1.34,0,2.67-0.3,3.87-0.89c1.21-0.59,2.27-1.44,3.1-2.49c0.25-0.32,0.48-0.66,0.69-1.01
	l-4.86-0.8l5.25,0.04c0.51-1.1,0.78-2.29,0.81-3.5c0.03-1.21-0.19-2.41-0.64-3.53l-7.05,3.68l6.5-4.78
	c-0.61-1.05-1.43-1.96-2.41-2.68c-0.98-0.72-2.09-1.23-3.28-1.5c-1.18-0.27-2.41-0.29-3.6-0.07c-1.19,0.22-2.32,0.69-3.33,1.37
	c-1,0.68-1.86,1.56-2.51,2.59c-0.65,1.03-1.08,2.17-1.27,3.37c-0.19,1.2-0.13,2.43,0.18,3.6c0.3,1.18,0.85,2.28,1.59,3.23
	c0.83,1.05,1.89,1.9,3.09,2.48C253.12,342.37,254.44,342.67,255.78,342.67z"/>
<path class="st2" d="M264.64,352.9l40.82,41.05l-6.26-41.05H264.64z"/>
<path class="st5" d="M321.29,132.75H84.22c-0.75,0-1.36,0.61-1.36,1.37v141.25c0,0.75,0.61,1.37,1.36,1.37h237.08
	c0.75,0,1.36-0.61,1.36-1.37V134.12C322.66,133.36,322.05,132.75,321.29,132.75z"/>
<path class="st5" d="M437.57,95.44H72.36v12.09h365.22V95.44z"/>
<path class="st4" d="M84.02,97.54h-9.68c-0.23,0-0.41,0.18-0.41,0.41v6.54c0,0.23,0.18,0.41,0.41,0.41h9.68
	c0.23,0,0.41-0.18,0.41-0.41v-6.54C84.43,97.73,84.24,97.54,84.02,97.54z"/>
<path class="st6" d="M308.71,97.54H199.12c-0.17,0-0.3,0.14-0.3,0.3v6.75c0,0.17,0.14,0.3,0.3,0.3h109.58c0.17,0,0.3-0.14,0.3-0.3
	v-6.75C309.01,97.68,308.88,97.54,308.71,97.54z"/>
<path class="st3" d="M305.74,101.98h-0.27l-0.1-0.08c0.34-0.4,0.52-0.91,0.52-1.43c0-0.43-0.13-0.85-0.37-1.2
	c-0.24-0.36-0.58-0.63-0.98-0.79c-0.4-0.16-0.83-0.2-1.25-0.12c-0.42,0.09-0.81,0.3-1.11,0.6c-0.3,0.31-0.51,0.69-0.59,1.12
	c-0.08,0.42-0.04,0.86,0.13,1.26c0.17,0.4,0.44,0.73,0.8,0.97c0.36,0.24,0.78,0.36,1.21,0.36c0.52,0,1.03-0.19,1.43-0.52l0.1,0.08
	v0.27l1.68,1.68l0.52-0.53L305.74,101.98z M303.73,101.98c-0.3,0-0.59-0.09-0.84-0.25c-0.25-0.17-0.45-0.4-0.56-0.68
	c-0.12-0.28-0.15-0.58-0.09-0.88c0.06-0.3,0.2-0.57,0.42-0.78c0.21-0.21,0.48-0.36,0.78-0.42c0.29-0.06,0.6-0.03,0.88,0.09
	c0.28,0.12,0.51,0.31,0.68,0.56c0.17,0.25,0.25,0.54,0.25,0.85c0,0.2-0.04,0.4-0.11,0.58c-0.08,0.18-0.19,0.35-0.33,0.49
	c-0.14,0.14-0.31,0.25-0.49,0.33C304.13,101.94,303.93,101.98,303.73,101.98z"/>
<path class="st4" d="M432.33,104.9c2.03,0,3.67-1.65,3.67-3.68c0-2.03-1.64-3.68-3.67-3.68c-2.03,0-3.67,1.65-3.67,3.68
	C428.65,103.25,430.3,104.9,432.33,104.9z"/>
<path class="st5" d="M372.81,120.66h-31.56c-0.7,0-1.27,0.57-1.27,1.28v20.57c0,0.7,0.57,1.28,1.27,1.28h31.56
	c0.7,0,1.27-0.57,1.27-1.28v-20.57C374.08,121.24,373.51,120.66,372.81,120.66z"/>
<path class="st5" d="M426.76,120.66h-43.44c-0.18,0-0.32,0.14-0.32,0.32v3.04c0,0.18,0.14,0.32,0.32,0.32h43.44
	c0.18,0,0.32-0.14,0.32-0.32v-3.04C427.08,120.81,426.94,120.66,426.76,120.66z"/>
<path class="st5" d="M426.76,128.55h-43.44c-0.18,0-0.32,0.14-0.32,0.32v3.04c0,0.18,0.14,0.32,0.32,0.32h43.44
	c0.18,0,0.32-0.14,0.32-0.32v-3.04C427.08,128.69,426.94,128.55,426.76,128.55z"/>
<path class="st5" d="M426.76,136.43h-43.44c-0.18,0-0.32,0.14-0.32,0.32v3.04c0,0.18,0.14,0.32,0.32,0.32h43.44
	c0.18,0,0.32-0.14,0.32-0.32v-3.04C427.08,136.57,426.94,136.43,426.76,136.43z"/>
<path class="st5" d="M372.81,156.92h-31.56c-0.7,0-1.27,0.57-1.27,1.28v20.57c0,0.7,0.57,1.28,1.27,1.28h31.56
	c0.7,0,1.27-0.57,1.27-1.28V158.2C374.08,157.49,373.51,156.92,372.81,156.92z"/>
<path class="st5" d="M426.76,156.92h-43.44c-0.18,0-0.32,0.14-0.32,0.32v3.04c0,0.18,0.14,0.32,0.32,0.32h43.44
	c0.18,0,0.32-0.14,0.32-0.32v-3.04C427.08,157.07,426.94,156.92,426.76,156.92z"/>
<path class="st5" d="M426.76,164.8h-43.44c-0.18,0-0.32,0.14-0.32,0.32v3.04c0,0.18,0.14,0.32,0.32,0.32h43.44
	c0.18,0,0.32-0.14,0.32-0.32v-3.04C427.08,164.95,426.94,164.8,426.76,164.8z"/>
<path class="st5" d="M426.73,172.69h-43.39c-0.19,0-0.35,0.16-0.35,0.35v2.98c0,0.19,0.15,0.35,0.35,0.35h43.39
	c0.19,0,0.35-0.15,0.35-0.35v-2.98C427.08,172.84,426.92,172.69,426.73,172.69z"/>
<path class="st5" d="M372.81,193.18h-31.56c-0.7,0-1.27,0.57-1.27,1.28v20.57c0,0.71,0.57,1.28,1.27,1.28h31.56
	c0.7,0,1.27-0.57,1.27-1.28v-20.57C374.08,193.75,373.51,193.18,372.81,193.18z"/>
<path class="st5" d="M426.73,193.18h-43.39c-0.19,0-0.35,0.15-0.35,0.35v2.98c0,0.19,0.15,0.35,0.35,0.35h43.39
	c0.19,0,0.35-0.15,0.35-0.35v-2.98C427.08,193.34,426.92,193.18,426.73,193.18z"/>
<path class="st5" d="M426.73,201.06h-43.39c-0.19,0-0.35,0.16-0.35,0.35v2.98c0,0.19,0.15,0.35,0.35,0.35h43.39
	c0.19,0,0.35-0.15,0.35-0.35v-2.98C427.08,201.22,426.92,201.06,426.73,201.06z"/>
<path class="st5" d="M426.73,208.94h-43.39c-0.19,0-0.35,0.15-0.35,0.35v2.98c0,0.19,0.15,0.35,0.35,0.35h43.39
	c0.19,0,0.35-0.16,0.35-0.35v-2.98C427.08,209.1,426.92,208.94,426.73,208.94z"/>
<path class="st5" d="M372.81,229.44h-31.56c-0.7,0-1.27,0.57-1.27,1.28v20.57c0,0.7,0.57,1.28,1.27,1.28h31.56
	c0.7,0,1.27-0.57,1.27-1.28v-20.57C374.08,230.01,373.51,229.44,372.81,229.44z"/>
<path class="st5" d="M426.73,229.44h-43.39c-0.19,0-0.35,0.16-0.35,0.35v2.98c0,0.19,0.15,0.35,0.35,0.35h43.39
	c0.19,0,0.35-0.15,0.35-0.35v-2.98C427.08,229.59,426.92,229.44,426.73,229.44z"/>
<path class="st5" d="M426.73,237.32h-43.39c-0.19,0-0.35,0.15-0.35,0.35v2.98c0,0.19,0.15,0.35,0.35,0.35h43.39
	c0.19,0,0.35-0.16,0.35-0.35v-2.98C427.08,237.47,426.92,237.32,426.73,237.32z"/>
<path class="st5" d="M426.73,245.2h-43.39c-0.19,0-0.35,0.15-0.35,0.35v2.98c0,0.19,0.15,0.35,0.35,0.35h43.39
	c0.19,0,0.35-0.15,0.35-0.35v-2.98C427.08,245.36,426.92,245.2,426.73,245.2z"/>
<path class="st5" d="M372.81,265.7h-31.56c-0.7,0-1.27,0.57-1.27,1.28v20.57c0,0.7,0.57,1.28,1.27,1.28h31.56
	c0.7,0,1.27-0.57,1.27-1.28v-20.57C374.08,266.27,373.51,265.7,372.81,265.7z"/>
<path class="st5" d="M426.73,265.7h-43.39c-0.19,0-0.35,0.15-0.35,0.35v2.98c0,0.19,0.15,0.35,0.35,0.35h43.39
	c0.19,0,0.35-0.16,0.35-0.35v-2.98C427.08,265.85,426.92,265.7,426.73,265.7z"/>
<path class="st5" d="M426.73,273.58h-43.39c-0.19,0-0.35,0.15-0.35,0.35v2.98c0,0.19,0.15,0.35,0.35,0.35h43.39
	c0.19,0,0.35-0.15,0.35-0.35v-2.98C427.08,273.73,426.92,273.58,426.73,273.58z"/>
<path class="st5" d="M426.73,281.46h-43.39c-0.19,0-0.35,0.15-0.35,0.35v2.98c0,0.19,0.15,0.35,0.35,0.35h43.39
	c0.19,0,0.35-0.15,0.35-0.35v-2.98C427.08,281.62,426.92,281.46,426.73,281.46z"/>
<path class="st0" d="M171.4,170.91h-53.96v2.8h53.96V170.91z"/>
<path class="st0" d="M127.43,156.1h-5.19v14.81h5.19V156.1z"/>
<path class="st0" d="M135.03,156.1h-5.19v14.81h5.19V156.1z"/>
<path class="st0" d="M142.62,156.1h-5.19v14.81h5.19V156.1z"/>
<path class="st0" d="M150.21,156.1h-5.19v14.81h5.19V156.1z"/>
<path class="st0" d="M157.81,156.1h-5.2v14.81h5.2V156.1z"/>
<path class="st0" d="M165.4,156.1h-5.19v14.81h5.19V156.1z"/>
<path class="st0" d="M127.43,158.9h-5.19v1.6h5.19V158.9z"/>
<path class="st0" d="M135.03,158.9h-5.19v1.6h5.19V158.9z"/>
<path class="st0" d="M142.62,158.9h-5.19v1.6h5.19V158.9z"/>
<path class="st0" d="M150.21,158.9h-5.19v1.6h5.19V158.9z"/>
<path class="st0" d="M157.81,158.9h-5.2v1.6h5.2V158.9z"/>
<path class="st0" d="M165.4,158.9h-5.19v1.6h5.19V158.9z"/>
<path class="st0" d="M127.43,166.1h-5.19v1.6h5.19V166.1z"/>
<path class="st0" d="M135.03,166.1h-5.19v1.6h5.19V166.1z"/>
<path class="st0" d="M142.62,166.1h-5.19v1.6h5.19V166.1z"/>
<path class="st0" d="M150.21,166.1h-5.19v1.6h5.19V166.1z"/>
<path class="st0" d="M157.81,166.1h-5.2v1.6h5.2V166.1z"/>
<path class="st0" d="M165.4,166.1h-5.19v1.6h5.19V166.1z"/>
<path class="st0" d="M289.7,178.11h-53.96v2.8h53.96V178.11z"/>
<path class="st0" d="M245.74,163.3h-5.2v14.81h5.2V163.3z"/>
<path class="st0" d="M253.33,163.3h-5.19v14.81h5.19V163.3z"/>
<path class="st0" d="M260.92,163.3h-5.19v14.81h5.19V163.3z"/>
<path class="st0" d="M268.52,163.3h-5.2v14.81h5.2V163.3z"/>
<path class="st0" d="M276.11,163.3h-5.19v14.81h5.19V163.3z"/>
<path class="st0" d="M283.71,163.3h-5.2v14.81h5.2V163.3z"/>
<path class="st0" d="M245.74,166.1h-5.2v1.6h5.2V166.1z"/>
<path class="st0" d="M253.33,166.1h-5.19v1.6h5.19V166.1z"/>
<path class="st0" d="M260.92,166.1h-5.19v1.6h5.19V166.1z"/>
<path class="st0" d="M268.52,166.1h-5.2v1.6h5.2V166.1z"/>
<path class="st0" d="M276.11,166.1h-5.19v1.6h5.19V166.1z"/>
<path class="st0" d="M283.71,166.1h-5.2v1.6h5.2V166.1z"/>
<path class="st0" d="M245.74,173.31h-5.2v1.6h5.2V173.31z"/>
<path class="st0" d="M253.33,173.31h-5.19v1.6h5.19V173.31z"/>
<path class="st0" d="M260.92,173.31h-5.19v1.6h5.19V173.31z"/>
<path class="st0" d="M268.52,173.31h-5.2v1.6h5.2V173.31z"/>
<path class="st0" d="M276.11,173.31h-5.19v1.6h5.19V173.31z"/>
<path class="st0" d="M283.71,173.31h-5.2v1.6h5.2V173.31z"/>
<path class="st0" d="M289.7,198.52h-53.96v2.8h53.96V198.52z"/>
<path class="st0" d="M245.74,183.71h-5.2v14.81h5.2V183.71z"/>
<path class="st0" d="M253.33,183.71h-5.19v14.81h5.19V183.71z"/>
<path class="st0" d="M260.92,183.71h-5.19v14.81h5.19V183.71z"/>
<path class="st0" d="M268.52,183.71h-5.2v14.81h5.2V183.71z"/>
<path class="st0" d="M276.11,183.71h-5.19v14.81h5.19V183.71z"/>
<path class="st0" d="M283.71,183.71h-5.2v14.81h5.2V183.71z"/>
<path class="st0" d="M245.74,186.51h-5.2v1.6h5.2V186.51z"/>
<path class="st0" d="M253.33,186.51h-5.19v1.6h5.19V186.51z"/>
<path class="st0" d="M260.92,186.51h-5.19v1.6h5.19V186.51z"/>
<path class="st0" d="M268.52,186.51h-5.2v1.6h5.2V186.51z"/>
<path class="st0" d="M276.11,186.51h-5.19v1.6h5.19V186.51z"/>
<path class="st0" d="M283.71,186.51h-5.2v1.6h5.2V186.51z"/>
<path class="st0" d="M245.74,193.72h-5.2v1.6h5.2V193.72z"/>
<path class="st0" d="M253.33,193.72h-5.19v1.6h5.19V193.72z"/>
<path class="st0" d="M260.92,193.72h-5.19v1.6h5.19V193.72z"/>
<path class="st0" d="M268.52,193.72h-5.2v1.6h5.2V193.72z"/>
<path class="st0" d="M276.11,193.72h-5.19v1.6h5.19V193.72z"/>
<path class="st0" d="M283.71,193.72h-5.2v1.6h5.2V193.72z"/>
<path class="st0" d="M150.54,202.58c-0.4-0.52-0.77-1.06-1.1-1.62l7.77-1.28l-8.4,0.06c-0.8-1.76-1.24-3.66-1.29-5.59
	c-0.05-1.93,0.3-3.85,1.02-5.65l11.26,5.84l-10.4-7.65c0.97-1.7,2.27-3.18,3.84-4.35c1.57-1.17,3.36-2,5.26-2.44
	c1.9-0.44,3.87-0.49,5.8-0.13c1.92,0.36,3.75,1.11,5.36,2.2c1.62,1.1,2.99,2.52,4.03,4.17c1.04,1.65,1.73,3.51,2.03,5.44
	c0.29,1.93,0.19,3.91-0.32,5.8c-0.5,1.89-1.39,3.65-2.61,5.18c0.63,0.8,1.17,1.67,1.62,2.59l-10.09,5.25l10.75-3.61
	c0.75,2.23,0.94,4.62,0.54,6.94c-0.4,2.32-1.37,4.51-2.82,6.36c1.65,2.09,2.67,4.61,2.96,7.25c0.29,2.65-0.18,5.32-1.34,7.72
	c-1.16,2.4-2.97,4.42-5.23,5.83c-2.25,1.41-4.86,2.16-7.52,2.16c-2.66,0-5.27-0.75-7.52-2.16c-2.25-1.41-4.07-3.44-5.23-5.83
	s-1.62-5.07-1.34-7.72c0.29-2.65,1.31-5.16,2.96-7.25c-1.96-2.5-3.03-5.59-3.03-8.77s1.07-6.27,3.03-8.77V202.58z"/>
<path class="st0" d="M175.83,211.34c0,3.18-1.07,6.26-3.03,8.76c1.65,2.09,2.67,4.61,2.96,7.25c0.29,2.65-0.18,5.32-1.34,7.72
	c-1.16,2.4-2.97,4.42-5.23,5.83c-2.25,1.41-4.86,2.16-7.52,2.16c-2.66,0-5.27-0.75-7.52-2.16c-2.25-1.41-4.07-3.44-5.23-5.83
	s-1.62-5.07-1.34-7.72c0.29-2.65,1.31-5.16,2.96-7.25C148.64,217.69,175.83,209.75,175.83,211.34z"/>
<path class="st7" d="M163.94,246.83c0.02,0.04,0.05,0.08,0.07,0.12h-4.81c0.03-0.04,0.04-0.08,0.07-0.12
	c-0.41-0.72-0.63-1.54-0.62-2.37c0-0.57,0.1-1.13,0.29-1.67c0.27,0.04,0.6,0.09,0.98,0.13c1.11,0.11,2.24,0.11,3.35,0
	c0.32-0.03,0.65-0.07,0.99-0.13c0,0.01,0,0.02,0,0.03c0.19,0.53,0.29,1.08,0.28,1.64C164.55,245.3,164.34,246.11,163.94,246.83z"/>
<path class="st0" d="M146.66,246.95H119.9c-0.06-0.15-0.11-0.32-0.16-0.47c-0.94-3.04-0.83-6.3,0.31-9.27
	c-2.61-1.81-4.54-4.44-5.48-7.48c-0.94-3.04-0.83-6.31,0.31-9.27c-0.54-0.37-1.05-0.78-1.53-1.22l7.04-3.52l-8.01,2.54
	c-1.29-1.44-2.27-3.13-2.88-4.96c-0.61-1.83-0.85-3.77-0.69-5.69l12.49,2.26l-12.18-4.24c0.42-1.91,1.23-3.72,2.38-5.3
	c1.15-1.58,2.62-2.91,4.3-3.9c1.69-0.99,3.56-1.62,5.5-1.84c1.94-0.23,3.91-0.05,5.78,0.52c1.87,0.57,3.6,1.52,5.09,2.8
	c1.48,1.27,2.69,2.84,3.54,4.6c0.85,1.76,1.33,3.68,1.4,5.64c0.07,1.96-0.26,3.91-0.98,5.73c0.84,0.59,1.62,1.27,2.32,2.02
	l-8.09,7.99l9.21-6.63c1.38,1.91,2.26,4.14,2.57,6.48s0.02,4.72-0.82,6.92c2.54,1.76,4.44,4.31,5.4,7.25
	C147.7,240.84,147.67,244.02,146.66,246.95z"/>
<path class="st0" d="M146.66,246.95H119.9c-0.06-0.15-0.11-0.32-0.16-0.47c-0.94-3.04-0.83-6.3,0.31-9.27
	c-2.52-1.74,21.11-17.38,21.58-15.85c0.94,3.04,0.83,6.31-0.31,9.27c2.55,1.76,4.45,4.31,5.42,7.26
	C147.7,240.83,147.67,244.02,146.66,246.95z"/>
<path class="st0" d="M267.74,227.75c-1.63,2.73-4.12,4.83-7.09,5.97c0.13,1.01,0.15,2.03,0.06,3.05l-11.34-0.68l11.08,2.41
	c-0.33,1.51-0.9,2.96-1.69,4.29c-0.97,1.63-2.25,3.04-3.78,4.15h-15.44v0.4H223.8c0.03-0.14,0.06-0.27,0.1-0.4
	c0.57-2.17,1.66-4.18,3.16-5.85c1.5-1.67,3.38-2.96,5.47-3.77c-0.4-3.15,0.26-6.35,1.89-9.08c1.63-2.73,4.13-4.83,7.09-5.97
	c-0.08-0.65-0.12-1.3-0.12-1.96l7.32,2.9l-7.24-4.26c0.21-1.92,0.82-3.78,1.77-5.46c0.96-1.68,2.24-3.14,3.78-4.31l6.67,10.81
	l-5-11.91c2.72-1.51,5.87-2.08,8.95-1.62c3.08,0.46,5.92,1.92,8.09,4.16c2.17,2.24,3.54,5.13,3.9,8.23S269.34,225.07,267.74,227.75z
	"/>
<path class="st0" d="M258.76,242.8c-0.97,1.63-2.25,3.04-3.78,4.15h-15.44v0.4H223.8c0.03-0.14,0.06-0.27,0.1-0.4
	c0.57-2.17,1.66-4.18,3.16-5.85c1.5-1.67,3.38-2.96,5.47-3.77c-0.13-1.05,2.92-0.89,6.98-0.21
	C247.49,238.45,259.3,241.89,258.76,242.8z"/>
<path class="st8" d="M191.85,204.96c0,0,1.94,10.51-2.39,13.94c-4.33,3.43,3.67,24,16.89,21.6c13.21-2.4,18.6-19.65,18.6-19.65
	s-13.23-2.74-8.33-16.68L191.85,204.96z"/>
<path class="st2" d="M191.85,204.96c0,0,1.94,10.51-2.39,13.94c-4.33,3.43,3.67,24,16.89,21.6c13.21-2.4,18.6-19.65,18.6-19.65
	s-13.23-2.74-8.33-16.68L191.85,204.96z"/>
<path class="st8" d="M203.54,212.67c12.1,0,21.91-9.82,21.91-21.94c0-12.12-9.81-21.94-21.91-21.94c-12.1,0-21.91,9.82-21.91,21.94
	C181.63,202.85,191.44,212.67,203.54,212.67z"/>
<path class="st4" d="M239.54,232.44v14.91H167.2v-14.23c0-1.8,0.53-3.57,1.53-5.07c1-1.5,2.41-2.68,4.07-3.39l2.07-0.88
	c5.25-2.24,11.62-5.02,13.71-6.17c0.23-0.11,0.44-0.25,0.64-0.41c1.14-1.14,0.91,0.34,0.91,0.34s-0.03,0.28-0.05,0.77
	c-0.13,3.36,0.36,16.55,15.8,15.45c15.06-1.05,15.74-11.26,15.59-14.26c-0.01-0.28-0.03-0.55-0.07-0.83c1.04,0.25,2.06,0.58,3.05,1
	c3.15,1.17,7.8,3.04,9.04,3.92c0.39,0.27,0.86,0.56,1.37,0.85c0.58,0.33,1.13,0.71,1.63,1.16c0.96,0.86,1.73,1.92,2.25,3.1
	C239.27,229.87,239.54,231.15,239.54,232.44z"/>
<path class="st2" d="M224.45,219.66c-1.28,5.92-5.28,17-19.71,17.29c-15.37,0.3-16.27-15.01-16.17-19.35
	c0.23-0.11,0.45-0.25,0.64-0.41c1.14-1.14,0.91,0.34,0.91,0.34s-1.94,17.48,15.74,16.23c17.68-1.26,15.51-15.08,15.51-15.08
	C221.38,218.59,222.7,219.04,224.45,219.66z"/>
<path class="st9" d="M177.61,191.83c0.73-0.18,1.49-0.14,2.2,0.12c0.7,0.26,1.31,0.72,1.75,1.33c0.8,1.12,0.92,2.47,1.02,3.76
	c0.95,0.2,1.48-0.88,1.57-1.69c0.35-3.32,0.38-6.69,1.49-9.9c1.11-3.21,3.54-6.31,7.27-7.53c1.27-0.44,2.64-0.57,3.97-0.38
	c0.79,0.13,1.54,0.41,2.32,0.52c2.73,0.45,5.69-0.84,8.25,0.06c1.61,0.57,2.62,1.88,3.37,3.18c0.33,0.7,0.77,1.35,1.31,1.91
	c1.09,0.98,2.79,1.23,4.34,1.53c1.56,0.3,3.26,0.84,3.92,2.04c0.6,1.09,0.16,2.34-0.04,3.52c-0.31,1.86,0,3.78,0.89,5.45
	c0.29,0.52,0.88,1.16,1.57,0.99c0.31-0.11,0.58-0.32,0.75-0.6c1.79-2.51,1.74-5.78,3.99-8.05c0.75-0.76,1.72-1.34,2.45-2.1
	c0.55-0.56,0.96-1.25,1.18-2c0.22-0.75,0.25-1.55,0.09-2.32c-0.4-1.73-1.79-3.15-2.91-4.68c-1.45-1.93-2.51-4.13-3.11-6.47
	c-0.1-0.27-0.1-0.57,0-0.85c0.21-0.28,0.48-0.5,0.8-0.65c0.61-0.41,1.05-1.02,1.23-1.73c0.19-0.71,0.11-1.46-0.22-2.12
	c-0.63-1.3-2.03-2.29-3.6-2.87c-1.6-0.53-3.24-0.88-4.92-1.05c-1.1,0.16-2.39-0.47-2.73-1.35c-0.15-0.39-0.15-0.82-0.3-1.21
	c-0.21-0.4-0.5-0.74-0.87-0.99c-0.36-0.26-0.79-0.42-1.23-0.48c-0.94-0.15-1.9-0.08-2.81,0.2c-1.05,0.29-2.24,0.74-3.15,0.22
	c-0.48-0.27-0.74-0.76-1.25-0.98c-1.05-0.44-2.13,0.45-2.88,1.19c-0.72,0.77-1.61,1.37-2.6,1.75c-0.52,0.2-1.08,0.28-1.63,0.24
	c-0.56-0.04-1.1-0.19-1.59-0.46c-0.72-0.46-1.08-1.19-1.65-1.78c-1.08-0.96-2.46-1.52-3.91-1.58c-1.49-0.08-2.98,0.08-4.41,0.48
	c-2.74,0.67-5.36,1.77-7.75,3.26c-1.2,0.66-2.23,1.61-2.98,2.77c-0.44,0.89-0.67,1.86-0.67,2.85c-0.12,3.1,0.91,6.37,3.59,8.55
	c-1.64,0.68-2.19,2.36-2.57,3.85c-0.61,2.37-1.23,4.79-1,7.2c0.11,1.25,0.46,2.5,0.27,3.75c-0.15,0.59-0.23,1.19-0.24,1.79
	c0.08,0.33,0.25,0.64,0.5,0.87C176.96,191.62,177.27,191.78,177.61,191.83z"/>
<g class="st10">
	<path class="st2" d="M230.95,180.68c-0.23,0.51-0.55,0.99-0.94,1.4c-0.73,0.77-1.7,1.36-2.45,2.1c-2.25,2.25-2.2,5.54-3.99,8.05
		c-0.17,0.28-0.43,0.5-0.74,0.6c-0.68,0.18-1.27-0.44-1.57-0.99c-0.35-0.67-0.61-1.37-0.78-2.1c-0.04,0.18-0.07,0.37-0.11,0.52
		c-0.31,1.86,0,3.78,0.89,5.45c0.29,0.52,0.88,1.16,1.57,0.99c0.31-0.11,0.58-0.32,0.74-0.6c1.79-2.51,1.74-5.78,3.99-8.04
		c0.75-0.76,1.72-1.35,2.45-2.1c0.55-0.56,0.96-1.25,1.18-2.01c0.22-0.75,0.25-1.55,0.09-2.32
		C231.19,181.3,231.08,180.99,230.95,180.68z"/>
	<path class="st2" d="M226.06,165.13c-0.31,0.15-0.59,0.37-0.8,0.65c-0.1,0.27-0.1,0.57,0,0.84c0.21,0.82,0.47,1.62,0.79,2.4
		c0.61-0.41,1.05-1.02,1.23-1.73c0.19-0.71,0.11-1.46-0.22-2.12c-0.1-0.22-0.22-0.42-0.37-0.61
		C226.52,164.77,226.3,164.97,226.06,165.13z"/>
	<path class="st2" d="M179.78,170c-1.86-1.53-3.08-3.7-3.44-6.09c-0.09,0.47-0.15,0.95-0.16,1.43c-0.12,2.29,0.48,4.57,1.73,6.5
		C178.28,171.02,178.95,170.36,179.78,170z"/>
	<path class="st2" d="M220.38,186.43c0.2-1.18,0.64-2.44,0.04-3.52c-0.67-1.21-2.37-1.73-3.92-2.04c-1.56-0.3-3.26-0.56-4.34-1.53
		c-0.54-0.56-0.99-1.2-1.31-1.91c-0.74-1.31-1.77-2.63-3.37-3.18c-2.55-0.9-5.52,0.39-8.25-0.06c-0.79-0.13-1.53-0.4-2.32-0.52
		c-1.33-0.2-2.7-0.07-3.97,0.38c-3.73,1.23-6.16,4.33-7.27,7.53c-1.11,3.2-1.14,6.58-1.49,9.9c-0.09,0.81-0.62,1.89-1.57,1.69
		c-0.1-1.3-0.22-2.63-1.02-3.77c-0.44-0.61-1.05-1.07-1.75-1.33c-0.7-0.26-1.47-0.3-2.2-0.11c-0.44-0.1-0.83-0.35-1.11-0.71
		c0.06,0.48,0.06,0.97,0,1.45c-0.15,0.59-0.23,1.19-0.24,1.79c0.07,0.34,0.23,0.64,0.48,0.88c0.24,0.24,0.55,0.4,0.89,0.46
		c0.73-0.18,1.49-0.14,2.2,0.12c0.7,0.26,1.31,0.72,1.75,1.33c0.8,1.12,0.92,2.47,1.02,3.76c0.95,0.2,1.48-0.88,1.57-1.69
		c0.35-3.32,0.38-6.69,1.49-9.9c1.11-3.2,3.54-6.31,7.27-7.53c1.27-0.44,2.64-0.57,3.97-0.38c0.79,0.13,1.54,0.41,2.32,0.53
		c2.73,0.45,5.69-0.84,8.25,0.06c1.61,0.57,2.62,1.88,3.37,3.18c0.33,0.71,0.77,1.35,1.31,1.91c1.09,0.98,2.79,1.23,4.34,1.53
		c1.56,0.3,3.15,0.8,3.85,1.91C220.33,186.59,220.36,186.51,220.38,186.43z"/>
	<path class="st2" d="M176.48,184.8c0.09-0.98,0.03-1.96-0.17-2.93c-0.15,1.02-0.19,2.05-0.1,3.07c0,0.26,0.06,0.53,0.09,0.78
		C176.36,185.41,176.44,185.11,176.48,184.8z"/>
</g>
<path class="st3" d="M150.8,268.55v-9.49c0-0.07,0.03-0.14,0.08-0.19c0.05-0.05,0.12-0.08,0.19-0.08h1.08
	c0.07,0,0.14,0.03,0.19,0.08c0.05,0.05,0.08,0.12,0.08,0.19v3.95l4.37-4.05c0.1-0.09,0.23-0.14,0.36-0.16
	c0.13-0.02,0.27,0,0.39,0.06c0.12,0.05,0.23,0.14,0.3,0.25c0.07,0.11,0.12,0.24,0.12,0.37v8.59c0,0.13-0.05,0.26-0.12,0.37
	c-0.07,0.11-0.18,0.2-0.3,0.25c-0.12,0.05-0.26,0.07-0.39,0.05c-0.13-0.02-0.26-0.07-0.36-0.16l-4.37-4.02v3.93
	c0,0.07-0.03,0.14-0.08,0.19c-0.05,0.05-0.12,0.08-0.19,0.08h-1.08c-0.06,0-0.12-0.02-0.17-0.06
	C150.85,268.67,150.81,268.62,150.8,268.55z"/>
<path class="st3" d="M256.29,259.07v9.49c0,0.04-0.01,0.07-0.02,0.1c-0.01,0.03-0.03,0.06-0.06,0.09c-0.03,0.03-0.06,0.05-0.09,0.06
	c-0.03,0.01-0.07,0.02-0.1,0.02h-1.05c-0.07,0-0.14-0.03-0.19-0.08c-0.05-0.05-0.08-0.12-0.08-0.19v-3.95l-4.37,4.05
	c-0.1,0.08-0.23,0.14-0.36,0.16c-0.13,0.02-0.27,0-0.39-0.06c-0.12-0.05-0.23-0.14-0.3-0.25c-0.08-0.11-0.12-0.24-0.12-0.37v-8.62
	c0.01-0.13,0.05-0.26,0.12-0.37c0.07-0.11,0.18-0.2,0.3-0.25c0.12-0.05,0.26-0.07,0.39-0.06c0.13,0.02,0.26,0.07,0.36,0.16
	l4.37,4.02v-3.92c0-0.07,0.03-0.14,0.08-0.19c0.05-0.05,0.12-0.08,0.19-0.08h1.05c0.07,0,0.14,0.02,0.19,0.07
	C256.25,258.93,256.28,259,256.29,259.07z"/>
<path class="st3" d="M201.76,268.96h-2.14c-0.28,0-0.54-0.11-0.74-0.31c-0.2-0.2-0.31-0.46-0.31-0.74v-7.85
	c0-0.28,0.11-0.55,0.31-0.74s0.46-0.31,0.74-0.31h2.14c0.28,0,0.55,0.11,0.74,0.31c0.2,0.2,0.31,0.46,0.31,0.74v7.85
	c0,0.28-0.11,0.55-0.31,0.74C202.31,268.85,202.04,268.96,201.76,268.96z M208.53,267.91v-7.85c0-0.28-0.11-0.55-0.31-0.74
	c-0.2-0.2-0.46-0.31-0.74-0.31h-2.16c-0.28,0-0.54,0.11-0.74,0.31c-0.2,0.2-0.31,0.46-0.31,0.74v7.85c0,0.28,0.11,0.55,0.31,0.74
	c0.2,0.2,0.46,0.31,0.74,0.31h2.14c0.14,0,0.28-0.02,0.41-0.07c0.13-0.05,0.25-0.13,0.35-0.23c0.1-0.1,0.18-0.21,0.23-0.34
	C208.5,268.19,208.53,268.05,208.53,267.91z"/>
<path class="st11" d="M266.51,246.28H140.57v1.4h125.94V246.28z"/>
<path class="st3" d="M179.46,250.31c1.83,0,3.32-1.49,3.32-3.33c0-1.84-1.49-3.33-3.32-3.33c-1.83,0-3.32,1.49-3.32,3.33
	C176.14,248.82,177.63,250.31,179.46,250.31z"/>
<path class="st3" d="M179.46,246.28h-38.89v1.4h38.89V246.28z"/>
<path class="st4" d="M459.65,404.64c17.23,0,31.21-2.69,31.21-6.01c0-3.32-13.97-6.01-31.21-6.01c-17.23,0-31.21,2.69-31.21,6.01
	C428.45,401.95,442.42,404.64,459.65,404.64z"/>
<path class="st12" d="M459.14,400.84c2,0,3.63-2.13,3.63-4.76c0-2.63-1.63-4.76-3.63-4.76c-2.01,0-3.63,2.13-3.63,4.76
	C455.5,398.71,457.13,400.84,459.14,400.84z"/>
<path class="st12" d="M459.14,395.01c2,0,3.63-2.13,3.63-4.76c0-2.63-1.63-4.76-3.63-4.76c-2.01,0-3.63,2.13-3.63,4.76
	C455.5,392.88,457.13,395.01,459.14,395.01z"/>
<path class="st12" d="M459.14,389.2c2,0,3.63-2.13,3.63-4.76c0-2.63-1.63-4.76-3.63-4.76c-2.01,0-3.63,2.13-3.63,4.76
	C455.5,387.07,457.13,389.2,459.14,389.2z"/>
<path class="st12" d="M459.14,383.38c2,0,3.63-2.13,3.63-4.76c0-2.63-1.63-4.76-3.63-4.76c-2.01,0-3.63,2.13-3.63,4.76
	C455.5,381.24,457.13,383.38,459.14,383.38z"/>
<path class="st12" d="M459.14,377.55c2,0,3.63-2.13,3.63-4.76c0-2.63-1.63-4.76-3.63-4.76c-2.01,0-3.63,2.13-3.63,4.76
	C455.5,375.42,457.13,377.55,459.14,377.55z"/>
<path class="st12" d="M459.14,371.73c2,0,3.63-2.13,3.63-4.76c0-2.63-1.63-4.76-3.63-4.76c-2.01,0-3.63,2.13-3.63,4.76
	C455.5,369.6,457.13,371.73,459.14,371.73z"/>
<path class="st12" d="M459.14,365.91c2,0,3.63-2.13,3.63-4.76c0-2.63-1.63-4.76-3.63-4.76c-2.01,0-3.63,2.13-3.63,4.76
	C455.5,363.78,457.13,365.91,459.14,365.91z"/>
<path class="st4" d="M472.73,321.32c0.49-0.63,0.95-1.3,1.35-2l-9.55-1.58l10.33,0.08c0.99-2.16,1.53-4.5,1.58-6.87
	c0.06-2.37-0.37-4.73-1.25-6.94l-13.84,7.2l12.77-9.4c-1.2-2.07-2.81-3.87-4.73-5.3c-1.92-1.42-4.12-2.43-6.45-2.97
	c-2.33-0.53-4.74-0.58-7.09-0.14c-2.35,0.44-4.58,1.36-6.56,2.7c-1.98,1.34-3.66,3.08-4.94,5.1c-1.28,2.02-2.13,4.29-2.5,6.65
	c-0.37,2.36-0.24,4.78,0.36,7.1c0.6,2.31,1.68,4.48,3.16,6.36c-0.77,0.98-1.43,2.04-1.98,3.15l12.39,6.45l-13.21-4.44
	c-0.93,2.75-1.16,5.68-0.67,8.54c0.49,2.86,1.68,5.55,3.47,7.83c-2.02,2.57-3.27,5.66-3.62,8.91c-0.35,3.25,0.22,6.53,1.65,9.48
	c1.43,2.94,3.65,5.42,6.42,7.15c2.77,1.73,5.97,2.65,9.23,2.65c3.26,0,6.46-0.92,9.23-2.65c2.77-1.73,4.99-4.21,6.42-7.15
	c1.43-2.94,2-6.22,1.65-9.48c-0.35-3.25-1.6-6.34-3.62-8.91c2.41-3.07,3.72-6.87,3.72-10.77c0-3.91-1.31-7.7-3.72-10.77
	L472.73,321.32z"/>
<path class="st2" d="M441.66,332.09c-0.01,3.91,1.3,7.7,3.72,10.77c-2.02,2.57-3.27,5.66-3.62,8.91c-0.35,3.25,0.22,6.53,1.65,9.48
	c1.43,2.94,3.65,5.42,6.42,7.15c2.77,1.73,5.97,2.65,9.23,2.65c3.26,0,6.46-0.92,9.23-2.65c2.77-1.73,4.99-4.21,6.42-7.15
	c1.43-2.94,2-6.22,1.65-9.48c-0.35-3.25-1.6-6.34-3.62-8.91C475.07,339.9,441.66,330.13,441.66,332.09z"/>
<path class="st0" d="M109.61,437c28.69,0,51.95-4.94,51.95-11.04c0-6.09-23.26-11.04-51.95-11.04s-51.95,4.94-51.95,11.04
	C57.67,432.06,80.92,437,109.61,437z"/>
<linearGradient id="SVGID_1_" gradientUnits="userSpaceOnUse" x1="253.2995" y1="-74.6012" x2="253.2995" y2="140.8266" gradientTransform="matrix(1 0 0 -1 -145.4449 357.8622)">
	<stop  offset="0" style="stop-color:#808081;stop-opacity:0.25"/>
	<stop  offset="0.54" style="stop-color:#808081;stop-opacity:0.12"/>
	<stop  offset="1" style="stop-color:#808081;stop-opacity:0.1"/>
</linearGradient>
<path class="st13" d="M127.01,424.68c-1.05-0.38-2.17-0.32-3.27-0.44c-2.28-0.26-4.4-1.29-6.01-2.92c-1.04-1.05-1.86-2.3-2.4-3.68
	c0.35,0.13,0.69,0.26,1.05,0.4c-1.05-2.45,0.05-5.21,1.02-7.69c1.64-4.2,3.18-8.43,4.64-12.68c3.67-10.77,6.82-21.96,6.75-33.42
	c0-4.14-0.76-8.06-0.91-12.19c-0.11-3.07,0.36-6.13,0.34-9.21c0-0.43,0-0.86-0.03-1.29c0.94-0.82,1.68-1.85,2.16-3
	c0.48-1.15,0.69-2.4,0.61-3.65c-0.05-0.65-0.15-1.3-0.28-1.93c-0.18-1.11-0.43-2.21-0.73-3.29c-0.35-1.14-0.82-2.23-1.22-3.35
	c-0.78-2.16-1.31-4.41-1.98-6.6c0.25,0.03,0.49,0.09,0.71,0.19c-0.17-0.2-0.28-0.43-0.34-0.69c-0.39-1.4-0.6-2.84-0.63-4.29
	l0.45-0.2c0.2-1.42,0.13-2.86-0.21-4.25c0.25-2.25,0.64-4.52,0.89-6.77c0.09-0.84,0.05-1.9-0.72-2.1c-0.16-1.2-0.22-2.42-0.28-3.64
	c-0.22-4.24-0.44-8.47-0.66-12.7c-0.22-4.25-0.44-8.5-0.52-12.75c-0.06-2.7-0.09-5.5-0.73-8.08c0.11-1.24-0.02-2.49-0.37-3.68
	c-0.98-3.09-4.01-5.55-7.08-5.38c-0.92-1.31-2.05-2.46-3.35-3.39c0.61-1.38,1.35-2.8,1.95-3.91c4.92-1.6,8.52-6.46,8.52-12.24
	c0.01-2.12-0.49-4.2-1.44-6.09c0.09-0.23,0.17-0.47,0.23-0.71c0.26-1.13,0.18-2.32-0.24-3.41c-0.15-0.42-0.32-0.82-0.52-1.22
	c-0.14-0.26-0.28-0.52-0.44-0.78l-0.27-0.4c-0.16-0.25-0.33-0.48-0.52-0.71c-0.37-0.5-0.77-0.98-1.2-1.44
	c-0.52-0.57-1.1-1.08-1.72-1.53c-0.84-0.63-1.81-1.07-2.83-1.31c-0.59-0.12-1.2-0.17-1.8-0.16c-0.36,0-0.73,0-1.09,0.03
	c-0.73,0.04-1.46,0.09-2.19,0.09c-0.24,0-0.49,0-0.73-0.04c-1.28-0.17-2.55-0.44-3.8-0.79l-0.63-0.13c-0.21-0.04-0.42-0.08-0.64-0.1
	c-0.57-0.08-1.16-0.11-1.74-0.1h-0.58c-0.58,0.03-1.16,0.09-1.74,0.18l-0.58,0.09c-1.46,0.23-2.88,0.65-4.22,1.26
	c-0.17,0.08-0.35,0.17-0.52,0.26l-0.1,0.06c-0.14,0.07-0.28,0.15-0.42,0.24l-0.08,0.05l-0.45,0.28l-0.04,0.03
	c-4.17,2.81-6.63,8.12-7.25,13.4c-0.7,5.92,0.52,11.89,1.75,17.72l1.1,5.25c0.05,0.24,0.1,0.47,0.15,0.7
	c-1.55,1.27-2.74,2.93-3.46,4.8c-1.05,2.63-1.08,5.47-0.99,8.32c0,0.58,0.03,1.16,0.09,1.73c-0.13,1.09-0.25,2.19-0.32,3.29
	c-0.33,5.1,0.29,10.22,0.13,15.33c-0.13,3.94-0.72,7.88-0.43,11.79c0.25,3.47,1.18,6.83,2.1,10.18l1.32,4.77
	c0.04,0.25,0.16,0.48,0.33,0.66c0.22,0.15,0.48,0.2,0.74,0.15c-0.86,1.96-1.58,3.97-2.15,6.03c-0.39,1.26-0.65,2.56-0.78,3.88
	c-0.17,2.41,0.38,4.8,0.94,7.14c0.84,3.5,1.68,7.02,2.51,10.55c0.59,2.47,1.17,4.94,1.76,7.4c1.15,4.87,2.31,9.76,2.53,14.77
	c0.12,2.51-0.06,5.04-0.52,7.51c-1.51,7.41-1.73,15.02-0.65,22.51c0.88,6.31,2.3,12.54,4.25,18.61c0.42-0.23,0.85-0.44,1.3-0.63
	l-0.18,0.34c-0.6,1.05-1.16,2.13-1.68,3.23c-0.35,0.72-0.65,1.46-0.9,2.21c-0.67,2.1-0.78,4.34-0.87,6.55
	c-0.05,0.42-0.01,0.86,0.11,1.27c0.29,0.79,1.12,1.2,1.89,1.42c2.27,0.65,4.62,0.41,6.98,0.11c0.01,0.05,0.03,0.1,0.05,0.15
	c0.29,0.79,1.11,1.2,1.89,1.42c3.24,0.92,6.66,0.05,10.01-0.26c3.34-0.31,6.63-0.08,9.84-0.86c0.48-0.1,0.94-0.28,1.36-0.52
	c0.83-0.58,1.43-1.42,1.72-2.39c0.1-0.25,0.17-0.51,0.2-0.78C129.03,426.08,128.05,425.07,127.01,424.68z M115.91,376.02
	c-0.18,1.23-0.53,2.43-1.05,3.56c-2.52,5.37-4.33,11.06-5.38,16.9c-0.69,3.86-1.09,7.77-1.19,11.69c-0.05,2.89,0.06,5.92-1.14,8.51
	l0.44-0.07c-0.14,0.25-0.27,0.53-0.39,0.73l-0.06,0.11c-0.73-1.24-1.21-2.6-1.43-4.02c0-0.05-0.24-0.08-0.6-0.11
	c-1.48-8.3-2-16.75-1.53-25.16c0.01-1.02,0.15-2.04,0.42-3.02c0.27-0.85,0.72-1.62,1.05-2.44c0.52-1.38,0.88-2.81,1.05-4.28
	c0.57-3.74,0.79-7.53,0.66-11.31c-0.13-3.57,0.7-7.12,1.4-10.67c0.34-1.69,0.65-3.38,0.81-5.07l0.03-0.34
	c3.12,5.16,5.3,10.83,6.44,16.75C116.06,370.49,116.23,373.27,115.91,376.02z M93.45,300.08l0.17,0.15
	c0.51,0.45,0.97,0.94,1.39,1.47c0.21,0.23,0.36,0.51,0.44,0.81c0.16,0.77-0.48,1.42-1,1.98c-0.23,0.24-0.44,0.5-0.63,0.77
	c-0.11-1.72-0.23-3.45-0.36-5.17H93.45z"/>
<path class="st4" d="M86.19,267.14l-0.58,4.46c-0.19,1.51-0.39,3.02-0.49,4.54c-0.35,5.06,0.3,10.13,0.13,15.2
	c-0.14,3.9-0.75,7.79-0.46,11.69c0.27,3.44,1.24,6.78,2.22,10.09l1.38,4.73c0.05,0.25,0.17,0.47,0.35,0.65
	c0.27,0.16,0.58,0.21,0.89,0.14l6.15-0.56c-0.39-1.81-0.83-3.68-1.05-5.53c-0.17-1.45-0.27-2.91-0.37-4.37
	c-0.33-4.55-0.7-9.1-1.05-13.66l-0.66-7.99c-0.28-3.47-0.57-6.95-1.44-10.32C90.34,272.8,88.61,269.68,86.19,267.14z"/>
<path class="st2" d="M86.19,267.14l-0.58,4.46c-0.19,1.51-0.39,3.02-0.49,4.54c-0.35,5.06,0.3,10.13,0.13,15.2
	c-0.14,3.9-0.75,7.79-0.46,11.69c0.27,3.44,1.24,6.78,2.22,10.09l1.38,4.73c0.05,0.25,0.17,0.47,0.35,0.65
	c0.27,0.16,0.58,0.21,0.89,0.14l6.15-0.56c-0.39-1.81-0.83-3.68-1.05-5.53c-0.17-1.45-0.27-2.91-0.37-4.37
	c-0.33-4.55-0.7-9.1-1.05-13.66l-0.66-7.99c-0.28-3.47-0.57-6.95-1.44-10.32C90.34,272.8,88.61,269.68,86.19,267.14z"/>
<path class="st14" d="M97.15,419.01c-0.36,0.71-0.68,1.44-0.94,2.2c-0.7,2.08-0.81,4.3-0.91,6.5c-0.05,0.42-0.01,0.85,0.12,1.26
	c0.3,0.79,1.17,1.19,1.99,1.4c3.41,0.92,6.99,0.06,10.49-0.26c3.5-0.31,6.96-0.08,10.34-0.85c0.5-0.1,0.98-0.26,1.43-0.5
	c0.86-0.56,1.49-1.39,1.81-2.36c0.1-0.25,0.17-0.51,0.2-0.78c0.11-1.16-0.89-2.15-1.98-2.53c-1.09-0.38-2.28-0.32-3.43-0.44
	c-2.37-0.24-4.59-1.26-6.32-2.89c-1.73-1.64-2.87-3.8-3.25-6.15c-0.04-0.25-5.69-0.1-6.3,0.23c-0.69,0.38-1.11,1.33-1.51,1.98
	C98.26,416.85,97.69,417.92,97.15,419.01z"/>
<path class="st2" d="M97.15,419.01c-0.36,0.71-0.68,1.44-0.94,2.2c-0.7,2.08-0.81,4.3-0.91,6.5c-0.05,0.42-0.01,0.85,0.12,1.26
	c0.3,0.79,1.17,1.19,1.99,1.4c3.41,0.92,6.99,0.06,10.49-0.26c3.5-0.31,6.96-0.08,10.34-0.85c0.5-0.1,0.98-0.26,1.43-0.5
	c0.86-0.56,1.49-1.39,1.81-2.36c0.1-0.25,0.17-0.51,0.2-0.78c0.11-1.16-0.89-2.15-1.98-2.53c-1.09-0.38-2.28-0.32-3.43-0.44
	c-2.37-0.24-4.59-1.26-6.32-2.89c-1.73-1.64-2.87-3.8-3.25-6.15c-0.04-0.25-5.69-0.1-6.3,0.23c-0.69,0.38-1.11,1.33-1.51,1.98
	C98.26,416.85,97.69,417.92,97.15,419.01z"/>
<path class="st14" d="M106.51,420.68c-0.36,0.71-0.68,1.44-0.94,2.19c-0.71,2.1-0.81,4.3-0.91,6.49c-0.05,0.42-0.01,0.85,0.11,1.26
	c0.3,0.79,1.17,1.19,1.98,1.41c3.41,0.91,7,0.05,10.49-0.26c3.49-0.31,6.96-0.08,10.34-0.85c0.5-0.1,0.98-0.28,1.43-0.53
	c0.86-0.56,1.5-1.39,1.81-2.36c0.1-0.25,0.17-0.51,0.2-0.78c0.11-1.15-0.89-2.15-1.98-2.53c-1.09-0.38-2.28-0.31-3.43-0.44
	c-2.37-0.24-4.59-1.26-6.32-2.89c-1.73-1.63-2.87-3.79-3.25-6.14c-0.04-0.25-5.69-0.1-6.3,0.22c-0.7,0.38-1.12,1.33-1.51,1.98
	C107.64,418.52,107.05,419.59,106.51,420.68z"/>
<path class="st9" d="M130.93,364.86c0.07,11.36-3.22,22.45-7.09,33.11c-1.53,4.22-3.16,8.41-4.88,12.56
	c-1.02,2.46-2.17,5.19-1.07,7.62c-3.15-1.2-6.35-1.9-9.66-1.35c1.26-2.57,1.14-5.57,1.2-8.41c0.11-3.89,0.52-7.76,1.24-11.59
	c1.11-5.82,3.02-11.46,5.66-16.76c0.53-1.12,0.9-2.31,1.1-3.53c0.43-2.7,0.09-5.48-0.47-8.15c-1.21-5.91-3.5-11.54-6.77-16.6
	l-0.03,0.34c-0.2,1.69-0.48,3.37-0.85,5.03c-0.74,3.52-1.61,7.04-1.47,10.57c0.14,3.75-0.1,7.5-0.69,11.21
	c-0.19,1.45-0.57,2.88-1.13,4.24c-0.36,0.81-0.83,1.58-1.12,2.42c-0.28,0.97-0.43,1.98-0.44,3c-0.42,8.55,0,17.23,1.74,25.61
	c-2.92-0.23-5.85,0.61-8.46,1.93c-2.04-6-3.54-12.17-4.46-18.44c-1.14-7.42-0.91-14.98,0.68-22.31c0.5-2.45,0.68-4.94,0.55-7.44
	c-0.22-4.97-1.44-9.82-2.65-14.64l-1.85-7.36c-0.87-3.5-1.75-6.99-2.62-10.46c-0.58-2.32-1.17-4.69-0.99-7.07
	c0.13-1.31,0.4-2.6,0.82-3.85c1.31-4.24,3.27-8.26,5.81-11.9c10.11,0.57,20.34-0.38,30.44-1.16c0.49-0.1,1-0.01,1.43,0.24
	c0.34,0.35,0.55,0.81,0.58,1.3l3.79,21.55c0.61,2.99,0.97,6.03,1.08,9.09c0,3.05-0.47,6.08-0.36,9.13
	C130.13,356.88,130.91,360.76,130.93,364.86z"/>
<path class="st2" d="M110.17,352.1c-0.2,1.69-0.48,3.37-0.85,5.03c-2.2-3.81-4.57-7.52-6.6-11.43c-0.52-1-1.02-2.02-1.52-3.04
	l-1.5-3.05c-0.28-0.57-0.56-1.14-0.81-1.73c-0.41-0.84-0.72-1.72-0.94-2.63c0.73-0.14,2.55,1.85,3.1,2.37
	c1.11,1.1,2.16,2.27,3.15,3.49c1.2,1.36,2.29,2.8,3.28,4.31C108.76,347.48,109.66,349.74,110.17,352.1z"/>
<path class="st15" d="M118.59,247.58c0,0-5.62,8.96-4.58,10.84c1.04,1.88-17.68-1.67-17.68-1.67s10.2-8.96,9.15-12.71
	C104.44,240.28,118.59,247.58,118.59,247.58z"/>
<path class="st15" d="M113.6,250.29c7.01,0,12.69-5.69,12.69-12.71c0-7.02-5.68-12.71-12.69-12.71c-7.01,0-12.69,5.69-12.69,12.71
	C100.9,244.6,106.59,250.29,113.6,250.29z"/>
<path class="st4" d="M118.78,256.97c-1.36-1.89-3.2-3.37-5.34-4.3c-1.23-0.44-2.5-0.75-3.79-0.94l-5.06-0.89
	c-1.24-0.22-2.57-0.43-3.72,0.08c-0.58,0.3-1.12,0.69-1.57,1.16c-1.76,1.63-3.46,3.43-5.67,4.37c-0.6,0.26-1.23,0.45-1.84,0.7
	c-2.47,1.05-4.32,3.29-5.36,5.78c-1.1,2.6-1.13,5.42-1.05,8.24c0,0.97,0.1,1.95,0.29,2.9c0.25,0.91,0.57,1.8,0.96,2.66
	c0.7,1.84,1.28,3.72,1.75,5.64c1.31,5.03,2.4,10.11,3.27,15.24c0.07,0.74,0.29,1.45,0.63,2.1c0.49,0.65,1.08,1.22,1.75,1.69
	c0.53,0.44,1.02,0.93,1.46,1.46c0.22,0.22,0.38,0.48,0.48,0.78c0.16,0.76-0.52,1.41-1.05,1.96c-1.13,1.15-1.95,2.58-2.37,4.14
	c-0.26,0.32-0.4,0.73-0.38,1.14c0.11,0.29,0.15,0.6,0.12,0.9c-0.1,0.28-0.27,0.53-0.48,0.74c-0.24,0.32-0.41,0.68-0.5,1.07
	c-0.09,0.39-0.1,0.79-0.02,1.18c3.93,1.71,8.14,2.7,12.42,2.91c1.05,0.05,2.1,0.05,3.15,0.18c0.74,0.1,1.48,0.25,2.22,0.34
	c1.08,0.1,2.17,0.13,3.25,0.08c5.65-0.12,11.47-0.26,16.65-2.5c0.49-2.66-0.57-5.38-1.23-8.01c-1.05-4.2-1.31-8.51-2.1-12.75
	c-0.52-2.89-1.31-5.75-1.76-8.66c-0.45-2.92-0.52-5.94,0.25-8.78c0.71-2.51,0.92-5.08,1.66-7.58c0.73-2.51,1.25-5.22,0.42-7.7
	C125.19,259.23,122.01,256.8,118.78,256.97z"/>
<path class="st14" d="M125.01,230.84c0.62-2.25-0.6-4.6-2.05-6.44c-1.57-1.97-3.58-3.75-6.04-4.24c-2-0.4-4.07,0.08-6.11-0.08
	c-1.8-0.14-3.53-0.79-5.32-1.05c-1.62-0.18-3.26-0.11-4.87,0.18c-1.52,0.23-3.01,0.64-4.43,1.24c-5.4,2.4-8.57,8.32-9.3,14.19
	c-0.73,5.87,0.55,11.79,1.83,17.56l1.16,5.22c1.21,5.44,2.41,10.9,2.73,16.46c0.32,5.56-0.28,11.27-2.56,16.34
	c7.38-3.97,13.1-10.46,16.13-18.28c0.82-2.15,1.43-4.38,2.34-6.49c0.78-1.82,1.78-3.54,2.48-5.4c0.78-2.09,1.16-4.32,1.11-6.55
	c-0.04-1.68-0.32-3.35-0.27-5.03c0.05-1.68,0.48-3.43,1.64-4.65c1.05-1.08,2.49-1.58,3.82-2.27c2.09-1.07,3.92-2.6,5.35-4.47
	c0.83-1.09,0.88-1.58,1.09-2.82C123.93,233.02,124.68,232.03,125.01,230.84z"/>
<path class="st15" d="M125.03,326.32c0.13,1.31-0.1,2.63,0.18,3.93c0.21,0.97,0.71,1.84,1.01,2.78c0.29,1.09,0.44,2.22,0.45,3.35
	c0.04,0.95-0.03,2.1-0.87,2.54c-0.37,0.19-0.81,0.19-1.19,0.36c-0.38,0.17-0.71,0.62-0.49,0.98c0.22,0.36,0.6,0.3,0.94,0.37
	c0.35,0.07,0.72,0.43,0.52,0.71c-0.08,0.09-0.19,0.16-0.3,0.19c-0.35,0.11-0.68,0.27-0.99,0.47c-0.15,0.11-0.26,0.25-0.34,0.42
	c-0.07,0.17-0.09,0.35-0.07,0.54c0.02,0.09,0.06,0.17,0.12,0.24c0.06,0.07,0.13,0.12,0.21,0.16c0.08,0.04,0.17,0.06,0.26,0.05
	c0.09,0,0.18-0.02,0.26-0.06c-0.15,0.33-0.24,0.69-0.25,1.05c1.34,0.58,2.85-0.18,4.11-0.91c0.54-0.3,1.07-0.64,1.57-1.01
	c1.02-0.78,1.83-1.8,2.36-2.97c0.53-1.17,0.77-2.45,0.7-3.74c-0.06-0.64-0.16-1.29-0.3-1.92c-0.19-1.1-0.45-2.19-0.77-3.26
	c-0.36-1.13-0.85-2.21-1.28-3.32c-0.9-2.36-1.48-4.83-2.3-7.22c-0.05-0.25-0.19-0.47-0.39-0.63c-0.18-0.09-0.38-0.13-0.58-0.11
	c-0.92-0.05-1.84,0.04-2.73,0.25c-0.52,0.16-1.42,0.53-1.67,1.05c-0.25,0.53,0.15,0.97,0.38,1.4
	C124.33,323.36,124.82,324.81,125.03,326.32z"/>
<path class="st2" d="M124.17,262.47c0.27,0.28,0.5,0.59,0.67,0.94c1.8,3.28,1.83,7.21,1.91,10.96c0.09,4.2,0.32,8.41,0.56,12.64
	l0.69,12.61c0.07,1.2,0.13,2.41,0.3,3.6c0.81,0.2,0.84,1.26,0.75,2.1c-0.58,5.14-2.03,10.43-0.52,15.38
	c0.06,0.25,0.18,0.49,0.35,0.68c-0.76-0.24-1.58-0.25-2.34-0.03c-0.75,0.16-1.47,0.44-2.23,0.61c-0.95,0.21-2.04,0.31-2.69,1.05
	c-0.74-2.22-1.32-4.49-1.76-6.79c-0.36-2.1-0.46-4.27-1.31-6.21c-0.34-0.78-0.8-1.51-1.22-2.26c-2.2-3.93-3.28-8.37-4.33-12.75
	c-0.47-2.08-0.59-4.22-0.33-6.34c0.15-0.97,0.24-1.94,0.26-2.92c-0.06-1.03-0.2-2.06-0.4-3.07c-0.45-2.97-0.24-6,0.61-8.89
	c0.79-2.67,1.48-5.49,3.15-7.74C117.95,263.79,121.38,262.51,124.17,262.47z"/>
<path class="st4" d="M124.8,262.05c0.27,0.28,0.5,0.59,0.67,0.94c1.81,3.28,1.83,7.21,1.91,10.96c0.09,4.2,0.32,8.41,0.56,12.61
	l0.69,12.61c0.07,1.2,0.13,2.41,0.3,3.6c0.81,0.2,0.84,1.26,0.74,2.1c-0.58,5.14-2.02,10.43-0.52,15.38
	c0.06,0.25,0.18,0.49,0.35,0.68c-0.76-0.24-1.58-0.25-2.35-0.03c-0.75,0.16-1.47,0.44-2.23,0.6c-0.95,0.22-2.04,0.31-2.69,1.05
	c-0.73-2.23-1.32-4.51-1.74-6.82c-0.36-2.1-0.46-4.26-1.31-6.21c-0.37-0.77-0.78-1.53-1.22-2.26c-2.2-3.93-3.28-8.38-4.33-12.76
	c-0.47-2.08-0.59-4.22-0.33-6.34c0.39-1.98,0.35-4.02-0.14-5.98c-0.45-2.97-0.24-6,0.61-8.88c0.79-2.67,1.48-5.49,3.15-7.74
	C118.58,263.31,122.01,262.09,124.8,262.05z"/>
<g class="st10">
	<path class="st2" d="M122.96,224.4c-1.57-1.97-3.58-3.75-6.04-4.24c-2-0.4-4.07,0.08-6.11-0.08c-1.8-0.14-3.53-0.79-5.32-1.05
		c-1.62-0.18-3.26-0.11-4.87,0.18c-1.52,0.23-3.01,0.64-4.43,1.24c-0.77,0.34-1.5,0.76-2.19,1.24c1.26-0.49,2.58-0.84,3.92-1.05
		c1.6-0.3,3.24-0.36,4.86-0.18c1.79,0.23,3.52,0.88,5.33,1.02c2.03,0.16,4.1-0.32,6.11,0.08c2.46,0.49,4.48,2.27,6.03,4.25
		c1.45,1.83,2.67,4.18,2.05,6.44c-0.32,1.19-1.08,2.23-1.28,3.45c-0.2,1.22-0.26,1.72-1.1,2.82c-1.08,1.4-2.38,2.61-3.85,3.59
		c0.4-0.19,0.82-0.38,1.21-0.58c2.09-1.07,3.92-2.6,5.35-4.47c0.83-1.09,0.88-1.58,1.09-2.82c0.21-1.24,0.96-2.26,1.29-3.45
		C125.63,228.58,124.41,226.23,122.96,224.4z"/>
	<path class="st2" d="M113.47,243.85c0.22-0.23,0.45-0.43,0.71-0.61c-1.21,0.59-2.49,1.1-3.42,2.1c-1.16,1.21-1.57,2.97-1.64,4.65
		c-0.06,1.68,0.24,3.35,0.27,5.03c0.05,2.24-0.32,4.46-1.11,6.56c-0.69,1.85-1.69,3.57-2.48,5.4c-0.91,2.1-1.52,4.34-2.33,6.49
		c-2.62,6.79-7.28,12.59-13.33,16.62c-0.03,0.07-0.06,0.14-0.09,0.21c7.38-3.97,13.1-10.46,16.13-18.28
		c0.82-2.15,1.43-4.38,2.34-6.49c0.78-1.82,1.78-3.54,2.48-5.4c0.78-2.09,1.16-4.32,1.11-6.55c-0.04-1.68-0.32-3.35-0.27-5.03
		C111.88,246.84,112.31,245.07,113.47,243.85z"/>
</g>
</svg>
