<?xml version="1.0" encoding="utf-8"?>
<!-- Generator: Adobe Illustrator 25.0.0, SVG Export Plug-In . SVG Version: 6.00 Build 0)  -->
<svg version="1.1" id="Layer_1" xmlns="http://www.w3.org/2000/svg" xmlns:xlink="http://www.w3.org/1999/xlink" x="0px" y="0px"
	 viewBox="0 0 671.98 437" style="enable-background:new 0 0 671.98 437;" xml:space="preserve">
<style type="text/css">
	.st0{clip-path:url(#SVGID_2_);}
	.st1{fill:#F2F2F2;}
	.st2{fill:#403D56;}
	.st3{fill:none;stroke:#403D56;stroke-width:2;stroke-miterlimit:10;}
	.st4{fill:#575DA7;}
	.st5{fill:#E6E8EC;}
	.st6{fill:#FFFFFF;}
	.st7{fill:#EC6585;}
	.st8{fill:#2F2F41;}
	.st9{fill:#9F616A;}
	.st10{opacity:0.1;fill:#010202;enable-background:new    ;}
	.st11{fill:#F0B7B9;}
	.st12{opacity:0.1;}
	.st13{fill:#A2626A;}
	.st14{fill:#D0CCE0;}
</style>
<g>
	<defs>
		<rect id="SVGID_1_" x="31.07" width="609.1" height="437"/>
	</defs>
	<clipPath id="SVGID_2_">
		<use xlink:href="#SVGID_1_"  style="overflow:visible;"/>
	</clipPath>
	<g class="st0">
		<path class="st1" d="M640.17,262.9c0,76.35-45.38,103.01-101.36,103.01c-55.98,0-101.35-26.66-101.35-103.01
			c0-76.36,101.35-173.49,101.35-173.49S640.17,186.54,640.17,262.9z"/>
		<path class="st2" d="M535.12,354.23l1.04-63.9l43.2-79.06l-43.04,69.03l0.47-28.73l29.77-57.2l-29.65,49.59v0l0.84-51.68
			l31.88-45.53l-31.75,37.41l0.52-94.76l-3.3,125.44l0.27-5.17l-32.41-49.63l31.89,59.56l-3.02,57.71l-0.09-1.53l-37.37-52.23
			l37.25,57.64l-0.38,7.22l-0.07,0.11l0.03,0.59l-7.66,146.43h10.24l1.23-75.63l37.16-57.5L535.12,354.23z"/>
		<path class="st1" d="M85.88,389.39c0,20.65-12.27,27.86-27.41,27.86c-15.14,0-27.41-7.21-27.41-27.86
			c0-20.65,27.41-46.92,27.41-46.92S85.88,368.75,85.88,389.39z"/>
		<path class="st2" d="M57.48,414.09l0.28-17.28l11.68-21.38L57.8,394.1l0.13-7.77l8.05-15.47l-8.02,13.41l0.23-13.98l8.62-12.31
			l-8.59,10.12l0.14-25.62l-0.89,33.92l0.07-1.4l-8.77-13.42l8.62,16.11l-0.82,15.61l-0.02-0.41l-10.11-14.13l10.07,15.59l-0.1,1.95
			l-0.02,0.03l0.01,0.16l-2.07,39.6h2.77l0.33-20.45l10.05-15.55L57.48,414.09z"/>
		<path class="st3" d="M34.93,436.15h551.8"/>
		<path class="st4" d="M587.02,417.58c0,13.97-8.3,18.84-18.54,18.84c-0.24,0-0.47,0-0.71-0.01c-0.47-0.01-0.94-0.03-1.41-0.07
			c-9.24-0.65-16.42-5.78-16.42-18.77c0-13.44,17.17-30.4,18.46-31.66l0,0c0.05-0.05,0.07-0.07,0.07-0.07
			S587.02,403.61,587.02,417.58z"/>
		<path class="st2" d="M567.81,434.28l6.78-9.48l-6.8,10.52l-0.02,1.09c-0.47-0.01-0.94-0.03-1.41-0.06l0.73-13.97l-0.01-0.11
			l0.01-0.02l0.07-1.32l-6.81-10.54l6.84,9.55l0.02,0.28l0.55-10.56l-5.83-10.89l5.91,9.04l0.58-21.89l0-0.07v0.07l-0.1,17.26
			l5.81-6.84l-5.83,8.33l-0.15,9.45l5.42-9.07l-5.44,10.46l-0.09,5.26l7.87-12.63l-7.9,14.46L567.81,434.28z"/>
		<path class="st2" d="M389.36,98.9h-3.56c-0.79,0-1.42,0.64-1.42,1.42v50c0,0.79,0.64,1.42,1.42,1.42h3.56
			c0.79,0,1.42-0.64,1.42-1.42v-50C390.78,99.53,390.15,98.9,389.36,98.9z"/>
		<path class="st2" d="M174.01,57.49h-1.73c-0.52,0-0.93,0.42-0.93,0.93v15.53c0,0.52,0.42,0.93,0.93,0.93h1.73
			c0.52,0,0.93-0.42,0.93-0.93V58.43C174.95,57.91,174.53,57.49,174.01,57.49z"/>
		<path class="st2" d="M174.22,89.35h-1.95c-0.58,0-1.05,0.47-1.05,1.05v28.18c0,0.58,0.47,1.05,1.05,1.05h1.95
			c0.58,0,1.05-0.47,1.05-1.05V90.4C175.27,89.82,174.8,89.35,174.22,89.35z"/>
		<path class="st2" d="M174.14,130.22h-1.85c-0.55,0-1,0.45-1,1v28.54c0,0.55,0.45,1,1,1h1.85c0.55,0,1-0.45,1-1v-28.54
			C175.14,130.67,174.7,130.22,174.14,130.22z"/>
		<path class="st2" d="M365.65,0H195.57c-12.25,0-22.18,9.93-22.18,22.19v391.59c0,12.25,9.93,22.19,22.18,22.19h170.09
			c12.25,0,22.18-9.93,22.18-22.19V22.19C387.83,9.93,377.9,0,365.65,0z"/>
		<path class="st5" d="M288.29,13.02H261.5c-0.87,0-1.58,0.71-1.58,1.58v2.92c0,0.87,0.71,1.58,1.58,1.58h26.79
			c0.87,0,1.58-0.71,1.58-1.58V14.6C289.87,13.73,289.16,13.02,288.29,13.02z"/>
		<path class="st5" d="M297.85,19.51c1.9,0,3.45-1.54,3.45-3.45c0-1.91-1.54-3.45-3.45-3.45c-1.9,0-3.45,1.54-3.45,3.45
			C294.4,17.97,295.94,19.51,297.85,19.51z"/>
		<path class="st6" d="M374.59,28.39v379.18c0,4.52-1.8,8.85-4.99,12.05c-3.19,3.19-7.53,4.99-12.04,4.99H203.66
			c-4.52,0-8.85-1.79-12.04-4.99c-3.19-3.19-4.99-7.53-4.99-12.05V28.39c0-2.24,0.44-4.45,1.3-6.52c0.86-2.07,2.11-3.95,3.69-5.53
			c1.58-1.58,3.46-2.84,5.53-3.69s4.28-1.3,6.52-1.3h23.03v2.96c0,3.72,1.48,7.29,4.11,9.92c2.63,2.63,6.2,4.11,9.92,4.11h78.27
			c3.72,0,7.29-1.48,9.92-4.11c2.63-2.63,4.11-6.2,4.11-9.92v-2.96h24.55c2.24,0,4.45,0.44,6.52,1.3c2.07,0.86,3.94,2.11,5.53,3.69
			c1.58,1.58,2.84,3.46,3.69,5.53C374.15,23.94,374.59,26.16,374.59,28.39z"/>
		<path class="st1" d="M374.7,99.26H186.41v216.31H374.7V99.26z"/>
		<path class="st7" d="M200.08,345.5l-0.99-0.89c-3.52-3.23-5.84-5.33-5.84-7.95c-0.01-0.5,0.08-0.99,0.27-1.45
			c0.19-0.46,0.46-0.88,0.81-1.24c0.35-0.35,0.77-0.63,1.23-0.82c0.46-0.19,0.95-0.28,1.45-0.28c0.59,0,1.17,0.13,1.7,0.38
			c0.53,0.25,1,0.61,1.38,1.06c0.38-0.45,0.85-0.81,1.38-1.06c0.53-0.25,1.11-0.38,1.7-0.38c0.5-0.01,0.99,0.09,1.45,0.28
			c0.46,0.19,0.88,0.47,1.23,0.82c0.35,0.35,0.63,0.77,0.81,1.24c0.19,0.46,0.28,0.95,0.27,1.45c0,2.61-2.32,4.71-5.84,7.95
			L200.08,345.5z"/>
		<path class="st1" d="M236.02,342.19l1.92,0.55c0.34-0.99,0.92-1.89,1.69-2.61c0.76-0.72,1.69-1.24,2.7-1.52
			c1.01-0.28,2.08-0.31,3.1-0.08c1.03,0.22,1.98,0.7,2.78,1.37l-2.93,2.84h7.3v-7.1l-2.94,2.82c-1.05-0.92-2.32-1.57-3.68-1.89
			c-1.36-0.31-2.78-0.28-4.14,0.09c-1.35,0.37-2.59,1.07-3.6,2.03C237.22,339.66,236.46,340.86,236.02,342.19L236.02,342.19z"/>
		<path class="st4" d="M198.84,83.1c4.8,0,8.7-3.9,8.7-8.7c0-4.81-3.9-8.7-8.7-8.7c-4.8,0-8.7,3.9-8.7,8.7
			C190.14,79.2,194.04,83.1,198.84,83.1z"/>
		<path class="st4" d="M295.16,69.42h-80.78v9.95h80.78V69.42z"/>
		<path class="st1" d="M274.03,360.32h-80.78v9.95h80.78V360.32z"/>
		<path class="st1" d="M364.13,382H193.25v9.95h170.88V382z"/>
		<path class="st1" d="M228.05,344.87l-2.14-3.75c0.51-1.23,0.56-2.6,0.14-3.87s-1.28-2.33-2.43-3.01c-1.15-0.68-2.5-0.92-3.81-0.68
			c-1.31,0.24-2.49,0.94-3.32,1.98c-0.83,1.04-1.26,2.34-1.21,3.67c0.05,1.33,0.58,2.6,1.49,3.57c0.91,0.97,2.14,1.58,3.47,1.71
			c1.32,0.13,2.65-0.21,3.74-0.98L228.05,344.87z"/>
		<path class="st8" d="M264.63,149.99L264.63,149.99c-3.2,0.65-6.24,1.93-8.94,3.76c-2.7,1.83-5.02,4.17-6.82,6.9
			c-1.8,2.72-3.04,5.78-3.66,8.98c-0.62,3.21-0.6,6.5,0.05,9.7l5.13,25.07l5.74-1.18l0.4-2.66l1.2,2.33l34.92-7.15l0.4-2.66
			l1.2,2.33l4.82-0.99l-5.13-25.08c-0.65-3.2-1.93-6.24-3.76-8.94c-1.83-2.7-4.17-5.02-6.89-6.82c-2.72-1.8-5.78-3.04-8.98-3.66
			C271.12,149.32,267.82,149.33,264.63,149.99z"/>
		<path class="st9" d="M307.9,226.92l29.83,18.03l-3.73,8.7l-27.96-13.05L307.9,226.92z"/>
		<path class="st4" d="M269.99,247.43c0,0-60.28,0-70.22,15.54c-9.94,15.54-1.86,37.3,29.2,42.27
			c31.07,4.97,125.52,7.46,132.98-11.19c7.46-18.65,1.86-29.21,1.86-29.21S331.51,242.46,269.99,247.43z"/>
		<path class="st4" d="M323.43,262.35l32.93,12.43c0,0,13.67-9.95,6.84-21.13c-6.84-11.19-37.9-75.83-37.9-75.83
			s-8.7-12.43,2.49-19.27c11.18-6.84,15.53,4.35,15.53,4.35s-0.62,2.49,3.73,0.62c4.35-1.86,12.43,4.35,8.08,14.3
			c-4.35,9.94-7.46,12.43,1.86,11.81c3.37-0.22,6.33-2.64,8.74-5.63c4.62-5.73,2.56-10.35,2.21-17.71
			c-0.6-12.6-1.58-20.81-4.73-25.77c-4.35-6.84-10.56-12.43-26.72-9.32c-16.16,3.11-39.77,18.65-34.18,41.02
			c5.59,22.38,18.02,47.24,18.02,47.24S329.02,254.27,323.43,262.35z"/>
		<path class="st10" d="M323.43,262.35c-5.37,1.48-12.11,2.2-19.37,2.42c-12.66,0.39-26.92-0.73-38.3-2
			c-12.3-1.37-21.24-2.92-21.24-2.92c4.16-3.88,10.54-5.41,18.05-5.97c9.32-0.7,20.37,0.1,31.04-0.24
			c3.93-0.14,7.87,0.16,11.74,0.88C317.11,256.77,323.43,262.35,323.43,262.35z"/>
		<path class="st9" d="M269.68,195.53c9.61,0,17.4-7.79,17.4-17.4c0-9.61-7.79-17.4-17.4-17.4c-9.61,0-17.4,7.79-17.4,17.4
			C252.28,187.74,260.07,195.53,269.68,195.53z"/>
		<path class="st9" d="M267.51,192.11c0,0,3.11,11.81,0,12.43c-3.11,0.62-10.56,3.73-10.56,3.73l9.32,3.73l17.4,16.16l14.91,7.46
			l7.46-2.49v-13.67l-11.18-17.41c0,0-7.46,2.49-9.32-5.59c-1.86-8.08-5.59-11.19-5.59-11.19L267.51,192.11z"/>
		<path class="st9" d="M263.16,208.89h-7.46c0,0-13.05,4.35-20.51,14.3c-7.46,9.94-19.26,19.89-19.26,19.89s-8.08,11.19-3.73,26.73
			c4.35,15.54,10.56,26.73,16.16,23.62c5.59-3.11-8.08-25.49-8.08-25.49l3.73-13.67c0,0,19.26-22.38,27.34-21.76
			c8.08,0.62,8.7,7.46,8.7,7.46l17.4,4.97l5.59-11.81l-3.11-12.43L263.16,208.89z"/>
		<path class="st2" d="M307.9,248.05c-1.18,2.02-2.04,4.2-2.55,6.48c-0.78,3.36-1.2,6.79-1.28,10.25c-12.66,0.39-26.92-0.73-38.3-2
			c-1.01-2.68-2.11-5.77-3.19-8.89c-2.91-8.42-5.62-17.01-5.62-18.27c0-2.49,13.05,1.86,16.16,1.24c3.11-0.62,4.35-10.57,0-15.54
			c-4.35-4.97-17.09-13.36-17.09-13.36l4.35-1.24c0,0,9.63,7.15,29.52,18.96c19.89,11.81,11.81-6.84,11.81-6.84l-11.5-17.71h4.97
			c0,0,9.63,16.47,14.6,23.93C314.73,232.51,312.87,239.97,307.9,248.05z"/>
		<path class="st8" d="M281.99,154.64l-31.51,6.45l3.96,19.34l31.51-6.45L281.99,154.64z"/>
		<path class="st2" d="M349.84,156.99c5.15,0,9.32-4.17,9.32-9.32c0-5.15-4.17-9.32-9.32-9.32s-9.32,4.17-9.32,9.32
			C340.52,152.82,344.69,156.99,349.84,156.99z"/>
		<path class="st6" d="M349.84,152.64c2.75,0,4.97-2.23,4.97-4.97s-2.23-4.97-4.97-4.97s-4.97,2.23-4.97,4.97
			S347.1,152.64,349.84,152.64z"/>
		<path class="st4" d="M76.26,255.29l-0.64,4.9c-0.22,1.66-0.43,3.32-0.55,4.99c-0.39,5.56,0.33,11.14,0.14,16.7
			c-0.15,4.29-0.83,8.57-0.5,12.85c0.29,3.78,1.37,7.45,2.44,11.09l1.53,5.2c0.01,0.16,0.06,0.31,0.14,0.44
			c0.08,0.13,0.19,0.25,0.32,0.33c0.13,0.08,0.28,0.14,0.43,0.16c0.15,0.02,0.31,0,0.46-0.05l6.77-0.61
			c-0.43-1.99-0.92-4.06-1.15-6.08c-0.18-1.6-0.29-3.2-0.41-4.81c-0.36-5-0.77-10-1.18-15l-0.72-8.78
			c-0.31-3.81-0.63-7.64-1.58-11.34C80.83,261.53,78.93,258.09,76.26,255.29z"/>
		<path class="st10" d="M76.26,255.29l-0.64,4.9c-0.22,1.66-0.43,3.32-0.55,4.99c-0.39,5.56,0.33,11.14,0.14,16.7
			c-0.15,4.29-0.83,8.57-0.5,12.85c0.29,3.78,1.37,7.45,2.44,11.09l1.53,5.2c0.01,0.16,0.06,0.31,0.14,0.44
			c0.08,0.13,0.19,0.25,0.32,0.33c0.13,0.08,0.28,0.14,0.43,0.16c0.15,0.02,0.31,0,0.46-0.05l6.77-0.61
			c-0.43-1.99-0.92-4.06-1.15-6.08c-0.18-1.6-0.29-3.2-0.41-4.81c-0.36-5-0.77-10-1.18-15l-0.72-8.78
			c-0.31-3.81-0.63-7.64-1.58-11.34C80.83,261.53,78.93,258.09,76.26,255.29z"/>
		<path class="st2" d="M88.32,423.48c-0.4,0.78-0.75,1.59-1.04,2.41c-0.78,2.28-0.89,4.73-1.01,7.14c-0.05,0.46-0.01,0.93,0.13,1.38
			c0.33,0.87,1.29,1.3,2.18,1.55c3.75,1.01,7.7,0.06,11.57-0.29c3.79-0.34,7.66-0.09,11.38-0.93c0.55-0.1,1.08-0.29,1.58-0.55
			c0.94-0.61,1.65-1.53,1.99-2.6c0.11-0.27,0.19-0.56,0.23-0.86c0.12-1.27-0.98-2.37-2.18-2.78c-1.2-0.42-2.51-0.35-3.78-0.48
			c-2.6-0.27-5.05-1.39-6.95-3.18c-1.9-1.8-3.16-4.17-3.58-6.76c-0.04-0.28-6.26-0.11-6.91,0.24c-0.77,0.42-1.23,1.47-1.66,2.18
			C89.56,421.11,88.92,422.28,88.32,423.48z"/>
		<path class="st10" d="M88.32,423.48c-0.4,0.78-0.75,1.59-1.04,2.41c-0.78,2.28-0.89,4.73-1.01,7.14
			c-0.05,0.46-0.01,0.93,0.13,1.38c0.33,0.87,1.29,1.3,2.18,1.55c3.75,1.01,7.7,0.06,11.57-0.29c3.79-0.34,7.66-0.09,11.38-0.93
			c0.55-0.1,1.08-0.29,1.58-0.55c0.94-0.61,1.65-1.53,1.99-2.6c0.11-0.27,0.19-0.56,0.23-0.86c0.12-1.27-0.98-2.37-2.18-2.78
			c-1.2-0.42-2.51-0.35-3.78-0.48c-2.6-0.27-5.05-1.39-6.95-3.18c-1.9-1.8-3.16-4.17-3.58-6.76c-0.04-0.28-6.26-0.11-6.91,0.24
			c-0.77,0.42-1.23,1.47-1.66,2.18C89.56,421.11,88.92,422.28,88.32,423.48z"/>
		<path class="st2" d="M98.63,424.07c-0.4,0.78-0.75,1.59-1.04,2.41c-0.78,2.28-0.89,4.73-1.01,7.14c-0.05,0.46-0.01,0.93,0.13,1.38
			c0.33,0.87,1.29,1.3,2.18,1.55c3.75,1.01,7.7,0.06,11.57-0.29c3.79-0.34,7.66-0.09,11.38-0.93c0.55-0.1,1.08-0.29,1.58-0.55
			c0.94-0.61,1.65-1.53,1.99-2.6c0.11-0.27,0.19-0.56,0.23-0.85c0.12-1.27-0.98-2.37-2.18-2.79c-1.2-0.42-2.51-0.35-3.78-0.48
			c-2.6-0.27-5.05-1.39-6.95-3.18c-1.9-1.8-3.16-4.17-3.58-6.76c-0.04-0.28-6.26-0.11-6.91,0.24c-0.77,0.42-1.23,1.47-1.66,2.18
			C99.87,421.69,99.22,422.87,98.63,424.07z"/>
		<path class="st8" d="M125.5,362.71c0.08,12.48-3.55,24.68-7.81,36.42c-1.69,4.65-3.47,9.25-5.36,13.81
			c-1.12,2.7-2.38,5.7-1.18,8.38c-3.45-1.31-6.99-2.09-10.63-1.48c1.39-2.83,1.26-6.12,1.32-9.27c0.12-4.28,0.58-8.54,1.38-12.74
			c1.22-6.39,3.32-12.59,6.23-18.42c0.59-1.23,1-2.54,1.21-3.88c0.38-2.99,0.2-6.03-0.51-8.96c-1.33-6.49-3.85-12.68-7.45-18.25
			c-0.01,0.12-0.02,0.25-0.04,0.37c-0.22,1.86-0.53,3.7-0.94,5.52c-0.82,3.87-1.77,7.73-1.62,11.62c0.15,4.12-0.1,8.25-0.76,12.32
			c-0.21,1.6-0.63,3.17-1.24,4.66c-0.4,0.89-0.92,1.73-1.23,2.66c-0.31,1.07-0.47,2.18-0.48,3.29c-0.46,9.4-0.01,21.43,1.91,30.64
			c-3.24-0.15-6.45,0.58-9.31,2.12c-2.32-6.55-3.8-15.86-4.91-22.76c-1.25-8.15-1-16.47,0.75-24.53c0.54-2.69,0.75-5.44,0.61-8.18
			c-0.25-5.46-1.59-10.8-2.92-16.09c-0.68-2.69-1.36-5.38-2.03-8.07c-0.96-3.83-1.93-7.66-2.9-11.5c-0.64-2.55-1.29-5.15-1.09-7.78
			c0.14-1.44,0.44-2.85,0.9-4.22c1.44-4.67,3.6-9.08,6.39-13.08c11.13,0.63,22.39-0.42,33.5-1.27c0.54-0.11,1.1-0.01,1.58,0.27
			c0.38,0.38,0.6,0.89,0.63,1.43c1.39,7.89,2.78,15.77,4.17,23.66c0.68,3.29,1.07,6.64,1.19,10c0.02,3.35-0.52,6.69-0.4,10.03
			C124.62,353.94,125.47,358.2,125.5,362.71z"/>
		<path class="st10" d="M102.65,348.68c-0.22,1.86-0.53,3.7-0.94,5.52c-2.42-4.19-5.03-8.27-7.26-12.56
			c-0.57-1.11-1.12-2.23-1.67-3.34c-0.55-1.12-1.09-2.24-1.64-3.35c-0.31-0.63-0.62-1.26-0.89-1.9c-0.45-0.93-0.8-1.9-1.03-2.91
			c0.81-0.15,2.81,2.03,3.41,2.61c1.23,1.21,2.39,2.5,3.48,3.84c1.32,1.49,2.52,3.07,3.62,4.73
			C101.11,343.59,102.1,346.08,102.65,348.68z"/>
		<path class="st11" d="M111.92,233.78c0,0-6.18,9.85-5.04,11.91c1.14,2.06-19.46-1.83-19.46-1.83s11.22-9.85,10.07-13.97
			C96.35,225.77,111.92,233.78,111.92,233.78z"/>
		<path class="st11" d="M106.42,236.76c7.71,0,13.97-6.26,13.97-13.97s-6.25-13.97-13.97-13.97s-13.97,6.25-13.97,13.97
			S98.71,236.76,106.42,236.76z"/>
		<path class="st4" d="M112.12,244.11c-1.49-2.08-3.52-3.72-5.87-4.74c-1.35-0.48-2.75-0.83-4.17-1.03l-5.57-0.98
			c-1.37-0.24-2.83-0.47-4.09,0.09c-0.65,0.33-1.24,0.76-1.75,1.28c-1.94,1.79-3.81,3.77-6.24,4.8c-0.66,0.28-1.36,0.49-2.02,0.78
			c-2.72,1.17-4.75,3.61-5.9,6.34c-1.21,2.86-1.25,5.96-1.15,9.06c0,1.07,0.1,2.14,0.31,3.19c0.28,1,0.63,1.98,1.06,2.92
			c0.77,2.02,1.41,4.09,1.93,6.2c1.44,5.53,2.64,11.11,3.6,16.75c0.08,0.81,0.32,1.6,0.7,2.32c0.54,0.72,1.19,1.34,1.93,1.85
			c0.58,0.48,1.12,1.02,1.61,1.6c0.24,0.25,0.41,0.55,0.51,0.88c0.18,0.83-0.56,1.55-1.15,2.16c-1.24,1.27-2.14,2.83-2.61,4.54
			c-0.29,0.35-0.44,0.8-0.41,1.26c0.12,0.32,0.16,0.65,0.13,0.99c-0.11,0.31-0.29,0.59-0.53,0.82c-0.27,0.35-0.46,0.75-0.56,1.17
			c-0.1,0.43-0.11,0.87-0.02,1.3c4.33,1.88,8.96,2.97,13.68,3.2c1.15,0.05,2.31,0.05,3.46,0.19c0.82,0.1,1.63,0.27,2.45,0.37
			c1.19,0.11,2.39,0.14,3.58,0.09c6.22-0.12,12.62-0.28,18.32-2.75c0.54-2.93-0.62-5.91-1.35-8.8c-1.16-4.59-1.45-9.35-2.31-14.01
			c-0.59-3.19-1.44-6.32-1.93-9.53c-0.49-3.2-0.61-6.53,0.28-9.65c0.78-2.76,1.02-5.58,1.82-8.33c0.81-2.76,1.38-5.75,0.46-8.47
			C119.18,246.6,115.68,243.93,112.12,244.11z"/>
		<path class="st8" d="M118.98,215.39c0.68-2.48-0.66-5.06-2.25-7.08c-1.72-2.16-3.94-4.12-6.64-4.66c-2.2-0.44-4.48,0.09-6.72-0.09
			c-1.98-0.16-3.89-0.87-5.86-1.13c-1.79-0.19-3.59-0.12-5.36,0.2c-1.68,0.24-3.32,0.7-4.88,1.36c-5.95,2.64-9.43,9.14-10.24,15.6
			c-0.81,6.45,0.61,12.96,2.02,19.31l1.27,5.74c1.33,5.97,2.66,11.98,3.01,18.09c0.35,6.11-0.31,12.38-2.82,17.96
			c8.12-4.36,14.42-11.49,17.75-20.1c0.9-2.36,1.57-4.81,2.57-7.14c0.86-2,1.96-3.89,2.73-5.93c0.86-2.3,1.27-4.75,1.22-7.21
			c-0.04-1.85-0.35-3.68-0.3-5.53c0.05-1.85,0.52-3.77,1.8-5.11c1.13-1.19,2.75-1.76,4.21-2.5c2.3-1.18,4.31-2.86,5.88-4.91
			c0.92-1.2,0.97-1.71,1.2-3.1C117.8,217.83,118.63,216.69,118.98,215.39z"/>
		<path class="st11" d="M119,320.34c0.14,1.44-0.12,2.91,0.19,4.32c0.24,1.06,0.78,2.02,1.11,3.06c0.32,1.2,0.48,2.44,0.49,3.68
			c0.05,1.04-0.03,2.31-0.95,2.8c-0.4,0.21-0.89,0.22-1.31,0.4c-0.42,0.18-0.78,0.69-0.54,1.08c0.2,0.33,0.66,0.33,1.04,0.41
			c0.38,0.08,0.79,0.47,0.57,0.78c-0.09,0.1-0.21,0.18-0.34,0.21c-0.39,0.12-0.75,0.29-1.08,0.52c-0.16,0.12-0.29,0.28-0.37,0.46
			c-0.08,0.19-0.1,0.39-0.07,0.59c0.02,0.1,0.07,0.19,0.13,0.26c0.06,0.08,0.14,0.14,0.23,0.18c0.09,0.04,0.19,0.06,0.29,0.06
			c0.1,0,0.2-0.03,0.28-0.07c-0.17,0.36-0.26,0.75-0.27,1.15c1.47,0.63,3.13-0.2,4.52-1c0.6-0.33,1.18-0.7,1.74-1.11
			c1.12-0.86,2.01-1.99,2.59-3.27c0.58-1.29,0.85-2.69,0.76-4.1c-0.06-0.71-0.17-1.41-0.33-2.11c-0.22-1.21-0.5-2.41-0.85-3.58
			c-0.4-1.24-0.94-2.43-1.41-3.65c-1-2.59-1.64-5.31-2.53-7.94c-0.01-0.13-0.05-0.25-0.11-0.36c-0.06-0.11-0.15-0.21-0.25-0.28
			c-0.1-0.08-0.22-0.13-0.34-0.16c-0.12-0.03-0.25-0.03-0.37-0.01c-1.01-0.05-2.02,0.04-3.01,0.28c-0.59,0.17-1.57,0.56-1.84,1.18
			c-0.24,0.56,0.16,1.06,0.42,1.55C118.22,317.11,118.77,318.69,119,320.34z"/>
		<path class="st10" d="M118.06,250.15c0.3,0.3,0.55,0.65,0.74,1.03c1.98,3.61,2.01,7.93,2.1,12.04c0.11,4.63,0.36,9.26,0.61,13.89
			l0.76,13.84c0.07,1.32,0.14,2.65,0.33,3.96c0.89,0.22,0.93,1.38,0.83,2.29c-0.64,5.65-2.23,11.46-0.56,16.9
			c0.06,0.28,0.2,0.54,0.39,0.75c-0.84-0.26-1.74-0.28-2.58-0.04c-0.83,0.18-1.63,0.48-2.45,0.67c-1.05,0.24-2.24,0.34-2.96,1.15
			c-0.81-2.44-1.46-4.94-1.93-7.47c-0.39-2.3-0.5-4.69-1.44-6.82c-0.38-0.86-0.88-1.66-1.34-2.48c-2.42-4.32-3.61-9.21-4.77-14.02
			c-0.52-2.28-0.65-4.64-0.37-6.97c0.16-1.06,0.26-2.13,0.29-3.21c-0.07-1.13-0.22-2.26-0.44-3.37c-0.49-3.26-0.26-6.6,0.67-9.77
			c0.87-2.94,1.63-6.04,3.45-8.51C111.18,251.56,114.99,250.2,118.06,250.15z"/>
		<path class="st4" d="M118.74,249.7c0.3,0.3,0.55,0.65,0.74,1.03c1.98,3.61,2.01,7.93,2.1,12.04c0.11,4.63,0.36,9.26,0.61,13.89
			l0.76,13.84c0.07,1.32,0.15,2.65,0.33,3.96c0.89,0.22,0.93,1.38,0.83,2.29c-0.64,5.65-2.23,11.46-0.56,16.9
			c0.06,0.28,0.2,0.54,0.39,0.75c-0.84-0.26-1.74-0.28-2.58-0.04c-0.83,0.18-1.63,0.48-2.45,0.67c-1.05,0.24-2.24,0.34-2.96,1.15
			c-0.81-2.44-1.46-4.94-1.93-7.47c-0.39-2.3-0.5-4.69-1.44-6.82c-0.38-0.86-0.88-1.66-1.34-2.48c-2.42-4.32-3.61-9.21-4.77-14.02
			c-0.52-2.28-0.65-4.64-0.37-6.97c0.16-1.06,0.26-2.13,0.29-3.21c-0.07-1.13-0.22-2.26-0.44-3.37c-0.49-3.27-0.26-6.6,0.67-9.77
			c0.87-2.94,1.63-6.04,3.45-8.51C111.87,251.1,115.68,249.74,118.74,249.7z"/>
		<g class="st12">
			<path class="st10" d="M116.73,208.31c-1.72-2.16-3.94-4.12-6.64-4.66c-2.2-0.44-4.48,0.09-6.72-0.09
				c-1.98-0.16-3.89-0.87-5.86-1.13c-1.79-0.19-3.59-0.12-5.36,0.2c-1.68,0.24-3.32,0.7-4.88,1.36c-0.84,0.38-1.65,0.83-2.41,1.36
				c1.39-0.53,2.84-0.9,4.31-1.13c1.77-0.33,3.57-0.39,5.36-0.2c1.97,0.25,3.87,0.97,5.86,1.12c2.24,0.18,4.52-0.36,6.72,0.09
				c2.71,0.54,4.93,2.5,6.64,4.66c1.6,2.01,2.93,4.6,2.25,7.08c-0.36,1.31-1.19,2.45-1.41,3.79c-0.23,1.38-0.28,1.9-1.2,3.1
				c-1.18,1.54-2.62,2.88-4.24,3.95c0.45-0.21,0.9-0.42,1.34-0.64c2.3-1.18,4.31-2.86,5.88-4.91c0.92-1.2,0.97-1.71,1.2-3.1
				c0.23-1.35,1.06-2.49,1.41-3.79C119.66,212.9,118.33,210.32,116.73,208.31z"/>
			<path class="st10" d="M106.28,229.69c0.24-0.25,0.5-0.47,0.78-0.68c-1.33,0.65-2.74,1.22-3.76,2.28
				c-1.28,1.34-1.75,3.26-1.8,5.11c-0.05,1.85,0.26,3.68,0.3,5.53c0.06,2.46-0.36,4.9-1.22,7.21c-0.76,2.04-1.87,3.93-2.73,5.93
				c-1,2.32-1.67,4.77-2.57,7.14c-2.89,7.46-8.01,13.84-14.67,18.26c-0.03,0.08-0.06,0.16-0.1,0.23
				c8.12-4.36,14.42-11.49,17.75-20.1c0.9-2.36,1.57-4.81,2.57-7.14c0.86-2,1.96-3.89,2.73-5.93c0.86-2.3,1.27-4.75,1.22-7.21
				c-0.04-1.85-0.35-3.68-0.3-5.53C104.53,232.95,105,231.02,106.28,229.69z"/>
		</g>
		<path class="st8" d="M413.02,435.04c-0.66,0.8-1.8,0.96-2.83,1.07c-1.33,0.19-2.68,0.22-4.02,0.08c-1.59-0.24-2.54,0.67-3.99-0.03
			c-0.88-0.42-2.23,0.42-3.11,0c-1.2-0.58-5.36-0.7-6.09-1.82c-0.73-1.12-0.66-2.9,0.5-3.56c0.33-0.16,0.67-0.29,1.02-0.4
			c1.94-0.77,5.87-6.6,7.93-6.89c1.02-0.05,2.04,0.19,2.94,0.69c2.03,0.9,5.63,1.62,6.51,3.91
			C412.56,429.87,414.45,433.29,413.02,435.04z"/>
		<path class="st8" d="M427.63,434.57c0.66,0.8,1.8,0.97,2.83,1.07c1.33,0.19,2.68,0.22,4.02,0.08c1.59-0.24,3.52,1.13,4.98,0.43
			c0.88-0.42,2.23-0.2,3.11-0.62c1.2-0.58,6.86,0.71,7.59-0.42c0.73-1.13,0.66-2.9-0.5-3.57c-0.33-0.16-0.67-0.29-1.01-0.4
			c-1.94-0.77-8.35-7.84-10.42-8.14c-1.02-0.05-2.04,0.19-2.94,0.69c-2.03,0.9-5.63,1.62-6.51,3.91
			C428.08,429.41,426.19,432.83,427.63,434.57z"/>
		<path class="st8" d="M434.06,307.65c0.63,1.22,1.19,2.48,1.66,3.78c5.64,14.93,6.11,31.24,6.35,47.2
			c-0.02,2.6,0.13,5.19,0.44,7.76c0.24,1.63,0.61,3.28,0.37,4.92c-0.21,1.41-0.87,2.8-0.61,4.2c0.12,0.63,0.42,1.21,0.54,1.84
			c0.09,0.69,0.07,1.39-0.06,2.07l-0.76,5.63c-0.43,3.21-1.42,6.3-1.37,9.53c0.04,2.21,0.07,4.42,0.32,6.61
			c0.25,2.23,0.71,4.44,0.74,6.68c0.02,1.68-0.21,3.35-0.36,5.02c-0.21,2.36-0.26,4.73-0.14,7.1c0.09,1.82,0.3,3.72,1.26,5.27
			c-1.08,1.55-2.16,2.95-3.89,3.71c-3.52,1.55-7.57,1.02-11.38,0.47c0.21-0.7,0.54-1.5,0.23-2.17c-0.18-0.32-0.4-0.62-0.65-0.89
			c-0.83-1.18-1.41-2.52-1.69-3.94c-0.46-1.68-0.92-3.49,0.02-5.1c0.33-0.57,0.47-1.24,0.41-1.89c-0.79-10.58-3.14-21.53-0.98-31.91
			c0.23-1.11,0.51-2.21,0.64-3.34c0.12-1.62,0.14-3.24,0.06-4.86l-0.05-2.26c-0.11-2.41-0.02-4.87-0.5-7.26
			c-0.35-1.71-0.99-3.42-0.2-5.16c0.17-0.4,0.25-0.83,0.23-1.27c-0.02-0.43-0.14-0.86-0.35-1.24c-1.67-2.93-3.02-6.04-4.01-9.26
			c-0.21-0.9-0.49-1.78-0.85-2.64c-0.48-0.9-1.04-1.76-1.67-2.57c-1.89-2.74-3.02-5.91-4.12-9.05c0.12-0.29,0.03-0.69-0.28-0.65
			c-0.3,0.08-0.57,0.27-0.73,0.54c-1.52,2.04-1.65,4.76-1.71,7.31c-0.11,2.36-0.08,4.73,0.12,7.09c0.13,1.24,0.35,2.46,0.46,3.7
			c0.15,2.31,0.11,4.62-0.11,6.92l-0.78,11.33c-0.1,0.94-0.05,1.88,0.17,2.8c0.5,1.59,0.74,3.24,0.72,4.91
			c-0.2,6.84,0.39,13.69,1.76,20.39c0.38,1.85,0.82,3.69,1.14,5.55c0.76,4.39,0.86,8.86,0.96,13.31c0.06,2.74,0.11,5.57-0.97,8.09
			c-0.42,0.78-0.73,1.61-0.92,2.47c0,0.45-0.06,0.89-0.18,1.32c-0.32,0.81-1.27,1.16-2.12,1.35c-1.6,0.35-3.25,0.47-4.89,0.35
			c-0.38-0.01-0.76-0.09-1.12-0.25c-0.61-0.32-0.93-0.99-1.4-1.49c-1-1.1-2.67-1.43-3.58-2.6c-1.14-1.46-0.66-3.58,0.02-5.31
			c0.68-1.73,1.52-3.6,0.94-5.36c-0.69-2.08-3.13-3.19-3.79-5.28c1.87-8.41-2.72-17.12-2.33-25.73c0.09-2.01,0.44-4,0.45-6
			c0.02-5.17-2.22-10.2-1.85-15.36c0.94-13.11-3.53-26.2-5.42-39.21c-0.36-1.94-0.49-3.92-0.4-5.89c0.28-3.26,1.79-6.29,3.61-9
			c1.3-1.95,2.87-3.85,5.02-4.76c1.77-0.75,3.77-0.75,5.69-0.73c4.81,0.04,9.62,0.07,14.43,0.16c3.27-0.05,6.54,0.25,9.75,0.87
			C428.98,306.06,431.41,307.27,434.06,307.65z"/>
		<path class="st13" d="M356.35,247.88c-0.47-2.28,0.42-4.72-0.27-6.94c-0.25-0.8-0.86-1.63-1.7-1.61c-0.81,0.02-1.37,0.82-2.09,1.2
			c-1.16,0.61-2.58,0.06-3.74-0.56c-1.16-0.61-2.46-1.3-3.72-0.93c-0.15,0.79,0.38,1.54,0.97,2.1c0.64,0.49,1.18,1.11,1.56,1.81
			c0.19,0.77,0.26,1.56,0.21,2.34c0.13,1.81,1.28,3.36,2.42,4.77c1.84,2.26,3.8,4.43,5.86,6.5c0,0,3.13-3.88,3.07-4.56
			c-0.06-0.64-1.11-1.24-1.49-1.75C356.9,249.55,356.53,248.74,356.35,247.88z"/>
		<path class="st13" d="M449.6,295.62c0.28,0.72,0.49,1.47,0.63,2.24c0.81,3.92,1.32,7.89,1.82,11.85c0.13,1.06,0.27,2.12,0.31,3.19
			c0.14,2.53-0.38,5.06-1.51,7.33c-1.15,2.27-3.11,4.04-5.49,4.95c-0.73,0.26-1.76,0.31-2.08-0.4c-0.11-0.33-0.11-0.69,0.01-1.01
			c0.29-1.06,0.88-2,1.26-3.03c0.57-1.53,0.66-3.2,0.27-4.79c-0.15-0.61-0.47-1.28-1.08-1.41c0.31,1.4,0.05,2.86-0.72,4.08
			c-0.18,0.34-0.48,0.59-0.84,0.71c-0.25,0.03-0.51-0.04-0.72-0.17c-0.21-0.14-0.38-0.35-0.46-0.59c-0.15-0.49-0.18-1-0.09-1.51
			c0.2-2.54,0.58-5.07,1.16-7.56c0.68-2.73,1.77-5.42,1.7-8.24c-0.06-2.55-1.08-5.05-0.79-7.59c0.01-0.16,0.06-0.31,0.15-0.44
			c0.09-0.09,0.2-0.16,0.32-0.2c0.71-0.29,1.44-0.54,2.19-0.72c0.44-0.11,1.95-0.63,2.37-0.4c0.34,0.19,0.45,1.33,0.62,1.71
			C448.91,294.3,449.31,294.93,449.6,295.62z"/>
		<path class="st13" d="M399.31,220.1c5.75,0,10.41-4.66,10.41-10.41c0-5.75-4.66-10.41-10.41-10.41c-5.75,0-10.41,4.66-10.41,10.41
			C388.9,215.44,393.56,220.1,399.31,220.1z"/>
		<path class="st13" d="M408.64,217.22c0,0.66,0.05,1.33,0.16,1.98c0.14,0.66,0.35,1.31,0.61,1.94c0.35,1.02,0.84,1.98,1.46,2.86
			c0.63,0.89,1.57,1.5,2.63,1.72c-7.11,3.34-14.71,5.53-22.5,6.51c1.23-0.82,2.25-1.91,2.98-3.19c0.39-0.82,0.66-1.7,0.79-2.6
			c0.66-3.76,0.33-7.63-0.98-11.23c-0.13-0.35-0.25-0.79-0.01-1.07c0.1-0.11,0.23-0.19,0.37-0.24c3.09-1.31,6.43-1.93,9.78-1.83
			c0.86,0.01,1.71,0.04,2.57,0.11c0.46,0.03,1.47-0.06,1.84,0.27c0.44,0.4,0.22,1.65,0.23,2.2L408.64,217.22z"/>
		<path class="st14" d="M414.14,224.8c-1.53-1.96-3.67-3.36-6.09-3.96c-2.41-0.6-4.96-0.38-7.23,0.64
			c-4.95,2.37-7.39,8.04-11.75,11.39c-0.99,0.74-2.05,1.39-3.16,1.94c-0.65,0.36-1.35,0.64-2.08,0.82
			c-0.81,0.18-1.66,0.15-2.48,0.35c-1.54,0.45-2.86,1.48-3.68,2.86c-0.41,0.72-0.86,1.42-1.35,2.09c-0.46,0.54-1.02,0.98-1.5,1.49
			c-1.73,1.86-2.2,4.54-2.6,7.05c-1.36,1.43-2.83,2.73-4.42,3.9c-0.5,0.38-1.05,0.69-1.64,0.91c-1.52,0.49-3.2-0.13-4.5-1.07
			c-1.3-0.94-2.36-2.17-3.64-3.14c-1.18,1.68-2.41,3.37-3.66,5c-0.19,0.31-0.48,0.55-0.82,0.67c-0.23,0.79,0.33,1.61,0.75,2.32
			l2.27,3.81c0.75,1.39,1.67,2.68,2.74,3.84c1.08,1.17,2.57,1.89,4.15,2.02c1-0.01,1.99-0.2,2.93-0.56
			c4.32-1.45,8.29-3.78,12.41-5.75c0.75-0.43,1.58-0.67,2.44-0.72c0.43-0.01,0.85,0.12,1.2,0.37c0.35,0.25,0.6,0.61,0.73,1.02
			c0.47,2.38,0.94,4.76,1.59,7.1c0.61,2.21,1.18,4.43,1.7,6.66c0.35,1.37,0.6,2.75,0.75,4.16c0.07,0.79,0.07,1.59,0.08,2.39
			l0.09,9.65c0.01,1.04-0.58,1.69-1.04,2.62c-0.7,1.45-0.8,3.11-0.29,4.64c0.26,0.75,0.66,1.45,0.94,2.19
			c0.69,1.8,0.66,3.77,0.62,5.69l-0.08,4.4c-0.02,0.18,0.01,0.37,0.09,0.53c0.27,0.42,0.92,0.17,1.33-0.11l2.06-1.43
			c2.76,0.38,5.54,0.51,8.31,0.4c7.9-0.11,15.8,0.2,23.69,0.75c2.63,0.18,5.35,0.38,7.83-0.49c1.26-0.45,2.42-1.16,3.71-1.51
			c0.53-0.08,1.04-0.29,1.47-0.61c0.72-0.67,0.53-1.84,0.23-2.78c-0.26-0.82-0.55-1.63-0.88-2.43c-0.34-0.73-0.61-1.49-0.82-2.27
			c-0.39-1.76-0.01-3.79-1.1-5.22c-2.45-3.2-0.72-8.13-1.74-12.02c-0.33-1.26-0.82-2.48-1.14-3.74c-0.2-0.79-0.32-1.6-0.44-2.41
			c-0.32-1.75-0.48-3.53-0.48-5.31c0.03-0.89,0.14-1.78,0.25-2.66l0.78-6.14c0.97,1.81,1.65,3.77,2,5.8
			c0.71,3.03,1.58,6.02,2.61,8.96c0.59,1.77,1.17,3.54,1.81,5.29c0.4,1,0.71,2.03,0.92,3.09c0.14,0.85,0.15,1.72,0.24,2.57
			c0.21,1.84,0.86,3.6,1.88,5.14c0.19,0.36,0.5,0.63,0.88,0.78c0.25,0.05,0.52,0.04,0.77-0.03c2.75-0.54,5.41-1.46,7.9-2.74
			c0.53-0.22,0.99-0.58,1.33-1.04c0.67-1.09-0.08-2.46-0.4-3.7c-0.35-1.33-0.27-2.93-1.31-3.82c-3.64-3.1-1.84-9.4-3.66-13.83
			c-0.32-0.78-0.69-1.53-0.97-2.33c-0.21-0.61-0.36-1.23-0.52-1.86c-1.27-5.15-2.64-10.29-4.09-15.39
			c-1.51-5.3-1.34-10.81-3.24-15.98c-0.36-1.08-0.82-2.13-1.39-3.12c-0.64-1.03-1.5-1.92-2.51-2.59c-2.75-1.82-5.53-3.37-8.76-4.03
			C420.94,224.68,417.44,224.78,414.14,224.8z"/>
		<path class="st8" d="M389.85,212.24c-1.4-0.75-1.03-2.8-1.27-4.37c-0.49-3.23-4.14-5.15-5-8.31c0.99,0.12,1.99-0.02,2.9-0.41
			c0.18-1.05-0.03-2.12-0.58-3.03c3-1.22,5.43-3.62,8.49-4.72c3.84-1.38,8.11-0.53,11.98,0.75c1.93,0.64,3.94,1.47,5.11,3.14
			c1.28,1.83,1.26,4.24,1.19,6.47c-0.11,3.5-0.25,7.13-1.81,10.27c-1.99,4-7.61,7.7-12.25,6.62c-1.93-0.45-2.5-1.66-3.32-3.34
			c-0.51-1.04-0.7-2.26-1.84-2.8C392.34,211.98,390.98,212.85,389.85,212.24z"/>
		<g class="st12">
			<path class="st10" d="M432.05,286.87c0.01,0.28,0.02,0.56,0.02,0.84C432.06,287.43,432.05,287.15,432.05,286.87z"/>
			<path class="st10" d="M386.98,297.33c0.69,1.8,0.66,3.77,0.62,5.69c-0.01,0.5-0.02,1-0.03,1.51c-0.04-1.04-0.24-2.06-0.6-3.04
				c-0.28-0.74-0.68-1.44-0.94-2.19c-0.44-1.32-0.42-2.74,0.05-4.05C386.34,295.96,386.71,296.63,386.98,297.33z"/>
		</g>
		<g class="st12">
			<path class="st10" d="M386.48,197.63l-0.01,0.01c-0.09-0.54-0.29-1.05-0.57-1.52c0.18-0.07,0.35-0.15,0.52-0.23
				C386.56,196.46,386.58,197.05,386.48,197.63z"/>
		</g>
		<path class="st7" d="M58.54,176.41l-2.45-2.21c-8.71-8-14.46-13.19-14.46-19.66c-0.02-1.23,0.2-2.45,0.66-3.59
			c0.46-1.14,1.14-2.18,2.01-3.05c0.87-0.87,1.9-1.56,3.04-2.03c1.14-0.47,2.36-0.7,3.59-0.69c1.45,0.01,2.88,0.33,4.2,0.95
			c1.31,0.62,2.48,1.51,3.41,2.63c0.93-1.11,2.1-2.01,3.41-2.63c1.31-0.62,2.75-0.94,4.2-0.95c1.23-0.01,2.45,0.22,3.59,0.69
			c1.14,0.47,2.17,1.16,3.04,2.03c0.87,0.87,1.55,1.91,2.01,3.05c0.46,1.14,0.68,2.36,0.66,3.59c0,6.47-5.75,11.66-14.46,19.66
			L58.54,176.41z"/>
		<path class="st3" d="M62.89,170.82l-2.45-2.21c-8.71-8-14.46-13.19-14.46-19.66c-0.02-1.23,0.2-2.45,0.66-3.59
			c0.46-1.14,1.14-2.18,2.01-3.05c0.87-0.87,1.9-1.56,3.04-2.03c1.14-0.47,2.36-0.7,3.59-0.68c1.45,0.01,2.88,0.33,4.2,0.95
			c1.31,0.62,2.48,1.51,3.41,2.63c0.93-1.11,2.1-2.01,3.41-2.63c1.31-0.62,2.75-0.94,4.2-0.95c1.23-0.01,2.45,0.22,3.59,0.68
			c1.14,0.47,2.17,1.16,3.04,2.03c0.87,0.87,1.55,1.91,2.01,3.05c0.46,1.14,0.68,2.36,0.66,3.59c0,6.47-5.75,11.66-14.46,19.66
			L62.89,170.82z"/>
	</g>
</g>
</svg>
