<?xml version="1.0" encoding="utf-8"?>
<!-- Generator: Adobe Illustrator 25.0.0, SVG Export Plug-In . SVG Version: 6.00 Build 0)  -->
<svg version="1.1" id="Layer_1" xmlns="http://www.w3.org/2000/svg" xmlns:xlink="http://www.w3.org/1999/xlink" x="0px" y="0px"
	 viewBox="0 0 100 85.19" style="enable-background:new 0 0 100 85.19;" xml:space="preserve">
<style type="text/css">
	.st0{fill:#413D56;}
	.st1{fill:#EAE2B7;}
</style>
<path class="st0" d="M63.72,34.65C50.49,50.54,50.93,72.82,50.93,72.82s21.89-3.48,35.12-19.37c13.23-15.89,12.79-38.18,12.79-38.18
	S76.95,18.76,63.72,34.65z"/>
<path class="st1" d="M74.42,39.22c-2.95,20.51-19.76,35.04-19.76,35.04s-12.03-18.71-9.08-39.22C48.53,14.53,65.34,0,65.34,0
	S77.37,18.71,74.42,39.22z"/>
<path class="st0" d="M31.01,46.86C40,65.52,60.4,74.26,60.4,74.26s5.83-21.5-3.16-40.15c-8.99-18.65-29.38-27.4-29.38-27.4
	S22.03,28.21,31.01,46.86z"/>
<path class="st1" d="M38.71,40.2c16.63,12.21,21.52,33.95,21.52,33.95s-22.08,1.94-38.71-10.28C4.89,51.66,0,29.92,0,29.92
	S22.08,27.99,38.71,40.2z"/>
<path class="st0" d="M94.42,68.43c-3.62,1.4-7.53-0.04-7.53-0.04s1.96-3.7,5.58-5.09c3.62-1.4,7.53,0.04,7.53,0.04
	S98.04,67.04,94.42,68.43z"/>
<path class="st1" d="M77.44,73.2c3.71,1.12,5.92,4.66,5.92,4.66s-3.81,1.72-7.52,0.6c-3.71-1.12-5.92-4.66-5.92-4.66
	S73.73,72.08,77.44,73.2z"/>
<path class="st0" d="M57.63,84.57c-3.62,1.4-7.53-0.04-7.53-0.04s1.96-3.7,5.58-5.09c3.62-1.4,7.53,0.04,7.53,0.04
	S61.25,83.18,57.63,84.57z"/>
<path class="st1" d="M29.19,80.51c-3.65-1.3-5.69-4.94-5.69-4.94s3.89-1.53,7.54-0.22c3.65,1.3,5.69,4.94,5.69,4.94
	S32.84,81.82,29.19,80.51z"/>
</svg>
