<?xml version="1.0" encoding="utf-8"?>
<!-- Generator: Adobe Illustrator 25.0.0, SVG Export Plug-In . SVG Version: 6.00 Build 0)  -->
<svg version="1.1" id="Layer_1" xmlns="http://www.w3.org/2000/svg" xmlns:xlink="http://www.w3.org/1999/xlink" x="0px" y="0px"
	 viewBox="0 0 551 437" style="enable-background:new 0 0 551 437;" xml:space="preserve">
<style type="text/css">
	.st0{clip-path:url(#SVGID_2_);}
	.st1{fill:#403D56;}
	.st2{opacity:0.1;fill:#010202;enable-background:new    ;}
	.st3{fill:#F07F12;}
	.st4{fill:#F6B7B9;}
	.st5{fill:#D0CCE0;}
	.st6{fill:#2F2F41;}
	.st7{fill:#F2F2F2;}
</style>
<g>
	<defs>
		<rect id="SVGID_1_" x="0.26" y="0.35" width="551" height="437"/>
	</defs>
	<clipPath id="SVGID_2_">
		<use xlink:href="#SVGID_1_"  style="overflow:visible;"/>
	</clipPath>
	<g class="st0">
		<path class="st1" d="M385.05,378.43h-1.29V236.95c0-0.58-0.13-1.15-0.37-1.67c-0.25-0.52-0.61-0.98-1.05-1.34l0.81-1
			c0.59,0.48,1.07,1.1,1.4,1.79c0.33,0.69,0.5,1.45,0.5,2.22V378.43z"/>
		<path class="st1" d="M253.81,15.37c0.33,0.76,0.58,1.56,0.74,2.38C254.19,16.5,253.9,15.65,253.81,15.37z"/>
		<path class="st1" d="M265.23,54.89c0,0,0,0.89-0.96,4.11L265.23,54.89z"/>
		<path class="st1" d="M382.86,189.56c-25.34,13.25-58.48,24.69-68.41,28.01c7.57-1.98,29.6-4.64,63.74,16.73
			c42.89,26.85,88.75,8.95,88.75,8.95s-10.19,19.61-31.85,20.88c-21.66,1.28-78.14-34.51-97.24-24.29
			c-19.11,10.23-28.03-2.56-35.68,23.01c-7.64,25.57-21.65,95.45-5.52,134.65l16.13,39.2h-91.72c0,0,33.12-88.63,14.86-143.17
			c-10.22-30.54-24.58-52.67-29.93-63.91c-2.69-5.63-3.11-8.53,0.37-8.38c1.98,0.08,5.22,1.15,10.03,3.26
			c0,0-22.08-21.73-29.3-21.73c-7.22,0-41.2-3.41-52.23-14.91c0,0-15.71-11.08-43.74,16.19c-28.03,27.27-21.23,27.27-46.29,25.14
			c-24.66-2.1-43.98-14.1-44.58-14.48c0.72,0.29,29.52,11.84,47.12,5.96c17.84-5.97,33.13-28.55,48.84-36.22
			c15.71-7.67,25.05-17.9,46.29-6.82l-13.99-33.1l-3.83-9.07l-0.01-0.01c0,0-4.68-62.21-13.59-66.47
			c-8.92-4.27-3.39-15.34-19.96-17.47c0,0,20.38-2.56,24.2,11.51c3.83,14.06,30.16,89.91,30.16,89.91s16.13,32.38,33.97,24.71
			c17.84-7.67-6.8-50.71-6.8-50.71l-30.57-14.07c0,0,22.93-0.85,36.94,12.36c14.01,13.21,14.86,55.82,14.86,55.82
			s35.24,5.11,43.74,24.29c0,0,5.52-17.05-5.1-27.27c-2.65-2.56-5.44-7.01-8.13-12.24c-10.18-20.07-13.86-42.84-10.53-65.11
			c1.58-10.9,2.55-21.56,0.82-24.07c-3.82-5.54-19.96-39.63-21.23-48.58c-1.27-8.95,1.28-27.69,1.28-27.69s0.43,23.01,5.52,30.25
			c5.1,7.25,19.53,43.04,19.53,43.04s0,45.17,11.89,67.33s34.82,46.87,33.55,63.07v9.37c0,0,25.48-24.29,23.78-32.39
			c-1.7-8.09-3.82-27.27-19.96-38.77c-16.14-11.51-26.75-29.83-15.29-56.25c6.45-14.86,9.27-22.85,10.51-26.99l-6.69,28.7
			c0,0-4.24,29.4,7.65,39.63c0.03,0.03,0.06,0.05,0.09,0.08c11.87,10.24,27.51,28.9,27.51,28.9l-0.04-0.82l-3.35-60.54l0.73,1.62
			l5.3,11.65l5.01,11.02c0,0,23.78-30.68,51.81-40.91c28.02-10.23,45.43-46.02,45.43-46.02l23.79-18.75L401.97,37
			c0,0-5.95,27.69-39.49,47.3c-33.55,19.6-55.2,48.57-56.48,66.47c-1.27,17.9-2.55,33.67-2.55,33.67s62.85-2.13,76.86-29.83
			c14.02-27.69,25.48-28.97,25.48-28.97l-8.07,23.86l-8.92,20.45c0,0,36.52,0.85,55.63,22.59c19.11,21.73,66.67,28.13,66.67,28.13
			l-26.75,7.24c0,0-25.48-8.52-49.69-24.29S413.01,173.79,382.86,189.56z"/>
		<path class="st2" d="M396.4,131.41c-2.69,11.93-5.85,23.46-10.3,32.25c-14.01,27.7-76.86,29.83-76.86,29.83s0.3-3.66,0.75-9.43
			c15.96-1.32,59.58-6.95,70.96-29.45c1.04-2.05,2.01-4.27,2.92-6.59L396.4,131.41z"/>
		<path class="st2" d="M298.63,165.36c0,0-15.71-18.75-27.6-28.98c-2.61-2.24-4.44-5.4-5.71-8.97c-0.1-0.28-0.2-0.57-0.3-0.87
			c0.28,0.27,0.55,0.54,0.85,0.79c10.4,8.95,23.75,24.44,26.91,28.16c0.44,0.53,0.69,0.82,0.69,0.82l-3.31-59.74l5.3,11.65
			L298.63,165.36z"/>
		<path class="st2" d="M307.72,111.56c-0.09,10.49-1.45,16.73-1.45,16.73s23.77-30.67,51.79-40.9c1.66-1.05,3.34-2.09,5.06-3.09
			C396.67,64.7,402.61,37,402.61,37l19.53-23.44l-23.78,18.75c0,0-17.41,35.79-45.44,46.02C333.82,85.3,316.7,101.78,307.72,111.56z
			"/>
		<path class="st2" d="M271.03,213.09v9.38c0,0,25.48-24.29,23.78-32.39c-1.3-6.19-2.85-18.86-10.73-29.63
			c3.55,8.14,4.63,16.07,5.58,20.58c1.22,5.81-11.54,19.94-18.86,27.47C271.06,210.01,271.13,211.56,271.03,213.09z"/>
		<path class="st2" d="M236.85,148.76c0.2,0.43,0.41,0.86,0.63,1.27c6.51,12.14,16.33,25.04,23.67,36.89
			C255.22,175.17,244.89,161.76,236.85,148.76z"/>
		<path class="st2" d="M378.83,234.3c-13.97-8.74-25.91-13.46-35.66-15.85c-10.23,3.86-18.65,6.75-22.89,8.16
			c7.6-1.97,29.61-4.6,63.71,16.74c26.75,16.74,54.65,16.08,71.87,13.21c4.76-3.61,8.75-8.13,11.73-13.32
			C467.58,243.24,421.72,261.14,378.83,234.3z"/>
		<path class="st2" d="M257.55,130.61c-3.42-8.42-3.99-18.44-0.05-30.18c-0.05-4.25,0.2-8.51,0.73-12.73l6.69-28.7
			c-1.23,4.14-4.05,12.12-10.51,27C246.24,104.83,249.29,119.55,257.55,130.61z"/>
		<path class="st2" d="M445.08,192.53c-13.25-15.07-34.87-20.1-46.89-21.77L394.6,179c0,0,36.52,0.85,55.63,22.58
			c10.6,12.05,29.94,19.38,45.07,23.53l16.44-4.45C511.75,220.66,464.19,214.27,445.08,192.53z"/>
		<path class="st2" d="M185.25,186.67c17.84-7.67-6.79-50.71-6.79-50.71l-0.67-0.31c6.14,13,15.05,36.49,2.32,41.97
			c-11.91,5.12-23.07-7.62-29.16-16.65c0.22,0.64,0.34,0.99,0.34,0.99S167.41,194.34,185.25,186.67z"/>
		<path class="st2" d="M243.43,214.37c0,0,5.37-16.62-4.72-26.89c2.48,8.84-0.43,17.84-0.43,17.84
			c-6.57-14.83-29.15-21.25-39.03-23.4c0.38,4.94,0.45,8.16,0.45,8.16S234.93,195.19,243.43,214.37z"/>
		<path class="st2" d="M264.92,59c0.96-3.21,0.96-4.11,0.96-4.11L264.92,59z"/>
		<path class="st2" d="M52.93,229.79c0.09-0.03,0.17-0.05,0.26-0.08c17.84-5.97,33.12-28.55,48.84-36.22
			c15.71-7.67,25.05-17.9,46.29-6.82c0,0-3.72-15.26-10.91-25.28c2.38,5.23,4.31,10.66,5.76,16.23
			c-21.23-11.08-30.57-0.85-46.29,6.82c-15.71,7.67-31,30.25-48.84,36.22c-17.84,5.97-47.14-5.97-47.14-5.97
			s19.53,12.36,44.59,14.49C48.35,229.43,50.79,229.64,52.93,229.79z"/>
		<path class="st2" d="M130.47,144.48c0,0-0.69,0.01-1.96,0.03l-3.83-9.07c0.42-0.01,0.64-0.01,0.64-0.01s-2.95-39.24-8.63-57.53
			c0.07,0.03,0.13,0.07,0.19,0.1C125.79,82.27,130.47,144.48,130.47,144.48z"/>
		<path class="st2" d="M229.97,436.71c7.78-23.93,26.49-90.12,11.76-134.13c-6.36-19-12.26-31.12-17.24-38.86
			c3.73,7.32,7.81,17,12.09,29.8c18.26,54.54-14.86,143.18-14.86,143.18H229.97z"/>
		<path class="st2" d="M222.19,233.55c-5.12-2.26-10.61-3.59-16.19-3.92c-2.69-5.63-3.11-8.53,0.37-8.39
			c0.97,0.18,1.94,0.38,2.91,0.62C216.1,227.55,222.19,233.55,222.19,233.55z"/>
		<path class="st2" d="M107.23,64.82c0.48,0.82,1.07,1.57,1.75,2.24C108.48,66.25,107.9,65.5,107.23,64.82z"/>
		<path class="st2" d="M184.82,134.26c0.66,0.62,1.27,1.29,1.84,1.99c-1.86-4.49-4.16-8.37-6.99-11.04
			c-14.01-13.21-36.94-12.36-36.94-12.36l28.76,13.23C176.41,127.92,180.94,130.7,184.82,134.26z"/>
		<path class="st2" d="M215.34,76.63c1.73,2.51,0.76,13.17-0.82,24.07c-3.33,22.27,0.35,45.03,10.53,65.11
			c1.35,2.69,2.86,5.29,4.53,7.79c-9.71-19.77-13.16-42.05-9.9-63.85c1.58-10.9,2.56-21.56,0.82-24.07
			c-3.82-5.54-19.96-39.63-21.23-48.58c-0.38-3.47-0.47-6.97-0.27-10.46c-3.3-9.39-3.61-26.29-3.61-26.29s-2.55,18.75-1.27,27.7
			C195.38,37,211.52,71.09,215.34,76.63z"/>
		<path class="st2" d="M255.18,17.72c-0.17-0.84-0.43-1.66-0.77-2.45C254.41,15.27,254.74,16.19,255.18,17.72z"/>
		<path class="st2" d="M105.19,60.63c3.74,0.46,8.05,1.61,11.33,4.28c-0.21-0.73-0.4-1.38-0.55-1.93
			c-3.82-14.06-24.21-11.51-24.21-11.51C100.98,52.67,103.36,56.62,105.19,60.63z"/>
		<path class="st1" d="M505.65,414.81c-6.33,9.75-4.6,22.14-4.6,22.14s12-3.4,18.34-13.15s4.6-22.14,4.6-22.14
			S511.98,405.07,505.65,414.81z"/>
		<path class="st3" d="M510.4,416.53c-0.5,11.62-9.1,20.69-9.1,20.69s-7.79-9.78-7.29-21.4c0.5-11.62,9.1-20.69,9.1-20.69
			S510.91,404.91,510.4,416.53z"/>
		<path class="st4" d="M398.86,342.97c0,0,7.29-7.67,10.27-6.13c2.98,1.54-8.58,8.4-8.58,8.4L398.86,342.97z"/>
		<path class="st2" d="M398.86,342.97c0,0,7.29-7.67,10.27-6.13c2.98,1.54-8.58,8.4-8.58,8.4L398.86,342.97z"/>
		<path class="st5" d="M376.62,326.23c0,0-2.68,4.82-1.98,10.01s7.11,21.86,9.29,21.56c2.18-0.3,18.32-12.23,18.32-12.23l-3.08-4.31
			l-11.79,7.17C387.39,348.43,385.59,322.78,376.62,326.23z"/>
		<path class="st6" d="M420.35,337.96l-18.39,10.13c-0.11,0.07-0.23,0.12-0.35,0.14c-0.13,0.02-0.26,0.01-0.38-0.03
			c-0.12-0.04-0.24-0.1-0.33-0.18s-0.17-0.19-0.22-0.31l-4.5-9.45c-0.08-0.27-0.07-0.56,0.04-0.82c0.11-0.26,0.31-0.47,0.56-0.6
			l15.26-7.9c0.19-0.11,0.41-0.15,0.63-0.11c0.21,0.04,0.41,0.16,0.54,0.34l7.62,7.21c0.07,0.13,0.12,0.28,0.14,0.43
			c0.02,0.15,0,0.31-0.04,0.45c-0.05,0.15-0.12,0.28-0.22,0.4C420.61,337.79,420.49,337.89,420.35,337.96z"/>
		<path class="st3" d="M419.13,336.56l-17.24,9.89l-4.59-8.29l14.79-8.07L419.13,336.56z"/>
		<path class="st7" d="M404.67,333.71c0.09-0.11,0.09-0.26,0-0.34s-0.24-0.05-0.33,0.06s-0.09,0.26,0,0.34
			C404.43,333.84,404.58,333.81,404.67,333.71z"/>
		<path class="st7" d="M411.01,342.15c0.06-0.07,0.06-0.17,0-0.22s-0.16-0.04-0.22,0.04c-0.06,0.07-0.06,0.17,0,0.22
			S410.95,342.22,411.01,342.15z"/>
		<path class="st2" d="M376.62,326.23c0,0-2.68,4.82-1.98,10.01s7.11,21.86,9.29,21.56c2.18-0.3,18.32-12.23,18.32-12.23l-3.08-4.31
			l-11.79,7.17C387.39,348.43,385.59,322.78,376.62,326.23z"/>
		<path class="st4" d="M393.93,344.44c0,0,8.25-6.62,11-4.69c2.75,1.93-9.62,7.17-9.62,7.17L393.93,344.44z"/>
		<path class="st4" d="M382.94,317.96c4.4,0,7.97-3.58,7.97-8c0-4.42-3.57-8-7.97-8c-4.4,0-7.97,3.58-7.97,8
			C374.96,314.37,378.53,317.96,382.94,317.96z"/>
		<path class="st4" d="M410.43,365.68c0,0,8.52,1.1,8.25,6.35c-0.27,5.24-6.6,27.04-6.6,27.04l-0.55,8.55c0,0,0.55,14.35-1.1,14.07
			c-1.65-0.28-5.5-10.21-5.5-10.21s-4.67-3.04-2.48-5.79c2.2-2.76,3.85-2.48,3.3-5.52c-0.55-3.03-0.27-15.72,1.38-19.59
			c1.65-3.86,2.61-5.99,2.61-5.99l-5.36-0.35L410.43,365.68z"/>
		<path class="st2" d="M410.43,365.68c0,0,8.52,1.1,8.25,6.35c-0.27,5.24-6.6,27.04-6.6,27.04l-0.55,8.55c0,0,0.55,14.35-1.1,14.07
			c-1.65-0.28-5.5-10.21-5.5-10.21s-4.67-3.04-2.48-5.79c2.2-2.76,3.85-2.48,3.3-5.52c-0.55-3.03-0.27-15.72,1.38-19.59
			c1.65-3.86,2.61-5.99,2.61-5.99l-5.36-0.35L410.43,365.68z"/>
		<path class="st4" d="M410.98,367.06c0,0,8.25,1.93,9.07,7.45c0.82,5.52,4.95,21.79,4.95,21.79l4.4,10.21
			c0,0,6.87,12.41,3.85,12.14c-3.02-0.28-7.15-6.35-8.52-6.35c-1.37,0-5.5-1.65-5.22-2.76c0.28-1.1,2.2-4.41,2.2-4.41l-6.65-11.63
			c-1.28-2.25-2.26-4.66-2.88-7.17c-0.68-2.72-1.46-6.06-1.46-7.14c0-1.93-5.5-2.76-5.5-2.76L410.98,367.06z"/>
		<path class="st6" d="M384.03,349.41l3.85,11.03c0,0,6.05,1.65,10.45,3.03c4.4,1.38,12.65-0.55,13.47,2.76
			c0.83,3.31-1.65,9.1-4.12,10.48c-2.48,1.38-3.85,2.76-11.82,0.55c-7.97-2.21-26.94-2.76-26.94-2.76
			c-1.84,1.11-3.91,1.77-6.05,1.93c-3.57,0.28-4.4,0.55-5.5-0.28c-1.1-0.83,0.55-0.83,1.1-3.03c0.55-2.21,0.82-1.38,3.3-3.86
			c2.48-2.48,4.4-9.93,5.77-12.41c1.37-2.48,2.2-7.45,2.2-7.45H384.03z"/>
		<path class="st4" d="M383.49,316.58c-1,0.73-1.82,1.68-2.39,2.78c-0.57,1.1-0.88,2.32-0.91,3.56c0,4.14-8.25-4.41-8.25-4.41
			s4.4-5.52,4.4-7.17S383.49,316.58,383.49,316.58z"/>
		<path class="st5" d="M373.04,314.92c0,0,4.95,1.93,6.05,4.69s5.22,8.55,5.22,8.55s5.77,6.07,3.85,12.69
			c-1.92,6.62-3.57,8.28-3.57,9.38c0,1.1-2.75,3.03-4.95,2.76c-2.2-0.28-10.45-1.38-11-2.48c-0.55-1.1-3.85-16.83-1.65-22.62
			C368.77,323.46,370.79,319.13,373.04,314.92z"/>
		<path class="st6" d="M385.25,310.32c1.78,0.43,3.53-0.72,5-1.85c0.83-0.64,1.74-1.56,1.49-2.59c-0.23-0.92-1.3-1.44-1.46-2.37
			c-0.11-0.65,0.27-1.28,0.3-1.93c-0.03-0.5-0.19-0.98-0.47-1.4c-0.28-0.41-0.67-0.74-1.13-0.95c-0.87-0.47-1.86-0.67-2.75-1.09
			c-1.36-0.64-2.5-1.8-3.95-2.17c-1.99-0.51-4.02,0.57-6.06,0.71c-1.24,0.08-2.49-0.18-3.72,0.03c-1.17,0.24-2.22,0.86-2.99,1.77
			c-0.77,0.91-1.21,2.06-1.26,3.25c-0.02,0.88,0.16,1.86-0.36,2.55c-0.21,0.24-0.44,0.45-0.7,0.64c-1.82,1.48-2.65,3.94-2.74,6.32
			c-0.05,1.17,0.2,2.56,1.23,3.05c0.55,0.19,1.14,0.27,1.72,0.24c0.29-0.01,0.59,0.05,0.85,0.17c0.26,0.13,0.49,0.32,0.67,0.55
			c0.47,0.83-0.23,2.07,0.38,2.79c0.46,0.55,1.36,0.37,1.9-0.1c0.54-0.46,0.88-1.14,1.39-1.63c1-0.97,2.47-1.14,3.84-1.29
			c0.41,0,0.8-0.13,1.13-0.37c0.25-0.26,0.41-0.59,0.46-0.95c0.18-0.82,0.18-1.67,0.01-2.49c-0.09-0.26-0.1-0.53-0.03-0.79
			c0.09-0.18,0.23-0.34,0.4-0.45c0.85-0.64,2.33-1.57,3.43-1.39C383.06,308.79,384.02,310.03,385.25,310.32z"/>
		<path class="st5" d="M374.14,324.85c0,0-3.3,4.41-3.3,9.65c0,5.24,4.12,22.62,6.32,22.62c2.2,0,19.79-9.66,19.79-9.66l-2.47-4.69
			l-12.65,5.52C381.84,348.3,383.49,322.65,374.14,324.85z"/>
		<path class="st3" d="M411.47,374.65h-63.13v12.28h63.13V374.65z"/>
		<path class="st1" d="M379.9,387.58c-1.37,0-2.68-0.55-3.64-1.52c-0.97-0.97-1.51-2.28-1.51-3.65V236.95c0-0.98,0.28-1.94,0.8-2.76
			c0.52-0.83,1.26-1.49,2.14-1.91c0.88-0.42,1.86-0.58,2.83-0.46c0.97,0.12,1.88,0.51,2.64,1.12l-0.81,1
			c-0.57-0.46-1.25-0.75-1.98-0.84c-0.72-0.09-1.46,0.03-2.12,0.35c-0.66,0.32-1.22,0.81-1.61,1.43c-0.39,0.62-0.6,1.34-0.6,2.07
			V382.4c0,1.03,0.41,2.01,1.13,2.74c0.73,0.73,1.71,1.14,2.73,1.14V387.58z"/>
		<path class="st1" d="M551.26,436.06H32.03v1.29h519.23V436.06z"/>
		<path class="st3" d="M370.16,306.34c0.28-0.22-0.04-1.08-0.71-1.92c-0.67-0.83-1.43-1.33-1.71-1.11
			c-0.28,0.22,0.04,1.08,0.71,1.92C369.11,306.07,369.88,306.57,370.16,306.34z"/>
		<path class="st1" d="M314.96,414.81c-6.33,9.75-4.6,22.14-4.6,22.14s12-3.4,18.34-13.15s4.6-22.14,4.6-22.14
			S321.3,405.07,314.96,414.81z"/>
		<path class="st3" d="M319.72,416.53c-0.5,11.62-9.1,20.69-9.1,20.69s-7.79-9.78-7.29-21.4c0.5-11.62,9.1-20.69,9.1-20.69
			S320.22,404.91,319.72,416.53z"/>
		<path class="st1" d="M210.74,418.5c3.03,11.23,13.4,18.19,13.4,18.19s5.46-11.25,2.43-22.49c-3.03-11.23-13.4-18.19-13.4-18.19
			S207.71,407.27,210.74,418.5z"/>
		<path class="st3" d="M215.19,416.08c8.31,8.12,9.32,20.59,9.32,20.59s-12.46-0.68-20.76-8.8s-9.32-20.59-9.32-20.59
			S206.88,407.97,215.19,416.08z"/>
		<path class="st3" d="M187.65,111.57c-0.72,11.61-9.49,20.51-9.49,20.51s-7.6-9.93-6.88-21.54c0.72-11.61,9.49-20.51,9.49-20.51
			S188.37,99.96,187.65,111.57z"/>
		<path class="st3" d="M96.23,38.16c9.81,6.21,13.39,18.2,13.39,18.2s-12.32,1.93-22.13-4.27s-13.39-18.2-13.39-18.2
			S86.42,31.95,96.23,38.16z"/>
		<path class="st3" d="M74.32,179.73c9.81,6.21,13.39,18.2,13.39,18.2s-12.32,1.93-22.13-4.27s-13.39-18.2-13.39-18.2
			S64.52,173.52,74.32,179.73z"/>
		<path class="st3" d="M273.72,58.85c-2.96,11.25-13.29,18.27-13.29,18.27s-5.53-11.22-2.57-22.47
			c2.96-11.25,13.29-18.27,13.29-18.27S276.68,47.6,273.72,58.85z"/>
		<path class="st3" d="M367.02,67.63c-3.48,11.1-14.12,17.63-14.12,17.63s-5.01-11.47-1.53-22.57c3.48-11.1,14.12-17.63,14.12-17.63
			S370.5,56.53,367.02,67.63z"/>
		<path class="st3" d="M467.87,191.16c-6.3,9.77-18.29,13.22-18.29,13.22s-1.78-12.39,4.52-22.16c6.3-9.77,18.29-13.22,18.29-13.22
			S474.17,181.39,467.87,191.16z"/>
	</g>
</g>
</svg>
