<?xml version="1.0" encoding="utf-8"?>
<!-- Generator: Adobe Illustrator 25.0.0, SVG Export Plug-In . SVG Version: 6.00 Build 0)  -->
<svg version="1.1" id="Layer_1" xmlns="http://www.w3.org/2000/svg" xmlns:xlink="http://www.w3.org/1999/xlink" x="0px" y="0px"
	 viewBox="0 0 279 262" style="enable-background:new 0 0 279 262;" xml:space="preserve">
<style type="text/css">
	.st0{clip-path:url(#SVGID_2_);}
	.st1{fill:#403D56;}
	.st2{fill:#A1616A;}
	.st3{fill:#2F2F41;}
	.st4{fill:#D0CCE0;}
	.st5{fill:#F07F12;}
	.st6{opacity:0.1;fill:#FFFFFF;enable-background:new    ;}
	.st7{opacity:0.1;fill:#010202;enable-background:new    ;}
	.st8{fill:#FFFFFF;}
</style>
<g>
	<g>
		<defs>
			<rect id="SVGID_1_" x="31.41" y="29.5" width="216.18" height="203.01"/>
		</defs>
		<clipPath id="SVGID_2_">
			<use xlink:href="#SVGID_1_"  style="overflow:visible;"/>
		</clipPath>
		<g class="st0">
			<path class="st1" d="M137.47,232.5c35.57,0,64.4-4.46,64.4-9.95s-28.83-9.95-64.4-9.95s-64.4,4.46-64.4,9.95
				S101.9,232.5,137.47,232.5z"/>
			<path class="st2" d="M135.77,71.65c0,0,1.57,7.22-3.77,10.04c0,0,1.26,16.01,9.43,16.33c8.17,0.32,8.17-8.48,8.17-8.48
				l-1.26-4.71c0,0-5.97-3.46-2.2-10.04L135.77,71.65z"/>
			<path class="st3" d="M142.52,75.58c8.16,0,14.78-6.6,14.78-14.75s-6.62-14.75-14.78-14.75c-8.16,0-14.78,6.6-14.78,14.75
				C127.75,68.97,134.36,75.58,142.52,75.58z"/>
			<path class="st2" d="M126.96,105.24v17.58l26.1-0.95l-1.88-17.26L126.96,105.24z"/>
			<path class="st2" d="M142.68,76.67c5.21,0,9.43-4.22,9.43-9.41c0-5.2-4.22-9.41-9.43-9.41c-5.21,0-9.43,4.22-9.43,9.41
				C133.25,72.45,137.47,76.67,142.68,76.67z"/>
			<path class="st2" d="M131.05,81.7c0,0-5.35-0.95-7.23,0s-4.09,0.63-6.28,9.73l-4.09,18.84c0,0-0.63,5.65,4.09,5.02
				s4.4-8.79,4.4-8.79l3.15-7.22l5.66-6.28L131.05,81.7z"/>
			<path class="st2" d="M148.97,85.46c0,0,7.55,0.95,8.17,5.02c0.63,4.08-2.83,20.72-2.83,20.72l-5.35-5.34l2.83-10.36L148.97,85.46
				z"/>
			<path class="st4" d="M129.64,81.53l0.15,5.8l-4.4,9.41l0.95,11.61l25.23,0.08l-0.08-5.42c0,0,3.46-4.39,1.57-8.16
				c-1.88-3.77-3.3-9.58-3.3-9.58l-2.52-1.56c0,0,4.25,9.89-4.56,8.32c-8.81-1.57-9.27-11.46-9.27-11.46L129.64,81.53z"/>
			<path class="st2" d="M122.24,144.79l-4.4,24.8l-5.03,36.1l-2.2,4.08l1.88,4.08l5.35-2.51l2.2-9.73c0,0,7.55-9.1,6.28-20.72
				l13.52-32.33L122.24,144.79z"/>
			<path class="st2" d="M143.94,147.3l3.15,30.76c0,0-0.63,8.48,1.26,16.01c1.88,7.53,3.15,20.72,3.15,20.72h6.29l-1.26-38.61
				l4.08-31.39L143.94,147.3z"/>
			<path class="st3" d="M139.54,119.05c0,0-13.2-0.94-13.2,0.63v3.14c0,0-2.52,4.08-2.2,7.85c0.32,3.77-11.95,12.24-4.08,16.01
				c7.86,3.77,18.23,5.02,19.8,3.77c1.57-1.26,2.52-6.28,2.52-6.28s0,5.65,2.83,5.97s19.8-3.14,19.8-5.97s-12.58-28.1-12.58-28.1
				S143.31,119.36,139.54,119.05z"/>
			<path class="st3" d="M112.19,210.08c0,0-1.26-2.2-2.52-0.63c-1.26,1.57-5.97,5.34-5.97,5.34s-11.63,3.14-3.77,7.85
				c0,0,6.92,0,9.75-2.2s5.66-1.26,5.66-1.26s4.4-0.31,4.72-2.2c0.31-1.88-1.65-8.1-1.65-8.1S116.27,211.65,112.19,210.08z"/>
			<path class="st3" d="M154,211.96c0,0-3.77-0.95-3.77,0c0,0.94-5.35,6.59-0.95,9.1c4.4,2.51,5.03,1.88,5.35,4.39
				c0.32,2.51,8.49,4.39,9.75,2.83c1.26-1.57,2.2-4.39,0.63-5.65c-1.57-1.26-6.6-9.1-6.6-10.67C158.4,210.4,154,211.96,154,211.96z"
				/>
			<path class="st1" d="M146.38,90.11c0.61,0,1.11-0.25,1.11-0.55s-0.5-0.55-1.11-0.55c-0.61,0-1.1,0.25-1.1,0.55
				C145.27,89.87,145.77,90.11,146.38,90.11z"/>
			<path class="st5" d="M146.5,91.89c1.25,0,2.25-0.52,2.25-1.15s-1.02-1.15-2.25-1.15s-2.25,0.52-2.25,1.15
				S145.26,91.89,146.5,91.89z"/>
			<path class="st5" d="M149.16,91.44h-5.42v3.96h5.42V91.44z"/>
			<path class="st5" d="M152.85,97.63h-12.84v19.39h12.84L152.85,97.63L152.85,97.63z"/>
			<path class="st5" d="M153.42,97.4c0,1.91-3.15,1.26-6.97,1.26c-3.82,0-7.07,0.6-7.07-1.3s3.25-3.91,7.07-3.91
				C150.28,93.44,153.42,95.5,153.42,97.4z"/>
			<path class="st1" d="M153.42,99.46h-13.89v1.5h13.89L153.42,99.46L153.42,99.46z"/>
			<path class="st1" d="M153.52,113.98h-13.89v1.5h13.89L153.52,113.98L153.52,113.98z"/>
			<path class="st1" d="M153.42,107.47h-13.89v3.01h13.89L153.42,107.47L153.42,107.47z"/>
			<path class="st5" d="M153.32,116.34c0,0.64,0.2,2.46-6.73,2.46c-7.83,0-7.18-1.92-7.18-2.56s3.46,0.25,7.18,0.25
				C150.32,116.49,153.32,115.7,153.32,116.34z"/>
			<path class="st1" d="M149.61,90.74h-6.42v2.15h6.42V90.74z"/>
			<path class="st6" d="M141.46,102.24h-0.85v4.71h0.85V102.24z"/>
			<path class="st6" d="M141.46,111.2h-0.85v1.75h0.85V111.2z"/>
			<path class="st2" d="M155.57,107.44c0,0-5.97-7.85-5.66-2.2c0.31,5.65,3.77,8.48,4.4,8.48S157.45,113.09,155.57,107.44z"/>
			<path class="st7" d="M126.96,113.48c0.47,0.08,8.02-2.75,8.02-2.75l4.72-0.63l-12.73,5.32L126.96,113.48L126.96,113.48z"/>
			<path class="st2" d="M117.22,108.06c0,0,2.52-1.57,7.55-0.95l9.75-2.51c0,0,9.12-5.34,12.58,1.26s-12.89,4.39-12.89,4.39
				s-11,8.79-17.6,4.08L117.22,108.06z"/>
			<path class="st3" d="M129.01,54.54c2.43,0,4.4-1.97,4.4-4.39c0-2.43-1.97-4.39-4.4-4.39s-4.4,1.97-4.4,4.39
				C124.61,52.57,126.58,54.54,129.01,54.54z"/>
			<path class="st3" d="M156.04,53.28c2.43,0,4.4-1.97,4.4-4.39c0-2.43-1.97-4.39-4.4-4.39s-4.4,1.97-4.4,4.39
				C151.64,51.32,153.61,53.28,156.04,53.28z"/>
			<path class="st3" d="M151.32,47.01c0-1.08,0.4-2.13,1.12-2.94c0.73-0.81,1.72-1.32,2.8-1.43c-0.61-0.07-1.24-0.01-1.83,0.19
				c-0.59,0.19-1.13,0.5-1.59,0.91c-0.46,0.41-0.83,0.91-1.08,1.48c-0.26,0.57-0.38,1.18-0.38,1.79c0,0.62,0.13,1.22,0.38,1.79
				s0.62,1.07,1.08,1.48c0.46,0.41,1,0.72,1.59,0.91c0.59,0.19,1.21,0.26,1.83,0.19c-1.08-0.12-2.08-0.63-2.8-1.43
				C151.73,49.14,151.32,48.09,151.32,47.01z"/>
			<path class="st3" d="M124.09,53.7c-0.76-0.77-1.21-1.81-1.26-2.88c-0.05-1.08,0.31-2.15,1-2.98c-0.12,0.1-0.24,0.2-0.36,0.31
				c-0.84,0.81-1.31,1.93-1.32,3.09c-0.01,1.16,0.44,2.29,1.26,3.12c0.81,0.83,1.93,1.31,3.1,1.32c1.17,0.02,2.29-0.44,3.12-1.26
				c0.11-0.11,0.22-0.22,0.32-0.35c-0.85,0.67-1.92,1.01-3.01,0.94C125.87,54.94,124.85,54.48,124.09,53.7z"/>
			<path class="st3" d="M142.52,53.91c-5.21,0-9.43,2.46-9.43,5.49c0,1.36,0.85,2.6,2.25,3.56l1.81-1.32l-0.5,2.06
				c0.2,0.09,0.42,0.19,0.64,0.27l2.71-3.16v3.88c0.83,0.13,1.67,0.2,2.52,0.2c5.21,0,9.43-2.46,9.43-5.49
				C151.95,56.38,147.73,53.91,142.52,53.91z"/>
			<path class="st5" d="M151.64,48.89c0,0-0.68,3.14,3.59,4.39L151.64,48.89z"/>
			<path class="st5" d="M133.09,49.46c0,0,1.57,3.51-3.15,5.08L133.09,49.46z"/>
			<path class="st1" d="M197.18,203.6c0.83-0.92,1.42-2.03,1.72-3.23s0.31-2.46,0.02-3.66s-0.88-2.32-1.69-3.25
				c-0.82-0.93-1.85-1.64-3.01-2.08c1.03-0.6,1.84-1.52,2.29-2.61c0.46-1.1,0.53-2.32,0.22-3.46c-0.31-1.15-0.99-2.16-1.94-2.89
				c-0.95-0.72-2.1-1.12-3.29-1.12c-1.19,0-2.35,0.4-3.29,1.12c-0.95,0.72-1.63,1.74-1.94,2.89c-0.31,1.15-0.23,2.37,0.22,3.46
				c0.46,1.1,1.26,2.01,2.29,2.61c-1.16,0.44-2.19,1.15-3.01,2.08c-0.82,0.93-1.4,2.04-1.69,3.25c-0.29,1.2-0.29,2.46,0.02,3.66
				s0.89,2.31,1.72,3.23c-1.94,1.22-3.42,3.05-4.22,5.18c-0.81,2.14-0.9,4.49-0.26,6.68s1.98,4.12,3.8,5.5
				c1.83,1.37,4.06,2.12,6.35,2.12s4.52-0.74,6.35-2.12c1.84-1.37,3.17-3.3,3.81-5.5s0.55-4.54-0.26-6.68
				C200.59,206.65,199.11,204.83,197.18,203.6z"/>
			<path class="st5" d="M99.53,141.63c4.35,0,7.88-3.52,7.88-7.86s-3.53-7.86-7.88-7.86c-4.35,0-7.88,3.52-7.88,7.86
				C91.65,138.11,95.17,141.63,99.53,141.63z"/>
			<path class="st8" d="M97.83,140.2c0.77-0.62,0.28-2.49-1.08-4.18c-1.37-1.69-3.1-2.56-3.87-1.93c-0.77,0.62-0.28,2.49,1.08,4.18
				C95.33,139.96,97.06,140.82,97.83,140.2z"/>
			<path class="st1" d="M47.99,118.42c4.35,0,7.88-3.52,7.88-7.86c0-4.35-3.53-7.86-7.88-7.86s-7.88,3.53-7.88,7.86
				C40.12,114.9,43.64,118.42,47.99,118.42z"/>
			<path class="st8" d="M44.54,109.63c0.57-2.1,0.25-4.01-0.71-4.26c-0.95-0.26-2.19,1.23-2.75,3.33s-0.25,4.01,0.71,4.26
				C42.74,113.22,43.97,111.72,44.54,109.63z"/>
			<path class="st1" d="M36.31,69.24c2.71,0,4.91-2.19,4.91-4.9c0-2.7-2.2-4.9-4.91-4.9s-4.91,2.19-4.91,4.9
				C31.41,67.04,33.6,69.24,36.31,69.24z"/>
			<path class="st8" d="M34.16,63.75c0.36-1.31,0.15-2.49-0.44-2.66s-1.36,0.77-1.72,2.08c-0.36,1.31-0.15,2.49,0.44,2.66
				C33.04,65.99,33.81,65.06,34.16,63.75z"/>
			<path class="st1" d="M87.18,190.51c2.71,0,4.91-2.19,4.91-4.9c0-2.7-2.2-4.9-4.91-4.9s-4.91,2.19-4.91,4.9
				C82.28,188.31,84.47,190.51,87.18,190.51z"/>
			<path class="st8" d="M85.03,185.02c0.36-1.31,0.15-2.49-0.44-2.66c-0.6-0.16-1.36,0.77-1.72,2.08c-0.36,1.31-0.15,2.49,0.44,2.66
				C83.91,187.26,84.68,186.33,85.03,185.02z"/>
			<path class="st1" d="M239.71,135.94c4.35,0,7.88-3.52,7.88-7.86c0-4.35-3.53-7.86-7.88-7.86c-4.35,0-7.88,3.53-7.88,7.86
				C231.83,132.42,235.36,135.94,239.71,135.94z"/>
			<path class="st8" d="M234.34,132.01c0.99,0,1.79-1.76,1.79-3.94c0-2.17-0.8-3.94-1.79-3.94s-1.79,1.76-1.79,3.94
				C232.55,130.25,233.35,132.01,234.34,132.01z"/>
			<path class="st5" d="M214.29,85.52c4.35,0,7.88-3.53,7.88-7.86c0-4.35-3.53-7.86-7.88-7.86c-4.35,0-7.88,3.53-7.88,7.86
				C206.41,82.01,209.93,85.52,214.29,85.52z"/>
			<path class="st8" d="M212.18,74.77c1.76-1.27,2.72-2.95,2.14-3.76c-0.58-0.8-2.48-0.42-4.24,0.86c-1.76,1.27-2.72,2.95-2.14,3.76
				C208.52,76.43,210.42,76.04,212.18,74.77z"/>
			<path class="st5" d="M234.34,39.3c2.71,0,4.91-2.19,4.91-4.9c0-2.7-2.2-4.9-4.91-4.9s-4.91,2.19-4.91,4.9
				S231.63,39.3,234.34,39.3z"/>
			<path class="st8" d="M233.03,32.6c1.1-0.79,1.7-1.84,1.33-2.34c-0.36-0.5-1.54-0.26-2.64,0.53c-1.1,0.79-1.7,1.84-1.33,2.34
				C230.74,33.63,231.93,33.39,233.03,32.6z"/>
			<path class="st1" d="M197.45,165.52c2.71,0,4.91-2.19,4.91-4.9c0-2.7-2.2-4.9-4.91-4.9c-2.71,0-4.91,2.19-4.91,4.9
				C192.55,163.32,194.75,165.52,197.45,165.52z"/>
			<path class="st8" d="M196.15,158.81c1.1-0.79,1.7-1.84,1.33-2.34c-0.36-0.5-1.54-0.26-2.64,0.53c-1.1,0.79-1.7,1.84-1.33,2.34
				C193.86,159.85,195.05,159.61,196.15,158.81z"/>
		</g>
	</g>
</g>
</svg>
