<?xml version="1.0" encoding="utf-8"?>
<!-- Generator: Adobe Illustrator 25.0.0, SVG Export Plug-In . SVG Version: 6.00 Build 0)  -->
<svg version="1.1" id="Layer_1" xmlns="http://www.w3.org/2000/svg" xmlns:xlink="http://www.w3.org/1999/xlink" x="0px" y="0px"
	 viewBox="0 0 254 277" style="enable-background:new 0 0 254 277;" xml:space="preserve">
<style type="text/css">
	.st0{clip-path:url(#SVGID_2_);}
	.st1{fill:#403D56;}
	.st2{opacity:0.1;fill:#010202;enable-background:new    ;}
	.st3{fill:#F07F12;}
	.st4{fill:#CFCCDF;}
	.st5{fill:#F2F2F2;}
	.st6{fill:#2F2F41;}
	.st7{fill:#F6B7B9;}
</style>
<g>
	<g>
		<defs>
			<rect id="SVGID_1_" x="25.5" y="27.81" width="203" height="221.38"/>
		</defs>
		<clipPath id="SVGID_2_">
			<use xlink:href="#SVGID_1_"  style="overflow:visible;"/>
		</clipPath>
		<g class="st0">
			<path class="st1" d="M228.5,227.16c0,6.72-45.44,22.03-101.5,22.03S25.5,233.88,25.5,227.16c0-6.72,45.44-2.3,101.5-2.3
				C183.06,224.85,228.5,220.44,228.5,227.16z"/>
			<path class="st2" d="M228.5,227.16c0,6.72-45.44,22.03-101.5,22.03S25.5,233.88,25.5,227.16c0-6.72,45.44-2.3,101.5-2.3
				C183.06,224.85,228.5,220.44,228.5,227.16z"/>
			<path class="st3" d="M54.41,137.72c2.36,0,4.27-1.92,4.27-4.28s-1.91-4.28-4.27-4.28c-2.36,0-4.27,1.91-4.27,4.28
				C50.14,135.81,52.05,137.72,54.41,137.72z"/>
			<path class="st3" d="M73.13,170.51c2.36,0,4.27-1.92,4.27-4.28c0-2.36-1.91-4.28-4.27-4.28c-2.36,0-4.27,1.91-4.27,4.28
				C68.86,168.59,70.77,170.51,73.13,170.51z"/>
			<path class="st3" d="M58.68,164.03c2.36,0,4.27-1.92,4.27-4.28c0-2.36-1.91-4.28-4.27-4.28c-2.36,0-4.27,1.91-4.27,4.28
				C54.41,162.12,56.32,164.03,58.68,164.03z"/>
			<path class="st4" d="M60.04,220.43c-0.07-0.12-1.85-3.09-2.47-9.26c-0.57-5.66-0.2-15.2,4.74-28.51
				c9.37-25.21-2.16-45.55-2.28-45.75l0.57-0.33c0.03,0.05,3.01,5.23,4.76,13.5c2.32,10.95,1.48,22.33-2.44,32.82
				c-9.35,25.17-2.4,37.08-2.33,37.2L60.04,220.43z"/>
			<path class="st4" d="M56.37,135.75c-0.91,0-1.8-0.27-2.56-0.78s-1.34-1.22-1.69-2.06s-0.44-1.77-0.26-2.66
				c0.18-0.9,0.62-1.71,1.25-2.36c0.64-0.65,1.46-1.08,2.36-1.26c0.9-0.18,1.81-0.09,2.65,0.26s1.56,0.94,2.06,1.69
				c0.5,0.76,0.78,1.65,0.78,2.56c0,1.22-0.49,2.39-1.35,3.25C58.76,135.26,57.6,135.75,56.37,135.75z M56.37,127.2
				c-0.78,0-1.54,0.23-2.19,0.66c-0.65,0.43-1.15,1.05-1.45,1.77c-0.3,0.72-0.38,1.51-0.22,2.28c0.15,0.77,0.53,1.47,1.08,2.02
				c0.55,0.55,1.25,0.93,2.02,1.08s1.56,0.07,2.28-0.22c0.72-0.3,1.33-0.81,1.77-1.45c0.43-0.65,0.66-1.41,0.66-2.19
				c0-1.05-0.42-2.05-1.16-2.79C58.43,127.61,57.42,127.2,56.37,127.2z"/>
			<path class="st4" d="M69.85,151.21c2.36,0,4.27-1.91,4.27-4.28c0-2.36-1.91-4.28-4.27-4.28c-2.36,0-4.27,1.91-4.27,4.28
				C65.57,149.29,67.48,151.21,69.85,151.21z"/>
			<path class="st4" d="M60.65,162.05c-0.91,0-1.8-0.27-2.56-0.78c-0.76-0.5-1.34-1.22-1.69-2.06c-0.35-0.84-0.44-1.77-0.26-2.66
				c0.18-0.9,0.62-1.71,1.25-2.36c0.64-0.64,1.46-1.08,2.36-1.26c0.9-0.18,1.81-0.09,2.65,0.26c0.84,0.35,1.56,0.94,2.06,1.69
				s0.78,1.65,0.78,2.56c0,1.22-0.49,2.39-1.35,3.25C63.04,161.57,61.86,162.05,60.65,162.05z M60.65,153.51
				c-0.78,0-1.54,0.23-2.19,0.66c-0.65,0.43-1.15,1.05-1.45,1.77c-0.3,0.72-0.38,1.51-0.22,2.28c0.15,0.77,0.53,1.47,1.08,2.02
				s1.25,0.93,2.02,1.08c0.77,0.15,1.56,0.07,2.28-0.22c0.72-0.3,1.33-0.81,1.77-1.45c0.43-0.65,0.66-1.41,0.66-2.19
				c0-1.05-0.42-2.05-1.16-2.79C62.7,153.92,61.7,153.51,60.65,153.51L60.65,153.51z"/>
			<path class="st4" d="M71.81,170.93c-0.91,0-1.8-0.27-2.56-0.78c-0.76-0.5-1.34-1.22-1.69-2.06s-0.44-1.77-0.26-2.66
				s0.62-1.71,1.25-2.36c0.64-0.65,1.46-1.08,2.36-1.26c0.9-0.18,1.81-0.09,2.65,0.26s1.56,0.94,2.06,1.69s0.78,1.65,0.78,2.56
				c0,1.22-0.49,2.39-1.35,3.25C74.2,170.44,73.04,170.93,71.81,170.93z M71.81,162.38c-0.78,0-1.54,0.23-2.19,0.66
				s-1.15,1.05-1.45,1.77c-0.3,0.72-0.38,1.51-0.22,2.28c0.15,0.77,0.53,1.47,1.08,2.02c0.55,0.55,1.25,0.93,2.02,1.08
				c0.77,0.15,1.56,0.07,2.28-0.22c0.72-0.3,1.33-0.81,1.77-1.45s0.66-1.41,0.66-2.19c0-1.05-0.42-2.05-1.16-2.79
				C73.86,162.8,72.86,162.39,71.81,162.38z"/>
			<path class="st4" d="M57.36,184.41c2.36,0,4.27-1.92,4.27-4.28s-1.91-4.28-4.27-4.28s-4.27,1.91-4.27,4.28
				C53.1,182.5,55.01,184.41,57.36,184.41z"/>
			<path class="st4" d="M62.62,220.59c0,0-4.27-10.52,8.54-18.41L62.62,220.59z"/>
			<path class="st4" d="M57.36,220.4c0,0-1.94-11.19-16.98-11.09L57.36,220.4z"/>
			<path class="st3" d="M211.53,224.53h-72.68c0,0-1.47-21.63,7.24-21.87c8.72-0.25,7.74,9.58,18.66-3.93
				c10.93-13.52,24.18-12.78,25.9-4.8c1.72,7.99-3.32,14.38,5.89,12.41C205.76,204.37,219.02,209.53,211.53,224.53z"/>
			<path class="st5" d="M173.96,224.53l-0.25-0.01c0.58-14.24,3.55-23.39,5.95-28.56c2.61-5.61,5.11-7.88,5.14-7.9l0.16,0.18
				c-0.02,0.02-2.51,2.27-5.09,7.85C177.49,201.23,174.53,210.35,173.96,224.53z"/>
			<path class="st5" d="M200.26,224.57l-0.23-0.07c2.84-9.75,9.53-15.91,9.59-15.97l0.17,0.18
				C209.72,208.77,203.08,214.88,200.26,224.57z"/>
			<path class="st5" d="M150.3,224.54l-0.24-0.03c0.97-6.95-0.78-12.35-2.41-15.65c-1.77-3.57-3.78-5.52-3.8-5.55l0.17-0.18
				c0.02,0.02,2.06,2,3.84,5.61C149.51,212.09,151.26,217.53,150.3,224.54z"/>
			<path class="st4" d="M221.39,224.85H131l-0.02-0.3c-0.06-0.76-1.21-18.75,4.62-25.17c1.3-1.43,2.87-2.19,4.66-2.24
				c3.8-0.11,6.18,1.32,8.1,2.45c3.63,2.15,6.02,3.57,14.73-7.2c9.43-11.67,19.61-14.19,25.46-12.79c3.78,0.9,6.39,3.45,7.14,6.99
				c0.72,3.36,0.5,6.51,0.31,9.04c-0.2,2.71-0.35,4.85,0.76,5.83c0.93,0.81,2.78,0.88,5.83,0.23c6.2-1.33,14.87-0.19,19.21,5.43
				c2.33,3.02,4.18,8.52-0.32,17.53L221.39,224.85z M131.63,224.2h89.36c3.36-6.81,3.46-12.57,0.3-16.66
				c-3.99-5.15-12.35-6.51-18.55-5.19c-3.32,0.71-5.29,0.59-6.4-0.38c-1.36-1.18-1.19-3.47-0.98-6.37c0.18-2.49,0.41-5.59-0.3-8.86
				c-0.71-3.28-3.13-5.65-6.66-6.5c-5.67-1.35-15.56,1.13-24.8,12.56c-9.06,11.21-11.8,9.59-15.58,7.35
				c-1.95-1.16-4.16-2.47-7.75-2.37c-1.61,0.05-3.01,0.73-4.19,2.02C130.86,205.59,131.49,221.77,131.63,224.2z"/>
			<path class="st1" d="M127,239.33c56.06,0,101.5-5.45,101.5-12.16c0-6.72-45.44-12.16-101.5-12.16s-101.5,5.44-101.5,12.16
				C25.5,233.88,70.94,239.33,127,239.33z"/>
			<path class="st6" d="M129.23,68.01c0,0-5.07-1.81-8.34,5.44c-3.26,7.26-8.34,15.24-8.34,15.24l2.9,0.73c0,0,0.73-5.08,2.54-5.8
				l-0.73,6.53c0,0,21.75,7.62,31.53-0.73l-0.36-2.54c0,0,1.45,0.36,1.45,2.54l1.09-1.09c0,0-1.09-2.17-4.35-5.08
				c-2.14-1.9-2.88-5.53-3.13-7.79c-0.19-1.89-0.94-3.68-2.17-5.14C139.16,67.79,135.22,65.12,129.23,68.01z"/>
			<path class="st7" d="M123.88,96.45l-5.26-6.58l-3.94-13.48l15.11-16.11c0,0,3.28-12.49,0.33-11.84
				c-2.96,0.66-3.61,9.86-3.61,9.86L107.46,73.1c0,0,1.97,20.72,7.55,27.95l4.27,13.48L123.88,96.45z"/>
			<path class="st7" d="M138.33,96.45l5.26-6.58l3.94-13.48l-15.11-16.11c0,0-3.28-12.49-0.33-11.84s3.61,9.86,3.61,9.86
				l19.05,14.79c0,0-1.97,20.72-7.55,27.95l-4.27,13.48L138.33,96.45z"/>
			<path class="st7" d="M131.11,90.87c4.72,0,8.54-3.83,8.54-8.55c0-4.72-3.83-8.55-8.54-8.55c-4.72,0-8.54,3.83-8.54,8.55
				C122.56,87.04,126.39,90.87,131.11,90.87z"/>
			<path class="st7" d="M127.17,86.92c0,0,0.33,6.91-1.65,9.21c-1.97,2.3-3.94,14.14,5.59,14.47c9.53,0.33,8.54-9.86,8.54-9.86
				l-1.97-5.59c0,0-2.96-4.28-1.97-8.22C135.7,86.92,127.17,86.92,127.17,86.92z"/>
			<path class="st7" d="M118.3,163.53l7.07,2.13c0,0,5.75-3.45,5.75-0.17c0,3.28-1.97,7.56-1.31,10.52c0.66,2.96,1.97,10.2,0,10.2
				c-1.97,0-5.91-12.83-5.91-12.83l-6.57-3.62L118.3,163.53z"/>
			<path class="st7" d="M127.17,209.57l-2.63,10.19c0,0-2.3,2.96,0,4.28c1.08,0.62,1.87,1.89,2.41,3.06
				c0.46,1.05,1.25,1.94,2.23,2.54c0.98,0.6,2.13,0.88,3.28,0.8c1.12-0.1,2.06-0.54,2.29-1.69c0.06-0.36,0.05-0.74-0.03-1.09
				c-0.09-0.36-0.25-0.7-0.47-0.98c-2.42-3.28-2.97-5.43-2.97-5.43l0.98-11.51L127.17,209.57z"/>
			<path class="st6" d="M120.81,83.83c0,0,2.9-3.99,5.43-4.72c2.53-0.73,2.9-4.36,2.9-4.36s6.52,7.26,10.51,7.62
				c3.99,0.36,0.36-8.71,0.36-8.71l-7.25-1.81l-6.89,0.73l-5.43,3.63L120.81,83.83z"/>
			<path class="st6" d="M115.34,138.55l-1.31,2.63c0,0-31.86,10.19-29.24,19.72c2.63,9.53,17.41,6.91,17.41,6.91l16.42,2.96
				l1.65-7.23l-11.5-2.96l19.71-7.23l0.66,33.53l-2.63,24l6.57,0.66c0,0,7.22-22.03,6.24-31.23c0,0,12.16-37.48,5.26-43.08
				C137.68,131.64,115.34,138.55,115.34,138.55z"/>
			<path class="st4" d="M131.49,100.74l-5.12-6.2l-3.47,1.59l-3.61,11.51c0,0-2.96,5.59,0.66,11.51c0,0,0.66,3.95-0.33,4.93
				c-0.98,0.98-1.31,7.23-1.31,7.23l-4.27,8.22c0,0,24.3,4.28,31.54-1.65c0,0-3.79-13.99-1.49-18.27c2.3-4.28,2.63-10.83,0-13.79
				s-5.4-10.69-5.4-10.69l-1.59-1.01L131.49,100.74z"/>
			<path class="st4" d="M150.66,51.64h-3.15v-3.16h-0.29v3.16h-3.15v0.29h3.15v3.16h0.29v-3.16h3.15V51.64z"/>
			<path class="st4" d="M120.71,45.05h-3.15v-3.16h-0.29v3.16h-3.15v0.29h3.15v3.16h0.29v-3.16h3.15V45.05z"/>
			<path class="st4" d="M135.09,30.97h-3.15v-3.16h-0.29v3.16h-3.15v0.28h3.15v3.16h0.29v-3.16h3.15V30.97z"/>
		</g>
	</g>
</g>
</svg>
