<?xml version="1.0" encoding="utf-8"?>
<!-- Generator: Adobe Illustrator 25.0.0, SVG Export Plug-In . SVG Version: 6.00 Build 0)  -->
<svg version="1.1" id="Layer_1" xmlns="http://www.w3.org/2000/svg" xmlns:xlink="http://www.w3.org/1999/xlink" x="0px" y="0px"
	 viewBox="0 0 254 277" style="enable-background:new 0 0 254 277;" xml:space="preserve">
<style type="text/css">
	.st0{clip-path:url(#SVGID_2_);}
	.st1{fill:#403D56;}
	.st2{opacity:0.1;fill:#010202;enable-background:new    ;}
	.st3{fill:#F07F12;}
	.st4{fill:#CFCCDF;}
	.st5{fill:#F2F2F2;}
	.st6{fill:#2F2F41;}
	.st7{fill:#F6B7B9;}
</style>
<g>
	<g>
		<g>
			<defs>
				<rect id="SVGID_1_" y="0" width="254" height="277"/>
			</defs>
			<clipPath id="SVGID_2_">
				<use xlink:href="#SVGID_1_"  style="overflow:visible;"/>
			</clipPath>
			<g class="st0">
				<path class="st1" d="M254,249.43c0,8.41-56.86,27.56-127,27.56S0,257.84,0,249.43s56.86-2.88,127-2.88
					C197.14,246.54,254,241.03,254,249.43z"/>
				<path class="st2" d="M254,249.43c0,8.41-56.86,27.56-127,27.56S0,257.84,0,249.43s56.86-2.88,127-2.88
					C197.14,246.54,254,241.03,254,249.43z"/>
				<path class="st3" d="M36.17,137.52c2.95,0,5.34-2.4,5.34-5.36c0-2.95-2.39-5.36-5.34-5.36s-5.34,2.39-5.34,5.36
					C30.83,135.13,33.22,137.52,36.17,137.52z"/>
				<path class="st3" d="M59.6,178.55c2.95,0,5.34-2.4,5.34-5.36c0-2.95-2.39-5.36-5.34-5.36c-2.95,0-5.34,2.39-5.34,5.36
					C54.25,176.15,56.64,178.55,59.6,178.55z"/>
				<path class="st3" d="M41.52,170.44c2.95,0,5.34-2.4,5.34-5.36s-2.39-5.36-5.34-5.36s-5.34,2.39-5.34,5.36
					S38.56,170.44,41.52,170.44z"/>
				<path class="st4" d="M43.22,241.01c-0.09-0.15-2.31-3.87-3.09-11.59c-0.71-7.08-0.25-19.02,5.93-35.67
					c11.72-31.54-2.7-56.99-2.85-57.24l0.71-0.41c0.04,0.06,3.77,6.54,5.96,16.89c2.9,13.7,1.85,27.94-3.05,41.07
					c-11.7,31.49-3,46.4-2.92,46.55L43.22,241.01z"/>
				<path class="st4" d="M38.63,135.06c-1.14,0-2.25-0.34-3.2-0.98c-0.95-0.64-1.68-1.53-2.11-2.58c-0.44-1.05-0.55-2.21-0.33-3.33
					c0.23-1.13,0.78-2.14,1.56-2.95c0.8-0.81,1.83-1.35,2.95-1.58s2.26-0.11,3.32,0.33c1.05,0.44,1.95,1.18,2.58,2.11
					c0.63,0.95,0.98,2.06,0.98,3.2c0,1.53-0.61,2.99-1.69,4.07C41.62,134.45,40.16,135.06,38.63,135.06z M38.63,124.36
					c-0.98,0-1.93,0.29-2.74,0.83s-1.44,1.31-1.81,2.21c-0.38,0.9-0.48,1.89-0.28,2.85c0.19,0.96,0.66,1.84,1.35,2.53
					c0.69,0.69,1.56,1.16,2.53,1.35c0.96,0.19,1.95,0.09,2.85-0.28c0.9-0.38,1.66-1.01,2.21-1.81c0.54-0.81,0.83-1.76,0.83-2.74
					c0-1.31-0.53-2.57-1.45-3.49C41.2,124.87,39.94,124.36,38.63,124.36z"/>
				<path class="st4" d="M55.49,154.4c2.95,0,5.34-2.39,5.34-5.36c0-2.95-2.39-5.36-5.34-5.36c-2.95,0-5.34,2.39-5.34,5.36
					C50.14,152,52.53,154.4,55.49,154.4z"/>
				<path class="st4" d="M43.98,167.97c-1.14,0-2.25-0.34-3.2-0.98c-0.95-0.63-1.68-1.53-2.11-2.58c-0.44-1.05-0.55-2.21-0.33-3.33
					c0.23-1.13,0.78-2.14,1.56-2.95c0.8-0.8,1.83-1.35,2.95-1.58s2.26-0.11,3.32,0.33c1.05,0.44,1.95,1.18,2.58,2.11
					c0.63,0.94,0.98,2.06,0.98,3.2c0,1.53-0.61,2.99-1.69,4.07C46.97,167.37,45.49,167.97,43.98,167.97z M43.98,157.28
					c-0.98,0-1.93,0.29-2.74,0.83c-0.81,0.54-1.44,1.31-1.81,2.21c-0.38,0.9-0.48,1.89-0.28,2.85c0.19,0.96,0.66,1.84,1.35,2.53
					c0.69,0.69,1.56,1.16,2.53,1.35c0.96,0.19,1.95,0.09,2.85-0.28c0.9-0.38,1.66-1.01,2.21-1.81c0.54-0.81,0.83-1.76,0.83-2.74
					c0-1.31-0.53-2.57-1.45-3.49C46.55,157.79,45.29,157.28,43.98,157.28L43.98,157.28z"/>
				<path class="st4" d="M57.94,179.08c-1.14,0-2.25-0.34-3.2-0.98c-0.95-0.63-1.68-1.53-2.11-2.58s-0.55-2.21-0.33-3.33
					c0.23-1.11,0.78-2.14,1.56-2.95c0.8-0.81,1.83-1.35,2.95-1.58c1.13-0.23,2.26-0.11,3.32,0.33c1.05,0.44,1.95,1.18,2.58,2.11
					c0.63,0.94,0.98,2.06,0.98,3.2c0,1.53-0.61,2.99-1.69,4.07C60.93,178.46,59.48,179.08,57.94,179.08z M57.94,168.38
					c-0.98,0-1.93,0.29-2.74,0.83c-0.81,0.54-1.44,1.31-1.81,2.21c-0.38,0.9-0.48,1.89-0.28,2.85c0.19,0.96,0.66,1.84,1.35,2.53
					c0.69,0.69,1.56,1.16,2.53,1.35c0.96,0.19,1.95,0.09,2.85-0.28c0.9-0.38,1.66-1.01,2.21-1.81c0.55-0.8,0.83-1.76,0.83-2.74
					c0-1.31-0.53-2.57-1.45-3.49C60.51,168.9,59.26,168.39,57.94,168.38z"/>
				<path class="st4" d="M39.86,195.94c2.95,0,5.34-2.4,5.34-5.36s-2.39-5.36-5.34-5.36c-2.95,0-5.34,2.39-5.34,5.36
					C34.53,193.55,36.92,195.94,39.86,195.94z"/>
				<path class="st4" d="M46.45,241.21c0,0-5.34-13.16,10.69-23.04L46.45,241.21z"/>
				<path class="st4" d="M39.86,240.98c0,0-2.43-14-21.25-13.88L39.86,240.98z"/>
				<path class="st3" d="M232.77,246.14h-90.94c0,0-1.84-27.06,9.06-27.36c10.91-0.31,9.68,11.99,23.35-4.92
					c13.68-16.92,30.25-15.99,32.41-6.01c2.15,10-4.15,17.99,7.37,15.53C225.55,220.92,242.14,227.37,232.77,246.14z"/>
				<path class="st5" d="M185.76,246.14l-0.31-0.01c0.73-17.82,4.44-29.27,7.44-35.74c3.27-7.02,6.39-9.86,6.43-9.88l0.2,0.23
					c-0.03,0.03-3.14,2.84-6.37,9.82C190.17,216.99,186.47,228.4,185.76,246.14z"/>
				<path class="st5" d="M218.67,246.19l-0.29-0.09c3.55-12.2,11.92-19.91,12-19.98l0.21,0.23
					C230.5,226.42,222.19,234.07,218.67,246.19z"/>
				<path class="st5" d="M156.15,246.16l-0.3-0.04c1.21-8.7-0.98-15.45-3.02-19.58c-2.21-4.47-4.73-6.91-4.75-6.94l0.21-0.23
					c0.03,0.03,2.58,2.5,4.8,7.02C155.17,230.58,157.35,237.38,156.15,246.16z"/>
				<path class="st4" d="M245.1,246.54H132l-0.03-0.38c-0.08-0.95-1.51-23.46,5.78-31.49c1.63-1.79,3.59-2.74,5.83-2.8
					c4.75-0.14,7.73,1.65,10.13,3.07c4.54,2.69,7.53,4.47,18.43-9.01c11.8-14.6,24.54-17.75,31.86-16c4.73,1.13,8,4.32,8.93,8.75
					c0.9,4.2,0.63,8.15,0.39,11.31c-0.25,3.39-0.44,6.07,0.95,7.29c1.16,1.01,3.48,1.1,7.29,0.29c7.76-1.66,18.61-0.24,24.04,6.79
					c2.92,3.78,5.23,10.66-0.4,21.93L245.1,246.54z M132.79,245.73H244.6c4.2-8.52,4.33-15.73,0.38-20.85
					c-4.99-6.44-15.45-8.15-23.21-6.49c-4.15,0.89-6.62,0.74-8.01-0.48c-1.7-1.48-1.49-4.34-1.23-7.97
					c0.23-3.12,0.51-6.99-0.38-11.09c-0.89-4.1-3.92-7.07-8.33-8.13c-7.09-1.69-19.47,1.41-31.03,15.72
					c-11.34,14.03-14.76,12-19.49,9.2c-2.44-1.45-5.21-3.09-9.7-2.97c-2.01,0.06-3.77,0.91-5.24,2.53
					C131.83,222.45,132.62,242.69,132.79,245.73z"/>
				<path class="st1" d="M127,264.66c70.14,0,127-6.82,127-15.21c0-8.41-56.86-15.21-127-15.21S0,241.04,0,249.45
					C0,257.84,56.86,264.66,127,264.66z"/>
				<path class="st6" d="M129.79,50.3c0,0-6.34-2.26-10.44,6.81c-4.08,9.08-10.44,19.07-10.44,19.07l3.63,0.91
					c0,0,0.91-6.36,3.18-7.26L114.81,78c0,0,27.21,9.53,39.45-0.91l-0.45-3.18c0,0,1.81,0.45,1.81,3.18l1.36-1.36
					c0,0-1.36-2.72-5.44-6.36c-2.68-2.38-3.6-6.92-3.92-9.75c-0.24-2.36-1.18-4.6-2.72-6.43C142.21,50.03,137.29,46.68,129.79,50.3z
					"/>
				<path class="st7" d="M123.1,85.89l-6.58-8.23l-4.93-16.87l18.91-20.16c0,0,4.1-15.63,0.41-14.81
					c-3.7,0.83-4.52,12.34-4.52,12.34l-23.84,18.52c0,0,2.46,25.93,9.45,34.97l5.34,16.87L123.1,85.89z"/>
				<path class="st7" d="M141.18,85.89l6.58-8.23l4.93-16.87l-18.91-20.16c0,0-4.1-15.63-0.41-14.81s4.52,12.34,4.52,12.34
					l23.84,18.51c0,0-2.46,25.93-9.45,34.97l-5.34,16.87L141.18,85.89z"/>
				<path class="st7" d="M132.14,78.9c5.91,0,10.69-4.79,10.69-10.7s-4.79-10.7-10.69-10.7c-5.91,0-10.69,4.79-10.69,10.7
					C121.44,74.11,126.24,78.9,132.14,78.9z"/>
				<path class="st7" d="M127.21,73.96c0,0,0.41,8.65-2.06,11.52c-2.46,2.88-4.93,17.69,6.99,18.11
					c11.92,0.41,10.69-12.34,10.69-12.34l-2.46-6.99c0,0-3.7-5.36-2.46-10.29C137.89,73.96,127.21,73.96,127.21,73.96z"/>
				<path class="st7" d="M116.11,169.82l8.85,2.67c0,0,7.19-4.32,7.19-0.21c0,4.1-2.46,9.46-1.64,13.16c0.83,3.7,2.46,12.76,0,12.76
					c-2.46,0-7.39-16.05-7.39-16.05l-8.22-4.53L116.11,169.82z"/>
				<path class="st7" d="M127.21,227.43l-3.29,12.75c0,0-2.88,3.7,0,5.36c1.35,0.78,2.34,2.36,3.02,3.83
					c0.58,1.31,1.56,2.43,2.79,3.18c1.23,0.75,2.67,1.1,4.1,1c1.4-0.13,2.58-0.68,2.87-2.11c0.08-0.45,0.06-0.93-0.04-1.36
					c-0.11-0.45-0.31-0.88-0.59-1.23c-3.03-4.1-3.72-6.79-3.72-6.79l1.23-14.4L127.21,227.43z"/>
				<path class="st6" d="M119.25,70.1c0,0,3.63-4.99,6.79-5.91c3.17-0.91,3.63-5.46,3.63-5.46s8.16,9.08,13.15,9.53
					c4.99,0.45,0.45-10.9,0.45-10.9l-9.07-2.26l-8.62,0.91l-6.79,4.54L119.25,70.1z"/>
				<path class="st6" d="M112.41,138.56l-1.64,3.29c0,0-39.86,12.75-36.59,24.67c3.29,11.92,21.78,8.65,21.78,8.65l20.55,3.7
					l2.06-9.05l-14.39-3.7l24.66-9.05l0.83,41.95l-3.29,30.03l8.22,0.83c0,0,9.03-27.56,7.81-39.08c0,0,15.21-46.9,6.58-53.9
					C140.36,129.92,112.41,138.56,112.41,138.56z"/>
				<path class="st4" d="M132.62,91.25l-6.41-7.76l-4.34,1.99l-4.52,14.4c0,0-3.7,6.99,0.83,14.4c0,0,0.83,4.94-0.41,6.17
					c-1.23,1.23-1.64,9.05-1.64,9.05l-5.34,10.29c0,0,30.4,5.36,39.46-2.06c0,0-4.74-17.5-1.86-22.86c2.88-5.36,3.29-13.55,0-17.25
					s-6.76-13.38-6.76-13.38l-1.99-1.26L132.62,91.25z"/>
				<path class="st4" d="M156.6,29.82h-3.94v-3.95h-0.36v3.95h-3.94v0.36h3.94v3.95h0.36v-3.95h3.94V29.82z"/>
				<path class="st4" d="M119.13,21.57h-3.94v-3.95h-0.36v3.95h-3.94v0.36h3.94v3.95h0.36v-3.95h3.94V21.57z"/>
				<path class="st4" d="M137.12,3.96h-3.94V0h-0.36v3.95h-3.94v0.35h3.94v3.95h0.36V4.31h3.94V3.96z"/>
			</g>
		</g>
	</g>
</g>
</svg>
