<?xml version="1.0" encoding="utf-8"?>
<!-- Generator: Adobe Illustrator 25.0.0, SVG Export Plug-In . SVG Version: 6.00 Build 0)  -->
<svg version="1.1" id="Layer_1" xmlns="http://www.w3.org/2000/svg" xmlns:xlink="http://www.w3.org/1999/xlink" x="0px" y="0px"
	 viewBox="0 0 279 262" style="enable-background:new 0 0 279 262;" xml:space="preserve">
<style type="text/css">
	.st0{clip-path:url(#SVGID_2_);}
	.st1{fill:#403D56;}
	.st2{fill:#A1616A;}
	.st3{fill:#2F2F41;}
	.st4{fill:#D0CCE0;}
	.st5{fill:#F07F12;}
	.st6{opacity:0.1;fill:#FFFFFF;enable-background:new    ;}
	.st7{opacity:0.1;fill:#010202;enable-background:new    ;}
	.st8{fill:#FFFFFF;}
</style>
<g>
	<g>
		<g>
			<defs>
				<rect id="SVGID_1_" y="0" width="278.99" height="262"/>
			</defs>
			<clipPath id="SVGID_2_">
				<use xlink:href="#SVGID_1_"  style="overflow:visible;"/>
			</clipPath>
			<g class="st0">
				<path class="st1" d="M136.88,261.99c45.91,0,83.11-5.76,83.11-12.84s-37.21-12.84-83.11-12.84s-83.11,5.76-83.11,12.84
					S90.97,261.99,136.88,261.99z"/>
				<path class="st2" d="M134.68,54.4c0,0,2.03,9.32-4.87,12.96c0,0,1.63,20.66,12.17,21.07s10.54-10.94,10.54-10.94l-1.63-6.08
					c0,0-7.7-4.47-2.84-12.96L134.68,54.4z"/>
				<path class="st3" d="M143.39,59.47c10.53,0,19.07-8.52,19.07-19.04s-8.54-19.04-19.07-19.04s-19.07,8.52-19.07,19.04
					C124.33,50.94,132.86,59.47,143.39,59.47z"/>
				<path class="st2" d="M123.31,97.75v22.69l33.68-1.23l-2.43-22.28L123.31,97.75z"/>
				<path class="st2" d="M143.6,60.88c6.72,0,12.17-5.45,12.17-12.14c0-6.71-5.45-12.14-12.17-12.14c-6.72,0-12.17,5.45-12.17,12.14
					S136.88,60.88,143.6,60.88z"/>
				<path class="st2" d="M128.59,67.37c0,0-6.9-1.23-9.33,0c-2.43,1.23-5.28,0.81-8.1,12.56l-5.28,24.31c0,0-0.81,7.29,5.28,6.48
					c6.09-0.81,5.68-11.34,5.68-11.34l4.07-9.32l7.3-8.1L128.59,67.37z"/>
				<path class="st2" d="M151.72,72.22c0,0,9.74,1.23,10.54,6.48c0.81,5.27-3.65,26.74-3.65,26.74l-6.9-6.89l3.65-13.37
					L151.72,72.22z"/>
				<path class="st4" d="M126.77,67.15l0.19,7.49l-5.68,12.14l1.23,14.98l32.56,0.1l-0.1-6.99c0,0,4.47-5.67,2.03-10.53
					c-2.43-4.87-4.26-12.36-4.26-12.36l-3.25-2.01c0,0,5.48,12.76-5.88,10.74c-11.37-2.03-11.96-14.79-11.96-14.79L126.77,67.15z"/>
				<path class="st2" d="M117.22,148.79l-5.68,32.01l-6.49,46.59l-2.84,5.27l2.43,5.27l6.9-3.24l2.84-12.56
					c0,0,9.74-11.74,8.1-26.74l17.45-41.72L117.22,148.79z"/>
				<path class="st2" d="M145.23,152.03l4.07,39.7c0,0-0.81,10.94,1.63,20.66c2.43,9.72,4.07,26.74,4.07,26.74h8.12l-1.63-49.83
					l5.27-40.51L145.23,152.03z"/>
				<path class="st3" d="M139.55,115.57c0,0-17.04-1.21-17.04,0.81v4.05c0,0-3.25,5.27-2.84,10.13c0.41,4.87-15.42,15.8-5.27,20.66
					c10.14,4.87,23.53,6.48,25.55,4.87c2.03-1.63,3.25-8.1,3.25-8.1s0,7.29,3.65,7.7c3.65,0.41,25.55-4.05,25.55-7.7
					s-16.24-36.26-16.24-36.26S144.41,115.97,139.55,115.57z"/>
				<path class="st3" d="M104.25,233.05c0,0-1.63-2.84-3.25-0.81c-1.63,2.03-7.7,6.89-7.7,6.89s-15.01,4.05-4.87,10.13
					c0,0,8.93,0,12.58-2.84c3.65-2.84,7.3-1.63,7.3-1.63s5.68-0.4,6.09-2.84c0.4-2.43-2.13-10.45-2.13-10.45
					S109.52,235.08,104.25,233.05z"/>
				<path class="st3" d="M158.21,235.48c0,0-4.87-1.23-4.87,0c0,1.21-6.9,8.5-1.23,11.74c5.68,3.24,6.49,2.43,6.9,5.67
					s10.96,5.67,12.58,3.65c1.63-2.03,2.84-5.67,0.81-7.29c-2.03-1.63-8.52-11.74-8.52-13.77
					C163.89,233.47,158.21,235.48,158.21,235.48z"/>
				<path class="st1" d="M148.38,78.22c0.79,0,1.43-0.32,1.43-0.71c0-0.39-0.65-0.71-1.43-0.71c-0.79,0-1.42,0.32-1.42,0.71
					C146.94,77.91,147.59,78.22,148.38,78.22z"/>
				<path class="st5" d="M148.53,80.52c1.61,0,2.9-0.67,2.9-1.48s-1.32-1.48-2.9-1.48c-1.59,0-2.9,0.67-2.9,1.48
					S146.93,80.52,148.53,80.52z"/>
				<path class="st5" d="M151.96,79.94h-6.99v5.11h6.99V79.94z"/>
				<path class="st5" d="M156.73,87.93h-16.57v25.02h16.57V87.93L156.73,87.93z"/>
				<path class="st5" d="M157.46,87.63c0,2.46-4.07,1.63-9,1.63s-9.12,0.77-9.12-1.68s4.19-5.05,9.12-5.05
					C153.41,82.52,157.46,85.18,157.46,87.63z"/>
				<path class="st1" d="M157.46,90.29h-17.93v1.94h17.93V90.29L157.46,90.29z"/>
				<path class="st1" d="M157.59,109.03h-17.93v1.94h17.93V109.03L157.59,109.03z"/>
				<path class="st1" d="M157.46,100.63h-17.93v3.88h17.93V100.63L157.46,100.63z"/>
				<path class="st5" d="M157.33,112.08c0,0.83,0.26,3.17-8.69,3.17c-10.11,0-9.27-2.48-9.27-3.3s4.47,0.32,9.27,0.32
					C153.46,112.27,157.33,111.25,157.33,112.08z"/>
				<path class="st1" d="M152.54,79.04h-8.29v2.77h8.29V79.04z"/>
				<path class="st6" d="M142.03,93.88h-1.1v6.08h1.1V93.88z"/>
				<path class="st6" d="M142.03,105.44h-1.1v2.26h1.1V105.44z"/>
				<path class="st2" d="M160.24,100.59c0,0-7.7-10.13-7.3-2.84s4.87,10.94,5.68,10.94C159.42,108.69,162.66,107.88,160.24,100.59z"
					/>
				<path class="st7" d="M123.31,108.38c0.61,0.1,10.35-3.55,10.35-3.55l6.09-0.81l-16.43,6.87L123.31,108.38L123.31,108.38z"/>
				<path class="st2" d="M110.74,101.39c0,0,3.25-2.03,9.74-1.23l12.58-3.24c0,0,11.77-6.89,16.24,1.63s-16.64,5.67-16.64,5.67
					s-14.2,11.34-22.71,5.27L110.74,101.39z"/>
				<path class="st3" d="M125.96,32.32c3.14,0,5.68-2.54,5.68-5.67c0-3.14-2.54-5.67-5.68-5.67s-5.68,2.54-5.68,5.67
					C120.28,29.78,122.82,32.32,125.96,32.32z"/>
				<path class="st3" d="M160.84,30.69c3.14,0,5.68-2.54,5.68-5.67c0-3.14-2.54-5.67-5.68-5.67s-5.68,2.54-5.68,5.67
					C155.16,28.16,157.71,30.69,160.84,30.69z"/>
				<path class="st3" d="M154.75,22.6c0-1.39,0.52-2.75,1.45-3.79c0.94-1.05,2.22-1.7,3.61-1.85c-0.79-0.09-1.6-0.01-2.36,0.25
					c-0.76,0.25-1.46,0.65-2.05,1.17c-0.59,0.53-1.07,1.17-1.39,1.91c-0.34,0.74-0.49,1.52-0.49,2.31c0,0.8,0.17,1.57,0.49,2.31
					c0.32,0.74,0.8,1.38,1.39,1.91c0.59,0.53,1.29,0.93,2.05,1.17c0.76,0.25,1.56,0.34,2.36,0.25c-1.39-0.15-2.68-0.81-3.61-1.85
					C155.28,25.35,154.75,24,154.75,22.6z"/>
				<path class="st3" d="M119.61,31.24c-0.98-0.99-1.56-2.34-1.63-3.72c-0.06-1.39,0.4-2.77,1.29-3.85
					c-0.15,0.13-0.31,0.26-0.46,0.4c-1.08,1.05-1.69,2.49-1.7,3.99s0.57,2.96,1.63,4.03c1.05,1.07,2.49,1.69,4,1.7
					c1.51,0.03,2.96-0.57,4.03-1.63c0.14-0.14,0.28-0.28,0.41-0.45c-1.1,0.86-2.48,1.3-3.88,1.21
					C121.91,32.84,120.59,32.24,119.61,31.24z"/>
				<path class="st3" d="M143.39,31.51c-6.72,0-12.17,3.17-12.17,7.09c0,1.76,1.1,3.36,2.9,4.59l2.34-1.7l-0.65,2.66
					c0.26,0.12,0.54,0.25,0.83,0.35l3.5-4.08v5.01c1.07,0.17,2.16,0.26,3.25,0.26c6.72,0,12.17-3.17,12.17-7.09
					C155.56,34.69,150.12,31.51,143.39,31.51z"/>
				<path class="st5" d="M155.16,25.03c0,0-0.88,4.05,4.63,5.67L155.16,25.03z"/>
				<path class="st5" d="M131.22,25.76c0,0,2.03,4.53-4.07,6.56L131.22,25.76z"/>
				<path class="st1" d="M213.94,224.69c1.07-1.19,1.83-2.62,2.22-4.17c0.39-1.55,0.4-3.17,0.03-4.72
					c-0.37-1.55-1.14-2.99-2.18-4.19c-1.06-1.2-2.39-2.12-3.88-2.68c1.33-0.77,2.37-1.96,2.96-3.37c0.59-1.42,0.68-2.99,0.28-4.47
					c-0.4-1.48-1.28-2.79-2.5-3.73c-1.23-0.93-2.71-1.45-4.25-1.45c-1.54,0-3.03,0.52-4.25,1.45c-1.23,0.93-2.1,2.25-2.5,3.73
					s-0.3,3.06,0.28,4.47c0.59,1.42,1.63,2.59,2.96,3.37c-1.5,0.57-2.83,1.48-3.88,2.68c-1.06,1.2-1.81,2.63-2.18,4.19
					c-0.37,1.55-0.37,3.17,0.03,4.72c0.4,1.55,1.15,2.98,2.22,4.17c-2.5,1.57-4.41,3.94-5.45,6.69c-1.05,2.76-1.16,5.79-0.34,8.62
					c0.83,2.83,2.56,5.32,4.9,7.1c2.36,1.77,5.24,2.74,8.2,2.74s5.83-0.96,8.2-2.74c2.37-1.77,4.09-4.26,4.92-7.1
					c0.83-2.84,0.71-5.86-0.34-8.62C218.34,228.63,216.43,226.28,213.94,224.69z"/>
				<path class="st5" d="M87.91,144.71c5.61,0,10.17-4.54,10.17-10.14c0-5.6-4.56-10.14-10.17-10.14s-10.17,4.54-10.17,10.14
					C77.74,140.17,82.29,144.71,87.91,144.71z"/>
				<path class="st8" d="M85.72,142.87c0.99-0.8,0.36-3.21-1.39-5.39c-1.77-2.18-4-3.3-4.99-2.49c-0.99,0.8-0.36,3.21,1.39,5.39
					C82.49,142.56,84.73,143.67,85.72,142.87z"/>
				<path class="st1" d="M21.4,114.76c5.61,0,10.17-4.54,10.17-10.14c0-5.61-4.56-10.14-10.17-10.14s-10.17,4.56-10.17,10.14
					C11.24,110.22,15.78,114.76,21.4,114.76z"/>
				<path class="st8" d="M16.95,103.42c0.74-2.71,0.32-5.18-0.92-5.5c-1.23-0.34-2.83,1.59-3.55,4.3c-0.72,2.71-0.32,5.18,0.92,5.5
					C14.62,108.05,16.21,106.11,16.95,103.42z"/>
				<path class="st1" d="M6.32,51.29c3.5,0,6.34-2.83,6.34-6.32c0-3.48-2.84-6.32-6.34-6.32s-6.34,2.83-6.34,6.32
					C0,48.45,2.83,51.29,6.32,51.29z"/>
				<path class="st8" d="M3.55,44.21c0.46-1.69,0.19-3.21-0.57-3.43c-0.76-0.22-1.76,0.99-2.22,2.68c-0.46,1.69-0.19,3.21,0.57,3.43
					C2.1,47.1,3.1,45.9,3.55,44.21z"/>
				<path class="st1" d="M71.97,207.8c3.5,0,6.34-2.83,6.34-6.32c0-3.48-2.84-6.32-6.34-6.32c-3.5,0-6.34,2.83-6.34,6.32
					C65.65,204.96,68.48,207.8,71.97,207.8z"/>
				<path class="st8" d="M69.2,200.71c0.46-1.69,0.19-3.21-0.57-3.43c-0.77-0.21-1.76,0.99-2.22,2.68
					c-0.46,1.69-0.19,3.21,0.57,3.43C67.75,203.6,68.75,202.4,69.2,200.71z"/>
				<path class="st1" d="M268.82,137.37c5.61,0,10.17-4.54,10.17-10.14c0-5.61-4.56-10.14-10.17-10.14
					c-5.61,0-10.17,4.56-10.17,10.14C258.65,132.83,263.21,137.37,268.82,137.37z"/>
				<path class="st8" d="M261.89,132.3c1.28,0,2.31-2.27,2.31-5.08c0-2.8-1.03-5.08-2.31-5.08s-2.31,2.27-2.31,5.08
					C259.58,130.03,260.62,132.3,261.89,132.3z"/>
				<path class="st5" d="M236.02,72.3c5.61,0,10.17-4.56,10.17-10.14c0-5.61-4.56-10.14-10.17-10.14c-5.61,0-10.17,4.56-10.17,10.14
					C225.85,67.77,230.39,72.3,236.02,72.3z"/>
				<path class="st8" d="M233.29,58.43c2.27-1.64,3.51-3.81,2.76-4.85c-0.75-1.03-3.2-0.54-5.47,1.11
					c-2.27,1.64-3.51,3.81-2.76,4.85C228.57,60.57,231.02,60.07,233.29,58.43z"/>
				<path class="st5" d="M261.89,12.65c3.5,0,6.34-2.83,6.34-6.32c0-3.48-2.84-6.32-6.34-6.32c-3.5,0-6.34,2.83-6.34,6.32
					S258.4,12.65,261.89,12.65z"/>
				<path class="st8" d="M260.2,4c1.42-1.02,2.19-2.37,1.72-3.02c-0.46-0.65-1.99-0.34-3.41,0.68c-1.42,1.02-2.19,2.37-1.72,3.02
					C257.25,5.33,258.78,5.02,260.2,4z"/>
				<path class="st1" d="M214.28,175.55c3.5,0,6.34-2.83,6.34-6.32c0-3.48-2.84-6.32-6.34-6.32c-3.5,0-6.34,2.83-6.34,6.32
					C207.96,172.71,210.8,175.55,214.28,175.55z"/>
				<path class="st8" d="M212.61,166.89c1.42-1.02,2.19-2.37,1.72-3.02c-0.46-0.65-1.99-0.34-3.41,0.68
					c-1.42,1.02-2.19,2.37-1.72,3.02C209.65,168.23,211.19,167.92,212.61,166.89z"/>
			</g>
		</g>
	</g>
</g>
</svg>
