<?xml version="1.0" encoding="utf-8"?>
<!-- Generator: Adobe Illustrator 25.0.0, SVG Export Plug-In . SVG Version: 6.00 Build 0)  -->
<svg version="1.1" id="Layer_1" xmlns="http://www.w3.org/2000/svg" xmlns:xlink="http://www.w3.org/1999/xlink" x="0px" y="0px"
	 viewBox="0 0 352.5 265.83" style="enable-background:new 0 0 352.5 265.83;" xml:space="preserve">
<style type="text/css">
	.st0{opacity:0.2;fill:#F08017;enable-background:new    ;}
	.st1{opacity:0.5;fill:#F08017;enable-background:new    ;}
	.st2{fill:#F08017;}
	.st3{opacity:0.2;fill:#030304;enable-background:new    ;}
	.st4{opacity:0.2;}
	.st5{fill:url(#SVGID_1_);}
	.st6{fill:#975E7C;}
	.st7{fill:#585A88;}
	.st8{opacity:0.05;fill:#030304;enable-background:new    ;}
	.st9{fill:#F7C4A7;}
	.st10{opacity:0.1;fill:#030304;enable-background:new    ;}
	.st11{opacity:0.07;fill:#FFFFFF;enable-background:new    ;}
	.st12{fill:#EC6783;}
	.st13{opacity:0.1;fill:#242223;enable-background:new    ;}
	.st14{fill:none;stroke:#565663;stroke-width:2;stroke-miterlimit:10;}
</style>
<g>
	<path class="st0" d="M106.2,23c-4.33,0.57-9.06,1.51-11.92,5.31c-3.38,4.49-2.94,11.29-1.4,16.98c1.54,5.68,3.96,11.2,3.94,17.16
		c-0.08,9.44-6.54,17.45-13.87,21.69c-7.35,4.24-15.64,5.59-23.55,8.07c-7.4,2.32-14.46,5.55-21.04,9.64
		c-5.59,3.44-11.2,7.97-13.45,14.8c-3.66,11.2,3.09,23.09,9.74,32.29c20.41,28.19,46.42,55.28,78.22,58
		c23.75,2.04,47.54-9.99,71.03-5.58c10.8,2.03,20.86,7.4,30.98,12.14c10.13,4.73,20.8,8.94,31.71,8.41
		c10.92-0.54,22.26-6.72,27-18.09c2.8-6.7,3.09-14.48,5.68-21.29c7.93-20.93,32.61-24.32,46.94-40.05
		c7.52-8.27,11.81-19.63,15.4-30.88c5.78-18.3,10.13-37.59,9.15-57.04c-0.42-8.48-1.99-17.28-6.7-23.8
		c-3.43-4.77-8.2-7.91-12.85-10.96c-10.61-6.95-22.01-14.13-34.2-13.31c-7.03,0.48-13.68,3.6-20.37,6.06
		c-12.78,4.66-26.1,6.96-39.33,9.22c-21.89,3.76-44.1,7.52-66.3,5.64c-9.8-0.84-19.05-4.16-28.7-5.53
		C130.54,20.21,117.85,21.47,106.2,23z"/>
	<path class="st1" d="M283.04,80.87c7.51,0,13.6-6.09,13.6-13.6s-6.09-13.6-13.6-13.6c-7.51,0-13.6,6.09-13.6,13.6
		S275.54,80.87,283.04,80.87z"/>
	<path class="st2" d="M240.18,115.29H115.66l7.12-21.89h3.82l0.77,5.68h98.6l0.49-5.68h4.58L240.18,115.29z"/>
	<path class="st3" d="M240.18,115.29H115.66l7.12-21.89h3.82l0.77,5.68h98.6l0.49-5.68h4.58L240.18,115.29z"/>
	<path class="st2" d="M248.83,120.16H104.51l-3.57-8.93h150.95L248.83,120.16z"/>
	<path class="st2" d="M244.25,125.83h-136.2l-3.56-5.68h144.34L244.25,125.83z"/>
	<path class="st2" d="M244.25,124.21h-136.2v6.5h136.2L244.25,124.21L244.25,124.21z"/>
	<path class="st2" d="M254.94,141.25H99.92v24.32H254.9L254.94,141.25L254.94,141.25z"/>
	<path class="st3" d="M254.94,141.25H99.92v24.32H254.9L254.94,141.25L254.94,141.25z"/>
	<path class="st2" d="M352.5,223.14l-352.69-2.43l10.16-57.57h334.91L352.5,223.14z"/>
	<g class="st4">
		<path class="st3" d="M99.71,205.32h4.5c1.41,0,2.79,0.57,3.8,1.58c1.01,1.01,1.58,2.37,1.58,3.8v10.86H94.34V210.7
			c0-1.41,0.57-2.79,1.58-3.8C96.93,205.89,98.28,205.32,99.71,205.32z"/>
		<path class="st3" d="M132.74,205.32h4.5c1.41,0,2.79,0.57,3.8,1.58c1.01,1.01,1.58,2.37,1.58,3.8v10.86h-15.25V210.7
			c0-1.41,0.57-2.79,1.58-3.8C129.95,205.89,131.3,205.32,132.74,205.32z"/>
		<path class="st3" d="M173.9,205.32h4.5c1.41,0,2.79,0.57,3.8,1.58c1.01,1.01,1.58,2.37,1.58,3.8v10.86h-15.25V210.7
			c0-1.41,0.57-2.79,1.58-3.8C171.12,205.89,172.48,205.32,173.9,205.32z"/>
		<path class="st3" d="M216.6,205.32h4.5c1.41,0,2.79,0.57,3.8,1.58c1.01,1.01,1.58,2.37,1.58,3.8v10.86h-15.25V210.7
			c0-1.41,0.57-2.79,1.58-3.8C213.81,205.89,215.16,205.32,216.6,205.32z"/>
		<path class="st3" d="M250.64,205.32h4.5c1.41,0,2.79,0.57,3.8,1.58c1.01,1.01,1.58,2.37,1.58,3.8v10.86h-15.25V210.7
			c0-1.41,0.57-2.79,1.58-3.8C247.85,205.89,249.22,205.32,250.64,205.32z"/>
	</g>
	<path class="st3" d="M184.28,165.57h-16.26V198h16.26V165.57z"/>
	<path class="st2" d="M102.46,141.25h-2.54v24.32h2.54V141.25z"/>
	<path class="st2" d="M117.21,141.25h-2.54v24.32h2.54V141.25z"/>
	<path class="st2" d="M133.46,141.25h-2.54v24.32h2.54V141.25z"/>
	<path class="st2" d="M149.21,141.25h-2.54v24.32h2.54V141.25z"/>
	<path class="st2" d="M166.5,141.25h-2.54v24.32h2.54V141.25z"/>
	<path class="st2" d="M189.88,141.25h-2.54v24.32h2.54V141.25z"/>
	<path class="st2" d="M205.63,141.25h-2.54v24.32h2.54V141.25z"/>
	<path class="st2" d="M223.42,141.25h-2.54v24.32h2.54V141.25z"/>
	<path class="st2" d="M238.68,141.25h-2.54v24.32h2.54V141.25z"/>
	<path class="st2" d="M254.94,141.25h-2.54v24.32h2.54V141.25z"/>
	<path class="st2" d="M254.94,142.87H99.92l-9.15-8.11h172.78L254.94,142.87z"/>
	<path class="st2" d="M106.02,142.87h-6.11v3.24h6.11V142.87z"/>
	<path class="st2" d="M119.23,142.87h-6.11v3.24h6.11V142.87z"/>
	<path class="st2" d="M135,142.87h-6.11v3.24H135V142.87z"/>
	<path class="st2" d="M151.24,142.87h-6.11v3.24h6.11V142.87z"/>
	<path class="st2" d="M168.54,142.87h-6.11v3.24h6.11V142.87z"/>
	<path class="st2" d="M191.4,142.87h-6.11v3.24h6.11V142.87z"/>
	<path class="st2" d="M207.67,142.87h-6.11v3.24h6.11V142.87z"/>
	<path class="st2" d="M225.46,142.87h-6.11v3.24h6.11V142.87z"/>
	<path class="st2" d="M240.7,142.87h-6.11v3.24h6.11V142.87z"/>
	<path class="st2" d="M254.94,142.87h-6.11v3.24h6.11V142.87z"/>
	<path class="st2" d="M264.58,134.75H90.28l-2.04-5.68h177.88L264.58,134.75z"/>
	<path class="st3" d="M264.58,134.75H90.28l-2.04-5.68h177.88L264.58,134.75z"/>
	<path class="st2" d="M176.16,133.14c2.24,0,4.06-2.9,4.06-6.5c0-3.58-1.83-6.5-4.06-6.5c-2.24,0-4.06,2.9-4.06,6.5
		C172.08,130.24,173.91,133.14,176.16,133.14z"/>
	<path class="st3" d="M176.16,133.14c2.24,0,4.06-2.9,4.06-6.5c0-3.58-1.83-6.5-4.06-6.5c-2.24,0-4.06,2.9-4.06,6.5
		C172.08,130.24,173.91,133.14,176.16,133.14z"/>
	<path class="st2" d="M176.16,130.7c1.4,0,2.54-1.8,2.54-4.05c0-2.24-1.14-4.05-2.54-4.05s-2.54,1.8-2.54,4.05
		C173.61,128.9,174.76,130.7,176.16,130.7z"/>
	
		<linearGradient id="SVGID_1_" gradientUnits="userSpaceOnUse" x1="446.9061" y1="-275.7434" x2="446.9061" y2="-120.6187" gradientTransform="matrix(1 0 0 -1 -270.9449 -21.171)">
		<stop  offset="0" style="stop-color:#808182;stop-opacity:0.25"/>
		<stop  offset="0.54" style="stop-color:#808182;stop-opacity:0.12"/>
		<stop  offset="1" style="stop-color:#808182;stop-opacity:0.1"/>
	</linearGradient>
	<path class="st5" d="M235.66,220.2l-17.43-13.38c0,0-1.41-5.58-1.98-9.47c-0.57-3.91-1.41-20.63-1.41-20.63
		c0.4-1.45,0.67-2.93,0.79-4.43c0.18-0.04,0.35-0.08,0.52-0.13c1.31-0.33,2.51-0.97,3.52-1.84c1.02-0.88,1.83-1.98,2.33-3.23
		c1.79-4.45-0.52-9.72-3.46-13.24c-2.93-3.52-6.61-6.37-8.54-10.75c-2.37-5.39-1.55-11.91-2.77-17.81c-0.13-0.82-0.42-1.6-0.88-2.31
		c-0.74-0.93-1.93-1.14-2.99-1.51c-3.33-1.17-5.83-4.4-7.76-7.78c-3.14-5.45-6.41-13.77-12.88-14.24c-2.41-0.18-4.92,0.64-7.35,0.64
		c-3.77,0-7.52,0.05-11.26,0.57c-1.34,0.19-2.73,0.44-3.85,1.32c-3.83,3.04-2.11,11.05-5.79,14.32c-1.11,0.98-2.51,1.32-3.76,1.99
		c-4.68,2.51-6.76,9.2-6.5,15.21c0.13,2.81,0.72,5.75,2.38,7.82c1.32,1.65,3.19,2.59,4.43,4.33c1.99,2.8,1.72,6.52,1.51,10.29
		c-2.65,1.11-4.77,2.38-5.44,3.76c-2.24,4.59-1.98,20.35-1.98,20.35s0.84,25.78-5.63,29l-24.18,16.73c0,0-17.16-14.91-21.37-6.12
		c-2.89,6.02,7.65,9.41,14.6,10.95c-4.38,3.1-6.81,8.84-4.75,12.74c3.23,6.14,12.22,10.32,12.22,10.32s34.35,1.65,50.24-1.9h0.26
		c6.75,1.21,16.42,2.51,24.18,1.73c0.14,0.35,0.25,0.59,0.25,0.59s49.75,4.19,58.76-12.82c4.63-8.73-0.2-12.74-5.98-14.6
		c6.48-0.52,13.85-2.32,14.71-7.83C259.97,208.79,235.66,220.2,235.66,220.2z M230.63,225.55c-9.1,3.32-16.5,3.51-20.44,3.25
		c-1.94-4.23-9.99-22.48-10.2-34.7c0.05-2.73,0.54-5.11,1.63-6.9c2.33-3.86,3.04-6.87,2.96-9.17c0-0.18,0-0.34,0-0.49
		c0.01-0.71-0.06-1.4-0.2-2.08c0.39,0.93,0.49,1.98,0.33,2.99c-0.84,4.33,1.41,32.33,1.41,32.33s1.83,6.26,5.63,8.07L230.63,225.55z
		 M141.47,223.57l8.7-5.58c0,0,4.09-1.94,4.49-6.7l2.86-22.63c0.2,0.98,0.45,1.93,0.78,2.86c0.49,1.48,0.72,3.66,0.74,6.24
		c-0.09,12.64-4.39,33.59-4.39,33.59h0.06l-0.04,0.15l-0.31,0.01c-7.08-0.22-23.55-0.84-32.77-2.11L141.47,223.57z M126.19,236.77
		v0.05h-2.16L126.19,236.77z"/>
	<path class="st6" d="M194.95,116.02c1.88,3.29,4.29,6.45,7.49,7.58c1.02,0.35,2.16,0.57,2.86,1.46c0.45,0.67,0.74,1.44,0.87,2.24
		c1.17,5.75,0.39,12.11,2.7,17.37c1.85,4.25,5.42,7.03,8.25,10.47c2.84,3.43,5.06,8.57,3.33,12.92c-0.49,1.2-1.26,2.27-2.24,3.13
		c-0.98,0.86-2.13,1.46-3.39,1.79c-2.37,0.66-4.84,0.35-7.25-0.05c-3.18-0.57-6.41-1.44-9.03-3.58c-4.58-3.71-6.5-10.37-8.89-16.31
		c-1.12-2.77-2.61-5.69-5.1-6.69c-2.84-1.14-6.02,0.77-7.85,3.56s-2.66,6.29-3.53,9.66c-1,3.82-2.27,7.76-4.91,10.25
		c-1.14,1.12-2.59,1.88-4.15,2.18c-1.55,0.31-3.19,0.18-4.68-0.42c-2.94-1.21-5.26-4.31-5.94-7.91c-1.05-5.53,1.46-12.19-1.6-16.56
		c-1.19-1.7-3-2.61-4.29-4.23c-1.59-2.01-2.18-4.86-2.31-7.62c-0.26-5.88,1.74-12.4,6.26-14.83c1.21-0.66,2.57-0.98,3.62-1.93
		c3.58-3.18,1.88-11,5.59-13.98c1.07-0.86,2.41-1.11,3.71-1.27c3.63-0.49,7.24-0.57,10.89-0.54c2.36,0,4.78-0.79,7.12-0.61
		C188.77,102.58,191.93,110.68,194.95,116.02z"/>
	<path class="st7" d="M127.74,234.56l1.37,16.25l95.92-0.57l-1.83-17.75l-32.42-3.77l-56.87,3.43L127.74,234.56z"/>
	<path class="st8" d="M127.74,234.56l1.37,16.25l95.92-0.57l-1.83-17.75l-32.42-3.77l-56.87,3.43L127.74,234.56z"/>
	<path class="st9" d="M190.87,245.91l-31.94,2.99c0,0,21.87,5.58,34.65,2.86L190.87,245.91z"/>
	<path class="st10" d="M190.87,245.91l-31.94,2.99c0,0,21.87,5.58,34.65,2.86L190.87,245.91z"/>
	<path class="st9" d="M166.53,131.48c0,0,6.24,16.45-2.99,23.79c-9.23,7.34-1.64,27.87-1.64,27.87l35.6-1.64
		c0,0,3.53-23.1,1.63-27.99c0,0-8.43,2.45-10.33-2.71c-1.9-5.16-3.25-19.29-3.25-19.29L166.53,131.48L166.53,131.48z"/>
	<path class="st7" d="M158.38,230.95c0,0-30.02-0.68-38.87-2.86c-8.83-2.18-16.45,8.29-13.32,14.27S118,252.41,118,252.41
		s44.71,2.18,54.36-3.94c0,0,3.66-10.47,0-12.49h-46.57l34.39-0.68L158.38,230.95z"/>
	<path class="st7" d="M206.08,227.84c0,0,10.04,2.18,23.92-3.25c0,0,25.95-0.82,17.26,15.74c-8.69,16.57-56.8,12.49-56.8,12.49
		s-2.86-6.11,0-7.74c2.86-1.64,27.71-12.11,35.45-11.54l-21.48,4.2L206.08,227.84z"/>
	<path class="st10" d="M186.79,139.39c-0.52-3.86-0.82-7.03-0.82-7.03h-19.02c0.88,2.5,1.5,5.06,1.83,7.7
		c2.66,1.87,5.88,2.8,9.13,2.7C181.15,142.66,184.27,141.45,186.79,139.39z"/>
	<path class="st9" d="M176.92,141.89c8.25,0,14.94-6.69,14.94-14.94S185.18,112,176.92,112c-8.25,0-14.94,6.69-14.94,14.94
		C161.98,135.19,168.68,141.89,176.92,141.89z"/>
	<path class="st9" d="M168.16,152.95c0,0-17.95,3.39-20.11,7.88s-1.9,19.84-1.9,19.84s0.81,25.13-5.44,28.26l-23.36,16.31
		c0,0-16.58-14.56-20.66-5.98c-4.09,8.55,19.57,11.68,19.57,11.68l26.35-7.88l8.43-5.44c0,0,3.94-1.9,4.35-6.52l3.53-27.99
		l14.13-4.09h22.82l3.05-8.74c0,0,5.64,4.52,4.82,8.74c-0.81,4.2,1.35,31.5,1.35,31.5s1.75,6.11,5.44,7.88l21.2,7.63
		c0,0,22.42,2.18,23.92-7.61c1.5-9.79-22.01,1.35-22.01,1.35l-16.84-13.06c0,0-1.35-5.44-1.9-9.23c-0.54-3.82-1.35-20.11-1.35-20.11
		s5.16-17.12-9.79-20.1l-19.29-5.98L168.16,152.95z"/>
	<path class="st10" d="M156.14,156.42l2.79,18.42c0,0-2.86,8.55,0,16.98c2.86,8.43-3.53,39.8-3.53,39.8s33.57,10.75,54.08-1.64
		c0,0-15.09-31.8-8.69-42.39c6.38-10.6,0.11-14.73,0.11-14.73l1-19.48l-4.63-1.35l-2.71,19.25c0,0-18.76,13.04-32.61,1.64
		l-2.99-20.93L156.14,156.42z"/>
	<path class="st11" d="M175.53,178.3c-1.46-2.32-3.71-4.02-6.36-4.77c-2.64-0.74-5.45-0.47-7.9,0.74
		C165.83,177.7,170.85,178.61,175.53,178.3z"/>
	<path class="st11" d="M183.22,176.25c1.46-2.32,3.71-4.02,6.36-4.77c2.64-0.74,5.45-0.47,7.9,0.74
		C192.92,175.66,187.9,176.58,183.22,176.25z"/>
	<path class="st10" d="M156.14,156.42l2.79,17.46c0,0-2.86,8.55,0,16.98c2.86,8.43-3.53,39.8-3.53,39.8s33.57,10.75,54.08-1.64
		c0,0-15.09-31.8-8.69-42.39s0.11-14.73,0.11-14.73l0.98-19.49l-4.63-1.35l-2.73,19.29c0,0-18.76,13.06-32.61,1.64l-2.99-20.93
		L156.14,156.42z"/>
	<path class="st12" d="M156,156.28l2.93,17.86c0,0-2.86,8.55,0,16.98c2.86,8.43-3.53,39.8-3.53,39.8s33.57,10.75,54.08-1.64
		c0,0-15.09-31.8-8.69-42.39c6.38-10.6,0.11-14.73,0.11-14.73l0.98-19.49l-4.63-1.35l-2.71,19.29c0,0-18.76,13.06-32.61,1.64
		l-2.99-20.93L156,156.28z"/>
	<path class="st9" d="M169.8,237.62l7.08-0.95c0,0,8.16-10.47,14-2.45c0,0,2.45,5.16,5.44,6.11c2.04,0.61,4.15,1.07,6.24,1.35
		l-12.09,3.39c0,0-5.3,3.13-10.87,2.32c-3.29-0.49-6.64-0.22-9.79,0.81L169.8,237.62z"/>
	<path class="st10" d="M161.98,193.26c0,0,12.78,1.9,14.94-1.5L161.98,193.26z"/>
	<path class="st10" d="M186.17,191.07c0,0,2.45,2.45,12.22,0.68L186.17,191.07z"/>
	<path class="st10" d="M161.3,153.16c0,0,9.36,1.35,11.14,0.54L161.3,153.16z"/>
	<path class="st10" d="M181.95,153.16c0,0,9.36,1.35,11.14,0.54L181.95,153.16z"/>
	<path class="st10" d="M170.81,236.59c0,0,2.59,12.19,0,12.6c-2.59,0.42-6.24-2.01-6.24-2.27s1.64-8.02,1.64-8.02L170.81,236.59z"/>
	<path class="st7" d="M170.55,236.59c0,0,2.59,12.19,0,12.6c-2.59,0.42-6.24-2.01-6.24-2.27s1.63-8.02,1.63-8.02L170.55,236.59z"/>
	<path class="st10" d="M157.93,151.38c-1.14,2.65-1.54,5.78-0.33,8.38c0.93,1.99,2.73,3.62,3.09,5.78c0.44,2.71-1.58,5.49-0.82,8.14
		c0.28,1.02,0.95,1.88,1.64,2.68c2.07,2.45,4.82,4.82,8.02,4.63c0.49-4.93-3.76-9.72-2.37-14.48c0.49-1.7,1.68-3.13,2.38-4.75
		c1.17-2.7,1.01-5.78,0.59-8.69c-0.62-4.23-2.18-9.41-6.37-11.39c-1.93-0.91-4.66-0.98-5.35,1.5c-0.35,1.32,0.49,2.57,0.62,3.85
		C159.14,148.67,158.56,149.91,157.93,151.38z"/>
	<path class="st6" d="M157.93,150.97c-1.14,2.65-1.54,5.78-0.33,8.38c0.93,1.99,2.73,3.62,3.09,5.78c0.44,2.71-1.58,5.49-0.82,8.14
		c0.28,1.02,0.95,1.88,1.64,2.68c2.07,2.45,4.82,4.82,8.02,4.63c0.49-4.93-3.76-9.72-2.37-14.48c0.49-1.7,1.68-3.13,2.38-4.75
		c1.17-2.7,1.01-5.78,0.59-8.69c-0.62-4.23-2.18-9.41-6.37-11.39c-1.93-0.91-4.66-0.98-5.35,1.5c-0.35,1.32,0.49,2.57,0.62,3.85
		C159.14,148.26,158.56,149.51,157.93,150.97z"/>
	<path class="st10" d="M159,119.6c0,0,19.84-2.71,20.4,1.35c0.54,4.09,18.08,10.75,18.08,10.75l-4.35-10.75l-8.02-13.32
		c0,0-14.68-1.07-15.36,0c-0.67,1.07-8.43,4.63-8.43,4.63L159,119.6z"/>
	<path class="st6" d="M159,119.32c0,0,19.84-2.71,20.4,1.35c0.54,4.09,18.08,10.75,18.08,10.75l-4.35-10.75l-8.02-13.31
		c0,0-14.68-1.07-15.36,0c-0.67,1.07-8.43,4.63-8.43,4.63L159,119.32z"/>
	<path class="st10" d="M193.5,148.37c0.97,1.15,1.65,2.51,1.99,3.99c0.33,1.4,0.34,2.86,0.66,4.26c0.67,2.99,2.65,5.5,4.72,7.77
		c0.67,0.82,1.48,1.51,2.41,2.03c0.93,0.47,2.16,0.57,3.03,0c-0.84-0.68-1.27-1.72-1.58-2.76c-0.42-1.45-0.59-2.94-0.54-4.44
		c0.09-2.51,0.82-5.16-0.22-7.44c-0.59-1.32-1.72-2.32-2.86-3.23c-0.79-0.66-1.65-1.21-2.56-1.68c-1.68-0.84-3.62-1.21-5.49-1.39
		C190.63,145.22,192.75,147.44,193.5,148.37z"/>
	<path class="st6" d="M193.5,147.97c0.97,1.17,1.65,2.52,1.99,4c0.33,1.4,0.34,2.86,0.66,4.26c0.67,2.99,2.65,5.5,4.72,7.77
		c0.67,0.82,1.48,1.51,2.41,2.03c0.93,0.47,2.16,0.57,3.03,0c-0.84-0.68-1.27-1.72-1.58-2.76c-0.42-1.45-0.59-2.94-0.54-4.44
		c0.09-2.51,0.82-5.16-0.22-7.44c-0.59-1.32-1.72-2.32-2.86-3.23c-0.79-0.66-1.65-1.21-2.56-1.68c-1.68-0.84-3.62-1.21-5.49-1.39
		C190.63,144.82,192.75,147.04,193.5,147.97z"/>
	<path class="st13" d="M184.62,65.64h-2.46c0.24,0.01,0.47-0.04,0.68-0.11c0.22-0.08,0.4-0.22,0.59-0.35
		c0.18-0.18,0.31-0.35,0.4-0.57s0.14-0.45,0.14-0.68s-0.05-0.45-0.14-0.68c-0.09-0.22-0.22-0.4-0.4-0.57
		c-0.18-0.18-0.35-0.28-0.59-0.35c-0.24-0.08-0.45-0.13-0.68-0.11H162.2c-0.45,0.04-0.86,0.22-1.17,0.53
		c-0.31,0.31-0.48,0.74-0.48,1.19c0,0.45,0.18,0.87,0.48,1.19c0.31,0.31,0.73,0.52,1.17,0.53h2.46c-0.24-0.01-0.47,0.04-0.68,0.11
		c-0.22,0.08-0.42,0.22-0.59,0.35c-0.18,0.18-0.31,0.35-0.4,0.57c-0.09,0.22-0.14,0.45-0.14,0.68s0.05,0.45,0.14,0.68
		c0.09,0.22,0.22,0.4,0.4,0.57c0.18,0.18,0.35,0.28,0.59,0.35c0.22,0.08,0.45,0.13,0.68,0.11h-3.44c-0.24-0.01-0.47,0.04-0.68,0.11
		c-0.22,0.08-0.42,0.22-0.59,0.35c-0.18,0.18-0.31,0.35-0.4,0.57c-0.09,0.22-0.14,0.45-0.14,0.68s0.05,0.45,0.14,0.68
		c0.09,0.22,0.22,0.4,0.4,0.57c0.18,0.18,0.35,0.28,0.59,0.35c0.22,0.08,0.45,0.13,0.68,0.11h19.96c0.24,0.01,0.47-0.04,0.68-0.11
		c0.22-0.08,0.42-0.22,0.59-0.35c0.18-0.18,0.31-0.35,0.4-0.57c0.09-0.22,0.14-0.45,0.14-0.68s-0.05-0.45-0.14-0.68
		c-0.09-0.22-0.22-0.4-0.4-0.57c-0.18-0.18-0.35-0.28-0.59-0.35c-0.24-0.08-0.45-0.13-0.68-0.11h3.44c0.24,0.01,0.47-0.04,0.68-0.11
		c0.22-0.08,0.42-0.22,0.59-0.35c0.18-0.18,0.31-0.35,0.4-0.57c0.09-0.22,0.14-0.45,0.14-0.68s-0.05-0.45-0.14-0.68
		c-0.09-0.22-0.22-0.4-0.4-0.57c-0.18-0.18-0.35-0.28-0.59-0.35C185.1,65.65,184.88,65.62,184.62,65.64z"/>
	<path class="st13" d="M281.31,65.64h-2.46c0.24,0.01,0.47-0.04,0.68-0.11c0.22-0.08,0.42-0.22,0.59-0.35
		c0.18-0.18,0.31-0.35,0.4-0.57c0.09-0.2,0.14-0.45,0.14-0.68s-0.05-0.45-0.14-0.68c-0.09-0.22-0.22-0.4-0.4-0.57
		c-0.18-0.18-0.35-0.28-0.59-0.35c-0.24-0.08-0.45-0.13-0.68-0.11h-19.96c-0.45,0.04-0.86,0.22-1.17,0.53s-0.48,0.74-0.48,1.19
		c0,0.45,0.18,0.87,0.48,1.19c0.31,0.31,0.73,0.52,1.17,0.53h2.46c-0.24-0.01-0.47,0.04-0.68,0.11c-0.22,0.08-0.4,0.22-0.59,0.35
		c-0.18,0.18-0.31,0.35-0.4,0.57c-0.09,0.22-0.14,0.45-0.14,0.68s0.05,0.45,0.14,0.68c0.09,0.22,0.22,0.4,0.4,0.57
		c0.18,0.18,0.35,0.28,0.59,0.35c0.24,0.08,0.45,0.13,0.68,0.11h-3.44c-0.24-0.01-0.47,0.04-0.68,0.11
		c-0.22,0.08-0.4,0.22-0.59,0.35c-0.18,0.18-0.31,0.35-0.39,0.57c-0.09,0.22-0.14,0.45-0.14,0.68s0.05,0.45,0.14,0.68
		c0.09,0.22,0.22,0.4,0.39,0.57c0.18,0.18,0.35,0.28,0.59,0.35c0.24,0.08,0.45,0.13,0.68,0.11h19.96c0.24,0.01,0.47-0.04,0.68-0.11
		c0.22-0.08,0.4-0.22,0.59-0.35c0.18-0.18,0.31-0.35,0.4-0.57c0.09-0.22,0.14-0.45,0.14-0.68s-0.05-0.45-0.14-0.68
		c-0.09-0.22-0.22-0.4-0.4-0.57c-0.18-0.18-0.35-0.28-0.59-0.35c-0.24-0.08-0.45-0.13-0.68-0.11h3.44c0.24,0.01,0.47-0.04,0.68-0.11
		c0.22-0.08,0.4-0.22,0.59-0.35c0.18-0.18,0.31-0.35,0.4-0.57c0.09-0.22,0.14-0.45,0.14-0.68s-0.05-0.45-0.14-0.68
		c-0.09-0.22-0.22-0.4-0.4-0.57c-0.18-0.18-0.35-0.28-0.59-0.35C281.78,65.65,281.54,65.62,281.31,65.64z"/>
	<path class="st13" d="M75.43,109.67h-2.46c0.24,0.01,0.47-0.04,0.68-0.11c0.22-0.08,0.42-0.22,0.59-0.35
		c0.18-0.18,0.31-0.35,0.4-0.57c0.09-0.22,0.14-0.45,0.14-0.68c0-0.24-0.05-0.45-0.14-0.68c-0.09-0.22-0.22-0.4-0.4-0.57
		c-0.18-0.18-0.35-0.28-0.59-0.35s-0.45-0.13-0.68-0.11H53.03c-0.45,0.04-0.86,0.22-1.17,0.53c-0.31,0.31-0.48,0.74-0.48,1.19
		s0.18,0.87,0.48,1.19c0.31,0.31,0.73,0.52,1.17,0.53h2.46c-0.45,0.04-0.86,0.22-1.17,0.53c-0.31,0.31-0.48,0.74-0.48,1.19
		c0,0.45,0.18,0.87,0.48,1.19c0.31,0.31,0.73,0.52,1.17,0.53h-3.44c-0.24-0.01-0.47,0.04-0.68,0.11c-0.22,0.08-0.42,0.22-0.59,0.35
		c-0.18,0.18-0.31,0.35-0.4,0.57c-0.09,0.22-0.14,0.45-0.14,0.68c0,0.24,0.05,0.45,0.14,0.68c0.09,0.22,0.22,0.4,0.4,0.57
		c0.18,0.15,0.35,0.28,0.59,0.35c0.22,0.08,0.45,0.13,0.68,0.11h19.96c0.24,0.01,0.47-0.04,0.68-0.11c0.22-0.08,0.42-0.22,0.59-0.35
		c0.18-0.18,0.31-0.35,0.4-0.57c0.09-0.22,0.14-0.45,0.14-0.68c0-0.24-0.05-0.45-0.14-0.68c-0.09-0.22-0.22-0.4-0.4-0.57
		c-0.18-0.18-0.35-0.28-0.59-0.35c-0.22-0.08-0.45-0.13-0.68-0.11h3.44c0.45-0.04,0.86-0.22,1.17-0.53
		c0.31-0.31,0.48-0.74,0.48-1.19c0-0.45-0.18-0.87-0.48-1.19C76.3,109.88,75.86,109.69,75.43,109.67z"/>
	<path class="st14" d="M282.22,248.13c0,0-8.83-29.99,1.65-52.06c4.4-9.27,5.88-19.68,3.83-29.72c-0.98-4.77-2.38-9.46-4.2-13.98"/>
	<path class="st2" d="M290.02,138.45c0,3.67-6.65,14.32-6.65,14.32s-6.65-10.66-6.65-14.32c-0.04-0.88,0.14-1.75,0.45-2.6
		c0.33-0.82,0.81-1.58,1.44-2.21c0.62-0.64,1.37-1.14,2.18-1.48c0.82-0.34,1.7-0.52,2.59-0.52c0.89,0,1.75,0.18,2.59,0.52
		c0.84,0.34,1.55,0.84,2.18,1.48c0.62,0.64,1.11,1.39,1.44,2.21C289.88,136.69,290.03,137.58,290.02,138.45L290.02,138.45z"/>
	<path class="st2" d="M301.03,158.81c-1.99,3.09-13.38,8.41-13.38,8.41s0.22-12.58,2.21-15.64c0.98-1.44,2.47-2.41,4.19-2.76
		s3.47-0.01,4.92,0.93c1.46,0.93,2.5,2.41,2.86,4.11C302.23,155.55,301.94,157.33,301.03,158.81L301.03,158.81z"/>
	<path class="st2" d="M300.55,193.61c-3.29,1.65-15.79,0.49-15.79,0.49s6.52-10.75,9.8-12.39c0.79-0.4,1.64-0.67,2.51-0.74
		c0.88-0.08,1.78,0.04,2.61,0.28c0.84,0.26,1.63,0.71,2.31,1.27c0.67,0.58,1.21,1.27,1.63,2.07c0.4,0.79,0.64,1.65,0.71,2.54
		s-0.06,1.78-0.34,2.61c-0.28,0.84-0.73,1.6-1.32,2.27C302.06,192.68,301.36,193.22,300.55,193.61L300.55,193.61z"/>
	<path class="st2" d="M294.26,219.85c-2.94,2.18-15.49,3.18-15.49,3.18s4.62-11.68,7.57-13.86c0.71-0.53,1.51-0.92,2.36-1.12
		c0.86-0.22,1.74-0.26,2.61-0.14c0.87,0.13,1.7,0.42,2.46,0.87c0.74,0.45,1.41,1.05,1.93,1.74c0.53,0.71,0.91,1.51,1.12,2.37
		c0.22,0.86,0.25,1.74,0.13,2.61s-0.44,1.7-0.88,2.46C295.57,218.68,294.97,219.33,294.26,219.85z"/>
	<path class="st2" d="M273.68,167.94c2.64,2.57,14.92,5.21,14.92,5.21s-3-12.2-5.64-14.77c-1.27-1.17-2.96-1.8-4.71-1.78
		c-1.74,0.05-3.38,0.77-4.59,2.01c-1.21,1.25-1.88,2.91-1.88,4.66C271.79,165.03,272.46,166.7,273.68,167.94L273.68,167.94z"/>
	<path class="st2" d="M266.72,198.72c3.29,1.65,15.79,0.49,15.79,0.49s-6.52-10.75-9.8-12.39c-0.79-0.4-1.64-0.67-2.51-0.74
		c-0.87-0.07-1.78,0.04-2.61,0.28c-0.84,0.26-1.63,0.71-2.31,1.27c-0.67,0.58-1.21,1.27-1.63,2.07c-0.41,0.8-0.64,1.65-0.71,2.54
		c-0.06,0.88,0.06,1.78,0.34,2.61c0.28,0.84,0.74,1.6,1.32,2.27C265.18,197.8,265.9,198.33,266.72,198.72L266.72,198.72z"/>
	<path class="st2" d="M264.03,229.56c2.94,2.18,15.49,3.18,15.49,3.18s-4.62-11.68-7.57-13.86c-0.71-0.53-1.51-0.92-2.36-1.12
		c-0.84-0.22-1.74-0.26-2.61-0.14s-1.7,0.42-2.46,0.87c-0.74,0.45-1.41,1.05-1.93,1.74c-0.52,0.71-0.88,1.51-1.12,2.37
		c-0.22,0.84-0.25,1.74-0.13,2.61c0.13,0.87,0.44,1.7,0.88,2.46C262.74,228.4,263.34,229.06,264.03,229.56L264.03,229.56z"/>
	<path class="st12" d="M290.02,138.45c0,3.67-6.65,14.32-6.65,14.32s-6.65-10.66-6.65-14.32c-0.04-0.88,0.14-1.75,0.45-2.6
		c0.33-0.82,0.81-1.58,1.44-2.21c0.62-0.64,1.37-1.14,2.18-1.48c0.82-0.34,1.7-0.52,2.59-0.52c0.89,0,1.75,0.18,2.59,0.52
		c0.84,0.34,1.55,0.84,2.18,1.48c0.62,0.64,1.11,1.39,1.44,2.21C289.88,136.69,290.03,137.58,290.02,138.45L290.02,138.45z"/>
	<path class="st12" d="M301.03,158.81c-1.99,3.09-13.38,8.41-13.38,8.41s0.22-12.58,2.21-15.64c0.98-1.44,2.47-2.41,4.19-2.76
		s3.47-0.01,4.92,0.93c1.46,0.93,2.5,2.41,2.86,4.11C302.23,155.55,301.94,157.33,301.03,158.81L301.03,158.81z"/>
	<path class="st12" d="M300.55,193.61c-3.29,1.65-15.79,0.49-15.79,0.49s6.52-10.75,9.8-12.39c0.79-0.4,1.64-0.67,2.51-0.74
		c0.88-0.08,1.78,0.04,2.61,0.28c0.84,0.26,1.63,0.71,2.31,1.27c0.67,0.58,1.21,1.27,1.63,2.07c0.4,0.79,0.64,1.65,0.71,2.54
		s-0.06,1.78-0.34,2.61c-0.28,0.84-0.73,1.6-1.32,2.27C302.06,192.68,301.36,193.22,300.55,193.61L300.55,193.61z"/>
	<path class="st12" d="M294.26,219.85c-2.94,2.18-15.49,3.18-15.49,3.18s4.62-11.68,7.57-13.86c0.71-0.53,1.51-0.92,2.36-1.12
		c0.86-0.22,1.74-0.26,2.61-0.14c0.87,0.13,1.7,0.42,2.46,0.87c0.74,0.45,1.41,1.05,1.93,1.74c0.53,0.71,0.91,1.51,1.12,2.37
		c0.22,0.86,0.25,1.74,0.13,2.61s-0.44,1.7-0.88,2.46C295.57,218.68,294.97,219.33,294.26,219.85z"/>
	<path class="st12" d="M273.68,167.94c2.64,2.57,14.92,5.21,14.92,5.21s-3-12.2-5.64-14.77c-1.27-1.17-2.96-1.8-4.71-1.78
		c-1.74,0.05-3.38,0.77-4.59,2.01c-1.21,1.25-1.88,2.91-1.88,4.66C271.79,165.03,272.46,166.7,273.68,167.94L273.68,167.94z"/>
	<path class="st12" d="M266.72,198.72c3.29,1.65,15.79,0.49,15.79,0.49s-6.52-10.75-9.8-12.39c-0.79-0.4-1.64-0.67-2.51-0.74
		c-0.87-0.07-1.78,0.04-2.61,0.28c-0.84,0.26-1.63,0.71-2.31,1.27c-0.67,0.58-1.21,1.27-1.63,2.07c-0.41,0.8-0.64,1.65-0.71,2.54
		c-0.06,0.88,0.06,1.78,0.34,2.61c0.28,0.84,0.74,1.6,1.32,2.27C265.18,197.8,265.9,198.33,266.72,198.72L266.72,198.72z"/>
	<path class="st12" d="M264.03,229.56c2.94,2.18,15.49,3.18,15.49,3.18s-4.62-11.68-7.57-13.86c-0.71-0.53-1.51-0.92-2.36-1.12
		c-0.84-0.22-1.74-0.26-2.61-0.14s-1.7,0.42-2.46,0.87c-0.74,0.45-1.41,1.05-1.93,1.74c-0.52,0.71-0.88,1.51-1.12,2.37
		c-0.22,0.84-0.25,1.74-0.13,2.61c0.13,0.87,0.44,1.7,0.88,2.46C262.74,228.4,263.34,229.06,264.03,229.56L264.03,229.56z"/>
	<path class="st14" d="M73.84,247.42c0,0-8.83-29.99,1.65-52.06c4.4-9.27,5.88-19.68,3.83-29.72c-0.98-4.77-2.38-9.46-4.2-13.98"/>
	<path class="st2" d="M81.62,137.73c0,3.67-6.65,14.32-6.65,14.32s-6.65-10.66-6.65-14.32c-0.04-0.88,0.14-1.78,0.45-2.6
		c0.33-0.82,0.81-1.58,1.44-2.21c0.62-0.64,1.37-1.14,2.18-1.48c0.82-0.34,1.7-0.52,2.59-0.52c0.88,0,1.75,0.18,2.59,0.52
		c0.82,0.34,1.55,0.84,2.18,1.48c0.62,0.64,1.11,1.39,1.44,2.21C81.49,135.97,81.64,136.86,81.62,137.73L81.62,137.73z"/>
	<path class="st2" d="M92.64,158.09c-1.99,3.09-13.38,8.41-13.38,8.41s0.22-12.58,2.21-15.64c0.98-1.44,2.47-2.41,4.19-2.76
		c1.7-0.34,3.47-0.01,4.92,0.93c1.46,0.93,2.5,2.41,2.86,4.11C93.84,154.83,93.54,156.61,92.64,158.09L92.64,158.09z"/>
	<path class="st2" d="M92.16,192.89c-3.29,1.65-15.79,0.52-15.79,0.52s6.52-10.75,9.8-12.39c1.58-0.74,3.38-0.86,5.02-0.31
		c1.65,0.54,3,1.74,3.8,3.3c0.79,1.55,0.93,3.37,0.4,5.02C94.87,190.7,93.7,192.07,92.16,192.89L92.16,192.89z"/>
	<path class="st2" d="M85.88,219.13c-2.94,2.18-15.49,3.18-15.49,3.18s4.62-11.68,7.57-13.86c0.71-0.53,1.51-0.92,2.36-1.12
		c0.85-0.2,1.74-0.26,2.61-0.14c0.87,0.13,1.7,0.42,2.46,0.87c0.77,0.45,1.41,1.05,1.93,1.74c0.52,0.71,0.91,1.51,1.11,2.37
		c0.22,0.84,0.25,1.74,0.13,2.61c-0.13,0.87-0.44,1.7-0.88,2.46C87.17,217.96,86.58,218.61,85.88,219.13z"/>
	<path class="st2" d="M65.29,167.22c2.64,2.57,14.92,5.21,14.92,5.21s-3-12.2-5.64-14.77c-1.27-1.17-2.96-1.8-4.71-1.78
		c-1.74,0.05-3.38,0.77-4.59,2.01c-1.21,1.25-1.88,2.91-1.88,4.66C63.4,164.31,64.07,166,65.29,167.22L65.29,167.22z"/>
	<path class="st2" d="M58.32,198c3.29,1.65,15.79,0.49,15.79,0.49s-6.52-10.75-9.8-12.39c-1.58-0.74-3.38-0.86-5.02-0.29
		c-1.65,0.57-3,1.74-3.8,3.3s-0.93,3.37-0.4,5.02C55.63,195.79,56.77,197.18,58.32,198L58.32,198z"/>
	<path class="st2" d="M55.65,228.86c2.94,2.18,15.49,3.18,15.49,3.18s-4.62-11.68-7.57-13.86c-0.71-0.53-1.51-0.92-2.36-1.12
		c-0.84-0.22-1.74-0.26-2.61-0.14c-0.87,0.13-1.7,0.42-2.46,0.87s-1.41,1.05-1.93,1.74c-0.52,0.71-0.91,1.51-1.11,2.37
		c-0.22,0.86-0.25,1.74-0.13,2.61c0.13,0.87,0.44,1.7,0.88,2.46C54.35,227.7,54.94,228.34,55.65,228.86L55.65,228.86z"/>
	<path class="st12" d="M81.62,137.73c0,3.67-6.65,14.32-6.65,14.32s-6.65-10.66-6.65-14.32c-0.04-0.88,0.14-1.78,0.45-2.6
		c0.33-0.82,0.81-1.58,1.44-2.21c0.62-0.64,1.37-1.14,2.18-1.48c0.82-0.34,1.7-0.52,2.59-0.52c0.88,0,1.75,0.18,2.59,0.52
		c0.82,0.34,1.55,0.84,2.18,1.48c0.62,0.64,1.11,1.39,1.44,2.21C81.49,135.97,81.64,136.86,81.62,137.73L81.62,137.73z"/>
	<path class="st12" d="M92.64,158.09c-1.99,3.09-13.38,8.41-13.38,8.41s0.22-12.58,2.21-15.64c0.98-1.44,2.47-2.41,4.19-2.76
		c1.7-0.34,3.47-0.01,4.92,0.93c1.46,0.93,2.5,2.41,2.86,4.11C93.84,154.83,93.54,156.61,92.64,158.09L92.64,158.09z"/>
	<path class="st12" d="M92.16,192.89c-3.29,1.65-15.79,0.52-15.79,0.52s6.52-10.75,9.8-12.39c1.58-0.74,3.38-0.86,5.02-0.31
		c1.65,0.54,3,1.74,3.8,3.3c0.79,1.55,0.93,3.37,0.4,5.02C94.87,190.7,93.7,192.07,92.16,192.89L92.16,192.89z"/>
	<path class="st12" d="M85.88,219.13c-2.94,2.18-15.49,3.18-15.49,3.18s4.62-11.68,7.57-13.86c0.71-0.53,1.51-0.92,2.36-1.12
		c0.85-0.2,1.74-0.26,2.61-0.14c0.87,0.13,1.7,0.42,2.46,0.87c0.77,0.45,1.41,1.05,1.93,1.74c0.52,0.71,0.91,1.51,1.11,2.37
		c0.22,0.84,0.25,1.74,0.13,2.61c-0.13,0.87-0.44,1.7-0.88,2.46C87.17,217.96,86.58,218.61,85.88,219.13z"/>
	<path class="st12" d="M65.29,167.22c2.64,2.57,14.92,5.21,14.92,5.21s-3-12.2-5.64-14.77c-1.27-1.17-2.96-1.8-4.71-1.78
		c-1.74,0.05-3.38,0.77-4.59,2.01c-1.21,1.25-1.88,2.91-1.88,4.66C63.4,164.31,64.07,166,65.29,167.22L65.29,167.22z"/>
	<path class="st12" d="M58.32,198c3.29,1.65,15.79,0.49,15.79,0.49s-6.52-10.75-9.8-12.39c-1.58-0.74-3.38-0.86-5.02-0.29
		c-1.65,0.57-3,1.74-3.8,3.3s-0.93,3.37-0.4,5.02C55.63,195.79,56.77,197.18,58.32,198L58.32,198z"/>
	<path class="st12" d="M55.65,228.86c2.94,2.18,15.49,3.18,15.49,3.18s-4.62-11.68-7.57-13.86c-0.71-0.53-1.51-0.92-2.36-1.12
		c-0.84-0.22-1.74-0.26-2.61-0.14c-0.87,0.13-1.7,0.42-2.46,0.87s-1.41,1.05-1.93,1.74c-0.52,0.71-0.91,1.51-1.11,2.37
		c-0.22,0.86-0.25,1.74-0.13,2.61c0.13,0.87,0.44,1.7,0.88,2.46C54.35,227.7,54.94,228.34,55.65,228.86L55.65,228.86z"/>
</g>
</svg>
