<?xml version="1.0" encoding="utf-8"?>
<!-- Generator: Adobe Illustrator 25.0.0, SVG Export Plug-In . SVG Version: 6.00 Build 0)  -->
<svg version="1.1" id="Layer_1" xmlns="http://www.w3.org/2000/svg" xmlns:xlink="http://www.w3.org/1999/xlink" x="0px" y="0px"
	 viewBox="0 0 300 211.07" style="enable-background:new 0 0 300 211.07;" xml:space="preserve">
<style type="text/css">
	.st0{opacity:0.2;fill:#F07F12;enable-background:new    ;}
	.st1{opacity:0.5;fill:#F07F12;enable-background:new    ;}
	.st2{fill:#F07F12;}
	.st3{opacity:0.2;fill:#010202;enable-background:new    ;}
	.st4{opacity:0.2;}
	.st5{fill:url(#SVGID_1_);}
	.st6{fill:#965D7B;}
	.st7{fill:#575988;}
	.st8{opacity:0.05;fill:#010202;enable-background:new    ;}
	.st9{fill:#F7C4A7;}
	.st10{opacity:0.1;fill:#010202;enable-background:new    ;}
	.st11{opacity:0.07;fill:#FFFFFF;enable-background:new    ;}
	.st12{fill:#EC6682;}
	.st13{opacity:0.1;fill:#242223;enable-background:new    ;}
	.st14{fill:none;stroke:#545562;stroke-width:2;stroke-miterlimit:10;}
	.st15{fill:none;}
</style>
<g>
	<path class="st0" d="M90.5,14.08c-3.68,0.48-7.69,1.28-10.12,4.51c-2.87,3.81-2.5,9.59-1.19,14.42c1.31,4.82,3.36,9.51,3.35,14.57
		C82.47,55.6,76.99,62.4,70.76,66c-6.24,3.6-13.28,4.75-20,6.85c-6.28,1.97-12.28,4.71-17.87,8.19c-4.75,2.92-9.51,6.77-11.42,12.57
		c-3.11,9.51,2.62,19.61,8.27,27.42c17.33,23.94,39.42,46.94,66.42,49.25c20.17,1.73,40.37-8.48,60.32-4.74
		c9.17,1.72,17.71,6.28,26.31,10.31c8.6,4.02,17.66,7.59,26.93,7.14c9.27-0.46,18.9-5.71,22.93-15.36
		c2.38-5.69,2.62-12.3,4.82-18.08c6.73-17.77,27.69-20.65,39.86-34.01c6.39-7.02,10.03-16.67,13.08-26.22
		c4.91-15.54,8.6-31.92,7.77-48.44c-0.36-7.2-1.69-14.67-5.69-20.21c-2.91-4.05-6.96-6.72-10.91-9.31c-9.01-5.9-18.69-12-29.04-11.3
		c-5.97,0.41-11.62,3.06-17.3,5.15c-10.85,3.96-22.16,5.91-33.4,7.83c-18.59,3.19-37.45,6.39-56.3,4.79
		c-8.32-0.71-16.18-3.53-24.37-4.7C111.17,11.71,100.4,12.78,90.5,14.08z"/>
	<path class="st1" d="M240.67,63.22c6.38,0,11.55-5.17,11.55-11.55s-5.17-11.55-11.55-11.55c-6.38,0-11.55,5.17-11.55,11.55
		S234.3,63.22,240.67,63.22z"/>
	<path class="st2" d="M204.28,92.45H98.54l6.05-18.59h3.24l0.65,4.82h83.73l0.42-4.82h3.89L204.28,92.45z"/>
	<path class="st3" d="M204.28,92.45H98.54l6.05-18.59h3.24l0.65,4.82h83.73l0.42-4.82h3.89L204.28,92.45z"/>
	<path class="st2" d="M211.62,96.59H89.07l-3.03-7.58h128.18L211.62,96.59z"/>
	<path class="st2" d="M207.73,101.4H92.07l-3.02-4.82h122.57L207.73,101.4z"/>
	<path class="st2" d="M207.73,100.03H92.07v5.52h115.66V100.03z"/>
	<path class="st2" d="M216.81,114.5H85.17v20.65h131.61L216.81,114.5L216.81,114.5z"/>
	<path class="st3" d="M216.81,114.5H85.17v20.65h131.61L216.81,114.5L216.81,114.5z"/>
	<path class="st2" d="M299.66,184.04l-299.5-2.06l8.63-48.89h284.4L299.66,184.04z"/>
	<g class="st4">
		<path class="st3" d="M84.99,168.9h3.82c1.2,0,2.37,0.48,3.23,1.34c0.86,0.86,1.34,2.01,1.34,3.23v9.22H80.43v-9.22
			c0-1.2,0.48-2.37,1.34-3.23C82.63,169.39,83.78,168.9,84.99,168.9z"/>
		<path class="st3" d="M113.04,168.9h3.82c1.2,0,2.37,0.48,3.23,1.34c0.86,0.86,1.34,2.01,1.34,3.23v9.22h-12.95v-9.22
			c0-1.2,0.48-2.37,1.34-3.23C110.67,169.39,111.82,168.9,113.04,168.9z"/>
		<path class="st3" d="M147.99,168.9h3.82c1.2,0,2.37,0.48,3.23,1.34c0.86,0.86,1.34,2.01,1.34,3.23v9.22h-12.95v-9.22
			c0-1.2,0.48-2.37,1.34-3.23C145.63,169.39,146.79,168.9,147.99,168.9z"/>
		<path class="st3" d="M184.25,168.9h3.82c1.2,0,2.37,0.48,3.23,1.34c0.86,0.86,1.34,2.01,1.34,3.23v9.22h-12.95v-9.22
			c0-1.2,0.48-2.37,1.34-3.23C181.88,169.39,183.03,168.9,184.25,168.9z"/>
		<path class="st3" d="M213.16,168.9h3.82c1.2,0,2.37,0.48,3.23,1.34c0.86,0.86,1.34,2.01,1.34,3.23v9.22h-12.95v-9.22
			c0-1.2,0.48-2.37,1.34-3.23C210.79,169.39,211.95,168.9,213.16,168.9z"/>
	</g>
	<path class="st3" d="M156.81,135.15H143v27.54h13.81V135.15z"/>
	<path class="st2" d="M87.33,114.5h-2.16v20.65h2.16V114.5z"/>
	<path class="st2" d="M99.85,114.5h-2.16v20.65h2.16V114.5z"/>
	<path class="st2" d="M113.65,114.5h-2.16v20.65h2.16V114.5z"/>
	<path class="st2" d="M127.03,114.5h-2.16v20.65h2.16V114.5z"/>
	<path class="st2" d="M141.71,114.5h-2.16v20.65h2.16V114.5z"/>
	<path class="st2" d="M161.56,114.5h-2.16v20.65h2.16V114.5z"/>
	<path class="st2" d="M174.94,114.5h-2.16v20.65h2.16V114.5z"/>
	<path class="st2" d="M190.04,114.5h-2.16v20.65h2.16V114.5z"/>
	<path class="st2" d="M203,114.5h-2.16v20.65H203V114.5z"/>
	<path class="st2" d="M216.81,114.5h-2.16v20.65h2.16V114.5z"/>
	<path class="st2" d="M216.81,115.87H85.17l-7.77-6.89h146.72L216.81,115.87z"/>
	<path class="st2" d="M90.35,115.87h-5.19v2.75h5.19V115.87z"/>
	<path class="st2" d="M101.57,115.87h-5.19v2.75h5.19V115.87z"/>
	<path class="st2" d="M114.96,115.87h-5.19v2.75h5.19V115.87z"/>
	<path class="st2" d="M128.75,115.87h-5.19v2.75h5.19V115.87z"/>
	<path class="st2" d="M143.44,115.87h-5.19v2.75h5.19V115.87z"/>
	<path class="st2" d="M162.85,115.87h-5.19v2.75h5.19V115.87z"/>
	<path class="st2" d="M176.67,115.87h-5.19v2.75h5.19V115.87z"/>
	<path class="st2" d="M191.78,115.87h-5.19v2.75h5.19V115.87z"/>
	<path class="st2" d="M204.72,115.87h-5.19v2.75h5.19V115.87z"/>
	<path class="st2" d="M216.81,115.87h-5.19v2.75h5.19V115.87z"/>
	<path class="st2" d="M225,108.98H76.98l-1.73-4.82h151.05L225,108.98z"/>
	<path class="st3" d="M225,108.98H76.98l-1.73-4.82h151.05L225,108.98z"/>
	<path class="st2" d="M149.91,107.61c1.9,0,3.45-2.46,3.45-5.52c0-3.04-1.55-5.52-3.45-5.52s-3.45,2.46-3.45,5.52
		C146.45,105.15,148,107.61,149.91,107.61z"/>
	<path class="st3" d="M149.91,107.61c1.9,0,3.45-2.46,3.45-5.52c0-3.04-1.55-5.52-3.45-5.52s-3.45,2.46-3.45,5.52
		C146.45,105.15,148,107.61,149.91,107.61z"/>
	<path class="st2" d="M149.91,105.54c1.19,0,2.16-1.53,2.16-3.44c0-1.9-0.97-3.44-2.16-3.44s-2.16,1.53-2.16,3.44
		C147.75,104.01,148.72,105.54,149.91,105.54z"/>
	
		<linearGradient id="SVGID_1_" gradientUnits="userSpaceOnUse" x1="420.695" y1="499.9009" x2="420.695" y2="368.1694" gradientTransform="matrix(1 0 0 1 -270.9449 -289.1709)">
		<stop  offset="0" style="stop-color:#808081;stop-opacity:0.25"/>
		<stop  offset="0.54" style="stop-color:#808081;stop-opacity:0.12"/>
		<stop  offset="1" style="stop-color:#808081;stop-opacity:0.1"/>
	</linearGradient>
	<path class="st5" d="M200.44,181.54l-14.8-11.36c0,0-1.2-4.74-1.68-8.04c-0.48-3.32-1.2-17.52-1.2-17.52
		c0.34-1.23,0.57-2.49,0.67-3.76c0.15-0.03,0.3-0.07,0.44-0.11c1.11-0.28,2.13-0.82,2.99-1.56c0.87-0.75,1.55-1.68,1.98-2.74
		c1.52-3.78-0.44-8.25-2.94-11.24c-2.49-2.99-5.61-5.41-7.25-9.13c-2.01-4.58-1.32-10.11-2.35-15.12c-0.11-0.7-0.36-1.36-0.75-1.96
		c-0.63-0.79-1.64-0.97-2.54-1.28c-2.83-0.99-4.95-3.74-6.59-6.61c-2.67-4.63-5.44-11.69-10.94-12.09
		c-2.05-0.15-4.18,0.54-6.24,0.54c-3.2,0-6.39,0.04-9.56,0.48c-1.14,0.16-2.32,0.37-3.27,1.12c-3.25,2.58-1.79,9.38-4.92,12.16
		c-0.94,0.83-2.13,1.12-3.19,1.69c-3.97,2.13-5.74,7.81-5.52,12.92c0.11,2.39,0.61,4.88,2.02,6.64c1.12,1.4,2.71,2.2,3.76,3.68
		c1.69,2.38,1.46,5.54,1.28,8.74c-2.25,0.94-4.05,2.02-4.62,3.19c-1.9,3.9-1.68,17.28-1.68,17.28s0.71,21.89-4.78,24.63
		l-20.53,14.21c0,0-14.57-12.66-18.15-5.2c-2.45,5.11,6.5,7.99,12.4,9.3c-3.72,2.63-5.78,7.51-4.03,10.82
		c2.74,5.21,10.38,8.76,10.38,8.76s29.17,1.4,42.66-1.61h0.22c5.73,1.03,13.94,2.13,20.53,1.47c0.12,0.3,0.21,0.5,0.21,0.5
		s42.25,3.56,49.9-10.89c3.93-7.41-0.17-10.82-5.08-12.4c5.5-0.44,11.76-1.97,12.49-6.65C221.08,171.85,200.44,181.54,200.44,181.54
		z M196.17,186.08c-7.73,2.82-14.01,2.98-17.36,2.76c-1.65-3.59-8.48-19.09-8.66-29.47c0.04-2.32,0.46-4.34,1.38-5.86
		c1.98-3.28,2.58-5.83,2.51-7.79c0-0.15,0-0.29,0-0.42c0.01-0.6-0.05-1.19-0.17-1.77c0.33,0.79,0.42,1.68,0.28,2.54
		c-0.71,3.68,1.2,27.45,1.2,27.45s1.55,5.32,4.78,6.85L196.17,186.08z M120.45,184.4l7.39-4.74c0,0,3.47-1.65,3.81-5.69l2.43-19.22
		c0.17,0.83,0.38,1.64,0.66,2.43c0.42,1.26,0.61,3.11,0.63,5.3c-0.08,10.73-3.73,28.52-3.73,28.52h0.05l-0.03,0.13l-0.26,0.01
		c-6.01-0.19-20-0.71-27.83-1.79L120.45,184.4z M107.48,195.61v0.04h-1.83L107.48,195.61z"/>
	<path class="st6" d="M165.87,93.07c1.6,2.79,3.64,5.48,6.36,6.44c0.87,0.3,1.83,0.48,2.43,1.24c0.38,0.57,0.63,1.22,0.74,1.9
		c0.99,4.88,0.33,10.28,2.29,14.75c1.57,3.61,4.6,5.97,7.01,8.89c2.41,2.91,4.3,7.28,2.83,10.97c-0.42,1.02-1.07,1.93-1.9,2.66
		c-0.83,0.73-1.81,1.24-2.88,1.52c-2.01,0.56-4.11,0.3-6.16-0.04c-2.7-0.48-5.44-1.22-7.67-3.04c-3.89-3.15-5.52-8.81-7.55-13.85
		c-0.95-2.35-2.22-4.83-4.33-5.68c-2.41-0.97-5.11,0.65-6.67,3.02s-2.26,5.34-3,8.2c-0.85,3.24-1.93,6.59-4.17,8.7
		c-0.97,0.95-2.2,1.6-3.52,1.85c-1.32,0.26-2.71,0.15-3.97-0.36c-2.5-1.03-4.47-3.66-5.04-6.72c-0.89-4.7,1.24-10.35-1.36-14.06
		c-1.01-1.44-2.55-2.22-3.64-3.59c-1.35-1.71-1.85-4.13-1.96-6.47c-0.22-4.99,1.48-10.53,5.32-12.59c1.03-0.56,2.18-0.83,3.07-1.64
		c3.04-2.7,1.6-9.34,4.75-11.87c0.91-0.73,2.05-0.94,3.15-1.08c3.08-0.42,6.15-0.48,9.25-0.46c2,0,4.06-0.67,6.05-0.52
		C160.62,81.66,163.3,88.54,165.87,93.07z"/>
	<path class="st7" d="M108.79,193.73l1.16,13.8l81.45-0.48l-1.55-15.07l-27.53-3.2l-48.29,2.91L108.79,193.73z"/>
	<path class="st8" d="M108.79,193.73l1.16,13.8l81.45-0.48l-1.55-15.07l-27.53-3.2l-48.29,2.91L108.79,193.73z"/>
	<path class="st9" d="M162.4,203.37l-27.12,2.54c0,0,18.57,4.74,29.42,2.43L162.4,203.37z"/>
	<path class="st10" d="M162.4,203.37l-27.12,2.54c0,0,18.57,4.74,29.42,2.43L162.4,203.37z"/>
	<path class="st9" d="M141.73,106.2c0,0,5.3,13.97-2.54,20.2c-7.84,6.23-1.39,23.67-1.39,23.67l30.23-1.39c0,0,3-19.62,1.38-23.77
		c0,0-7.16,2.08-8.77-2.3c-1.61-4.38-2.76-16.38-2.76-16.38L141.73,106.2L141.73,106.2z"/>
	<path class="st7" d="M134.81,190.67c0,0-25.49-0.58-33.01-2.43c-7.5-1.85-13.97,7.04-11.31,12.12c2.66,5.08,10.03,8.53,10.03,8.53
		s37.97,1.85,46.16-3.35c0,0,3.11-8.89,0-10.61h-39.55l29.2-0.58L134.81,190.67z"/>
	<path class="st7" d="M175.32,188.03c0,0,8.53,1.85,20.31-2.76c0,0,22.04-0.7,14.66,13.37s-48.23,10.61-48.23,10.61
		s-2.43-5.19,0-6.57c2.43-1.39,23.53-10.28,30.1-9.8l-18.24,3.57L175.32,188.03z"/>
	<path class="st10" d="M158.94,112.92c-0.44-3.28-0.7-5.97-0.7-5.97h-16.15c0.75,2.12,1.27,4.3,1.55,6.54
		c2.26,1.59,4.99,2.38,7.75,2.29C154.15,115.69,156.8,114.67,158.94,112.92z"/>
	<path class="st9" d="M150.56,115.04c7.01,0,12.69-5.68,12.69-12.69c0-7.01-5.68-12.69-12.69-12.69c-7.01,0-12.69,5.68-12.69,12.69
		C137.87,109.35,143.56,115.04,150.56,115.04z"/>
	<path class="st9" d="M143.12,124.43c0,0-15.24,2.88-17.08,6.69c-1.84,3.81-1.61,16.85-1.61,16.85s0.69,21.34-4.62,24l-19.84,13.85
		c0,0-14.08-12.36-17.54-5.08c-3.47,7.26,16.62,9.92,16.62,9.92l22.38-6.69l7.16-4.62c0,0,3.35-1.61,3.69-5.54l3-23.77l12-3.47
		h19.38l2.59-7.42c0,0,4.79,3.84,4.09,7.42c-0.69,3.57,1.15,26.75,1.15,26.75s1.49,5.19,4.62,6.69l18,6.48
		c0,0,19.04,1.85,20.31-6.46c1.27-8.31-18.69,1.15-18.69,1.15l-14.3-11.09c0,0-1.15-4.62-1.61-7.84
		c-0.46-3.24-1.15-17.08-1.15-17.08s4.38-14.54-8.31-17.07l-16.38-5.08L143.12,124.43z"/>
	<path class="st10" d="M132.91,127.38l2.37,15.64c0,0-2.43,7.26,0,14.42c2.43,7.16-3,33.8-3,33.8s28.51,9.13,45.92-1.39
		c0,0-12.81-27-7.38-36c5.42-9,0.09-12.51,0.09-12.51l0.85-16.54l-3.93-1.15l-2.3,16.35c0,0-15.93,11.07-27.69,1.39l-2.54-17.77
		L132.91,127.38z"/>
	<path class="st11" d="M149.38,145.96c-1.24-1.97-3.15-3.41-5.4-4.05c-2.24-0.63-4.63-0.4-6.71,0.63
		C141.14,145.45,145.4,146.22,149.38,145.96z"/>
	<path class="st11" d="M155.91,144.22c1.24-1.97,3.15-3.41,5.4-4.05c2.24-0.63,4.63-0.4,6.71,0.63
		C164.14,143.72,159.88,144.5,155.91,144.22z"/>
	<path class="st10" d="M132.91,127.38l2.37,14.83c0,0-2.43,7.26,0,14.42c2.43,7.16-3,33.8-3,33.8s28.51,9.13,45.92-1.39
		c0,0-12.81-27-7.38-36s0.09-12.51,0.09-12.51l0.83-16.55l-3.93-1.15l-2.32,16.38c0,0-15.93,11.09-27.69,1.39l-2.54-17.77
		L132.91,127.38z"/>
	<path class="st12" d="M132.79,127.26l2.49,15.17c0,0-2.43,7.26,0,14.42c2.43,7.16-3,33.8-3,33.8s28.51,9.13,45.92-1.39
		c0,0-12.81-27-7.38-36c5.42-9,0.09-12.51,0.09-12.51l0.83-16.55l-3.93-1.15l-2.3,16.38c0,0-15.93,11.09-27.69,1.39l-2.54-17.77
		L132.79,127.26z"/>
	<path class="st9" d="M144.51,196.33l6.01-0.81c0,0,6.93-8.89,11.89-2.08c0,0,2.08,4.38,4.62,5.19c1.73,0.52,3.52,0.91,5.3,1.15
		l-10.27,2.88c0,0-4.5,2.66-9.23,1.97c-2.79-0.42-5.64-0.19-8.31,0.69L144.51,196.33z"/>
	<path class="st10" d="M137.87,158.66c0,0,10.85,1.61,12.69-1.27L137.87,158.66z"/>
	<path class="st10" d="M158.41,156.8c0,0,2.08,2.08,10.38,0.58L158.41,156.8z"/>
	<path class="st10" d="M137.29,124.61c0,0,7.95,1.15,9.46,0.46L137.29,124.61z"/>
	<path class="st10" d="M154.83,124.61c0,0,7.95,1.15,9.46,0.46L154.83,124.61z"/>
	<path class="st10" d="M145.37,195.46c0,0,2.2,10.35,0,10.7c-2.2,0.36-5.3-1.71-5.3-1.93c0-0.22,1.39-6.81,1.39-6.81L145.37,195.46z
		"/>
	<path class="st7" d="M145.15,195.46c0,0,2.2,10.35,0,10.7c-2.2,0.36-5.3-1.71-5.3-1.93c0-0.22,1.38-6.81,1.38-6.81L145.15,195.46z"
		/>
	<path class="st10" d="M134.43,123.1c-0.97,2.25-1.31,4.91-0.28,7.12c0.79,1.69,2.32,3.07,2.62,4.91c0.37,2.3-1.34,4.66-0.7,6.91
		c0.24,0.87,0.81,1.6,1.39,2.28c1.76,2.08,4.09,4.09,6.81,3.93c0.42-4.19-3.19-8.25-2.01-12.3c0.42-1.44,1.43-2.66,2.02-4.03
		c0.99-2.29,0.86-4.91,0.5-7.38c-0.53-3.59-1.85-7.99-5.41-9.67c-1.64-0.77-3.96-0.83-4.54,1.27c-0.3,1.12,0.42,2.18,0.53,3.27
		C135.46,120.8,134.97,121.85,134.43,123.1z"/>
	<path class="st6" d="M134.43,122.75c-0.97,2.25-1.31,4.91-0.28,7.12c0.79,1.69,2.32,3.07,2.62,4.91c0.37,2.3-1.34,4.66-0.7,6.91
		c0.24,0.87,0.81,1.6,1.39,2.28c1.76,2.08,4.09,4.09,6.81,3.93c0.42-4.19-3.19-8.25-2.01-12.3c0.42-1.44,1.43-2.66,2.02-4.03
		c0.99-2.29,0.86-4.91,0.5-7.38c-0.53-3.59-1.85-7.99-5.41-9.67c-1.64-0.77-3.96-0.83-4.54,1.27c-0.3,1.12,0.42,2.18,0.53,3.27
		C135.46,120.45,134.97,121.51,134.43,122.75z"/>
	<path class="st10" d="M135.34,96.11c0,0,16.85-2.3,17.32,1.15c0.46,3.47,15.35,9.13,15.35,9.13l-3.69-9.13l-6.81-11.31
		c0,0-12.47-0.91-13.04,0c-0.57,0.91-7.16,3.93-7.16,3.93L135.34,96.11z"/>
	<path class="st6" d="M135.34,95.87c0,0,16.85-2.3,17.32,1.15c0.46,3.47,15.35,9.13,15.35,9.13l-3.69-9.13l-6.81-11.3
		c0,0-12.47-0.91-13.04,0c-0.57,0.91-7.16,3.93-7.16,3.93L135.34,95.87z"/>
	<path class="st10" d="M164.64,120.54c0.82,0.98,1.4,2.13,1.69,3.39c0.28,1.19,0.29,2.43,0.56,3.62c0.57,2.54,2.25,4.67,4.01,6.6
		c0.57,0.7,1.26,1.28,2.05,1.72c0.79,0.4,1.83,0.48,2.57,0c-0.71-0.58-1.08-1.46-1.34-2.34c-0.36-1.23-0.5-2.5-0.46-3.77
		c0.08-2.13,0.7-4.38-0.19-6.32c-0.5-1.12-1.46-1.97-2.43-2.74c-0.67-0.56-1.4-1.03-2.17-1.43c-1.43-0.71-3.07-1.03-4.66-1.18
		C162.2,117.87,164,119.75,164.64,120.54z"/>
	<path class="st6" d="M164.64,120.2c0.82,0.99,1.4,2.14,1.69,3.4c0.28,1.19,0.29,2.43,0.56,3.62c0.57,2.54,2.25,4.67,4.01,6.6
		c0.57,0.7,1.26,1.28,2.05,1.72c0.79,0.4,1.83,0.48,2.57,0c-0.71-0.58-1.08-1.46-1.34-2.34c-0.36-1.23-0.5-2.5-0.46-3.77
		c0.08-2.13,0.7-4.38-0.19-6.32c-0.5-1.12-1.46-1.97-2.43-2.74c-0.67-0.56-1.4-1.03-2.17-1.43c-1.43-0.71-3.07-1.03-4.66-1.18
		C162.2,117.53,164,119.41,164.64,120.2z"/>
	<path class="st13" d="M157.1,50.29h-2.09c0.2,0.01,0.4-0.03,0.58-0.09c0.19-0.07,0.34-0.19,0.5-0.3c0.15-0.15,0.26-0.3,0.34-0.48
		s0.12-0.38,0.12-0.58c0-0.2-0.04-0.38-0.12-0.58c-0.08-0.19-0.19-0.34-0.34-0.48c-0.15-0.15-0.3-0.24-0.5-0.3
		c-0.2-0.07-0.38-0.11-0.58-0.09h-16.95c-0.38,0.03-0.73,0.19-0.99,0.45c-0.26,0.26-0.41,0.63-0.41,1.01c0,0.38,0.15,0.74,0.41,1.01
		c0.26,0.26,0.62,0.44,0.99,0.45h2.09c-0.2-0.01-0.4,0.03-0.58,0.09c-0.19,0.07-0.36,0.19-0.5,0.3c-0.15,0.15-0.26,0.3-0.34,0.48
		c-0.08,0.19-0.12,0.38-0.12,0.58s0.04,0.38,0.12,0.58c0.08,0.19,0.19,0.34,0.34,0.48c0.15,0.15,0.3,0.24,0.5,0.3
		c0.19,0.07,0.38,0.11,0.58,0.09h-2.92c-0.2-0.01-0.4,0.03-0.58,0.09c-0.19,0.07-0.36,0.19-0.5,0.3c-0.15,0.15-0.26,0.3-0.34,0.48
		c-0.08,0.19-0.12,0.38-0.12,0.58s0.04,0.38,0.12,0.58c0.08,0.19,0.19,0.34,0.34,0.48c0.15,0.15,0.3,0.24,0.5,0.3
		c0.19,0.07,0.38,0.11,0.58,0.09h16.95c0.2,0.01,0.4-0.03,0.58-0.09c0.19-0.07,0.36-0.19,0.5-0.3c0.15-0.15,0.26-0.3,0.34-0.48
		c0.08-0.19,0.12-0.38,0.12-0.58s-0.04-0.38-0.12-0.58c-0.08-0.19-0.19-0.34-0.34-0.48c-0.15-0.15-0.3-0.24-0.5-0.3
		c-0.2-0.07-0.38-0.11-0.58-0.09h2.92c0.2,0.01,0.4-0.03,0.58-0.09c0.19-0.07,0.36-0.19,0.5-0.3c0.15-0.15,0.26-0.3,0.34-0.48
		c0.08-0.19,0.12-0.38,0.12-0.58s-0.04-0.38-0.12-0.58c-0.08-0.19-0.19-0.34-0.34-0.48c-0.15-0.15-0.3-0.24-0.5-0.3
		C157.5,50.3,157.32,50.27,157.1,50.29z"/>
	<path class="st13" d="M239.2,50.29h-2.09c0.2,0.01,0.4-0.03,0.58-0.09c0.19-0.07,0.36-0.19,0.5-0.3c0.15-0.15,0.26-0.3,0.34-0.48
		c0.08-0.17,0.12-0.38,0.12-0.58c0-0.2-0.04-0.38-0.12-0.58c-0.08-0.19-0.19-0.34-0.34-0.48c-0.15-0.15-0.3-0.24-0.5-0.3
		c-0.2-0.07-0.38-0.11-0.58-0.09h-16.95c-0.38,0.03-0.73,0.19-0.99,0.45s-0.41,0.63-0.41,1.01c0,0.38,0.15,0.74,0.41,1.01
		c0.26,0.26,0.62,0.44,0.99,0.45h2.09c-0.2-0.01-0.4,0.03-0.58,0.09c-0.19,0.07-0.34,0.19-0.5,0.3c-0.15,0.15-0.26,0.3-0.34,0.48
		c-0.08,0.19-0.12,0.38-0.12,0.58s0.04,0.38,0.12,0.58c0.08,0.19,0.19,0.34,0.34,0.48c0.15,0.15,0.3,0.24,0.5,0.3
		c0.2,0.07,0.38,0.11,0.58,0.09h-2.92c-0.2-0.01-0.4,0.03-0.58,0.09c-0.19,0.07-0.34,0.19-0.5,0.3c-0.15,0.15-0.26,0.3-0.33,0.48
		c-0.08,0.19-0.12,0.38-0.12,0.58s0.04,0.38,0.12,0.58c0.08,0.19,0.19,0.34,0.33,0.48c0.15,0.15,0.3,0.24,0.5,0.3
		c0.2,0.07,0.38,0.11,0.58,0.09h16.95c0.2,0.01,0.4-0.03,0.58-0.09c0.19-0.07,0.34-0.19,0.5-0.3c0.15-0.15,0.26-0.3,0.34-0.48
		c0.08-0.19,0.12-0.38,0.12-0.58s-0.04-0.38-0.12-0.58c-0.08-0.19-0.19-0.34-0.34-0.48c-0.15-0.15-0.3-0.24-0.5-0.3
		c-0.2-0.07-0.38-0.11-0.58-0.09h2.92c0.2,0.01,0.4-0.03,0.58-0.09c0.19-0.07,0.34-0.19,0.5-0.3c0.15-0.15,0.26-0.3,0.34-0.48
		c0.08-0.19,0.12-0.38,0.12-0.58s-0.04-0.38-0.12-0.58c-0.08-0.19-0.19-0.34-0.34-0.48c-0.15-0.15-0.3-0.24-0.5-0.3
		C239.6,50.3,239.4,50.27,239.2,50.29z"/>
	<path class="st13" d="M64.37,87.68h-2.09c0.2,0.01,0.4-0.03,0.58-0.09c0.19-0.07,0.36-0.19,0.5-0.3c0.15-0.15,0.26-0.3,0.34-0.48
		c0.08-0.19,0.12-0.38,0.12-0.58c0-0.2-0.04-0.38-0.12-0.58c-0.08-0.19-0.19-0.34-0.34-0.48c-0.15-0.15-0.3-0.24-0.5-0.3
		s-0.38-0.11-0.58-0.09H45.35c-0.38,0.03-0.73,0.19-0.99,0.45s-0.41,0.63-0.41,1.01s0.15,0.74,0.41,1.01
		c0.26,0.26,0.62,0.44,0.99,0.45h2.09c-0.38,0.03-0.73,0.19-0.99,0.45c-0.26,0.26-0.41,0.63-0.41,1.01c0,0.38,0.15,0.74,0.41,1.01
		c0.26,0.26,0.62,0.44,0.99,0.45h-2.92c-0.2-0.01-0.4,0.03-0.58,0.09c-0.19,0.07-0.36,0.19-0.5,0.3c-0.15,0.15-0.26,0.3-0.34,0.48
		c-0.08,0.19-0.12,0.38-0.12,0.58c0,0.2,0.04,0.38,0.12,0.58c0.08,0.19,0.19,0.34,0.34,0.48c0.15,0.13,0.3,0.24,0.5,0.3
		c0.19,0.07,0.38,0.11,0.58,0.09h16.95c0.2,0.01,0.4-0.03,0.58-0.09c0.19-0.07,0.36-0.19,0.5-0.3c0.15-0.15,0.26-0.3,0.34-0.48
		c0.08-0.19,0.12-0.38,0.12-0.58c0-0.2-0.04-0.38-0.12-0.58c-0.08-0.19-0.19-0.34-0.34-0.48c-0.15-0.15-0.3-0.24-0.5-0.3
		c-0.19-0.07-0.38-0.11-0.58-0.09h2.92c0.38-0.03,0.73-0.19,0.99-0.45s0.41-0.63,0.41-1.01c0-0.38-0.15-0.74-0.41-1.01
		C65.11,87.86,64.74,87.7,64.37,87.68z"/>
	<path class="st14" d="M239.98,205.26c0,0-7.5-25.47,1.4-44.21c3.74-7.87,4.99-16.71,3.25-25.24c-0.83-4.05-2.02-8.03-3.57-11.87"/>
	<path class="st2" d="M246.6,112.12c0,3.12-5.65,12.16-5.65,12.16s-5.65-9.05-5.65-12.16c-0.03-0.75,0.12-1.49,0.38-2.21
		c0.28-0.7,0.69-1.34,1.22-1.88c0.53-0.54,1.16-0.97,1.85-1.26c0.7-0.29,1.44-0.44,2.2-0.44s1.49,0.15,2.2,0.44s1.32,0.71,1.85,1.26
		c0.53,0.54,0.94,1.18,1.22,1.88C246.48,110.62,246.61,111.38,246.6,112.12L246.6,112.12z"/>
	<path class="st2" d="M255.95,129.41c-1.69,2.62-11.36,7.14-11.36,7.14s0.19-10.68,1.88-13.28c0.83-1.22,2.1-2.05,3.56-2.34
		c1.46-0.29,2.95-0.01,4.18,0.79c1.24,0.79,2.12,2.05,2.43,3.49C256.97,126.64,256.72,128.15,255.95,129.41L255.95,129.41z"/>
	<path class="st2" d="M255.54,158.96c-2.79,1.4-13.41,0.42-13.41,0.42s5.54-9.13,8.32-10.52c0.67-0.34,1.39-0.57,2.13-0.63
		c0.75-0.07,1.51,0.03,2.22,0.24c0.71,0.22,1.38,0.6,1.96,1.08c0.57,0.49,1.03,1.08,1.38,1.76c0.34,0.67,0.54,1.4,0.6,2.16
		s-0.05,1.51-0.29,2.22c-0.24,0.71-0.62,1.36-1.12,1.93C256.82,158.17,256.23,158.63,255.54,158.96L255.54,158.96z"/>
	<path class="st2" d="M250.2,181.24c-2.5,1.85-13.15,2.7-13.15,2.7s3.92-9.92,6.43-11.77c0.6-0.45,1.28-0.78,2-0.95
		c0.73-0.19,1.48-0.22,2.22-0.12c0.74,0.11,1.44,0.36,2.09,0.74c0.63,0.38,1.2,0.89,1.64,1.48c0.45,0.6,0.77,1.28,0.95,2.01
		c0.19,0.73,0.21,1.48,0.11,2.22s-0.37,1.44-0.75,2.09C251.31,180.25,250.8,180.8,250.2,181.24z"/>
	<path class="st2" d="M232.72,137.16c2.24,2.18,12.67,4.42,12.67,4.42s-2.55-10.36-4.79-12.54c-1.08-0.99-2.51-1.53-4-1.51
		c-1.48,0.04-2.87,0.65-3.9,1.71c-1.03,1.06-1.6,2.47-1.6,3.96C231.12,134.69,231.69,136.11,232.72,137.16L232.72,137.16z"/>
	<path class="st2" d="M226.81,163.3c2.79,1.4,13.41,0.42,13.41,0.42s-5.54-9.13-8.32-10.52c-0.67-0.34-1.39-0.57-2.13-0.63
		s-1.51,0.03-2.22,0.24c-0.71,0.22-1.38,0.6-1.96,1.08c-0.57,0.49-1.03,1.08-1.38,1.76s-0.54,1.4-0.6,2.16
		c-0.05,0.75,0.05,1.51,0.29,2.22c0.24,0.71,0.63,1.36,1.12,1.93C225.51,162.52,226.12,162.97,226.81,163.3L226.81,163.3z"/>
	<path class="st2" d="M224.53,189.49c2.5,1.85,13.15,2.7,13.15,2.7s-3.92-9.92-6.43-11.77c-0.6-0.45-1.28-0.78-2-0.95
		c-0.71-0.19-1.48-0.22-2.22-0.12s-1.44,0.36-2.09,0.74c-0.63,0.38-1.2,0.89-1.64,1.48c-0.44,0.6-0.75,1.28-0.95,2.01
		c-0.19,0.71-0.21,1.48-0.11,2.22c0.11,0.74,0.37,1.44,0.75,2.09C223.43,188.5,223.94,189.06,224.53,189.49L224.53,189.49z"/>
	<path class="st12" d="M246.6,112.12c0,3.12-5.65,12.16-5.65,12.16s-5.65-9.05-5.65-12.16c-0.03-0.75,0.12-1.49,0.38-2.21
		c0.28-0.7,0.69-1.34,1.22-1.88c0.53-0.54,1.16-0.97,1.85-1.26c0.7-0.29,1.44-0.44,2.2-0.44s1.49,0.15,2.2,0.44s1.32,0.71,1.85,1.26
		c0.53,0.54,0.94,1.18,1.22,1.88C246.48,110.62,246.61,111.38,246.6,112.12L246.6,112.12z"/>
	<path class="st12" d="M255.95,129.41c-1.69,2.62-11.36,7.14-11.36,7.14s0.19-10.68,1.88-13.28c0.83-1.22,2.1-2.05,3.56-2.34
		c1.46-0.29,2.95-0.01,4.18,0.79c1.24,0.79,2.12,2.05,2.43,3.49C256.97,126.64,256.72,128.15,255.95,129.41L255.95,129.41z"/>
	<path class="st12" d="M255.54,158.96c-2.79,1.4-13.41,0.42-13.41,0.42s5.54-9.13,8.32-10.52c0.67-0.34,1.39-0.57,2.13-0.63
		c0.75-0.07,1.51,0.03,2.22,0.24c0.71,0.22,1.38,0.6,1.96,1.08c0.57,0.49,1.03,1.08,1.38,1.76c0.34,0.67,0.54,1.4,0.6,2.16
		s-0.05,1.51-0.29,2.22c-0.24,0.71-0.62,1.36-1.12,1.93C256.82,158.17,256.23,158.63,255.54,158.96L255.54,158.96z"/>
	<path class="st12" d="M250.2,181.24c-2.5,1.85-13.15,2.7-13.15,2.7s3.92-9.92,6.43-11.77c0.6-0.45,1.28-0.78,2-0.95
		c0.73-0.19,1.48-0.22,2.22-0.12c0.74,0.11,1.44,0.36,2.09,0.74c0.63,0.38,1.2,0.89,1.64,1.48c0.45,0.6,0.77,1.28,0.95,2.01
		c0.19,0.73,0.21,1.48,0.11,2.22s-0.37,1.44-0.75,2.09C251.31,180.25,250.8,180.8,250.2,181.24z"/>
	<path class="st12" d="M232.72,137.16c2.24,2.18,12.67,4.42,12.67,4.42s-2.55-10.36-4.79-12.54c-1.08-0.99-2.51-1.53-4-1.51
		c-1.48,0.04-2.87,0.65-3.9,1.71c-1.03,1.06-1.6,2.47-1.6,3.96C231.12,134.69,231.69,136.11,232.72,137.16L232.72,137.16z"/>
	<path class="st12" d="M226.81,163.3c2.79,1.4,13.41,0.42,13.41,0.42s-5.54-9.13-8.32-10.52c-0.67-0.34-1.39-0.57-2.13-0.63
		s-1.51,0.03-2.22,0.24c-0.71,0.22-1.38,0.6-1.96,1.08c-0.57,0.49-1.03,1.08-1.38,1.76s-0.54,1.4-0.6,2.16
		c-0.05,0.75,0.05,1.51,0.29,2.22c0.24,0.71,0.63,1.36,1.12,1.93C225.51,162.52,226.12,162.97,226.81,163.3L226.81,163.3z"/>
	<path class="st12" d="M224.53,189.49c2.5,1.85,13.15,2.7,13.15,2.7s-3.92-9.92-6.43-11.77c-0.6-0.45-1.28-0.78-2-0.95
		c-0.71-0.19-1.48-0.22-2.22-0.12s-1.44,0.36-2.09,0.74c-0.63,0.38-1.2,0.89-1.64,1.48c-0.44,0.6-0.75,1.28-0.95,2.01
		c-0.19,0.71-0.21,1.48-0.11,2.22c0.11,0.74,0.37,1.44,0.75,2.09C223.43,188.5,223.94,189.06,224.53,189.49L224.53,189.49z"/>
	<path class="st14" d="M63.02,204.65c0,0-7.5-25.47,1.4-44.21c3.74-7.87,4.99-16.71,3.25-25.24c-0.83-4.05-2.02-8.03-3.57-11.87"/>
	<path class="st2" d="M69.63,111.51c0,3.12-5.65,12.16-5.65,12.16s-5.65-9.05-5.65-12.16c-0.03-0.75,0.12-1.51,0.38-2.21
		c0.28-0.7,0.69-1.34,1.22-1.88c0.53-0.54,1.16-0.97,1.85-1.26c0.7-0.29,1.44-0.44,2.2-0.44c0.75,0,1.49,0.15,2.2,0.44
		c0.7,0.29,1.32,0.71,1.85,1.26c0.53,0.54,0.94,1.18,1.22,1.88C69.52,110.01,69.65,110.77,69.63,111.51L69.63,111.51z"/>
	<path class="st2" d="M78.99,128.8c-1.69,2.62-11.36,7.14-11.36,7.14s0.19-10.68,1.88-13.28c0.83-1.22,2.1-2.05,3.56-2.34
		c1.44-0.29,2.95-0.01,4.18,0.79c1.24,0.79,2.12,2.05,2.43,3.49C80.01,126.03,79.75,127.54,78.99,128.8L78.99,128.8z"/>
	<path class="st2" d="M78.58,158.35c-2.79,1.4-13.41,0.44-13.41,0.44s5.54-9.13,8.32-10.52c1.34-0.63,2.87-0.73,4.26-0.26
		c1.4,0.46,2.55,1.48,3.23,2.8c0.67,1.32,0.79,2.86,0.34,4.26C80.88,156.49,79.89,157.65,78.58,158.35L78.58,158.35z"/>
	<path class="st2" d="M73.25,180.63c-2.5,1.85-13.15,2.7-13.15,2.7s3.92-9.92,6.43-11.77c0.6-0.45,1.28-0.78,2-0.95
		s1.48-0.22,2.22-0.12c0.74,0.11,1.44,0.36,2.09,0.74c0.65,0.38,1.2,0.89,1.64,1.48c0.44,0.6,0.77,1.28,0.94,2.01
		c0.19,0.71,0.21,1.48,0.11,2.22c-0.11,0.74-0.37,1.44-0.75,2.09C74.34,179.64,73.84,180.19,73.25,180.63z"/>
	<path class="st2" d="M55.76,136.55c2.24,2.18,12.67,4.42,12.67,4.42s-2.55-10.36-4.79-12.54c-1.08-0.99-2.51-1.53-4-1.51
		c-1.48,0.04-2.87,0.65-3.9,1.71s-1.6,2.47-1.6,3.96C54.16,134.08,54.73,135.51,55.76,136.55L55.76,136.55z"/>
	<path class="st2" d="M49.84,162.69c2.79,1.4,13.41,0.42,13.41,0.42s-5.54-9.13-8.32-10.52c-1.34-0.63-2.87-0.73-4.26-0.25
		c-1.4,0.48-2.55,1.48-3.23,2.8s-0.79,2.86-0.34,4.26C47.56,160.81,48.53,161.99,49.84,162.69L49.84,162.69z"/>
	<path class="st2" d="M47.58,188.89c2.5,1.85,13.15,2.7,13.15,2.7s-3.92-9.92-6.43-11.77c-0.6-0.45-1.28-0.78-2-0.95
		c-0.71-0.19-1.48-0.22-2.22-0.12c-0.74,0.11-1.44,0.36-2.09,0.74c-0.65,0.38-1.2,0.89-1.64,1.48c-0.44,0.6-0.77,1.28-0.94,2.01
		c-0.19,0.73-0.21,1.48-0.11,2.22c0.11,0.74,0.37,1.44,0.75,2.09C46.47,187.91,46.97,188.45,47.58,188.89L47.58,188.89z"/>
	<path class="st12" d="M69.63,111.51c0,3.12-5.65,12.16-5.65,12.16s-5.65-9.05-5.65-12.16c-0.03-0.75,0.12-1.51,0.38-2.21
		c0.28-0.7,0.69-1.34,1.22-1.88c0.53-0.54,1.16-0.97,1.85-1.26c0.7-0.29,1.44-0.44,2.2-0.44c0.75,0,1.49,0.15,2.2,0.44
		c0.7,0.29,1.32,0.71,1.85,1.26c0.53,0.54,0.94,1.18,1.22,1.88C69.52,110.01,69.65,110.77,69.63,111.51L69.63,111.51z"/>
	<path class="st12" d="M78.99,128.8c-1.69,2.62-11.36,7.14-11.36,7.14s0.19-10.68,1.88-13.28c0.83-1.22,2.1-2.05,3.56-2.34
		c1.44-0.29,2.95-0.01,4.18,0.79c1.24,0.79,2.12,2.05,2.43,3.49C80.01,126.03,79.75,127.54,78.99,128.8L78.99,128.8z"/>
	<path class="st12" d="M78.58,158.35c-2.79,1.4-13.41,0.44-13.41,0.44s5.54-9.13,8.32-10.52c1.34-0.63,2.87-0.73,4.26-0.26
		c1.4,0.46,2.55,1.48,3.23,2.8c0.67,1.32,0.79,2.86,0.34,4.26C80.88,156.49,79.89,157.65,78.58,158.35L78.58,158.35z"/>
	<path class="st12" d="M73.25,180.63c-2.5,1.85-13.15,2.7-13.15,2.7s3.92-9.92,6.43-11.77c0.6-0.45,1.28-0.78,2-0.95
		s1.48-0.22,2.22-0.12c0.74,0.11,1.44,0.36,2.09,0.74c0.65,0.38,1.2,0.89,1.64,1.48c0.44,0.6,0.77,1.28,0.94,2.01
		c0.19,0.71,0.21,1.48,0.11,2.22c-0.11,0.74-0.37,1.44-0.75,2.09C74.34,179.64,73.84,180.19,73.25,180.63z"/>
	<path class="st12" d="M55.76,136.55c2.24,2.18,12.67,4.42,12.67,4.42s-2.55-10.36-4.79-12.54c-1.08-0.99-2.51-1.53-4-1.51
		c-1.48,0.04-2.87,0.65-3.9,1.71s-1.6,2.47-1.6,3.96C54.16,134.08,54.73,135.51,55.76,136.55L55.76,136.55z"/>
	<path class="st12" d="M49.84,162.69c2.79,1.4,13.41,0.42,13.41,0.42s-5.54-9.13-8.32-10.52c-1.34-0.63-2.87-0.73-4.26-0.25
		c-1.4,0.48-2.55,1.48-3.23,2.8s-0.79,2.86-0.34,4.26C47.56,160.81,48.53,161.99,49.84,162.69L49.84,162.69z"/>
	<path class="st12" d="M47.58,188.89c2.5,1.85,13.15,2.7,13.15,2.7s-3.92-9.92-6.43-11.77c-0.6-0.45-1.28-0.78-2-0.95
		c-0.71-0.19-1.48-0.22-2.22-0.12c-0.74,0.11-1.44,0.36-2.09,0.74c-0.65,0.38-1.2,0.89-1.64,1.48c-0.44,0.6-0.77,1.28-0.94,2.01
		c-0.19,0.73-0.21,1.48-0.11,2.22c0.11,0.74,0.37,1.44,0.75,2.09C46.47,187.91,46.97,188.45,47.58,188.89L47.58,188.89z"/>
</g>
<rect x="0.31" y="0.36" class="st15" width="299.5" height="210.71"/>
</svg>
