<?xml version="1.0" encoding="utf-8"?>
<!-- Generator: Adobe Illustrator 25.0.0, SVG Export Plug-In . SVG Version: 6.00 Build 0)  -->
<svg version="1.1" id="Layer_1" xmlns="http://www.w3.org/2000/svg" xmlns:xlink="http://www.w3.org/1999/xlink" x="0px" y="0px"
	 viewBox="0 0 350 265.6" style="enable-background:new 0 0 350 265.6;" xml:space="preserve">
<style type="text/css">
	.st0{opacity:0.2;fill:#F08017;enable-background:new    ;}
	.st1{opacity:0.5;fill:#F08017;enable-background:new    ;}
	.st2{fill:#F08017;}
	.st3{opacity:0.2;fill:#030304;enable-background:new    ;}
	.st4{opacity:0.2;}
	.st5{fill:url(#SVGID_1_);}
	.st6{fill:#975E7C;}
	.st7{fill:#585A88;}
	.st8{opacity:5.000000e-02;fill:#030304;enable-background:new    ;}
	.st9{fill:#F7C4A7;}
	.st10{opacity:0.1;fill:#030304;enable-background:new    ;}
	.st11{opacity:7.000000e-02;fill:#FFFFFF;enable-background:new    ;}
	.st12{fill:#EC6783;}
	.st13{opacity:0.1;fill:#242223;enable-background:new    ;}
	.st14{fill:none;stroke:#565663;stroke-width:2;stroke-miterlimit:10;}
</style>
<g>
	<path class="st0" d="M104.9,15.1c-4.3,0.6-9.1,1.5-11.9,5.3c-3.4,4.5-2.9,11.3-1.4,17c1.5,5.7,4,11.2,3.9,17.2
		C95.5,64,89,72,81.7,76.2c-7.3,4.2-15.6,5.6-23.5,8.1c-7.4,2.3-14.5,5.6-21,9.6c-5.6,3.4-11.2,8-13.5,14.8
		c-3.7,11.2,3.1,23.1,9.7,32.3c20.4,28.2,46.4,55.3,78.2,58c23.8,2,47.5-10,71-5.6c10.8,2,20.9,7.4,31,12.1
		c10.1,4.7,20.8,8.9,31.7,8.4c10.9-0.5,22.3-6.7,27-18.1c2.8-6.7,3.1-14.5,5.7-21.3c7.9-20.9,32.6-24.3,46.9-40.1
		c7.5-8.3,11.8-19.6,15.4-30.9c5.8-18.3,10.1-37.6,9.1-57c-0.4-8.5-2-17.3-6.7-23.8c-3.4-4.8-8.2-7.9-12.9-11
		c-10.6-7-22-14.1-34.2-13.3c-7,0.5-13.7,3.6-20.4,6.1c-12.8,4.7-26.1,7-39.3,9.2c-21.9,3.8-44.1,7.5-66.3,5.6
		c-9.8-0.8-19.1-4.2-28.7-5.5C129.3,12.3,116.6,13.5,104.9,15.1z"/>
	<path class="st1" d="M281.8,72.9c7.5,0,13.6-6.1,13.6-13.6s-6.1-13.6-13.6-13.6s-13.6,6.1-13.6,13.6S274.3,72.9,281.8,72.9z"/>
	<path class="st2" d="M238.9,107.4H114.4l7.1-21.9h3.8l0.8,5.7h98.6l0.5-5.7h4.6L238.9,107.4z"/>
	<path class="st3" d="M238.9,107.4H114.4l7.1-21.9h3.8l0.8,5.7h98.6l0.5-5.7h4.6L238.9,107.4z"/>
	<path class="st2" d="M247.6,112.2H103.3l-3.6-8.9h150.9L247.6,112.2z"/>
	<path class="st2" d="M243,117.9H106.8l-3.6-5.7h144.3L243,117.9z"/>
	<path class="st2" d="M243,116.3H106.8v6.5H243V116.3L243,116.3z"/>
	<path class="st2" d="M253.7,133.3h-155v24.3h155L253.7,133.3L253.7,133.3z"/>
	<path class="st3" d="M253.7,133.3h-155v24.3h155L253.7,133.3L253.7,133.3z"/>
	<path class="st2" d="M351.2,215.2l-352.7-2.4l10.2-57.6h334.9L351.2,215.2z"/>
	<g class="st4">
		<path class="st3" d="M98.5,197.4h4.5c1.4,0,2.8,0.6,3.8,1.6s1.6,2.4,1.6,3.8v10.9H93.1v-10.9c0-1.4,0.6-2.8,1.6-3.8
			C95.7,198,97,197.4,98.5,197.4z"/>
		<path class="st3" d="M131.5,197.4h4.5c1.4,0,2.8,0.6,3.8,1.6c1,1,1.6,2.4,1.6,3.8v10.9h-15.2v-10.9c0-1.4,0.6-2.8,1.6-3.8
			C128.7,198,130.1,197.4,131.5,197.4z"/>
		<path class="st3" d="M172.6,197.4h4.5c1.4,0,2.8,0.6,3.8,1.6c1,1,1.6,2.4,1.6,3.8v10.9h-15.2v-10.9c0-1.4,0.6-2.8,1.6-3.8
			C169.9,198,171.2,197.4,172.6,197.4z"/>
		<path class="st3" d="M215.4,197.4h4.5c1.4,0,2.8,0.6,3.8,1.6c1,1,1.6,2.4,1.6,3.8v10.9H210v-10.9c0-1.4,0.6-2.8,1.6-3.8
			C212.6,198,213.9,197.4,215.4,197.4z"/>
		<path class="st3" d="M249.4,197.4h4.5c1.4,0,2.8,0.6,3.8,1.6s1.6,2.4,1.6,3.8v10.9H244v-10.9c0-1.4,0.6-2.8,1.6-3.8
			C246.6,198,248,197.4,249.4,197.4z"/>
	</g>
	<path class="st3" d="M183,157.6h-16.3v32.4H183V157.6z"/>
	<path class="st2" d="M101.2,133.3h-2.5v24.3h2.5V133.3z"/>
	<path class="st2" d="M116,133.3h-2.5v24.3h2.5V133.3z"/>
	<path class="st2" d="M132.2,133.3h-2.5v24.3h2.5V133.3z"/>
	<path class="st2" d="M148,133.3h-2.5v24.3h2.5V133.3z"/>
	<path class="st2" d="M165.2,133.3h-2.5v24.3h2.5V133.3z"/>
	<path class="st2" d="M188.6,133.3h-2.5v24.3h2.5V133.3z"/>
	<path class="st2" d="M204.4,133.3h-2.5v24.3h2.5V133.3z"/>
	<path class="st2" d="M222.2,133.3h-2.5v24.3h2.5V133.3z"/>
	<path class="st2" d="M237.4,133.3h-2.5v24.3h2.5V133.3z"/>
	<path class="st2" d="M253.7,133.3h-2.5v24.3h2.5V133.3z"/>
	<path class="st2" d="M253.7,134.9h-155l-9.2-8.1h172.8L253.7,134.9z"/>
	<path class="st2" d="M104.8,134.9h-6.1v3.2h6.1V134.9z"/>
	<path class="st2" d="M118,134.9h-6.1v3.2h6.1V134.9z"/>
	<path class="st2" d="M133.8,134.9h-6.1v3.2h6.1V134.9z"/>
	<path class="st2" d="M150,134.9h-6.1v3.2h6.1V134.9z"/>
	<path class="st2" d="M167.3,134.9h-6.1v3.2h6.1V134.9z"/>
	<path class="st2" d="M190.1,134.9H184v3.2h6.1V134.9z"/>
	<path class="st2" d="M206.4,134.9h-6.1v3.2h6.1V134.9z"/>
	<path class="st2" d="M224.2,134.9h-6.1v3.2h6.1V134.9z"/>
	<path class="st2" d="M239.4,134.9h-6.1v3.2h6.1V134.9z"/>
	<path class="st2" d="M253.7,134.9h-6.1v3.2h6.1V134.9z"/>
	<path class="st2" d="M263.3,126.8H89l-2-5.7h177.9L263.3,126.8z"/>
	<path class="st3" d="M263.3,126.8H89l-2-5.7h177.9L263.3,126.8z"/>
	<path class="st2" d="M174.9,125.2c2.2,0,4.1-2.9,4.1-6.5c0-3.6-1.8-6.5-4.1-6.5c-2.2,0-4.1,2.9-4.1,6.5
		C170.8,122.3,172.7,125.2,174.9,125.2z"/>
	<path class="st3" d="M174.9,125.2c2.2,0,4.1-2.9,4.1-6.5c0-3.6-1.8-6.5-4.1-6.5c-2.2,0-4.1,2.9-4.1,6.5
		C170.8,122.3,172.7,125.2,174.9,125.2z"/>
	<path class="st2" d="M174.9,122.8c1.4,0,2.5-1.8,2.5-4.1c0-2.2-1.1-4.1-2.5-4.1s-2.5,1.8-2.5,4.1
		C172.4,121,173.5,122.8,174.9,122.8z"/>
	
		<linearGradient id="SVGID_1_" gradientUnits="userSpaceOnUse" x1="445.6603" y1="529.7896" x2="445.6603" y2="374.6673" gradientTransform="matrix(1 0 0 1 -270.9449 -283.1711)">
		<stop  offset="0" style="stop-color:#808182;stop-opacity:0.25"/>
		<stop  offset="0.54" style="stop-color:#808182;stop-opacity:0.12"/>
		<stop  offset="1" style="stop-color:#808182;stop-opacity:0.1"/>
	</linearGradient>
	<path class="st5" d="M234.4,212.3L217,198.9c0,0-1.4-5.6-2-9.5c-0.6-3.9-1.4-20.6-1.4-20.6c0.4-1.4,0.7-2.9,0.8-4.4
		c0.2,0,0.4-0.1,0.5-0.1c1.3-0.3,2.5-1,3.5-1.8c1-0.9,1.8-2,2.3-3.2c1.8-4.4-0.5-9.7-3.5-13.2c-2.9-3.5-6.6-6.4-8.5-10.8
		c-2.4-5.4-1.6-11.9-2.8-17.8c-0.1-0.8-0.4-1.6-0.9-2.3c-0.7-0.9-1.9-1.1-3-1.5c-3.3-1.2-5.8-4.4-7.8-7.8
		c-3.1-5.4-6.4-13.8-12.9-14.2c-2.4-0.2-4.9,0.6-7.4,0.6c-3.8,0-7.5,0.1-11.3,0.6c-1.3,0.2-2.7,0.4-3.9,1.3
		c-3.8,3-2.1,11.1-5.8,14.3c-1.1,1-2.5,1.3-3.8,2c-4.7,2.5-6.8,9.2-6.5,15.2c0.1,2.8,0.7,5.8,2.4,7.8c1.3,1.6,3.2,2.6,4.4,4.3
		c2,2.8,1.7,6.5,1.5,10.3c-2.6,1.1-4.8,2.4-5.4,3.8c-2.2,4.6-2,20.4-2,20.4s0.8,25.8-5.6,29L114,217.9c0,0-17.2-14.9-21.4-6.1
		c-2.9,6,7.7,9.4,14.6,10.9c-4.4,3.1-6.8,8.8-4.8,12.7c3.2,6.1,12.2,10.3,12.2,10.3s34.3,1.6,50.2-1.9h0.3
		c6.8,1.2,16.4,2.5,24.2,1.7c0.1,0.4,0.2,0.6,0.2,0.6s49.8,4.2,58.8-12.8c4.6-8.7-0.2-12.7-6-14.6c6.5-0.5,13.9-2.3,14.7-7.8
		C258.7,200.9,234.4,212.3,234.4,212.3z M229.4,217.6c-9.1,3.3-16.5,3.5-20.4,3.2c-1.9-4.2-10-22.5-10.2-34.7
		c0.1-2.7,0.5-5.1,1.6-6.9c2.3-3.9,3-6.9,3-9.2c0-0.2,0-0.3,0-0.5c0-0.7-0.1-1.4-0.2-2.1c0.4,0.9,0.5,2,0.3,3
		c-0.8,4.3,1.4,32.3,1.4,32.3s1.8,6.3,5.6,8.1L229.4,217.6z M140.2,215.6l8.7-5.6c0,0,4.1-1.9,4.5-6.7l2.9-22.6
		c0.2,1,0.4,1.9,0.8,2.9c0.5,1.5,0.7,3.7,0.7,6.2c-0.1,12.6-4.4,33.6-4.4,33.6h0.1l0,0.1l-0.3,0c-7.1-0.2-23.6-0.8-32.8-2.1
		L140.2,215.6z M124.9,228.8L124.9,228.8l-2.2,0.1L124.9,228.8z"/>
	<path class="st6" d="M193.7,108.1c1.9,3.3,4.3,6.4,7.5,7.6c1,0.3,2.2,0.6,2.9,1.5c0.4,0.7,0.7,1.4,0.9,2.2
		c1.2,5.7,0.4,12.1,2.7,17.4c1.9,4.2,5.4,7,8.2,10.5c2.8,3.4,5.1,8.6,3.3,12.9c-0.5,1.2-1.3,2.3-2.2,3.1c-1,0.9-2.1,1.5-3.4,1.8
		c-2.4,0.7-4.8,0.4-7.2-0.1c-3.2-0.6-6.4-1.4-9-3.6c-4.6-3.7-6.5-10.4-8.9-16.3c-1.1-2.8-2.6-5.7-5.1-6.7c-2.8-1.1-6,0.8-7.9,3.6
		s-2.7,6.3-3.5,9.7c-1,3.8-2.3,7.8-4.9,10.2c-1.1,1.1-2.6,1.9-4.1,2.2c-1.6,0.3-3.2,0.2-4.7-0.4c-2.9-1.2-5.3-4.3-5.9-7.9
		c-1.1-5.5,1.5-12.2-1.6-16.6c-1.2-1.7-3-2.6-4.3-4.2c-1.6-2-2.2-4.9-2.3-7.6c-0.3-5.9,1.7-12.4,6.3-14.8c1.2-0.7,2.6-1,3.6-1.9
		c3.6-3.2,1.9-11,5.6-14c1.1-0.9,2.4-1.1,3.7-1.3c3.6-0.5,7.2-0.6,10.9-0.5c2.4,0,4.8-0.8,7.1-0.6
		C187.5,94.7,190.7,102.8,193.7,108.1z"/>
	<path class="st7" d="M126.5,226.6l1.4,16.2l95.9-0.6l-1.8-17.8l-32.4-3.8l-56.9,3.4L126.5,226.6z"/>
	<path class="st8" d="M126.5,226.6l1.4,16.2l95.9-0.6l-1.8-17.8l-32.4-3.8l-56.9,3.4L126.5,226.6z"/>
	<path class="st9" d="M189.6,238l-31.9,3c0,0,21.9,5.6,34.6,2.9L189.6,238z"/>
	<path class="st10" d="M189.6,238l-31.9,3c0,0,21.9,5.6,34.6,2.9L189.6,238z"/>
	<path class="st9" d="M165.3,123.6c0,0,6.2,16.4-3,23.8c-9.2,7.3-1.6,27.9-1.6,27.9l35.6-1.6c0,0,3.5-23.1,1.6-28
		c0,0-8.4,2.4-10.3-2.7c-1.9-5.2-3.2-19.3-3.2-19.3L165.3,123.6L165.3,123.6z"/>
	<path class="st7" d="M157.1,223c0,0-30-0.7-38.9-2.9c-8.8-2.2-16.4,8.3-13.3,14.3s11.8,10.1,11.8,10.1s44.7,2.2,54.4-3.9
		c0,0,3.7-10.5,0-12.5h-46.6l34.4-0.7L157.1,223z"/>
	<path class="st7" d="M204.8,219.9c0,0,10,2.2,23.9-3.2c0,0,25.9-0.8,17.3,15.7c-8.7,16.6-56.8,12.5-56.8,12.5s-2.9-6.1,0-7.7
		c2.9-1.6,27.7-12.1,35.4-11.5l-21.5,4.2L204.8,219.9z"/>
	<path class="st10" d="M185.5,131.5c-0.5-3.9-0.8-7-0.8-7h-19c0.9,2.5,1.5,5.1,1.8,7.7c2.7,1.9,5.9,2.8,9.1,2.7
		C179.9,134.7,183,133.5,185.5,131.5z"/>
	<path class="st9" d="M175.7,134c8.2,0,14.9-6.7,14.9-14.9s-6.7-14.9-14.9-14.9c-8.2,0-14.9,6.7-14.9,14.9S167.4,134,175.7,134z"/>
	<path class="st9" d="M166.9,145c0,0-17.9,3.4-20.1,7.9s-1.9,19.8-1.9,19.8s0.8,25.1-5.4,28.3l-23.4,16.3c0,0-16.6-14.6-20.7-6
		C91.4,219.9,115,223,115,223l26.3-7.9l8.4-5.4c0,0,3.9-1.9,4.4-6.5l3.5-28l14.1-4.1h22.8l3.1-8.7c0,0,5.6,4.5,4.8,8.7
		c-0.8,4.2,1.4,31.5,1.4,31.5s1.8,6.1,5.4,7.9l21.2,7.6c0,0,22.4,2.2,23.9-7.6c1.5-9.8-22,1.4-22,1.4l-16.8-13.1
		c0,0-1.4-5.4-1.9-9.2c-0.5-3.8-1.4-20.1-1.4-20.1s5.2-17.1-9.8-20.1l-19.3-6L166.9,145z"/>
	<path class="st10" d="M154.9,148.5l2.8,18.4c0,0-2.9,8.6,0,17c2.9,8.4-3.5,39.8-3.5,39.8s33.6,10.8,54.1-1.6
		c0,0-15.1-31.8-8.7-42.4c6.4-10.6,0.1-14.7,0.1-14.7l1-19.5l-4.6-1.4l-2.7,19.2c0,0-18.8,13-32.6,1.6l-3-20.9L154.9,148.5z"/>
	<path class="st11" d="M174.3,170.4c-1.5-2.3-3.7-4-6.4-4.8c-2.6-0.7-5.4-0.5-7.9,0.7C164.6,169.8,169.6,170.7,174.3,170.4z"/>
	<path class="st11" d="M182,168.3c1.5-2.3,3.7-4,6.4-4.8c2.6-0.7,5.4-0.5,7.9,0.7C191.7,167.7,186.6,168.7,182,168.3z"/>
	<path class="st10" d="M154.9,148.5l2.8,17.5c0,0-2.9,8.6,0,17c2.9,8.4-3.5,39.8-3.5,39.8s33.6,10.8,54.1-1.6
		c0,0-15.1-31.8-8.7-42.4s0.1-14.7,0.1-14.7l1-19.5l-4.6-1.4l-2.7,19.3c0,0-18.8,13.1-32.6,1.6l-3-20.9L154.9,148.5z"/>
	<path class="st12" d="M154.8,148.4l2.9,17.9c0,0-2.9,8.6,0,17s-3.5,39.8-3.5,39.8s33.6,10.8,54.1-1.6c0,0-15.1-31.8-8.7-42.4
		c6.4-10.6,0.1-14.7,0.1-14.7l1-19.5l-4.6-1.4l-2.7,19.3c0,0-18.8,13.1-32.6,1.6l-3-20.9L154.8,148.4z"/>
	<path class="st9" d="M168.6,229.7l7.1-0.9c0,0,8.2-10.5,14-2.4c0,0,2.4,5.2,5.4,6.1c2,0.6,4.1,1.1,6.2,1.4l-12.1,3.4
		c0,0-5.3,3.1-10.9,2.3c-3.3-0.5-6.6-0.2-9.8,0.8L168.6,229.7z"/>
	<path class="st10" d="M160.7,185.3c0,0,12.8,1.9,14.9-1.5L160.7,185.3z"/>
	<path class="st10" d="M184.9,183.1c0,0,2.4,2.4,12.2,0.7L184.9,183.1z"/>
	<path class="st10" d="M160.1,145.2c0,0,9.4,1.4,11.1,0.5L160.1,145.2z"/>
	<path class="st10" d="M180.7,145.2c0,0,9.4,1.4,11.1,0.5L180.7,145.2z"/>
	<path class="st10" d="M169.6,228.7c0,0,2.6,12.2,0,12.6c-2.6,0.4-6.2-2-6.2-2.3s1.6-8,1.6-8L169.6,228.7z"/>
	<path class="st7" d="M169.3,228.7c0,0,2.6,12.2,0,12.6c-2.6,0.4-6.2-2-6.2-2.3s1.6-8,1.6-8L169.3,228.7z"/>
	<path class="st10" d="M156.7,143.5c-1.1,2.6-1.5,5.8-0.3,8.4c0.9,2,2.7,3.6,3.1,5.8c0.4,2.7-1.6,5.5-0.8,8.1c0.3,1,0.9,1.9,1.6,2.7
		c2.1,2.4,4.8,4.8,8,4.6c0.5-4.9-3.8-9.7-2.4-14.5c0.5-1.7,1.7-3.1,2.4-4.8c1.2-2.7,1-5.8,0.6-8.7c-0.6-4.2-2.2-9.4-6.4-11.4
		c-1.9-0.9-4.7-1-5.4,1.5c-0.4,1.3,0.5,2.6,0.6,3.9C157.9,140.7,157.3,142,156.7,143.5z"/>
	<path class="st6" d="M156.7,143c-1.1,2.6-1.5,5.8-0.3,8.4c0.9,2,2.7,3.6,3.1,5.8c0.4,2.7-1.6,5.5-0.8,8.1c0.3,1,0.9,1.9,1.6,2.7
		c2.1,2.4,4.8,4.8,8,4.6c0.5-4.9-3.8-9.7-2.4-14.5c0.5-1.7,1.7-3.1,2.4-4.8c1.2-2.7,1-5.8,0.6-8.7c-0.6-4.2-2.2-9.4-6.4-11.4
		c-1.9-0.9-4.7-1-5.4,1.5c-0.4,1.3,0.5,2.6,0.6,3.9C157.9,140.3,157.3,141.6,156.7,143z"/>
	<path class="st10" d="M157.8,111.7c0,0,19.8-2.7,20.4,1.3c0.5,4.1,18.1,10.8,18.1,10.8l-4.4-10.8l-8-13.3c0,0-14.7-1.1-15.4,0
		c-0.7,1.1-8.4,4.6-8.4,4.6L157.8,111.7z"/>
	<path class="st6" d="M157.8,111.4c0,0,19.8-2.7,20.4,1.3c0.5,4.1,18.1,10.8,18.1,10.8l-4.4-10.8l-8-13.3c0,0-14.7-1.1-15.4,0
		c-0.7,1.1-8.4,4.6-8.4,4.6L157.8,111.4z"/>
	<path class="st10" d="M192.2,140.4c1,1.1,1.6,2.5,2,4c0.3,1.4,0.3,2.9,0.7,4.3c0.7,3,2.6,5.5,4.7,7.8c0.7,0.8,1.5,1.5,2.4,2
		c0.9,0.5,2.2,0.6,3,0c-0.8-0.7-1.3-1.7-1.6-2.8c-0.4-1.4-0.6-2.9-0.5-4.4c0.1-2.5,0.8-5.2-0.2-7.4c-0.6-1.3-1.7-2.3-2.9-3.2
		c-0.8-0.7-1.6-1.2-2.6-1.7c-1.7-0.8-3.6-1.2-5.5-1.4C189.4,137.3,191.5,139.5,192.2,140.4z"/>
	<path class="st6" d="M192.2,140c1,1.2,1.6,2.5,2,4c0.3,1.4,0.3,2.9,0.7,4.3c0.7,3,2.6,5.5,4.7,7.8c0.7,0.8,1.5,1.5,2.4,2
		c0.9,0.5,2.2,0.6,3,0c-0.8-0.7-1.3-1.7-1.6-2.8c-0.4-1.4-0.6-2.9-0.5-4.4c0.1-2.5,0.8-5.2-0.2-7.4c-0.6-1.3-1.7-2.3-2.9-3.2
		c-0.8-0.7-1.6-1.2-2.6-1.7c-1.7-0.8-3.6-1.2-5.5-1.4C189.4,136.9,191.5,139.1,192.2,140z"/>
	<path class="st13" d="M183.4,57.7h-2.5c0.2,0,0.5,0,0.7-0.1c0.2-0.1,0.4-0.2,0.6-0.3c0.2-0.2,0.3-0.3,0.4-0.6s0.1-0.4,0.1-0.7
		s-0.1-0.5-0.1-0.7c-0.1-0.2-0.2-0.4-0.4-0.6c-0.2-0.2-0.4-0.3-0.6-0.3c-0.2-0.1-0.4-0.1-0.7-0.1h-20c-0.4,0-0.9,0.2-1.2,0.5
		c-0.3,0.3-0.5,0.7-0.5,1.2c0,0.5,0.2,0.9,0.5,1.2c0.3,0.3,0.7,0.5,1.2,0.5h2.5c-0.2,0-0.5,0-0.7,0.1c-0.2,0.1-0.4,0.2-0.6,0.3
		c-0.2,0.2-0.3,0.3-0.4,0.6s-0.1,0.4-0.1,0.7s0.1,0.4,0.1,0.7c0.1,0.2,0.2,0.4,0.4,0.6c0.2,0.2,0.4,0.3,0.6,0.3
		c0.2,0.1,0.4,0.1,0.7,0.1H160c-0.2,0-0.5,0-0.7,0.1c-0.2,0.1-0.4,0.2-0.6,0.3c-0.2,0.2-0.3,0.3-0.4,0.6s-0.1,0.4-0.1,0.7
		s0.1,0.4,0.1,0.7c0.1,0.2,0.2,0.4,0.4,0.6c0.2,0.2,0.4,0.3,0.6,0.3c0.2,0.1,0.4,0.1,0.7,0.1h20c0.2,0,0.5,0,0.7-0.1
		c0.2-0.1,0.4-0.2,0.6-0.3c0.2-0.2,0.3-0.3,0.4-0.6s0.1-0.4,0.1-0.7s-0.1-0.4-0.1-0.7c-0.1-0.2-0.2-0.4-0.4-0.6
		c-0.2-0.2-0.4-0.3-0.6-0.3c-0.2-0.1-0.4-0.1-0.7-0.1h3.4c0.2,0,0.5,0,0.7-0.1c0.2-0.1,0.4-0.2,0.6-0.3c0.2-0.2,0.3-0.3,0.4-0.6
		s0.1-0.4,0.1-0.7s-0.1-0.4-0.1-0.7c-0.1-0.2-0.2-0.4-0.4-0.6c-0.2-0.2-0.4-0.3-0.6-0.3C183.9,57.7,183.6,57.7,183.4,57.7z"/>
	<path class="st13" d="M280.1,57.7h-2.5c0.2,0,0.5,0,0.7-0.1c0.2-0.1,0.4-0.2,0.6-0.3c0.2-0.2,0.3-0.3,0.4-0.6
		c0.1-0.2,0.1-0.4,0.1-0.7s0-0.5-0.1-0.7c-0.1-0.2-0.2-0.4-0.4-0.6c-0.2-0.2-0.4-0.3-0.6-0.3c-0.2-0.1-0.5-0.1-0.7-0.1h-20
		c-0.5,0-0.9,0.2-1.2,0.5S256,55.6,256,56c0,0.5,0.2,0.9,0.5,1.2c0.3,0.3,0.7,0.5,1.2,0.5h2.5c-0.2,0-0.5,0-0.7,0.1
		c-0.2,0.1-0.4,0.2-0.6,0.3c-0.2,0.2-0.3,0.3-0.4,0.6s-0.1,0.4-0.1,0.7s0,0.4,0.1,0.7c0.1,0.2,0.2,0.4,0.4,0.6
		c0.2,0.2,0.4,0.3,0.6,0.3c0.2,0.1,0.5,0.1,0.7,0.1h-3.4c-0.2,0-0.5,0-0.7,0.1c-0.2,0.1-0.4,0.2-0.6,0.3c-0.2,0.2-0.3,0.3-0.4,0.6
		c-0.1,0.2-0.1,0.4-0.1,0.7s0,0.4,0.1,0.7c0.1,0.2,0.2,0.4,0.4,0.6c0.2,0.2,0.4,0.3,0.6,0.3c0.2,0.1,0.5,0.1,0.7,0.1h20
		c0.2,0,0.5,0,0.7-0.1c0.2-0.1,0.4-0.2,0.6-0.3c0.2-0.2,0.3-0.3,0.4-0.6s0.1-0.4,0.1-0.7s0-0.4-0.1-0.7c-0.1-0.2-0.2-0.4-0.4-0.6
		c-0.2-0.2-0.4-0.3-0.6-0.3c-0.2-0.1-0.5-0.1-0.7-0.1h3.4c0.2,0,0.5,0,0.7-0.1c0.2-0.1,0.4-0.2,0.6-0.3c0.2-0.2,0.3-0.3,0.4-0.6
		s0.1-0.4,0.1-0.7s0-0.4-0.1-0.7c-0.1-0.2-0.2-0.4-0.4-0.6c-0.2-0.2-0.4-0.3-0.6-0.3C280.5,57.7,280.3,57.7,280.1,57.7z"/>
	<path class="st13" d="M74.2,101.7h-2.5c0.2,0,0.5,0,0.7-0.1c0.2-0.1,0.4-0.2,0.6-0.3c0.2-0.2,0.3-0.3,0.4-0.6
		c0.1-0.2,0.1-0.4,0.1-0.7c0-0.2-0.1-0.4-0.1-0.7c-0.1-0.2-0.2-0.4-0.4-0.6c-0.2-0.2-0.3-0.3-0.6-0.3s-0.4-0.1-0.7-0.1H51.8
		c-0.5,0-0.9,0.2-1.2,0.5c-0.3,0.3-0.5,0.7-0.5,1.2s0.2,0.9,0.5,1.2c0.3,0.3,0.7,0.5,1.2,0.5h2.5c-0.5,0-0.9,0.2-1.2,0.5
		c-0.3,0.3-0.5,0.7-0.5,1.2c0,0.4,0.2,0.9,0.5,1.2c0.3,0.3,0.7,0.5,1.2,0.5h-3.4c-0.2,0-0.5,0-0.7,0.1c-0.2,0.1-0.4,0.2-0.6,0.3
		c-0.2,0.2-0.3,0.3-0.4,0.6s-0.1,0.4-0.1,0.7c0,0.2,0,0.4,0.1,0.7c0.1,0.2,0.2,0.4,0.4,0.6c0.2,0.2,0.3,0.3,0.6,0.3
		c0.2,0.1,0.5,0.1,0.7,0.1h20c0.2,0,0.5,0,0.7-0.1c0.2-0.1,0.4-0.2,0.6-0.3c0.2-0.2,0.3-0.3,0.4-0.6c0.1-0.2,0.1-0.4,0.1-0.7
		c0-0.2-0.1-0.4-0.1-0.7c-0.1-0.2-0.2-0.4-0.4-0.6c-0.2-0.2-0.3-0.3-0.6-0.3c-0.2-0.1-0.4-0.1-0.7-0.1h3.4c0.4,0,0.9-0.2,1.2-0.5
		s0.5-0.7,0.5-1.2c0-0.4-0.2-0.9-0.5-1.2C75.1,102,74.6,101.8,74.2,101.7z"/>
	<path class="st14" d="M281,240.2c0,0-8.8-30,1.6-52.1c4.4-9.3,5.9-19.7,3.8-29.7c-1-4.8-2.4-9.5-4.2-14"/>
	<path class="st2" d="M288.8,130.5c0,3.7-6.6,14.3-6.6,14.3s-6.6-10.7-6.6-14.3c0-0.9,0.1-1.8,0.5-2.6c0.3-0.8,0.8-1.6,1.4-2.2
		c0.6-0.6,1.4-1.1,2.2-1.5c0.8-0.3,1.7-0.5,2.6-0.5c0.9,0,1.8,0.2,2.6,0.5c0.8,0.3,1.5,0.8,2.2,1.5c0.6,0.6,1.1,1.4,1.4,2.2
		C288.6,128.8,288.8,129.7,288.8,130.5L288.8,130.5z"/>
	<path class="st2" d="M299.8,150.9c-2,3.1-13.4,8.4-13.4,8.4s0.2-12.6,2.2-15.6c1-1.4,2.5-2.4,4.2-2.8s3.5,0,4.9,0.9
		c1.5,0.9,2.5,2.4,2.9,4.1C301,147.6,300.7,149.4,299.8,150.9L299.8,150.9z"/>
	<path class="st2" d="M299.3,185.7c-3.3,1.6-15.8,0.5-15.8,0.5s6.5-10.8,9.8-12.4c0.8-0.4,1.6-0.7,2.5-0.7c0.9-0.1,1.8,0,2.6,0.3
		c0.8,0.3,1.6,0.7,2.3,1.3c0.7,0.6,1.2,1.3,1.6,2.1c0.4,0.8,0.6,1.6,0.7,2.5s-0.1,1.8-0.3,2.6c-0.3,0.8-0.7,1.6-1.3,2.3
		C300.8,184.8,300.1,185.3,299.3,185.7L299.3,185.7z"/>
	<path class="st2" d="M293,211.9c-2.9,2.2-15.5,3.2-15.5,3.2s4.6-11.7,7.6-13.9c0.7-0.5,1.5-0.9,2.4-1.1c0.9-0.2,1.7-0.3,2.6-0.1
		c0.9,0.1,1.7,0.4,2.5,0.9c0.7,0.4,1.4,1.1,1.9,1.7c0.5,0.7,0.9,1.5,1.1,2.4c0.2,0.9,0.2,1.7,0.1,2.6s-0.4,1.7-0.9,2.5
		C294.3,210.8,293.7,211.4,293,211.9z"/>
	<path class="st2" d="M272.4,160c2.6,2.6,14.9,5.2,14.9,5.2s-3-12.2-5.6-14.8c-1.3-1.2-3-1.8-4.7-1.8c-1.7,0.1-3.4,0.8-4.6,2
		c-1.2,1.2-1.9,2.9-1.9,4.7C270.5,157.1,271.2,158.8,272.4,160L272.4,160z"/>
	<path class="st2" d="M265.5,190.8c3.3,1.6,15.8,0.5,15.8,0.5s-6.5-10.8-9.8-12.4c-0.8-0.4-1.6-0.7-2.5-0.7s-1.8,0-2.6,0.3
		c-0.8,0.3-1.6,0.7-2.3,1.3c-0.7,0.6-1.2,1.3-1.6,2.1c-0.4,0.8-0.6,1.6-0.7,2.5c-0.1,0.9,0.1,1.8,0.3,2.6c0.3,0.8,0.7,1.6,1.3,2.3
		C263.9,189.9,264.6,190.4,265.5,190.8L265.5,190.8z"/>
	<path class="st2" d="M262.8,221.6c2.9,2.2,15.5,3.2,15.5,3.2s-4.6-11.7-7.6-13.9c-0.7-0.5-1.5-0.9-2.4-1.1
		c-0.8-0.2-1.7-0.3-2.6-0.1s-1.7,0.4-2.5,0.9c-0.7,0.4-1.4,1.1-1.9,1.7c-0.5,0.7-0.9,1.5-1.1,2.4c-0.2,0.8-0.2,1.7-0.1,2.6
		c0.1,0.9,0.4,1.7,0.9,2.5C261.5,220.5,262.1,221.1,262.8,221.6L262.8,221.6z"/>
	<path class="st12" d="M288.8,130.5c0,3.7-6.6,14.3-6.6,14.3s-6.6-10.7-6.6-14.3c0-0.9,0.1-1.8,0.5-2.6c0.3-0.8,0.8-1.6,1.4-2.2
		c0.6-0.6,1.4-1.1,2.2-1.5c0.8-0.3,1.7-0.5,2.6-0.5c0.9,0,1.8,0.2,2.6,0.5c0.8,0.3,1.5,0.8,2.2,1.5c0.6,0.6,1.1,1.4,1.4,2.2
		C288.6,128.8,288.8,129.7,288.8,130.5L288.8,130.5z"/>
	<path class="st12" d="M299.8,150.9c-2,3.1-13.4,8.4-13.4,8.4s0.2-12.6,2.2-15.6c1-1.4,2.5-2.4,4.2-2.8s3.5,0,4.9,0.9
		c1.5,0.9,2.5,2.4,2.9,4.1C301,147.6,300.7,149.4,299.8,150.9L299.8,150.9z"/>
	<path class="st12" d="M299.3,185.7c-3.3,1.6-15.8,0.5-15.8,0.5s6.5-10.8,9.8-12.4c0.8-0.4,1.6-0.7,2.5-0.7c0.9-0.1,1.8,0,2.6,0.3
		c0.8,0.3,1.6,0.7,2.3,1.3c0.7,0.6,1.2,1.3,1.6,2.1c0.4,0.8,0.6,1.6,0.7,2.5s-0.1,1.8-0.3,2.6c-0.3,0.8-0.7,1.6-1.3,2.3
		C300.8,184.8,300.1,185.3,299.3,185.7L299.3,185.7z"/>
	<path class="st12" d="M293,211.9c-2.9,2.2-15.5,3.2-15.5,3.2s4.6-11.7,7.6-13.9c0.7-0.5,1.5-0.9,2.4-1.1c0.9-0.2,1.7-0.3,2.6-0.1
		c0.9,0.1,1.7,0.4,2.5,0.9c0.7,0.4,1.4,1.1,1.9,1.7c0.5,0.7,0.9,1.5,1.1,2.4c0.2,0.9,0.2,1.7,0.1,2.6s-0.4,1.7-0.9,2.5
		C294.3,210.8,293.7,211.4,293,211.9z"/>
	<path class="st12" d="M272.4,160c2.6,2.6,14.9,5.2,14.9,5.2s-3-12.2-5.6-14.8c-1.3-1.2-3-1.8-4.7-1.8c-1.7,0.1-3.4,0.8-4.6,2
		c-1.2,1.2-1.9,2.9-1.9,4.7C270.5,157.1,271.2,158.8,272.4,160L272.4,160z"/>
	<path class="st12" d="M265.5,190.8c3.3,1.6,15.8,0.5,15.8,0.5s-6.5-10.8-9.8-12.4c-0.8-0.4-1.6-0.7-2.5-0.7s-1.8,0-2.6,0.3
		c-0.8,0.3-1.6,0.7-2.3,1.3c-0.7,0.6-1.2,1.3-1.6,2.1c-0.4,0.8-0.6,1.6-0.7,2.5c-0.1,0.9,0.1,1.8,0.3,2.6c0.3,0.8,0.7,1.6,1.3,2.3
		C263.9,189.9,264.6,190.4,265.5,190.8L265.5,190.8z"/>
	<path class="st12" d="M262.8,221.6c2.9,2.2,15.5,3.2,15.5,3.2s-4.6-11.7-7.6-13.9c-0.7-0.5-1.5-0.9-2.4-1.1
		c-0.8-0.2-1.7-0.3-2.6-0.1s-1.7,0.4-2.5,0.9c-0.7,0.4-1.4,1.1-1.9,1.7c-0.5,0.7-0.9,1.5-1.1,2.4c-0.2,0.8-0.2,1.7-0.1,2.6
		c0.1,0.9,0.4,1.7,0.9,2.5C261.5,220.5,262.1,221.1,262.8,221.6L262.8,221.6z"/>
	<path class="st14" d="M72.6,239.5c0,0-8.8-30,1.7-52.1c4.4-9.3,5.9-19.7,3.8-29.7c-1-4.8-2.4-9.5-4.2-14"/>
	<path class="st2" d="M80.4,129.8c0,3.7-6.7,14.3-6.7,14.3s-6.7-10.7-6.7-14.3c0-0.9,0.1-1.8,0.4-2.6c0.3-0.8,0.8-1.6,1.4-2.2
		c0.6-0.6,1.4-1.1,2.2-1.5c0.8-0.3,1.7-0.5,2.6-0.5c0.9,0,1.8,0.2,2.6,0.5c0.8,0.3,1.6,0.8,2.2,1.5c0.6,0.6,1.1,1.4,1.4,2.2
		C80.2,128,80.4,128.9,80.4,129.8L80.4,129.8z"/>
	<path class="st2" d="M91.4,150.2c-2,3.1-13.4,8.4-13.4,8.4s0.2-12.6,2.2-15.6c1-1.4,2.5-2.4,4.2-2.8c1.7-0.3,3.5,0,4.9,0.9
		c1.5,0.9,2.5,2.4,2.9,4.1C92.6,146.9,92.3,148.7,91.4,150.2L91.4,150.2z"/>
	<path class="st2" d="M90.9,185c-3.3,1.6-15.8,0.5-15.8,0.5s6.5-10.8,9.8-12.4c1.6-0.7,3.4-0.9,5-0.3c1.7,0.5,3,1.7,3.8,3.3
		c0.8,1.6,0.9,3.4,0.4,5C93.6,182.8,92.4,184.1,90.9,185L90.9,185z"/>
	<path class="st2" d="M84.6,211.2c-2.9,2.2-15.5,3.2-15.5,3.2s4.6-11.7,7.6-13.9c0.7-0.5,1.5-0.9,2.4-1.1s1.7-0.3,2.6-0.1
		c0.9,0.1,1.7,0.4,2.5,0.9c0.8,0.4,1.4,1.1,1.9,1.7c0.5,0.7,0.9,1.5,1.1,2.4c0.2,0.8,0.2,1.7,0.1,2.6c-0.1,0.9-0.4,1.7-0.9,2.5
		C85.9,210,85.3,210.7,84.6,211.2z"/>
	<path class="st2" d="M64,159.3c2.6,2.6,14.9,5.2,14.9,5.2s-3-12.2-5.6-14.8c-1.3-1.2-3-1.8-4.7-1.8c-1.7,0.1-3.4,0.8-4.6,2
		c-1.2,1.2-1.9,2.9-1.9,4.7C62.2,156.4,62.8,158.1,64,159.3L64,159.3z"/>
	<path class="st2" d="M57.1,190.1c3.3,1.6,15.8,0.5,15.8,0.5s-6.5-10.8-9.8-12.4c-1.6-0.7-3.4-0.9-5-0.3c-1.7,0.6-3,1.7-3.8,3.3
		s-0.9,3.4-0.4,5C54.4,187.9,55.5,189.3,57.1,190.1L57.1,190.1z"/>
	<path class="st2" d="M54.4,220.9c2.9,2.2,15.5,3.2,15.5,3.2s-4.6-11.7-7.6-13.9c-0.7-0.5-1.5-0.9-2.4-1.1c-0.8-0.2-1.7-0.3-2.6-0.1
		c-0.9,0.1-1.7,0.4-2.5,0.9s-1.4,1.1-1.9,1.7c-0.5,0.7-0.9,1.5-1.1,2.4c-0.2,0.9-0.2,1.7-0.1,2.6c0.1,0.9,0.4,1.7,0.9,2.5
		C53.1,219.8,53.7,220.4,54.4,220.9L54.4,220.9z"/>
	<path class="st12" d="M80.4,129.8c0,3.7-6.7,14.3-6.7,14.3s-6.7-10.7-6.7-14.3c0-0.9,0.1-1.8,0.4-2.6c0.3-0.8,0.8-1.6,1.4-2.2
		c0.6-0.6,1.4-1.1,2.2-1.5c0.8-0.3,1.7-0.5,2.6-0.5c0.9,0,1.8,0.2,2.6,0.5c0.8,0.3,1.6,0.8,2.2,1.5c0.6,0.6,1.1,1.4,1.4,2.2
		C80.2,128,80.4,128.9,80.4,129.8L80.4,129.8z"/>
	<path class="st12" d="M91.4,150.2c-2,3.1-13.4,8.4-13.4,8.4s0.2-12.6,2.2-15.6c1-1.4,2.5-2.4,4.2-2.8c1.7-0.3,3.5,0,4.9,0.9
		c1.5,0.9,2.5,2.4,2.9,4.1C92.6,146.9,92.3,148.7,91.4,150.2L91.4,150.2z"/>
	<path class="st12" d="M90.9,185c-3.3,1.6-15.8,0.5-15.8,0.5s6.5-10.8,9.8-12.4c1.6-0.7,3.4-0.9,5-0.3c1.7,0.5,3,1.7,3.8,3.3
		c0.8,1.6,0.9,3.4,0.4,5C93.6,182.8,92.4,184.1,90.9,185L90.9,185z"/>
	<path class="st12" d="M84.6,211.2c-2.9,2.2-15.5,3.2-15.5,3.2s4.6-11.7,7.6-13.9c0.7-0.5,1.5-0.9,2.4-1.1s1.7-0.3,2.6-0.1
		c0.9,0.1,1.7,0.4,2.5,0.9c0.8,0.4,1.4,1.1,1.9,1.7c0.5,0.7,0.9,1.5,1.1,2.4c0.2,0.8,0.2,1.7,0.1,2.6c-0.1,0.9-0.4,1.7-0.9,2.5
		C85.9,210,85.3,210.7,84.6,211.2z"/>
	<path class="st12" d="M64,159.3c2.6,2.6,14.9,5.2,14.9,5.2s-3-12.2-5.6-14.8c-1.3-1.2-3-1.8-4.7-1.8c-1.7,0.1-3.4,0.8-4.6,2
		c-1.2,1.2-1.9,2.9-1.9,4.7C62.2,156.4,62.8,158.1,64,159.3L64,159.3z"/>
	<path class="st12" d="M57.1,190.1c3.3,1.6,15.8,0.5,15.8,0.5s-6.5-10.8-9.8-12.4c-1.6-0.7-3.4-0.9-5-0.3c-1.7,0.6-3,1.7-3.8,3.3
		s-0.9,3.4-0.4,5C54.4,187.9,55.5,189.3,57.1,190.1L57.1,190.1z"/>
	<path class="st12" d="M54.4,220.9c2.9,2.2,15.5,3.2,15.5,3.2s-4.6-11.7-7.6-13.9c-0.7-0.5-1.5-0.9-2.4-1.1
		c-0.8-0.2-1.7-0.3-2.6-0.1c-0.9,0.1-1.7,0.4-2.5,0.9s-1.4,1.1-1.9,1.7c-0.5,0.7-0.9,1.5-1.1,2.4c-0.2,0.9-0.2,1.7-0.1,2.6
		c0.1,0.9,0.4,1.7,0.9,2.5C53.1,219.8,53.7,220.4,54.4,220.9L54.4,220.9z"/>
</g>
</svg>
