<?xml version="1.0" encoding="utf-8"?>
<!-- Generator: Adobe Illustrator 25.0.0, SVG Export Plug-In . SVG Version: 6.00 Build 0)  -->
<svg version="1.1" id="Layer_1" xmlns="http://www.w3.org/2000/svg" xmlns:xlink="http://www.w3.org/1999/xlink" x="0px" y="0px"
	 viewBox="0 0 350 300" style="enable-background:new 0 0 350 300;" xml:space="preserve">
<style type="text/css">
	.st0{clip-path:url(#SVGID_2_);}
	.st1{fill:#403D56;}
	.st2{opacity:0.1;fill:#010202;enable-background:new    ;}
	.st3{fill:#F07F12;}
	.st4{fill:#CFCCDF;}
	.st5{fill:#F2F2F2;}
	.st6{fill:#2F2F41;}
	.st7{fill:#F6B7B9;}
</style>
<g>
	<g>
		<g>
			<g>
				<defs>
					<rect id="SVGID_1_" x="37.5" y="0" width="275" height="299.9"/>
				</defs>
				<clipPath id="SVGID_2_">
					<use xlink:href="#SVGID_1_"  style="overflow:visible;"/>
				</clipPath>
				<g class="st0">
					<path class="st1" d="M312.5,270.1c0,9.1-61.6,29.8-137.5,29.8S37.5,279.2,37.5,270.1S99.1,267,175,267
						C250.9,267,312.5,261,312.5,270.1z"/>
					<path class="st2" d="M312.5,270.1c0,9.1-61.6,29.8-137.5,29.8S37.5,279.2,37.5,270.1S99.1,267,175,267
						C250.9,267,312.5,261,312.5,270.1z"/>
					<path class="st3" d="M76.7,148.9c3.2,0,5.8-2.6,5.8-5.8c0-3.2-2.6-5.8-5.8-5.8s-5.8,2.6-5.8,5.8
						C70.9,146.4,73.5,148.9,76.7,148.9z"/>
					<path class="st3" d="M102,193.4c3.2,0,5.8-2.6,5.8-5.8c0-3.2-2.6-5.8-5.8-5.8c-3.2,0-5.8,2.6-5.8,5.8
						C96.2,190.8,98.8,193.4,102,193.4z"/>
					<path class="st3" d="M82.5,184.6c3.2,0,5.8-2.6,5.8-5.8c0-3.2-2.6-5.8-5.8-5.8c-3.2,0-5.8,2.6-5.8,5.8
						C76.7,182,79.2,184.6,82.5,184.6z"/>
					<path class="st4" d="M84.3,261c-0.1-0.2-2.5-4.2-3.3-12.5c-0.8-7.7-0.3-20.6,6.4-38.6c12.7-34.1-2.9-61.7-3.1-62l0.8-0.4
						c0,0.1,4.1,7.1,6.5,18.3c3.1,14.8,2,30.2-3.3,44.5c-12.7,34.1-3.2,50.2-3.2,50.4L84.3,261z"/>
					<path class="st4" d="M79.3,146.3c-1.2,0-2.4-0.4-3.5-1.1s-1.8-1.7-2.3-2.8c-0.5-1.1-0.6-2.4-0.4-3.6c0.2-1.2,0.8-2.3,1.7-3.2
						c0.9-0.9,2-1.5,3.2-1.7c1.2-0.2,2.4-0.1,3.6,0.4c1.1,0.5,2.1,1.3,2.8,2.3c0.7,1,1.1,2.2,1.1,3.5c0,1.7-0.7,3.2-1.8,4.4
						C82.6,145.6,81,146.3,79.3,146.3z M79.3,134.7c-1.1,0-2.1,0.3-3,0.9s-1.6,1.4-2,2.4c-0.4,1-0.5,2-0.3,3.1c0.2,1,0.7,2,1.5,2.7
						s1.7,1.3,2.7,1.5c1,0.2,2.1,0.1,3.1-0.3c1-0.4,1.8-1.1,2.4-2c0.6-0.9,0.9-1.9,0.9-3c0-1.4-0.6-2.8-1.6-3.8
						C82.1,135.2,80.7,134.7,79.3,134.7z"/>
					<path class="st4" d="M97.6,167.2c3.2,0,5.8-2.6,5.8-5.8c0-3.2-2.6-5.8-5.8-5.8s-5.8,2.6-5.8,5.8
						C91.8,164.6,94.4,167.2,97.6,167.2z"/>
					<path class="st4" d="M85.1,181.9c-1.2,0-2.4-0.4-3.5-1.1c-1-0.7-1.8-1.7-2.3-2.8c-0.5-1.1-0.6-2.4-0.4-3.6
						c0.2-1.2,0.8-2.3,1.7-3.2c0.9-0.9,2-1.5,3.2-1.7c1.2-0.2,2.4-0.1,3.6,0.4c1.1,0.5,2.1,1.3,2.8,2.3c0.7,1,1.1,2.2,1.1,3.5
						c0,1.7-0.7,3.2-1.8,4.4C88.4,181.3,86.8,181.9,85.1,181.9z M85.1,170.3c-1.1,0-2.1,0.3-3,0.9s-1.6,1.4-2,2.4
						c-0.4,1-0.5,2-0.3,3.1c0.2,1,0.7,2,1.5,2.7c0.7,0.7,1.7,1.3,2.7,1.5c1,0.2,2.1,0.1,3.1-0.3c1-0.4,1.8-1.1,2.4-2
						c0.6-0.9,0.9-1.9,0.9-3c0-1.4-0.6-2.8-1.6-3.8C87.9,170.9,86.5,170.3,85.1,170.3L85.1,170.3z"/>
					<path class="st4" d="M100.2,193.9c-1.2,0-2.4-0.4-3.5-1.1c-1-0.7-1.8-1.7-2.3-2.8c-0.5-1.1-0.6-2.4-0.4-3.6
						c0.2-1.2,0.8-2.3,1.7-3.2c0.9-0.9,2-1.5,3.2-1.7c1.2-0.2,2.4-0.1,3.6,0.4c1.1,0.5,2.1,1.3,2.8,2.3c0.7,1,1.1,2.2,1.1,3.5
						c0,1.7-0.7,3.2-1.8,4.4C103.5,193.3,101.9,193.9,100.2,193.9z M100.2,182.4c-1.1,0-2.1,0.3-3,0.9c-0.9,0.6-1.6,1.4-2,2.4
						c-0.4,1-0.5,2-0.3,3.1c0.2,1,0.7,2,1.5,2.7c0.7,0.7,1.7,1.3,2.7,1.5c1,0.2,2.1,0.1,3.1-0.3c1-0.4,1.8-1.1,2.4-2
						c0.6-0.9,0.9-1.9,0.9-3c0-1.4-0.6-2.8-1.6-3.8C103,182.9,101.7,182.4,100.2,182.4z"/>
					<path class="st4" d="M80.7,212.2c3.2,0,5.8-2.6,5.8-5.8c0-3.2-2.6-5.8-5.8-5.8c-3.2,0-5.8,2.6-5.8,5.8
						C74.9,209.6,77.5,212.2,80.7,212.2z"/>
					<path class="st4" d="M87.8,261.2c0,0-5.8-14.2,11.6-24.9L87.8,261.2z"/>
					<path class="st4" d="M80.7,261c0,0-2.6-15.2-23-15L80.7,261z"/>
					<path class="st3" d="M289.5,266.5h-98.5c0,0-2-29.3,9.8-29.6c11.8-0.3,10.5,13,25.3-5.3c14.8-18.3,32.8-17.3,35.1-6.5
						c2.3,10.8-4.5,19.5,8,16.8C281.7,239.2,299.7,246.2,289.5,266.5z"/>
					<path class="st5" d="M238.6,266.5l-0.3,0c0.8-19.3,4.8-31.7,8.1-38.7c3.5-7.6,6.9-10.7,7-10.7l0.2,0.2c0,0-3.4,3.1-6.9,10.6
						C243.4,235,239.4,247.3,238.6,266.5z"/>
					<path class="st5" d="M274.2,266.6l-0.3-0.1c3.8-13.2,12.9-21.6,13-21.6l0.2,0.2C287.1,245.2,278.1,253.5,274.2,266.6z"/>
					<path class="st5" d="M206.6,266.6l-0.3,0c1.3-9.4-1.1-16.7-3.3-21.2c-2.4-4.8-5.1-7.5-5.1-7.5l0.2-0.2c0,0,2.8,2.7,5.2,7.6
						C205.5,249.7,207.9,257.1,206.6,266.6z"/>
					<path class="st4" d="M302.9,267H180.4l0-0.4c-0.1-1-1.6-25.4,6.3-34.1c1.8-1.9,3.9-3,6.3-3c5.1-0.2,8.4,1.8,11,3.3
						c4.9,2.9,8.2,4.8,20-9.8c12.8-15.8,26.6-19.2,34.5-17.3c5.1,1.2,8.7,4.7,9.7,9.5c1,4.5,0.7,8.8,0.4,12.2
						c-0.3,3.7-0.5,6.6,1,7.9c1.3,1.1,3.8,1.2,7.9,0.3c8.4-1.8,20.1-0.3,26,7.4c3.2,4.1,5.7,11.5-0.4,23.7L302.9,267z M181.3,266.1
						h121.1c4.5-9.2,4.7-17,0.4-22.6c-5.4-7-16.7-8.8-25.1-7c-4.5,1-7.2,0.8-8.7-0.5c-1.8-1.6-1.6-4.7-1.3-8.6
						c0.2-3.4,0.6-7.6-0.4-12c-1-4.4-4.2-7.7-9-8.8c-7.7-1.8-21.1,1.5-33.6,17c-12.3,15.2-16,13-21.1,10c-2.6-1.6-5.6-3.3-10.5-3.2
						c-2.2,0.1-4.1,1-5.7,2.7C180.2,240.9,181.1,262.8,181.3,266.1z"/>
					<path class="st1" d="M175,286.6c75.9,0,137.5-7.4,137.5-16.5c0-9.1-61.6-16.5-137.5-16.5S37.5,261,37.5,270.1
						C37.5,279.2,99.1,286.6,175,286.6z"/>
					<path class="st6" d="M178,54.5c0,0-6.9-2.4-11.3,7.4c-4.4,9.8-11.3,20.6-11.3,20.6l3.9,1c0,0,1-6.9,3.4-7.9l-1,8.8
						c0,0,29.5,10.3,42.7-1l-0.5-3.4c0,0,2,0.5,2,3.4l1.5-1.5c0,0-1.5-2.9-5.9-6.9c-2.9-2.6-3.9-7.5-4.2-10.6c-0.3-2.6-1.3-5-2.9-7
						C191.5,54.2,186.1,50.6,178,54.5z"/>
					<path class="st7" d="M170.8,93l-7.1-8.9l-5.3-18.3L178.8,44c0,0,4.4-16.9,0.4-16c-4,0.9-4.9,13.4-4.9,13.4l-25.8,20.1
						c0,0,2.7,28.1,10.2,37.9l5.8,18.3L170.8,93z"/>
					<path class="st7" d="M190.4,93l7.1-8.9l5.3-18.3L182.3,44c0,0-4.4-16.9-0.4-16c4,0.9,4.9,13.4,4.9,13.4l25.8,20
						c0,0-2.7,28.1-10.2,37.9l-5.8,18.3L190.4,93z"/>
					<path class="st7" d="M180.6,85.5c6.4,0,11.6-5.2,11.6-11.6c0-6.4-5.2-11.6-11.6-11.6c-6.4,0-11.6,5.2-11.6,11.6
						C169,80.3,174.2,85.5,180.6,85.5z"/>
					<path class="st7" d="M175.2,80.1c0,0,0.4,9.4-2.2,12.5c-2.7,3.1-5.3,19.2,7.6,19.6c12.9,0.4,11.6-13.4,11.6-13.4l-2.7-7.6
						c0,0-4-5.8-2.7-11.1C186.8,80.1,175.2,80.1,175.2,80.1z"/>
					<path class="st7" d="M163.2,183.9l9.6,2.9c0,0,7.8-4.7,7.8-0.2c0,4.4-2.7,10.2-1.8,14.2c0.9,4,2.7,13.8,0,13.8s-8-17.4-8-17.4
						l-8.9-4.9L163.2,183.9z"/>
					<path class="st7" d="M175.2,246.3l-3.6,13.8c0,0-3.1,4,0,5.8c1.5,0.8,2.5,2.6,3.3,4.1c0.6,1.4,1.7,2.6,3,3.4s2.9,1.2,4.4,1.1
						c1.5-0.1,2.8-0.7,3.1-2.3c0.1-0.5,0.1-1,0-1.5c-0.1-0.5-0.3-1-0.6-1.3c-3.3-4.4-4-7.4-4-7.4l1.3-15.6L175.2,246.3z"/>
					<path class="st6" d="M166.6,75.9c0,0,3.9-5.4,7.4-6.4c3.4-1,3.9-5.9,3.9-5.9s8.8,9.8,14.2,10.3c5.4,0.5,0.5-11.8,0.5-11.8
						l-9.8-2.4l-9.3,1l-7.4,4.9L166.6,75.9z"/>
					<path class="st6" d="M159.2,150.1l-1.8,3.6c0,0-43.2,13.8-39.6,26.7c3.6,12.9,23.6,9.4,23.6,9.4l22.2,4l2.2-9.8l-15.6-4
						l26.7-9.8l0.9,45.4l-3.6,32.5l8.9,0.9c0,0,9.8-29.8,8.5-42.3c0,0,16.5-50.8,7.1-58.4C189.5,140.7,159.2,150.1,159.2,150.1z"/>
					<path class="st4" d="M181.1,98.8l-6.9-8.4l-4.7,2.2l-4.9,15.6c0,0-4,7.6,0.9,15.6c0,0,0.9,5.3-0.4,6.7
						c-1.3,1.3-1.8,9.8-1.8,9.8l-5.8,11.1c0,0,32.9,5.8,42.7-2.2c0,0-5.1-18.9-2-24.8c3.1-5.8,3.6-14.7,0-18.7
						c-3.6-4-7.3-14.5-7.3-14.5l-2.2-1.4L181.1,98.8z"/>
					<path class="st4" d="M207,32.3h-4.3v-4.3h-0.4v4.3h-4.3v0.4h4.3V37h0.4v-4.3h4.3V32.3z"/>
					<path class="st4" d="M166.5,23.4h-4.3v-4.3h-0.4v4.3h-4.3v0.4h4.3v4.3h0.4v-4.3h4.3V23.4z"/>
					<path class="st4" d="M186,4.3h-4.3V0h-0.4v4.3H177v0.4h4.3V9h0.4V4.7h4.3V4.3z"/>
				</g>
			</g>
		</g>
	</g>
</g>
</svg>
