<?xml version="1.0" encoding="utf-8"?>
<!-- Generator: Adobe Illustrator 25.0.0, SVG Export Plug-In . SVG Version: 6.00 Build 0)  -->
<svg version="1.1" id="Layer_1" xmlns="http://www.w3.org/2000/svg" xmlns:xlink="http://www.w3.org/1999/xlink" x="0px" y="0px"
	 viewBox="0 0 350 300" style="enable-background:new 0 0 350 300;" xml:space="preserve">
<style type="text/css">
	.st0{clip-path:url(#SVGID_2_);}
	.st1{fill:#403D56;}
	.st2{fill:#A1616A;}
	.st3{fill:#2F2F41;}
	.st4{fill:#D0CCE0;}
	.st5{fill:#F07F12;}
	.st6{opacity:0.1;fill:#FFFFFF;enable-background:new    ;}
	.st7{opacity:0.1;fill:#010202;enable-background:new    ;}
	.st8{fill:#FFFFFF;}
</style>
<g>
	<g>
		<g>
			<g>
				<defs>
					<rect id="SVGID_1_" x="15.5" y="0.2" width="319" height="299.6"/>
				</defs>
				<clipPath id="SVGID_2_">
					<use xlink:href="#SVGID_1_"  style="overflow:visible;"/>
				</clipPath>
				<g class="st0">
					<path class="st1" d="M172,299.8c52.5,0,95-6.6,95-14.7s-42.5-14.7-95-14.7s-95,6.6-95,14.7S119.5,299.8,172,299.8z"/>
					<path class="st2" d="M169.5,62.4c0,0,2.3,10.7-5.6,14.8c0,0,1.9,23.6,13.9,24.1c12.1,0.5,12.1-12.5,12.1-12.5l-1.9-7
						c0,0-8.8-5.1-3.2-14.8L169.5,62.4z"/>
					<path class="st3" d="M179.5,68.2c12,0,21.8-9.7,21.8-21.8s-9.8-21.8-21.8-21.8c-12,0-21.8,9.7-21.8,21.8
						C157.7,58.5,167.4,68.2,179.5,68.2z"/>
					<path class="st2" d="M156.5,112v25.9l38.5-1.4l-2.8-25.5L156.5,112z"/>
					<path class="st2" d="M179.7,69.8c7.7,0,13.9-6.2,13.9-13.9c0-7.7-6.2-13.9-13.9-13.9s-13.9,6.2-13.9,13.9S172,69.8,179.7,69.8z
						"/>
					<path class="st2" d="M162.5,77.2c0,0-7.9-1.4-10.7,0s-6,0.9-9.3,14.4l-6,27.8c0,0-0.9,8.3,6,7.4c7-0.9,6.5-13,6.5-13l4.7-10.7
						l8.3-9.3L162.5,77.2z"/>
					<path class="st2" d="M189,82.8c0,0,11.1,1.4,12.1,7.4c0.9,6-4.2,30.6-4.2,30.6l-7.9-7.9l4.2-15.3L189,82.8z"/>
					<path class="st4" d="M160.5,77l0.2,8.6l-6.5,13.9l1.4,17.1l37.2,0.1l-0.1-8c0,0,5.1-6.5,2.3-12c-2.8-5.6-4.9-14.1-4.9-14.1
						l-3.7-2.3c0,0,6.3,14.6-6.7,12.3c-13-2.3-13.7-16.9-13.7-16.9L160.5,77z"/>
					<path class="st2" d="M149.5,170.3l-6.5,36.6l-7.4,53.3l-3.2,6l2.8,6l7.9-3.7l3.2-14.4c0,0,11.1-13.4,9.3-30.6l20-47.7
						L149.5,170.3z"/>
					<path class="st2" d="M181.6,174l4.7,45.4c0,0-0.9,12.5,1.9,23.6c2.8,11.1,4.7,30.6,4.7,30.6h9.3l-1.9-57l6-46.3L181.6,174z"/>
					<path class="st3" d="M175.1,132.4c0,0-19.5-1.4-19.5,0.9v4.6c0,0-3.7,6-3.2,11.6c0.5,5.6-17.6,18.1-6,23.6
						c11.6,5.6,26.9,7.4,29.2,5.6c2.3-1.9,3.7-9.3,3.7-9.3s0,8.3,4.2,8.8c4.2,0.5,29.2-4.6,29.2-8.8S194.1,128,194.1,128
						S180.6,132.8,175.1,132.4z"/>
					<path class="st3" d="M134.7,266.7c0,0-1.9-3.2-3.7-0.9c-1.9,2.3-8.8,7.9-8.8,7.9s-17.2,4.6-5.6,11.6c0,0,10.2,0,14.4-3.2
						s8.3-1.9,8.3-1.9s6.5-0.5,7-3.2c0.5-2.8-2.4-11.9-2.4-11.9S140.7,269,134.7,266.7z"/>
					<path class="st3" d="M196.4,269.5c0,0-5.6-1.4-5.6,0c0,1.4-7.9,9.7-1.4,13.4c6.5,3.7,7.4,2.8,7.9,6.5
						c0.5,3.7,12.5,6.5,14.4,4.2c1.9-2.3,3.2-6.5,0.9-8.3c-2.3-1.9-9.7-13.4-9.7-15.7C202.9,267.2,196.4,269.5,196.4,269.5z"/>
					<path class="st1" d="M185.2,89.7c0.9,0,1.6-0.4,1.6-0.8s-0.7-0.8-1.6-0.8c-0.9,0-1.6,0.4-1.6,0.8
						C183.5,89.3,184.3,89.7,185.2,89.7z"/>
					<path class="st5" d="M185.3,92.3c1.8,0,3.3-0.8,3.3-1.7c0-0.9-1.5-1.7-3.3-1.7c-1.8,0-3.3,0.8-3.3,1.7
						C182,91.5,183.5,92.3,185.3,92.3z"/>
					<path class="st5" d="M189.3,91.6h-8v5.8h8V91.6z"/>
					<path class="st5" d="M194.7,100.8h-18.9v28.6h18.9L194.7,100.8L194.7,100.8z"/>
					<path class="st5" d="M195.5,100.4c0,2.8-4.7,1.9-10.3,1.9s-10.4,0.9-10.4-1.9c0-2.8,4.8-5.8,10.4-5.8
						C190.9,94.6,195.5,97.6,195.5,100.4z"/>
					<path class="st1" d="M195.5,103.5H175v2.2h20.5L195.5,103.5L195.5,103.5z"/>
					<path class="st1" d="M195.7,124.9h-20.5v2.2h20.5V124.9L195.7,124.9z"/>
					<path class="st1" d="M195.5,115.3H175v4.4h20.5L195.5,115.3L195.5,115.3z"/>
					<path class="st5" d="M195.4,128.4c0,0.9,0.3,3.6-9.9,3.6c-11.6,0-10.6-2.8-10.6-3.8c0-0.9,5.1,0.4,10.6,0.4
						C191,128.6,195.4,127.4,195.4,128.4z"/>
					<path class="st1" d="M189.9,90.6h-9.5v3.2h9.5V90.6z"/>
					<path class="st6" d="M177.9,107.6h-1.3v7h1.3V107.6z"/>
					<path class="st6" d="M177.9,120.8h-1.3v2.6h1.3V120.8z"/>
					<path class="st2" d="M198.7,115.2c0,0-8.8-11.6-8.3-3.2c0.5,8.3,5.6,12.5,6.5,12.5C197.8,124.5,201.5,123.6,198.7,115.2z"/>
					<path class="st7" d="M156.5,124.1c0.7,0.1,11.8-4.1,11.8-4.1l7-0.9l-18.8,7.9L156.5,124.1L156.5,124.1z"/>
					<path class="st2" d="M142.1,116.1c0,0,3.7-2.3,11.1-1.4l14.4-3.7c0,0,13.5-7.9,18.6,1.9c5.1,9.7-19,6.5-19,6.5s-16.2,13-26,6
						L142.1,116.1z"/>
					<path class="st3" d="M159.5,37.2c3.6,0,6.5-2.9,6.5-6.5c0-3.6-2.9-6.5-6.5-6.5s-6.5,2.9-6.5,6.5S155.9,37.2,159.5,37.2z"/>
					<path class="st3" d="M199.4,35.3c3.6,0,6.5-2.9,6.5-6.5c0-3.6-2.9-6.5-6.5-6.5c-3.6,0-6.5,2.9-6.5,6.5
						C192.9,32.4,195.8,35.3,199.4,35.3z"/>
					<path class="st3" d="M192.4,26.1c0-1.6,0.6-3.1,1.7-4.3c1.1-1.2,2.5-1.9,4.1-2.1c-0.9-0.1-1.8,0-2.7,0.3
						c-0.9,0.3-1.7,0.7-2.3,1.3c-0.7,0.6-1.2,1.3-1.6,2.2c-0.4,0.8-0.6,1.7-0.6,2.6c0,0.9,0.2,1.8,0.6,2.6c0.4,0.8,0.9,1.6,1.6,2.2
						c0.7,0.6,1.5,1.1,2.3,1.3c0.9,0.3,1.8,0.4,2.7,0.3c-1.6-0.2-3.1-0.9-4.1-2.1C193,29.2,192.4,27.7,192.4,26.1z"/>
					<path class="st3" d="M152.3,35.9c-1.1-1.1-1.8-2.7-1.9-4.3c-0.1-1.6,0.5-3.2,1.5-4.4c-0.2,0.1-0.4,0.3-0.5,0.5
						c-1.2,1.2-1.9,2.8-1.9,4.6c0,1.7,0.7,3.4,1.9,4.6c1.2,1.2,2.8,1.9,4.6,1.9c1.7,0,3.4-0.7,4.6-1.9c0.2-0.2,0.3-0.3,0.5-0.5
						c-1.3,1-2.8,1.5-4.4,1.4C154.9,37.8,153.4,37.1,152.3,35.9z"/>
					<path class="st3" d="M179.5,36.2c-7.7,0-13.9,3.6-13.9,8.1c0,2,1.3,3.8,3.3,5.2l2.7-1.9l-0.7,3c0.3,0.1,0.6,0.3,0.9,0.4l4-4.7
						v5.7c1.2,0.2,2.5,0.3,3.7,0.3c7.7,0,13.9-3.6,13.9-8.1C193.4,39.9,187.1,36.2,179.5,36.2z"/>
					<path class="st5" d="M192.9,28.8c0,0-1,4.6,5.3,6.5L192.9,28.8z"/>
					<path class="st5" d="M165.5,29.7c0,0,2.3,5.2-4.7,7.5L165.5,29.7z"/>
					<path class="st1" d="M260.1,257.1c1.2-1.4,2.1-3,2.5-4.8c0.4-1.8,0.5-3.6,0-5.4c-0.4-1.8-1.3-3.4-2.5-4.8
						c-1.2-1.4-2.7-2.4-4.4-3.1c1.5-0.9,2.7-2.2,3.4-3.9c0.7-1.6,0.8-3.4,0.3-5.1c-0.5-1.7-1.5-3.2-2.9-4.3
						c-1.4-1.1-3.1-1.7-4.9-1.7c-1.8,0-3.5,0.6-4.9,1.7c-1.4,1.1-2.4,2.6-2.9,4.3c-0.5,1.7-0.3,3.5,0.3,5.1c0.7,1.6,1.9,3,3.4,3.9
						c-1.7,0.7-3.2,1.7-4.4,3.1c-1.2,1.4-2.1,3-2.5,4.8c-0.4,1.8-0.4,3.6,0,5.4c0.5,1.8,1.3,3.4,2.5,4.8c-2.9,1.8-5,4.5-6.2,7.6
						c-1.2,3.2-1.3,6.6-0.4,9.9c0.9,3.2,2.9,6.1,5.6,8.1c2.7,2,6,3.1,9.4,3.1c3.4,0,6.7-1.1,9.4-3.1c2.7-2,4.7-4.9,5.6-8.1
						s0.8-6.7-0.4-9.9C265.2,261.6,263,258.9,260.1,257.1z"/>
					<path class="st5" d="M116,165.7c6.4,0,11.6-5.2,11.6-11.6s-5.2-11.6-11.6-11.6c-6.4,0-11.6,5.2-11.6,11.6
						C104.4,160.5,109.6,165.7,116,165.7z"/>
					<path class="st8" d="M113.5,163.6c1.1-0.9,0.4-3.7-1.6-6.2c-2-2.5-4.6-3.8-5.7-2.8c-1.1,0.9-0.4,3.7,1.6,6.2
						C109.8,163.2,112.4,164.5,113.5,163.6z"/>
					<path class="st1" d="M40,131.4c6.4,0,11.6-5.2,11.6-11.6c0-6.4-5.2-11.6-11.6-11.6s-11.6,5.2-11.6,11.6
						C28.4,126.2,33.5,131.4,40,131.4z"/>
					<path class="st8" d="M34.9,118.5c0.8-3.1,0.4-5.9-1.1-6.3c-1.4-0.4-3.2,1.8-4.1,4.9c-0.8,3.1-0.4,5.9,1.1,6.3
						C32.2,123.8,34,121.5,34.9,118.5z"/>
					<path class="st1" d="M22.7,58.9c4,0,7.2-3.2,7.2-7.2c0-4-3.2-7.2-7.2-7.2s-7.2,3.2-7.2,7.2C15.5,55.6,18.7,58.9,22.7,58.9z"/>
					<path class="st8" d="M19.6,50.8c0.5-1.9,0.2-3.7-0.7-3.9s-2,1.1-2.5,3.1s-0.2,3.7,0.7,3.9C17.9,54.1,19,52.7,19.6,50.8z"/>
					<path class="st1" d="M97.8,237.8c4,0,7.2-3.2,7.2-7.2c0-4-3.2-7.2-7.2-7.2c-4,0-7.2,3.2-7.2,7.2
						C90.6,234.6,93.8,237.8,97.8,237.8z"/>
					<path class="st8" d="M94.6,229.7c0.5-1.9,0.2-3.7-0.7-3.9c-0.9-0.2-2,1.1-2.5,3.1c-0.5,1.9-0.2,3.7,0.7,3.9
						C93,233,94.1,231.6,94.6,229.7z"/>
					<path class="st1" d="M322.9,157.3c6.4,0,11.6-5.2,11.6-11.6c0-6.4-5.2-11.6-11.6-11.6c-6.4,0-11.6,5.2-11.6,11.6
						C311.2,152.1,316.5,157.3,322.9,157.3z"/>
					<path class="st8" d="M314.9,151.5c1.5,0,2.6-2.6,2.6-5.8c0-3.2-1.2-5.8-2.6-5.8s-2.6,2.6-2.6,5.8
						C312.3,148.9,313.5,151.5,314.9,151.5z"/>
					<path class="st5" d="M285.4,82.9c6.4,0,11.6-5.2,11.6-11.6c0-6.4-5.2-11.6-11.6-11.6c-6.4,0-11.6,5.2-11.6,11.6
						C273.7,77.7,278.9,82.9,285.4,82.9z"/>
					<path class="st8" d="M282.2,67c2.6-1.9,4-4.4,3.2-5.5c-0.9-1.2-3.7-0.6-6.3,1.3c-2.6,1.9-4,4.4-3.2,5.5
						C276.8,69.5,279.7,68.9,282.2,67z"/>
					<path class="st5" d="M314.9,14.7c4,0,7.2-3.2,7.2-7.2c0-4-3.2-7.2-7.2-7.2c-4,0-7.2,3.2-7.2,7.2S311,14.7,314.9,14.7z"/>
					<path class="st8" d="M313,4.8c1.6-1.2,2.5-2.7,2-3.5c-0.5-0.7-2.3-0.4-3.9,0.8s-2.5,2.7-2,3.5C309.6,6.3,311.4,6,313,4.8z"/>
					<path class="st1" d="M260.5,200.9c4,0,7.2-3.2,7.2-7.2c0-4-3.2-7.2-7.2-7.2c-4,0-7.2,3.2-7.2,7.2
						C253.3,197.7,256.5,200.9,260.5,200.9z"/>
					<path class="st8" d="M258.6,191c1.6-1.2,2.5-2.7,2-3.5c-0.5-0.7-2.3-0.4-3.9,0.8c-1.6,1.2-2.5,2.7-2,3.5
						C255.2,192.6,257,192.2,258.6,191z"/>
				</g>
			</g>
		</g>
	</g>
</g>
</svg>
