<?xml version="1.0" encoding="utf-8"?>
<!-- Generator: Adobe Illustrator 25.0.0, SVG Export Plug-In . SVG Version: 6.00 Build 0)  -->
<svg version="1.1" id="Layer_1" xmlns="http://www.w3.org/2000/svg" xmlns:xlink="http://www.w3.org/1999/xlink" x="0px" y="0px"
	 viewBox="0 0 300 211.07" style="enable-background:new 0 0 300 211.07;" xml:space="preserve">
<style type="text/css">
	.st0{opacity:0.2;fill:#F07F12;enable-background:new    ;}
	.st1{opacity:0.5;fill:#F07F12;enable-background:new    ;}
	.st2{fill:#F07F12;}
	.st3{opacity:0.2;fill:#010202;enable-background:new    ;}
	.st4{opacity:0.2;}
	.st5{fill:url(#SVGID_1_);}
	.st6{fill:#965D7B;}
	.st7{fill:#575988;}
	.st8{opacity:0.05;fill:#010202;enable-background:new    ;}
	.st9{fill:#F7C4A7;}
	.st10{opacity:0.1;fill:#010202;enable-background:new    ;}
	.st11{opacity:0.07;fill:#FFFFFF;enable-background:new    ;}
	.st12{fill:#EC6682;}
	.st13{opacity:0.1;fill:#242223;enable-background:new    ;}
	.st14{fill:none;stroke:#545562;stroke-width:2;stroke-miterlimit:10;}
	.st15{fill:none;}
</style>
<g>
	<path class="st0" d="M105.03,36.41c-2.78,0.36-5.81,0.97-7.65,3.41c-2.17,2.88-1.89,7.25-0.9,10.9c0.99,3.64,2.54,7.19,2.53,11.01
		c-0.05,6.07-4.19,11.21-8.9,13.93c-4.72,2.72-10.04,3.59-15.12,5.18c-4.75,1.49-9.28,3.56-13.51,6.19
		c-3.59,2.21-7.19,5.12-8.63,9.5c-2.35,7.19,1.98,14.82,6.25,20.73c13.1,18.1,29.8,35.48,50.21,37.23
		c15.25,1.31,30.52-6.41,45.6-3.58c6.93,1.3,13.39,4.75,19.89,7.79s13.35,5.74,20.36,5.4c7.01-0.35,14.29-4.32,17.33-11.61
		c1.8-4.3,1.98-9.3,3.64-13.67c5.09-13.43,20.93-15.61,30.13-25.71c4.83-5.31,7.58-12.6,9.89-19.82c3.71-11.75,6.5-24.13,5.87-36.62
		c-0.27-5.44-1.28-11.09-4.3-15.28c-2.2-3.06-5.26-5.08-8.25-7.04c-6.81-4.46-14.13-9.07-21.95-8.54
		c-4.51,0.31-8.78,2.31-13.08,3.89c-8.2,2.99-16.75,4.47-25.25,5.92c-14.05,2.41-28.31,4.83-42.56,3.62
		c-6.29-0.54-12.23-2.67-18.42-3.55C120.66,34.62,112.52,35.43,105.03,36.41z"/>
	<path class="st1" d="M218.55,73.56c4.82,0,8.73-3.91,8.73-8.73s-3.91-8.73-8.73-8.73c-4.82,0-8.73,3.91-8.73,8.73
		S213.73,73.56,218.55,73.56z"/>
	<path class="st2" d="M191.04,95.65h-79.93l4.57-14.05h2.45l0.49,3.64h63.29l0.32-3.64h2.94L191.04,95.65z"/>
	<path class="st3" d="M191.04,95.65h-79.93l4.57-14.05h2.45l0.49,3.64h63.29l0.32-3.64h2.94L191.04,95.65z"/>
	<path class="st2" d="M196.59,98.78h-92.64l-2.29-5.73h96.89L196.59,98.78z"/>
	<path class="st2" d="M193.65,102.42h-87.43l-2.28-3.64h92.65L193.65,102.42z"/>
	<path class="st2" d="M193.65,101.38h-87.43v4.17h87.43V101.38z"/>
	<path class="st2" d="M200.51,112.32H101v15.61h99.49L200.51,112.32L200.51,112.32z"/>
	<path class="st3" d="M200.51,112.32H101v15.61h99.49L200.51,112.32L200.51,112.32z"/>
	<path class="st2" d="M263.14,164.89l-226.4-1.56l6.52-36.96h214.98L263.14,164.89z"/>
	<g class="st4">
		<path class="st3" d="M100.87,153.44h2.89c0.91,0,1.79,0.36,2.44,1.01c0.65,0.65,1.01,1.52,1.01,2.44v6.97h-9.79v-6.97
			c0-0.91,0.36-1.79,1.01-2.44C99.08,153.81,99.95,153.44,100.87,153.44z"/>
		<path class="st3" d="M122.07,153.44h2.89c0.91,0,1.79,0.36,2.44,1.01s1.01,1.52,1.01,2.44v6.97h-9.79v-6.97
			c0-0.91,0.36-1.79,1.01-2.44C120.28,153.81,121.15,153.44,122.07,153.44z"/>
		<path class="st3" d="M148.49,153.44h2.89c0.91,0,1.79,0.36,2.44,1.01s1.01,1.52,1.01,2.44v6.97h-9.79v-6.97
			c0-0.91,0.36-1.79,1.01-2.44C146.71,153.81,147.58,153.44,148.49,153.44z"/>
		<path class="st3" d="M175.9,153.44h2.89c0.91,0,1.79,0.36,2.44,1.01s1.01,1.52,1.01,2.44v6.97h-9.79v-6.97
			c0-0.91,0.36-1.79,1.01-2.44C174.11,153.81,174.98,153.44,175.9,153.44z"/>
		<path class="st3" d="M197.75,153.44h2.89c0.91,0,1.79,0.36,2.44,1.01s1.01,1.52,1.01,2.44v6.97h-9.79v-6.97
			c0-0.91,0.36-1.79,1.01-2.44C195.96,153.81,196.84,153.44,197.75,153.44z"/>
	</g>
	<path class="st3" d="M155.16,127.93h-10.44v20.82h10.44V127.93z"/>
	<path class="st2" d="M102.64,112.32h-1.63v15.61h1.63V112.32z"/>
	<path class="st2" d="M112.1,112.32h-1.63v15.61h1.63V112.32z"/>
	<path class="st2" d="M122.53,112.32h-1.63v15.61h1.63V112.32z"/>
	<path class="st2" d="M132.65,112.32h-1.63v15.61h1.63V112.32z"/>
	<path class="st2" d="M143.74,112.32h-1.63v15.61h1.63V112.32z"/>
	<path class="st2" d="M158.75,112.32h-1.63v15.61h1.63V112.32z"/>
	<path class="st2" d="M168.86,112.32h-1.63v15.61h1.63V112.32z"/>
	<path class="st2" d="M180.28,112.32h-1.63v15.61h1.63V112.32z"/>
	<path class="st2" d="M190.07,112.32h-1.63v15.61h1.63V112.32z"/>
	<path class="st2" d="M200.51,112.32h-1.63v15.61h1.63V112.32z"/>
	<path class="st2" d="M200.51,113.36H101l-5.87-5.21h110.91L200.51,113.36z"/>
	<path class="st2" d="M104.92,113.36H101v2.08h3.92V113.36z"/>
	<path class="st2" d="M113.4,113.36h-3.92v2.08h3.92V113.36z"/>
	<path class="st2" d="M123.52,113.36h-3.92v2.08h3.92V113.36z"/>
	<path class="st2" d="M133.95,113.36h-3.92v2.08h3.92V113.36z"/>
	<path class="st2" d="M145.05,113.36h-3.92v2.08h3.92V113.36z"/>
	<path class="st2" d="M159.72,113.36h-3.92v2.08h3.92V113.36z"/>
	<path class="st2" d="M170.17,113.36h-3.92v2.08h3.92V113.36z"/>
	<path class="st2" d="M181.59,113.36h-3.92v2.08h3.92V113.36z"/>
	<path class="st2" d="M191.37,113.36h-3.92v2.08h3.92V113.36z"/>
	<path class="st2" d="M200.51,113.36h-3.92v2.08h3.92V113.36z"/>
	<path class="st2" d="M206.7,108.15H94.81l-1.31-3.64h114.18L206.7,108.15z"/>
	<path class="st3" d="M206.7,108.15H94.81l-1.31-3.64h114.18L206.7,108.15z"/>
	<path class="st2" d="M149.94,107.11c1.44,0,2.61-1.86,2.61-4.17c0-2.3-1.17-4.17-2.61-4.17s-2.61,1.86-2.61,4.17
		C147.33,105.25,148.5,107.11,149.94,107.11z"/>
	<path class="st3" d="M149.94,107.11c1.44,0,2.61-1.86,2.61-4.17c0-2.3-1.17-4.17-2.61-4.17s-2.61,1.86-2.61,4.17
		C147.33,105.25,148.5,107.11,149.94,107.11z"/>
	<path class="st2" d="M149.94,105.55c0.9,0,1.63-1.16,1.63-2.6s-0.73-2.6-1.63-2.6s-1.63,1.16-1.63,2.6S149.04,105.55,149.94,105.55
		z"/>
	
		<linearGradient id="SVGID_1_" gradientUnits="userSpaceOnUse" x1="420.759" y1="-212.205" x2="420.759" y2="-112.6594" gradientTransform="matrix(1 0 0 -1 -270.9449 -27.1708)">
		<stop  offset="0" style="stop-color:#808081;stop-opacity:0.25"/>
		<stop  offset="0.54" style="stop-color:#808081;stop-opacity:0.12"/>
		<stop  offset="1" style="stop-color:#808081;stop-opacity:0.1"/>
	</linearGradient>
	<path class="st5" d="M188.14,163l-11.19-8.59c0,0-0.91-3.58-1.27-6.08c-0.36-2.51-0.91-13.24-0.91-13.24
		c0.26-0.93,0.43-1.88,0.51-2.84c0.11-0.02,0.23-0.05,0.33-0.08c0.84-0.21,1.61-0.62,2.26-1.18c0.66-0.57,1.17-1.27,1.5-2.07
		c1.15-2.86-0.33-6.24-2.22-8.5c-1.88-2.26-4.24-4.09-5.48-6.9c-1.52-3.46-1-7.64-1.78-11.43c-0.08-0.53-0.27-1.03-0.57-1.48
		c-0.48-0.6-1.24-0.73-1.92-0.97c-2.14-0.75-3.74-2.83-4.98-5c-2.02-3.5-4.11-8.84-8.27-9.14c-1.55-0.11-3.16,0.41-4.72,0.41
		c-2.42,0-4.83,0.03-7.23,0.36c-0.86,0.12-1.75,0.28-2.47,0.85c-2.46,1.95-1.35,7.09-3.72,9.19c-0.71,0.63-1.61,0.85-2.41,1.28
		c-3,1.61-4.34,5.9-4.17,9.77c0.08,1.81,0.46,3.69,1.53,5.02c0.85,1.06,2.05,1.66,2.84,2.78c1.28,1.8,1.1,4.19,0.97,6.61
		c-1.7,0.71-3.06,1.53-3.49,2.41c-1.44,2.95-1.27,13.06-1.27,13.06s0.54,16.55-3.61,18.62l-15.52,10.74c0,0-11.01-9.57-13.72-3.93
		c-1.85,3.86,4.91,6.04,9.37,7.03c-2.81,1.99-4.37,5.68-3.05,8.18c2.07,3.94,7.85,6.62,7.85,6.62s22.05,1.06,32.25-1.22h0.17
		c4.33,0.78,10.54,1.61,15.52,1.11c0.09,0.23,0.16,0.38,0.16,0.38s31.94,2.69,37.72-8.23c2.97-5.6-0.13-8.18-3.84-9.37
		c4.16-0.33,8.89-1.49,9.44-5.03C203.74,155.67,188.14,163,188.14,163z M184.91,166.43c-5.84,2.13-10.59,2.25-13.12,2.09
		c-1.25-2.71-6.41-14.43-6.55-22.28c0.03-1.75,0.35-3.28,1.04-4.43c1.5-2.48,1.95-4.41,1.9-5.89c0-0.11,0-0.22,0-0.32
		c0.01-0.45-0.04-0.9-0.13-1.34c0.25,0.6,0.32,1.27,0.21,1.92c-0.54,2.78,0.91,20.75,0.91,20.75s1.17,4.02,3.61,5.18L184.91,166.43z
		 M127.67,165.16l5.59-3.58c0,0,2.62-1.25,2.88-4.3l1.84-14.53c0.13,0.63,0.29,1.24,0.5,1.84c0.32,0.95,0.46,2.35,0.48,4.01
		c-0.06,8.11-2.82,21.56-2.82,21.56h0.04l-0.02,0.1l-0.2,0.01c-4.54-0.14-15.12-0.54-21.04-1.35L127.67,165.16z M117.87,173.63v0.03
		h-1.38L117.87,173.63z"/>
	<path class="st6" d="M162.01,96.12c1.21,2.11,2.75,4.14,4.81,4.87c0.66,0.23,1.38,0.36,1.84,0.94c0.29,0.43,0.48,0.92,0.56,1.44
		c0.75,3.69,0.25,7.77,1.73,11.15c1.19,2.73,3.48,4.51,5.3,6.72c1.82,2.2,3.25,5.5,2.14,8.29c-0.32,0.77-0.81,1.46-1.44,2.01
		c-0.63,0.55-1.37,0.94-2.18,1.15c-1.52,0.42-3.11,0.23-4.66-0.03c-2.04-0.36-4.11-0.92-5.8-2.3c-2.94-2.38-4.17-6.66-5.71-10.47
		c-0.72-1.78-1.68-3.65-3.27-4.29c-1.82-0.73-3.86,0.49-5.04,2.28c-1.18,1.79-1.71,4.04-2.27,6.2c-0.64,2.45-1.46,4.98-3.15,6.58
		c-0.73,0.72-1.66,1.21-2.66,1.4c-1,0.2-2.05,0.11-3-0.27c-1.89-0.78-3.38-2.77-3.81-5.08c-0.67-3.55,0.94-7.82-1.03-10.63
		c-0.76-1.09-1.93-1.68-2.75-2.71c-1.02-1.29-1.4-3.12-1.48-4.89c-0.17-3.77,1.12-7.96,4.02-9.52c0.78-0.42,1.65-0.63,2.32-1.24
		c2.3-2.04,1.21-7.06,3.59-8.97c0.69-0.55,1.55-0.71,2.38-0.82c2.33-0.32,4.65-0.36,6.99-0.35c1.51,0,3.07-0.51,4.57-0.39
		C158.04,87.5,160.06,92.7,162.01,96.12z"/>
	<path class="st7" d="M118.86,172.21l0.88,10.43l61.57-0.36l-1.17-11.39l-20.81-2.42l-36.5,2.2L118.86,172.21z"/>
	<path class="st8" d="M118.86,172.21l0.88,10.43l61.57-0.36l-1.17-11.39l-20.81-2.42l-36.5,2.2L118.86,172.21z"/>
	<path class="st9" d="M159.38,179.5l-20.5,1.92c0,0,14.04,3.58,22.24,1.84L159.38,179.5z"/>
	<path class="st10" d="M159.38,179.5l-20.5,1.92c0,0,14.04,3.58,22.24,1.84L159.38,179.5z"/>
	<path class="st9" d="M143.76,106.05c0,0,4.01,10.56-1.92,15.27s-1.05,17.89-1.05,17.89l22.85-1.05c0,0,2.27-14.83,1.04-17.97
		c0,0-5.41,1.57-6.63-1.74c-1.22-3.31-2.09-12.38-2.09-12.38L143.76,106.05L143.76,106.05z"/>
	<path class="st7" d="M138.53,169.9c0,0-19.27-0.44-24.95-1.84c-5.67-1.4-10.56,5.32-8.55,9.16c2.01,3.84,7.58,6.45,7.58,6.45
		s28.7,1.4,34.89-2.53c0,0,2.35-6.72,0-8.02H117.6l22.07-0.44L138.53,169.9z"/>
	<path class="st7" d="M169.15,167.9c0,0,6.45,1.4,15.35-2.09c0,0,16.66-0.53,11.08,10.11c-5.58,10.64-36.46,8.02-36.46,8.02
		s-1.84-3.92,0-4.97c1.84-1.05,17.79-7.77,22.75-7.41l-13.79,2.7L169.15,167.9z"/>
	<path class="st10" d="M156.77,111.13c-0.33-2.48-0.53-4.51-0.53-4.51h-12.21c0.57,1.6,0.96,3.25,1.17,4.94
		c1.71,1.2,3.77,1.8,5.86,1.73S155.15,112.45,156.77,111.13z"/>
	<path class="st9" d="M150.43,112.73c5.3,0,9.59-4.29,9.59-9.59c0-5.3-4.29-9.59-9.59-9.59c-5.3,0-9.59,4.29-9.59,9.59
		C140.84,108.43,145.14,112.73,150.43,112.73z"/>
	<path class="st9" d="M144.81,119.83c0,0-11.52,2.18-12.91,5.06s-1.22,12.74-1.22,12.74s0.52,16.13-3.49,18.14l-15,10.47
		c0,0-10.64-9.34-13.26-3.84c-2.62,5.49,12.56,7.5,12.56,7.5l16.92-5.06l5.41-3.49c0,0,2.53-1.22,2.79-4.19l2.27-17.97l9.07-2.62
		h14.65l1.96-5.61c0,0,3.62,2.9,3.09,5.61c-0.52,2.7,0.87,20.22,0.87,20.22s1.13,3.92,3.49,5.06l13.61,4.9c0,0,14.39,1.4,15.35-4.88
		c0.96-6.28-14.13,0.87-14.13,0.87l-10.81-8.38c0,0-0.87-3.49-1.22-5.93c-0.35-2.45-0.87-12.91-0.87-12.91s3.31-10.99-6.28-12.9
		l-12.38-3.84L144.81,119.83z"/>
	<path class="st10" d="M137.09,122.06l1.79,11.82c0,0-1.84,5.49,0,10.9c1.84,5.41-2.27,25.55-2.27,25.55s21.55,6.9,34.71-1.05
		c0,0-9.68-20.41-5.58-27.21c4.1-6.8,0.07-9.46,0.07-9.46l0.64-12.5l-2.97-0.87l-1.74,12.36c0,0-12.04,8.37-20.93,1.05l-1.92-13.43
		L137.09,122.06z"/>
	<path class="st11" d="M149.54,136.1c-0.94-1.49-2.38-2.58-4.08-3.06c-1.69-0.48-3.5-0.3-5.07,0.48
		C143.31,135.72,146.53,136.3,149.54,136.1z"/>
	<path class="st11" d="M154.48,134.79c0.94-1.49,2.38-2.58,4.08-3.06c1.69-0.48,3.5-0.3,5.07,0.48
		C160.7,134.41,157.48,135,154.48,134.79z"/>
	<path class="st10" d="M137.09,122.06l1.79,11.21c0,0-1.84,5.49,0,10.9c1.84,5.41-2.27,25.55-2.27,25.55s21.55,6.9,34.71-1.05
		c0,0-9.68-20.41-5.58-27.21c4.1-6.8,0.07-9.46,0.07-9.46l0.63-12.51l-2.97-0.87L161.72,131c0,0-12.04,8.38-20.93,1.05l-1.92-13.43
		L137.09,122.06z"/>
	<path class="st12" d="M137,121.97l1.88,11.47c0,0-1.84,5.49,0,10.9c1.84,5.41-2.27,25.55-2.27,25.55s21.55,6.9,34.71-1.05
		c0,0-9.68-20.41-5.58-27.21c4.1-6.8,0.07-9.46,0.07-9.46l0.63-12.51l-2.97-0.87l-1.74,12.38c0,0-12.04,8.38-20.93,1.05l-1.92-13.43
		L137,121.97z"/>
	<path class="st9" d="M145.86,174.18l4.54-0.61c0,0,5.24-6.72,8.99-1.57c0,0,1.57,3.31,3.49,3.92c1.31,0.39,2.66,0.69,4.01,0.87
		l-7.76,2.18c0,0-3.4,2.01-6.98,1.49c-2.11-0.32-4.26-0.14-6.28,0.52L145.86,174.18z"/>
	<path class="st10" d="M140.84,145.7c0,0,8.2,1.22,9.59-0.96L140.84,145.7z"/>
	<path class="st10" d="M156.37,144.3c0,0,1.57,1.57,7.85,0.44L156.37,144.3z"/>
	<path class="st10" d="M140.4,119.96c0,0,6.01,0.87,7.15,0.35L140.4,119.96z"/>
	<path class="st10" d="M153.66,119.96c0,0,6.01,0.87,7.15,0.35L153.66,119.96z"/>
	<path class="st10" d="M146.51,173.52c0,0,1.66,7.82,0,8.09c-1.66,0.27-4.01-1.29-4.01-1.46s1.05-5.15,1.05-5.15L146.51,173.52z"/>
	<path class="st7" d="M146.34,173.52c0,0,1.66,7.82,0,8.09c-1.66,0.27-4.01-1.29-4.01-1.46s1.04-5.15,1.04-5.15L146.34,173.52z"/>
	<path class="st10" d="M138.24,118.82c-0.73,1.7-0.99,3.71-0.21,5.38c0.6,1.28,1.75,2.32,1.98,3.71c0.28,1.74-1.01,3.52-0.53,5.22
		c0.18,0.66,0.61,1.21,1.05,1.72c1.33,1.57,3.09,3.09,5.15,2.97c0.32-3.17-2.41-6.24-1.52-9.3c0.32-1.09,1.08-2.01,1.53-3.05
		c0.75-1.73,0.65-3.71,0.38-5.58c-0.4-2.71-1.4-6.04-4.09-7.31c-1.24-0.58-2.99-0.63-3.43,0.96c-0.23,0.85,0.32,1.65,0.4,2.47
		C139.02,117.08,138.65,117.88,138.24,118.82z"/>
	<path class="st6" d="M138.24,118.56c-0.73,1.7-0.99,3.71-0.21,5.38c0.6,1.28,1.75,2.32,1.98,3.71c0.28,1.74-1.01,3.52-0.53,5.22
		c0.18,0.66,0.61,1.21,1.05,1.72c1.33,1.57,3.09,3.09,5.15,2.97c0.32-3.17-2.41-6.24-1.52-9.3c0.32-1.09,1.08-2.01,1.53-3.05
		c0.75-1.73,0.65-3.71,0.38-5.58c-0.4-2.71-1.4-6.04-4.09-7.31c-1.24-0.58-2.99-0.63-3.43,0.96c-0.23,0.85,0.32,1.65,0.4,2.47
		C139.02,116.82,138.65,117.62,138.24,118.56z"/>
	<path class="st10" d="M138.93,98.42c0,0,12.74-1.74,13.09,0.87c0.35,2.62,11.6,6.9,11.6,6.9l-2.79-6.9l-5.15-8.55
		c0,0-9.43-0.69-9.86,0c-0.43,0.69-5.41,2.97-5.41,2.97L138.93,98.42z"/>
	<path class="st6" d="M138.93,98.24c0,0,12.74-1.74,13.09,0.87c0.35,2.62,11.6,6.9,11.6,6.9l-2.79-6.9l-5.15-8.54
		c0,0-9.43-0.69-9.86,0c-0.43,0.69-5.41,2.97-5.41,2.97L138.93,98.24z"/>
	<path class="st10" d="M161.08,116.89c0.62,0.74,1.06,1.61,1.28,2.56c0.21,0.9,0.22,1.84,0.42,2.74c0.43,1.92,1.7,3.53,3.03,4.99
		c0.43,0.53,0.95,0.97,1.55,1.3c0.6,0.3,1.38,0.36,1.94,0c-0.54-0.44-0.82-1.1-1.01-1.77c-0.27-0.93-0.38-1.89-0.35-2.85
		c0.06-1.61,0.53-3.31-0.14-4.78c-0.38-0.85-1.1-1.49-1.84-2.07c-0.51-0.42-1.06-0.78-1.64-1.08c-1.08-0.54-2.32-0.78-3.52-0.89
		C159.23,114.87,160.59,116.29,161.08,116.89z"/>
	<path class="st6" d="M161.08,116.63c0.62,0.75,1.06,1.62,1.28,2.57c0.21,0.9,0.22,1.84,0.42,2.74c0.43,1.92,1.7,3.53,3.03,4.99
		c0.43,0.53,0.95,0.97,1.55,1.3c0.6,0.3,1.38,0.36,1.94,0c-0.54-0.44-0.82-1.1-1.01-1.77c-0.27-0.93-0.38-1.89-0.35-2.85
		c0.06-1.61,0.53-3.31-0.14-4.78c-0.38-0.85-1.1-1.49-1.84-2.07c-0.51-0.42-1.06-0.78-1.64-1.08c-1.08-0.54-2.32-0.78-3.52-0.89
		C159.23,114.61,160.59,116.03,161.08,116.63z"/>
	<path class="st13" d="M155.38,63.78h-1.58c0.15,0.01,0.3-0.02,0.44-0.07c0.14-0.05,0.26-0.14,0.38-0.23
		c0.11-0.11,0.2-0.23,0.26-0.36s0.09-0.29,0.09-0.44s-0.03-0.29-0.09-0.44c-0.06-0.14-0.14-0.26-0.26-0.36
		c-0.11-0.11-0.23-0.18-0.38-0.23s-0.29-0.08-0.44-0.07h-12.81c-0.29,0.02-0.55,0.14-0.75,0.34c-0.2,0.2-0.31,0.48-0.31,0.76
		c0,0.29,0.11,0.56,0.31,0.76c0.2,0.2,0.47,0.33,0.75,0.34h1.58c-0.15-0.01-0.3,0.02-0.44,0.07c-0.14,0.05-0.27,0.14-0.38,0.23
		c-0.11,0.11-0.2,0.23-0.26,0.36c-0.06,0.14-0.09,0.29-0.09,0.44s0.03,0.29,0.09,0.44c0.06,0.14,0.14,0.26,0.26,0.36
		c0.11,0.11,0.23,0.18,0.38,0.23c0.14,0.05,0.29,0.08,0.44,0.07h-2.21c-0.15-0.01-0.3,0.02-0.44,0.07
		c-0.14,0.05-0.27,0.14-0.38,0.23c-0.11,0.11-0.2,0.23-0.26,0.36c-0.06,0.14-0.09,0.29-0.09,0.44s0.03,0.29,0.09,0.44
		c0.06,0.14,0.14,0.26,0.26,0.36c0.11,0.11,0.23,0.18,0.38,0.23c0.14,0.05,0.29,0.08,0.44,0.07h12.81c0.15,0.01,0.3-0.02,0.44-0.07
		c0.14-0.05,0.27-0.14,0.38-0.23c0.11-0.11,0.2-0.23,0.26-0.36c0.06-0.14,0.09-0.29,0.09-0.44s-0.03-0.29-0.09-0.44
		c-0.06-0.14-0.14-0.26-0.26-0.36c-0.11-0.11-0.23-0.18-0.38-0.23s-0.29-0.08-0.44-0.07h2.21c0.15,0.01,0.3-0.02,0.44-0.07
		c0.14-0.05,0.27-0.14,0.38-0.23c0.11-0.11,0.2-0.23,0.26-0.36c0.06-0.14,0.09-0.29,0.09-0.44s-0.03-0.29-0.09-0.44
		c-0.06-0.14-0.14-0.26-0.26-0.36c-0.11-0.11-0.23-0.18-0.38-0.23C155.68,63.79,155.54,63.77,155.38,63.78z"/>
	<path class="st13" d="M217.44,63.78h-1.58c0.15,0.01,0.3-0.02,0.44-0.07c0.14-0.05,0.27-0.14,0.38-0.23
		c0.11-0.11,0.2-0.23,0.26-0.36s0.09-0.29,0.09-0.44s-0.03-0.29-0.09-0.44c-0.06-0.14-0.14-0.26-0.26-0.36
		c-0.11-0.11-0.23-0.18-0.38-0.23s-0.29-0.08-0.44-0.07h-12.81c-0.29,0.02-0.55,0.14-0.75,0.34c-0.2,0.2-0.31,0.48-0.31,0.76
		c0,0.29,0.11,0.56,0.31,0.76c0.2,0.2,0.47,0.33,0.75,0.34h1.58c-0.15-0.01-0.3,0.02-0.44,0.07c-0.14,0.05-0.26,0.14-0.38,0.23
		c-0.11,0.11-0.2,0.23-0.26,0.36c-0.06,0.14-0.09,0.29-0.09,0.44s0.03,0.29,0.09,0.44c0.06,0.14,0.14,0.26,0.26,0.36
		c0.11,0.11,0.23,0.18,0.38,0.23s0.29,0.08,0.44,0.07h-2.21c-0.15-0.01-0.3,0.02-0.44,0.07c-0.14,0.05-0.26,0.14-0.38,0.23
		c-0.11,0.11-0.2,0.23-0.25,0.36c-0.06,0.14-0.09,0.29-0.09,0.44s0.03,0.29,0.09,0.44c0.06,0.14,0.14,0.26,0.25,0.36
		c0.11,0.11,0.23,0.18,0.38,0.23s0.29,0.08,0.44,0.07h12.81c0.15,0.01,0.3-0.02,0.44-0.07c0.14-0.05,0.26-0.14,0.38-0.23
		c0.11-0.11,0.2-0.23,0.26-0.36c0.06-0.14,0.09-0.29,0.09-0.44s-0.03-0.29-0.09-0.44c-0.06-0.14-0.14-0.26-0.26-0.36
		c-0.11-0.11-0.23-0.18-0.38-0.23s-0.29-0.08-0.44-0.07h2.21c0.15,0.01,0.3-0.02,0.44-0.07s0.26-0.14,0.38-0.23
		c0.11-0.11,0.2-0.23,0.26-0.36c0.06-0.14,0.09-0.29,0.09-0.44s-0.03-0.29-0.09-0.44c-0.06-0.14-0.14-0.26-0.26-0.36
		c-0.11-0.11-0.23-0.18-0.38-0.23C217.74,63.79,217.59,63.77,217.44,63.78z"/>
	<path class="st13" d="M85.28,92.05h-1.58c0.15,0.01,0.3-0.02,0.44-0.07c0.14-0.05,0.27-0.14,0.38-0.23
		c0.11-0.11,0.2-0.23,0.26-0.36c0.06-0.14,0.09-0.29,0.09-0.44s-0.03-0.29-0.09-0.44c-0.06-0.14-0.14-0.26-0.26-0.36
		c-0.11-0.11-0.23-0.18-0.38-0.23s-0.29-0.08-0.44-0.07h-12.8c-0.29,0.02-0.55,0.14-0.75,0.34c-0.2,0.2-0.31,0.48-0.31,0.76
		c0,0.28,0.11,0.56,0.31,0.76c0.2,0.2,0.47,0.33,0.75,0.34h1.58c-0.29,0.02-0.55,0.14-0.75,0.34c-0.2,0.2-0.31,0.48-0.31,0.76
		c0,0.29,0.11,0.56,0.31,0.76c0.2,0.2,0.47,0.33,0.75,0.34h-2.21c-0.15-0.01-0.3,0.02-0.44,0.07c-0.14,0.05-0.27,0.14-0.38,0.23
		c-0.11,0.11-0.2,0.23-0.26,0.36c-0.06,0.14-0.09,0.29-0.09,0.44s0.03,0.29,0.09,0.44c0.06,0.14,0.14,0.26,0.26,0.36
		c0.11,0.1,0.23,0.18,0.38,0.23c0.14,0.05,0.29,0.08,0.44,0.07h12.81c0.15,0.01,0.3-0.02,0.44-0.07c0.14-0.05,0.27-0.14,0.38-0.23
		c0.11-0.11,0.2-0.23,0.26-0.36c0.06-0.14,0.09-0.29,0.09-0.44c0-0.15-0.03-0.29-0.09-0.44c-0.06-0.14-0.14-0.26-0.26-0.36
		c-0.11-0.11-0.23-0.18-0.38-0.23c-0.14-0.05-0.29-0.08-0.44-0.07h2.21c0.29-0.02,0.55-0.14,0.75-0.34c0.2-0.2,0.31-0.48,0.31-0.76
		c0-0.29-0.11-0.56-0.31-0.76C85.84,92.18,85.56,92.06,85.28,92.05z"/>
	<path class="st14" d="M218.03,180.93c0,0-5.67-19.25,1.06-33.42c2.83-5.95,3.77-12.63,2.46-19.08c-0.63-3.06-1.53-6.07-2.7-8.97"/>
	<path class="st2" d="M223.03,110.52c0,2.36-4.27,9.19-4.27,9.19s-4.27-6.84-4.27-9.19c-0.02-0.57,0.09-1.13,0.29-1.67
		c0.21-0.53,0.52-1.01,0.92-1.42c0.4-0.41,0.88-0.73,1.4-0.95c0.53-0.22,1.09-0.33,1.66-0.33s1.13,0.11,1.66,0.33s1,0.54,1.4,0.95
		c0.4,0.41,0.71,0.89,0.92,1.42C222.94,109.39,223.04,109.96,223.03,110.52L223.03,110.52z"/>
	<path class="st2" d="M230.1,123.59c-1.28,1.98-8.59,5.4-8.59,5.4s0.14-8.07,1.42-10.04c0.63-0.92,1.59-1.55,2.69-1.77
		s2.23-0.01,3.16,0.6c0.94,0.6,1.6,1.55,1.84,2.64C230.87,121.5,230.68,122.64,230.1,123.59L230.1,123.59z"/>
	<path class="st2" d="M229.79,145.93c-2.11,1.06-10.14,0.32-10.14,0.32s4.19-6.9,6.29-7.95c0.51-0.26,1.05-0.43,1.61-0.48
		c0.57-0.05,1.14,0.02,1.68,0.18c0.54,0.17,1.04,0.45,1.48,0.82c0.43,0.37,0.78,0.82,1.04,1.33c0.26,0.51,0.41,1.06,0.45,1.63
		c0.04,0.57-0.04,1.14-0.22,1.68c-0.18,0.54-0.47,1.03-0.85,1.46C230.76,145.33,230.31,145.68,229.79,145.93L229.79,145.93z"/>
	<path class="st2" d="M225.75,162.77c-1.89,1.4-9.94,2.04-9.94,2.04s2.96-7.5,4.86-8.9c0.45-0.34,0.97-0.59,1.51-0.72
		c0.55-0.14,1.12-0.17,1.68-0.09c0.56,0.08,1.09,0.27,1.58,0.56c0.48,0.29,0.91,0.67,1.24,1.12c0.34,0.45,0.58,0.97,0.72,1.52
		c0.14,0.55,0.16,1.12,0.08,1.68c-0.08,0.56-0.28,1.09-0.57,1.58C226.59,162.02,226.21,162.44,225.75,162.77z"/>
	<path class="st2" d="M212.54,129.45c1.69,1.65,9.58,3.34,9.58,3.34s-1.93-7.83-3.62-9.48c-0.82-0.75-1.9-1.16-3.02-1.14
		c-1.12,0.03-2.17,0.49-2.95,1.29c-0.78,0.8-1.21,1.87-1.21,2.99C211.33,127.58,211.76,128.66,212.54,129.45L212.54,129.45z"/>
	<path class="st2" d="M208.07,149.21c2.11,1.06,10.14,0.32,10.14,0.32s-4.19-6.9-6.29-7.95c-0.51-0.26-1.05-0.43-1.61-0.48
		s-1.14,0.02-1.68,0.18c-0.54,0.17-1.04,0.45-1.48,0.82c-0.43,0.37-0.78,0.82-1.04,1.33c-0.26,0.51-0.41,1.06-0.45,1.63
		s0.04,1.14,0.22,1.68c0.18,0.54,0.48,1.03,0.85,1.46C207.09,148.62,207.55,148.96,208.07,149.21L208.07,149.21z"/>
	<path class="st2" d="M206.35,169.01c1.89,1.4,9.94,2.04,9.94,2.04s-2.96-7.5-4.86-8.9c-0.45-0.34-0.97-0.59-1.51-0.72
		c-0.54-0.14-1.12-0.17-1.68-0.09c-0.56,0.08-1.09,0.27-1.58,0.56c-0.48,0.29-0.91,0.67-1.24,1.12c-0.33,0.45-0.57,0.97-0.72,1.52
		c-0.14,0.54-0.16,1.12-0.08,1.68s0.28,1.09,0.57,1.58C205.52,168.26,205.9,168.68,206.35,169.01L206.35,169.01z"/>
	<path class="st12" d="M223.03,110.52c0,2.36-4.27,9.19-4.27,9.19s-4.27-6.84-4.27-9.19c-0.02-0.57,0.09-1.13,0.29-1.67
		c0.21-0.53,0.52-1.01,0.92-1.42c0.4-0.41,0.88-0.73,1.4-0.95c0.53-0.22,1.09-0.33,1.66-0.33s1.13,0.11,1.66,0.33s1,0.54,1.4,0.95
		c0.4,0.41,0.71,0.89,0.92,1.42C222.94,109.39,223.04,109.96,223.03,110.52L223.03,110.52z"/>
	<path class="st12" d="M230.1,123.59c-1.28,1.98-8.59,5.4-8.59,5.4s0.14-8.07,1.42-10.04c0.63-0.92,1.59-1.55,2.69-1.77
		s2.23-0.01,3.16,0.6c0.94,0.6,1.6,1.55,1.84,2.64C230.87,121.5,230.68,122.64,230.1,123.59L230.1,123.59z"/>
	<path class="st12" d="M229.79,145.93c-2.11,1.06-10.14,0.32-10.14,0.32s4.19-6.9,6.29-7.95c0.51-0.26,1.05-0.43,1.61-0.48
		c0.57-0.05,1.14,0.02,1.68,0.18c0.54,0.17,1.04,0.45,1.48,0.82c0.43,0.37,0.78,0.82,1.04,1.33c0.26,0.51,0.41,1.06,0.45,1.63
		c0.04,0.57-0.04,1.14-0.22,1.68c-0.18,0.54-0.47,1.03-0.85,1.46C230.76,145.33,230.31,145.68,229.79,145.93L229.79,145.93z"/>
	<path class="st12" d="M225.75,162.77c-1.89,1.4-9.94,2.04-9.94,2.04s2.96-7.5,4.86-8.9c0.45-0.34,0.97-0.59,1.51-0.72
		c0.55-0.14,1.12-0.17,1.68-0.09c0.56,0.08,1.09,0.27,1.58,0.56c0.48,0.29,0.91,0.67,1.24,1.12c0.34,0.45,0.58,0.97,0.72,1.52
		c0.14,0.55,0.16,1.12,0.08,1.68c-0.08,0.56-0.28,1.09-0.57,1.58C226.59,162.02,226.21,162.44,225.75,162.77z"/>
	<path class="st12" d="M212.54,129.45c1.69,1.65,9.58,3.34,9.58,3.34s-1.93-7.83-3.62-9.48c-0.82-0.75-1.9-1.16-3.02-1.14
		c-1.12,0.03-2.17,0.49-2.95,1.29c-0.78,0.8-1.21,1.87-1.21,2.99C211.33,127.58,211.76,128.66,212.54,129.45L212.54,129.45z"/>
	<path class="st12" d="M208.07,149.21c2.11,1.06,10.14,0.32,10.14,0.32s-4.19-6.9-6.29-7.95c-0.51-0.26-1.05-0.43-1.61-0.48
		s-1.14,0.02-1.68,0.18c-0.54,0.17-1.04,0.45-1.48,0.82c-0.43,0.37-0.78,0.82-1.04,1.33c-0.26,0.51-0.41,1.06-0.45,1.63
		s0.04,1.14,0.22,1.68c0.18,0.54,0.48,1.03,0.85,1.46C207.09,148.62,207.55,148.96,208.07,149.21L208.07,149.21z"/>
	<path class="st12" d="M206.35,169.01c1.89,1.4,9.94,2.04,9.94,2.04s-2.96-7.5-4.86-8.9c-0.45-0.34-0.97-0.59-1.51-0.72
		c-0.54-0.14-1.12-0.17-1.68-0.09c-0.56,0.08-1.09,0.27-1.58,0.56c-0.48,0.29-0.91,0.67-1.24,1.12c-0.33,0.45-0.57,0.97-0.72,1.52
		c-0.14,0.54-0.16,1.12-0.08,1.68s0.28,1.09,0.57,1.58C205.52,168.26,205.9,168.68,206.35,169.01L206.35,169.01z"/>
	<path class="st14" d="M84.26,180.47c0,0-5.67-19.25,1.06-33.42c2.83-5.95,3.77-12.63,2.46-19.08c-0.63-3.06-1.53-6.07-2.7-8.97"/>
	<path class="st2" d="M89.26,110.06c0,2.36-4.27,9.19-4.27,9.19s-4.27-6.84-4.27-9.19c-0.02-0.57,0.09-1.14,0.29-1.67
		c0.21-0.53,0.52-1.01,0.92-1.42c0.4-0.41,0.88-0.73,1.4-0.95c0.53-0.22,1.09-0.33,1.66-0.33s1.13,0.11,1.66,0.33
		c0.53,0.22,1,0.54,1.4,0.95c0.4,0.41,0.71,0.89,0.92,1.42C89.17,108.93,89.27,109.5,89.26,110.06L89.26,110.06z"/>
	<path class="st2" d="M96.33,123.13c-1.28,1.98-8.59,5.4-8.59,5.4s0.14-8.07,1.42-10.04c0.63-0.92,1.59-1.55,2.69-1.77
		c1.09-0.22,2.23-0.01,3.16,0.6c0.94,0.6,1.6,1.55,1.84,2.64C97.1,121.04,96.91,122.18,96.33,123.13L96.33,123.13z"/>
	<path class="st2" d="M96.02,145.47c-2.11,1.06-10.14,0.33-10.14,0.33s4.19-6.9,6.29-7.95c1.01-0.48,2.17-0.55,3.22-0.2
		c1.06,0.35,1.93,1.12,2.44,2.12c0.51,1,0.6,2.16,0.26,3.22C97.76,144.06,97.01,144.94,96.02,145.47L96.02,145.47z"/>
	<path class="st2" d="M91.99,162.31c-1.89,1.4-9.94,2.04-9.94,2.04s2.96-7.5,4.86-8.9c0.45-0.34,0.97-0.59,1.51-0.72
		s1.12-0.17,1.68-0.09s1.09,0.27,1.58,0.56s0.91,0.67,1.24,1.12c0.33,0.45,0.58,0.97,0.71,1.52c0.14,0.54,0.16,1.12,0.08,1.68
		c-0.08,0.56-0.28,1.09-0.57,1.58C92.82,161.56,92.44,161.98,91.99,162.31z"/>
	<path class="st2" d="M78.77,128.99c1.69,1.65,9.58,3.34,9.58,3.34s-1.93-7.83-3.62-9.48c-0.82-0.75-1.9-1.16-3.02-1.14
		c-1.12,0.03-2.17,0.49-2.95,1.29c-0.78,0.8-1.21,1.87-1.21,2.99C77.56,127.12,77.99,128.2,78.77,128.99L78.77,128.99z"/>
	<path class="st2" d="M74.3,148.75c2.11,1.06,10.14,0.32,10.14,0.32s-4.19-6.9-6.29-7.95c-1.01-0.48-2.17-0.55-3.22-0.19
		c-1.06,0.36-1.93,1.12-2.44,2.12c-0.51,1-0.6,2.16-0.26,3.22C72.57,147.33,73.31,148.22,74.3,148.75L74.3,148.75z"/>
	<path class="st2" d="M72.59,168.55c1.89,1.4,9.94,2.04,9.94,2.04s-2.96-7.5-4.86-8.9c-0.45-0.34-0.97-0.59-1.51-0.72
		c-0.54-0.14-1.12-0.17-1.68-0.09c-0.56,0.08-1.09,0.27-1.58,0.56s-0.91,0.67-1.24,1.12c-0.33,0.45-0.58,0.97-0.71,1.52
		c-0.14,0.55-0.16,1.12-0.08,1.68c0.08,0.56,0.28,1.09,0.57,1.58C71.75,167.81,72.13,168.22,72.59,168.55L72.59,168.55z"/>
	<path class="st12" d="M89.26,110.06c0,2.36-4.27,9.19-4.27,9.19s-4.27-6.84-4.27-9.19c-0.02-0.57,0.09-1.14,0.29-1.67
		c0.21-0.53,0.52-1.01,0.92-1.42c0.4-0.41,0.88-0.73,1.4-0.95c0.53-0.22,1.09-0.33,1.66-0.33s1.13,0.11,1.66,0.33
		c0.53,0.22,1,0.54,1.4,0.95c0.4,0.41,0.71,0.89,0.92,1.42C89.17,108.93,89.27,109.5,89.26,110.06L89.26,110.06z"/>
	<path class="st12" d="M96.33,123.13c-1.28,1.98-8.59,5.4-8.59,5.4s0.14-8.07,1.42-10.04c0.63-0.92,1.59-1.55,2.69-1.77
		c1.09-0.22,2.23-0.01,3.16,0.6c0.94,0.6,1.6,1.55,1.84,2.64C97.1,121.04,96.91,122.18,96.33,123.13L96.33,123.13z"/>
	<path class="st12" d="M96.02,145.47c-2.11,1.06-10.14,0.33-10.14,0.33s4.19-6.9,6.29-7.95c1.01-0.48,2.17-0.55,3.22-0.2
		c1.06,0.35,1.93,1.12,2.44,2.12c0.51,1,0.6,2.16,0.26,3.22C97.76,144.06,97.01,144.94,96.02,145.47L96.02,145.47z"/>
	<path class="st12" d="M91.99,162.31c-1.89,1.4-9.94,2.04-9.94,2.04s2.96-7.5,4.86-8.9c0.45-0.34,0.97-0.59,1.51-0.72
		s1.12-0.17,1.68-0.09s1.09,0.27,1.58,0.56s0.91,0.67,1.24,1.12c0.33,0.45,0.58,0.97,0.71,1.52c0.14,0.54,0.16,1.12,0.08,1.68
		c-0.08,0.56-0.28,1.09-0.57,1.58C92.82,161.56,92.44,161.98,91.99,162.31z"/>
	<path class="st12" d="M78.77,128.99c1.69,1.65,9.58,3.34,9.58,3.34s-1.93-7.83-3.62-9.48c-0.82-0.75-1.9-1.16-3.02-1.14
		c-1.12,0.03-2.17,0.49-2.95,1.29c-0.78,0.8-1.21,1.87-1.21,2.99C77.56,127.12,77.99,128.2,78.77,128.99L78.77,128.99z"/>
	<path class="st12" d="M74.3,148.75c2.11,1.06,10.14,0.32,10.14,0.32s-4.19-6.9-6.29-7.95c-1.01-0.48-2.17-0.55-3.22-0.19
		c-1.06,0.36-1.93,1.12-2.44,2.12c-0.51,1-0.6,2.16-0.26,3.22C72.57,147.33,73.31,148.22,74.3,148.75L74.3,148.75z"/>
	<path class="st12" d="M72.59,168.55c1.89,1.4,9.94,2.04,9.94,2.04s-2.96-7.5-4.86-8.9c-0.45-0.34-0.97-0.59-1.51-0.72
		c-0.54-0.14-1.12-0.17-1.68-0.09c-0.56,0.08-1.09,0.27-1.58,0.56s-0.91,0.67-1.24,1.12c-0.33,0.45-0.58,0.97-0.71,1.52
		c-0.14,0.55-0.16,1.12-0.08,1.68c0.08,0.56,0.28,1.09,0.57,1.58C71.75,167.81,72.13,168.22,72.59,168.55L72.59,168.55z"/>
</g>
<rect x="36.86" y="26.04" class="st15" width="226.4" height="159.28"/>
</svg>
