<?xml version="1.0" encoding="utf-8"?>
<!-- Generator: Adobe Illustrator 25.0.0, SVG Export Plug-In . SVG Version: 6.00 Build 0)  -->
<svg version="1.1" id="Layer_1" xmlns="http://www.w3.org/2000/svg" xmlns:xlink="http://www.w3.org/1999/xlink" x="0px" y="0px"
	 viewBox="0 0 671.98 437" style="enable-background:new 0 0 671.98 437;" xml:space="preserve">
<style type="text/css">
	.st0{clip-path:url(#SVGID_2_);}
	.st1{fill:#575DA7;}
	.st2{fill:#F2F2F2;}
	.st3{fill:#403D56;}
	.st4{fill:#2F2F41;}
	.st5{fill:#A1616A;}
	.st6{fill:#E6E6E6;}
	.st7{fill:#F6B6B8;}
	.st8{fill:#CDCCCC;}
</style>
<g>
	<defs>
		<rect id="SVGID_1_" x="25.94" width="620.46" height="437.25"/>
	</defs>
	<clipPath id="SVGID_2_">
		<use xlink:href="#SVGID_1_"  style="overflow:visible;"/>
	</clipPath>
	<g class="st0">
		<path class="st1" d="M342.82,436.32c18.66,0,33.79-15.13,33.79-33.79c0-18.66-15.13-33.79-33.79-33.79s-33.79,15.13-33.79,33.79
			C309.03,421.2,324.16,436.32,342.82,436.32z"/>
		<path class="st2" d="M544.68,434.43c18.9-5.68,39-11.6,53.99-25.09c13.4-12.06,22.44-30.48,16.89-48.56
			c-5.54-18.05-22.13-30.08-39.26-36.07c-9.71-3.4-19.88-5.28-30.04-6.76c-11.04-1.61-22.14-2.93-33.22-4.2
			c-44.89-5.13-89.96-8.27-135.19-9.41c-22.32-0.56-44.63-0.55-66.96-0.22c-19.94,0.29-40.93,0.28-59.43-8.19
			c-14.38-6.59-27.43-18.58-31.44-34.33c-4.62-18.18,3.91-36.7,16.15-49.87c6.45-6.94,13.99-12.78,21.77-18.16
			c8.44-5.83,17.17-11.24,26.09-16.3c17.57-9.95,35.94-18.42,54.92-25.32c9.36-3.4,18.86-6.34,28.45-9.05
			c8.09-2.29,16.21-4.58,24.03-7.7c15.12-6.03,29.5-16.23,33.35-32.97c3.64-15.86-2.5-33.08-13.27-44.86
			c-12.46-13.63-31.25-19.61-49.26-20.57c-20.22-1.09-39.98,3.98-58.98,10.4c-20.27,6.85-40.11,14.73-60.8,20.28
			c-20.53,5.5-41.45,9.39-62.58,11.63c-10.34,1.1-21,2.35-31.41,1.5c-8.72-0.71-17.4-3.27-23.82-9.46
			c-5.51-5.31-8.79-12.6-7.67-20.3c0.2-1.4,2.33-0.8,2.12,0.59c-1.37,9.37,4.99,18,12.84,22.43c9.07,5.11,20.11,5.12,30.21,4.53
			c21.9-1.32,43.64-4.47,65.02-9.4c21-4.8,41.26-11.65,61.48-18.98c19.21-6.96,38.86-13.75,59.38-15.25
			c17.81-1.31,36.55,1.29,52.06,10.59c13.64,8.18,23.66,21.82,26.86,37.48c3.12,15.3-1.2,30.69-12.78,41.37
			c-11.99,11.05-28.43,15.78-43.75,20.13c-19.43,5.52-38.44,11.97-56.85,20.35c-18.65,8.47-36.55,18.53-53.47,30.06
			c-16.34,11.17-32.47,25.22-37.64,45.14c-2.41,9.28-1.96,19.12,2.06,27.89c3.58,7.79,9.48,14.35,16.35,19.4
			c16.4,12.07,37.06,14.54,56.86,14.79c22.24,0.28,44.49-0.47,66.74-0.11c45.35,0.74,90.6,3.5,135.76,8.28
			c11.32,1.2,22.62,2.52,33.9,3.97c10.15,1.3,20.34,2.6,30.32,4.92c17.75,4.12,35.02,12.04,46.05,27.09
			c4.9,6.52,7.93,14.25,8.78,22.36c0.77,8.46-1.3,16.94-5.13,24.48c-8.47,16.67-24.34,27.27-41.19,34.23
			c-9.03,3.73-18.39,6.56-27.73,9.36C543.9,436.96,543.32,434.83,544.68,434.43L544.68,434.43z"/>
		<path class="st2" d="M118.41,68.68c9.74,0,17.63-7.89,17.63-17.63c0-9.74-7.89-17.63-17.63-17.63s-17.63,7.89-17.63,17.63
			C100.78,60.79,108.68,68.68,118.41,68.68z"/>
		<path class="st2" d="M240.72,102.1c9.74,0,17.63-7.89,17.63-17.63s-7.89-17.63-17.63-17.63c-9.74,0-17.63,7.89-17.63,17.63
			S230.98,102.1,240.72,102.1z"/>
		<path class="st2" d="M344.29,35.26c9.74,0,17.63-7.89,17.63-17.63c0-9.74-7.89-17.63-17.63-17.63c-9.74,0-17.63,7.89-17.63,17.63
			C326.66,27.37,334.55,35.26,344.29,35.26z"/>
		<path class="st2" d="M408.93,110.18c9.74,0,17.63-7.89,17.63-17.63c0-9.74-7.89-17.63-17.63-17.63c-9.74,0-17.63,7.89-17.63,17.63
			C391.3,102.29,399.19,110.18,408.93,110.18z"/>
		<path class="st2" d="M321.52,196.86c9.74,0,17.63-7.89,17.63-17.63s-7.89-17.63-17.63-17.63c-9.74,0-17.63,7.89-17.63,17.63
			S311.78,196.86,321.52,196.86z"/>
		<path class="st2" d="M210.6,238.73c9.74,0,17.63-7.89,17.63-17.63c0-9.74-7.89-17.63-17.63-17.63c-9.74,0-17.63,7.89-17.63,17.63
			C192.97,230.84,200.86,238.73,210.6,238.73z"/>
		<path class="st2" d="M328.13,304.11c9.74,0,17.63-7.89,17.63-17.63c0-9.74-7.89-17.63-17.63-17.63c-9.74,0-17.63,7.89-17.63,17.63
			C310.5,296.21,318.39,304.11,328.13,304.11z"/>
		<path class="st2" d="M454.47,340.83c9.74,0,17.63-7.89,17.63-17.63c0-9.74-7.89-17.63-17.63-17.63c-9.74,0-17.63,7.89-17.63,17.63
			C436.84,332.94,444.73,340.83,454.47,340.83z"/>
		<path class="st2" d="M602.12,332.75c9.74,0,17.63-7.89,17.63-17.63c0-9.74-7.89-17.63-17.63-17.63c-9.74,0-17.63,7.89-17.63,17.63
			C584.49,324.86,592.38,332.75,602.12,332.75z"/>
		<path class="st1" d="M339.2,49.95c-52.81,0.37-96.05,43.29-96.8,96.09c-0.01,0.49-0.01,3.92-0.01,8.4
			c0,6.57,2.61,12.88,7.26,17.53c4.65,4.65,10.95,7.26,17.53,7.26l0,0c3.26,0,6.49-0.64,9.5-1.89c3.01-1.25,5.75-3.08,8.05-5.38
			c2.3-2.31,4.13-5.04,5.37-8.05c1.25-3.01,1.88-6.24,1.88-9.5c0-3.05-0.01-5.16-0.01-5.29c0-8.16,2.12-16.18,6.16-23.27
			c4.04-7.09,9.85-13.01,16.87-17.17c7.02-4.16,15-6.43,23.16-6.57c8.16-0.14,16.22,1.84,23.38,5.76
			c7.16,3.92,13.18,9.63,17.46,16.57c4.28,6.95,6.68,14.89,6.97,23.04c0.28,8.16-1.56,16.24-5.36,23.47
			c-3.79,7.23-9.4,13.34-16.27,17.74l0.01,0.01c0,0-35.28,22.71-46.04,53.87l0.01,0c-1.89,6.38-2.85,13-2.85,19.66
			c0,2.74,0.16,26.68,0.47,46.11c0.11,6.71,2.85,13.1,7.63,17.8c4.78,4.7,11.22,7.34,17.92,7.34l0,0c3.37,0,6.71-0.67,9.82-1.96
			c3.11-1.29,5.94-3.19,8.31-5.58s4.26-5.23,5.53-8.34c1.27-3.12,1.92-6.46,1.9-9.83c-0.11-17.8-0.17-38.52-0.17-40.02
			c0-19.13,18.46-38.19,33.62-50.62c17.46-14.31,30.02-33.82,35.06-55.83c1.12-4.53,1.73-9.17,1.84-13.83
			c0-12.86-2.55-25.6-7.49-37.48s-12.19-22.66-21.32-31.72s-19.96-16.23-31.87-21.09C364.82,52.31,352.06,49.86,339.2,49.95z"/>
		<path class="st3" d="M645.52,437.25H26.81c-0.23,0-0.45-0.09-0.62-0.26c-0.16-0.16-0.26-0.39-0.26-0.62
			c0-0.23,0.09-0.45,0.26-0.62c0.16-0.16,0.39-0.26,0.62-0.26h618.71c0.23,0,0.45,0.09,0.62,0.26c0.16,0.16,0.26,0.39,0.26,0.62
			c0,0.23-0.09,0.45-0.26,0.62S645.75,437.25,645.52,437.25z"/>
		<path class="st4" d="M487.57,200.53c12.17,0,22.04-9.87,22.04-22.04c0-12.17-9.87-22.04-22.04-22.04s-22.04,9.87-22.04,22.04
			C465.53,190.66,475.4,200.53,487.57,200.53z"/>
		<path class="st5" d="M446.85,427.6h-9.01l-4.28-34.74h13.29L446.85,427.6z"/>
		<path class="st4" d="M431.41,425.03h17.37v10.93h-28.3c0-1.44,0.28-2.86,0.83-4.19c0.55-1.33,1.35-2.53,2.37-3.55
			c1.01-1.02,2.22-1.82,3.55-2.37C428.55,425.31,429.97,425.03,431.41,425.03z"/>
		<path class="st5" d="M516.63,427.6h-9.01l-4.28-34.74h13.29L516.63,427.6z"/>
		<path class="st4" d="M501.19,425.03h17.37v10.93h-28.3c0-1.44,0.28-2.86,0.83-4.19c0.55-1.33,1.36-2.53,2.37-3.55
			c1.02-1.02,2.22-1.82,3.55-2.37C498.33,425.31,499.75,425.03,501.19,425.03z"/>
		<path class="st5" d="M484.22,200.66c9.96,0,18.04-8.08,18.04-18.04s-8.08-18.04-18.04-18.04c-9.96,0-18.04,8.08-18.04,18.04
			S474.25,200.66,484.22,200.66z"/>
		<path class="st4" d="M494.97,258.86l8.07-18.55c1.96-4.35,2.52-9.2,1.61-13.89c-0.92-4.68-3.26-8.97-6.71-12.26
			c-0.71-0.7-1.46-1.36-2.26-1.96c-3.98-3.12-8.89-4.81-13.95-4.83c-3.4,0.01-6.76,0.76-9.84,2.19c-0.27,0.12-0.52,0.24-0.79,0.37
			c-0.51,0.24-1.01,0.51-1.49,0.78c-3.16,1.81-5.85,4.35-7.86,7.4c-2,3.05-3.26,6.52-3.68,10.14l-3.56,29.85
			c-0.9,2.34-32.86,86.96-21.68,151.57c0.12,0.69,0.45,1.32,0.96,1.81s1.15,0.8,1.85,0.89l11.33,1.54c0.83,0.11,1.67-0.09,2.35-0.57
			c0.68-0.48,1.16-1.2,1.33-2.02l19.02-90.65c0.12-0.56,0.42-1.07,0.86-1.44c0.44-0.37,0.99-0.58,1.57-0.6
			c0.58-0.02,1.14,0.15,1.61,0.49c0.46,0.34,0.8,0.83,0.96,1.38l26.87,95.33c0.19,0.69,0.6,1.3,1.18,1.74
			c0.57,0.44,1.27,0.67,1.99,0.67c0.21,0,0.43-0.02,0.64-0.06l13.85-2.67c0.81-0.15,1.52-0.6,2.02-1.25
			c0.49-0.65,0.73-1.47,0.65-2.28C519.82,389.29,509.01,275.63,494.97,258.86z"/>
		<path class="st5" d="M414.11,197.63c-0.13,1.07-0.02,2.16,0.33,3.19c0.34,1.02,0.9,1.96,1.64,2.75c0.74,0.79,1.65,1.4,2.65,1.79
			c1,0.4,2.08,0.57,3.16,0.5l10.09,24.23l7.63-11.31l-10.75-21.28c-0.23-1.8-1.11-3.46-2.48-4.66c-1.37-1.2-3.13-1.85-4.95-1.83
			c-1.82,0.02-3.57,0.7-4.92,1.92C415.16,194.15,414.3,195.82,414.11,197.63L414.11,197.63z"/>
		<path class="st5" d="M483.22,283.26c1.07-0.13,2.1-0.49,3.02-1.06c0.92-0.57,1.7-1.33,2.29-2.24c0.59-0.9,0.97-1.93,1.13-3
			c0.15-1.07,0.07-2.16-0.25-3.19l21.22-15.45l-12.77-4.78l-18.19,15.41c-1.7,0.64-3.11,1.89-3.95,3.5
			c-0.84,1.61-1.07,3.47-0.63,5.24c0.44,1.76,1.51,3.31,3.01,4.33C479.59,283.05,481.41,283.49,483.22,283.26z"/>
		<path class="st4" d="M448.63,246.25c-0.81,0-1.62-0.08-2.42-0.24c-1.93-0.37-3.74-1.2-5.27-2.44c-1.53-1.23-2.73-2.82-3.5-4.63
			l-14.13-17.23c-0.3-0.36-0.52-0.79-0.64-1.24c-0.12-0.46-0.14-0.93-0.07-1.4c0.08-0.46,0.25-0.91,0.52-1.3
			c0.26-0.39,0.6-0.72,1-0.97l10.05-6.22c0.37-0.23,0.78-0.38,1.21-0.45c0.43-0.07,0.87-0.05,1.3,0.05c0.42,0.1,0.82,0.29,1.18,0.54
			c0.35,0.26,0.65,0.58,0.88,0.95l9.96,16.41L467.76,214c1.52-0.8,3.27-1.02,4.94-0.63c1.67,0.39,3.14,1.37,4.15,2.76
			c1.01,1.39,1.48,3.09,1.34,4.8c-0.14,1.71-0.9,3.31-2.12,4.51l-19.03,17.36C454.8,245.01,451.78,246.25,448.63,246.25z"/>
		<path class="st4" d="M500.16,272.16c-0.03,0-0.05,0-0.08,0c-0.46-0.01-0.92-0.12-1.34-0.32c-0.42-0.2-0.79-0.48-1.09-0.83
			l-8.94-10.43c-0.3-0.35-0.53-0.77-0.66-1.22c-0.13-0.45-0.17-0.92-0.1-1.38c0.06-0.46,0.22-0.91,0.47-1.3
			c0.25-0.4,0.58-0.74,0.97-0.99l16.74-11.16l-15.16-18.23c-0.88-1.47-1.21-3.21-0.91-4.9c0.29-1.69,1.19-3.22,2.51-4.3
			c1.33-1.09,3-1.66,4.71-1.61c1.72,0.05,3.35,0.71,4.62,1.86l18.43,18.01c1.45,1.32,2.56,2.98,3.23,4.83
			c0.67,1.85,0.88,3.83,0.61,5.77c-0.27,1.95-1,3.8-2.14,5.4c-1.14,1.6-2.65,2.9-4.4,3.79l-15.06,15.98
			c-0.31,0.33-0.68,0.59-1.1,0.77C501.05,272.07,500.61,272.16,500.16,272.16z"/>
		<path class="st6" d="M479.63,233.75c-0.14,0-0.29-0.01-0.43-0.03c-0.62-0.08-1.21-0.33-1.69-0.73c-0.48-0.4-0.84-0.93-1.03-1.53
			l-6.72-20.59c-0.17-0.52-0.14-1.08,0.07-1.59c0.21-0.5,0.6-0.91,1.1-1.15l0.22-0.1c0.2-0.09,0.39-0.19,0.59-0.28
			c3.13-1.45,6.54-2.21,9.99-2.22c4.48,0.01,8.86,1.32,12.61,3.79c0.5,0.33,0.85,0.85,0.98,1.44c0.12,0.59,0.01,1.21-0.32,1.71
			l-12.6,19.74c-0.3,0.47-0.7,0.85-1.19,1.12C480.73,233.61,480.18,233.75,479.63,233.75z"/>
		<path class="st4" d="M504.94,168.66c3.98,0,7.21-3.23,7.21-7.21s-3.23-7.21-7.21-7.21c-3.98,0-7.21,3.23-7.21,7.21
			S500.96,168.66,504.94,168.66z"/>
		<path class="st4" d="M480.22,153.52c-5.06,0-9.92,2.01-13.5,5.59c-3.58,3.58-5.59,8.44-5.59,13.5v8.08h9.94l4.75-8.08l1.43,8.08
			h30.16l-8.08-8.08c0-5.06-2.01-9.92-5.59-13.5C490.14,155.53,485.29,153.52,480.22,153.52z"/>
		<path class="st4" d="M508.65,156.51c0.8-2.49,2.45-4.63,4.66-6.02c2.21-1.4,4.85-1.97,7.44-1.61c4.6,0.77,8.23,4.46,10.39,8.59
			c2.16,4.13,3.16,8.74,4.62,13.17c1.46,4.43,3.52,8.88,7.19,11.74s9.31,3.64,12.92,0.69c-0.41,3.07-1.78,5.94-3.91,8.19
			c-2.13,2.25-4.91,3.78-7.96,4.36c-3.04,0.58-6.19,0.19-9.01-1.11c-2.81-1.31-5.14-3.46-6.66-6.16c-1.9-3.39-2.4-7.36-2.96-11.2
			c-0.57-3.84-1.3-7.82-3.57-10.97c-2.27-3.15-6.53-5.21-10.14-3.77L508.65,156.51z"/>
		<path class="st3" d="M274.18,167.51c-6.57,0-12.88-2.61-17.53-7.26c-4.65-4.65-7.26-10.95-7.26-17.53c0-4.48,0-7.91,0.01-8.4
			c0.21-15.36,4.08-30.44,11.28-44.01c-11.84,16.21-18.35,35.69-18.63,55.76c-0.01,0.49-0.01,3.92-0.01,8.4
			c0,6.57,2.61,12.88,7.26,17.53c4.65,4.65,10.95,7.26,17.53,7.26c5.4,0,10.66-1.77,14.96-5.03c4.31-3.26,7.43-7.84,8.9-13.04
			C286.16,165.27,280.27,167.51,274.18,167.51z"/>
		<path class="st3" d="M340.88,102.18c7.6,0.36,15,2.57,21.56,6.42c6.56,3.85,12.09,9.24,16.11,15.7c4.02,6.46,6.41,13.8,6.97,21.39
			c0.56,7.59-0.73,15.2-3.76,22.18c4.38-5.15,7.6-11.18,9.44-17.68c1.84-6.5,2.26-13.33,1.22-20.01c-1.04-6.68-3.5-13.06-7.23-18.7
			c-3.72-5.64-8.62-10.41-14.36-13.99c-5.73-3.58-12.17-5.87-18.88-6.74c-6.7-0.86-13.51-0.27-19.97,1.74
			c-6.45,2.01-12.4,5.38-17.43,9.9c-5.03,4.51-9.03,10.06-11.72,16.26c4.65-5.47,10.5-9.81,17.1-12.66
			C326.54,103.14,333.7,101.83,340.88,102.18z"/>
		<path class="st3" d="M348.51,321.76c-6.71,0-13.14-2.63-17.93-7.34c-4.78-4.7-7.52-11.1-7.63-17.8
			c-0.31-19.43-0.47-43.38-0.47-46.11c-0.01-6.66,0.95-13.28,2.84-19.66l-0.01,0c1.12-3.2,2.46-6.32,4.03-9.33
			c-4.82,6.42-8.66,13.53-11.38,21.08l0.01,0c-1.89,6.38-2.85,13-2.84,19.66c0,2.74,0.16,26.68,0.47,46.11
			c0.11,6.71,2.85,13.1,7.63,17.8c4.78,4.7,11.22,7.34,17.93,7.34c5.53,0,10.91-1.79,15.33-5.11c4.42-3.32,7.65-7.98,9.2-13.29
			C361,319.4,354.86,321.77,348.51,321.76z"/>
		<path class="st7" d="M118.89,427.94h9.01l4.28-34.74h-13.29L118.89,427.94z"/>
		<path class="st4" d="M145.26,436.3l-28.3,0l0-10.94h17.37c2.9,0,5.68,1.15,7.73,3.2C144.11,430.62,145.26,433.4,145.26,436.3
			L145.26,436.3z"/>
		<path class="st7" d="M86.57,427.94h9l4.28-34.74H86.57L86.57,427.94z"/>
		<path class="st4" d="M112.94,436.3l-28.3,0l0-10.94h17.37c2.9,0,5.68,1.15,7.73,3.2C111.79,430.62,112.94,433.4,112.94,436.3
			L112.94,436.3z"/>
		<path class="st4" d="M94.44,417.26l-8.8-0.46c-0.45-0.02-0.9-0.14-1.31-0.33c-0.41-0.2-0.78-0.47-1.08-0.81
			c-0.3-0.34-0.53-0.73-0.68-1.16c-0.15-0.43-0.21-0.88-0.18-1.34l10.51-116.4l48.42,13.07l4.66-1.27L131.4,411.58
			c-0.12,0.78-0.51,1.49-1.09,2.01c-0.58,0.53-1.33,0.84-2.11,0.89l-9.48,0.44c-0.47,0.03-0.95-0.05-1.39-0.21
			c-0.44-0.17-0.85-0.42-1.19-0.75c-0.34-0.33-0.61-0.73-0.79-1.17c-0.18-0.44-0.26-0.91-0.25-1.39l1.72-61.85
			c0.01-0.29-0.09-0.57-0.28-0.78c-0.19-0.22-0.45-0.35-0.73-0.39c-0.28-0.03-0.57,0.04-0.8,0.21c-0.23,0.17-0.39,0.42-0.45,0.7
			l-16.57,65.24c-0.16,0.77-0.58,1.47-1.19,1.97c-0.61,0.5-1.38,0.77-2.17,0.77C94.56,417.26,94.5,417.26,94.44,417.26z"/>
		<path class="st7" d="M120.51,201.5c9.96,0,18.04-8.08,18.04-18.04s-8.08-18.04-18.04-18.04c-9.96,0-18.04,8.08-18.04,18.04
			S110.54,201.5,120.51,201.5z"/>
		<path class="st8" d="M90.47,236.47l1.98,42.8l0.72,15.57c0.03,0.68,0.26,1.33,0.66,1.88c0.4,0.55,0.96,0.96,1.6,1.19l46.52,16.85
			c0.38,0.14,0.77,0.21,1.17,0.21c0.46,0,0.91-0.09,1.33-0.27c0.42-0.18,0.81-0.44,1.13-0.77s0.57-0.72,0.74-1.14
			c0.17-0.43,0.24-0.88,0.23-1.34l-1.91-76.96c-0.13-6.31-2.45-12.39-6.57-17.17c-4.12-4.78-9.78-7.98-16.01-9.04
			c-0.45-0.07-0.91-0.14-1.37-0.2c-3.86-0.48-7.78-0.11-11.48,1.09c-3.7,1.2-7.09,3.19-9.94,5.84c-2.95,2.71-5.27,6.04-6.79,9.74
			C90.96,228.47,90.28,232.46,90.47,236.47L90.47,236.47z"/>
		<path class="st7" d="M164.17,306.22c-1.1-0.34-2.11-0.94-2.94-1.73c-0.83-0.8-1.46-1.78-1.85-2.87c-0.38-1.09-0.51-2.25-0.36-3.39
			c0.15-1.14,0.56-2.24,1.2-3.19l-15.78-20.98l13.61-0.84l12.89,20.05c1.38,1.07,2.34,2.59,2.71,4.29c0.37,1.71,0.13,3.49-0.68,5.03
			c-0.81,1.55-2.14,2.76-3.75,3.42C167.63,306.67,165.84,306.74,164.17,306.22L164.17,306.22z"/>
		<path class="st8" d="M153.08,291.24c-0.42-0.17-0.8-0.42-1.12-0.74c-0.32-0.32-0.57-0.7-0.75-1.11l-23.77-56.63
			c-0.47-1.11-0.71-2.3-0.72-3.5c-0.01-1.2,0.22-2.39,0.68-3.51c0.45-1.11,1.12-2.13,1.97-2.98c0.85-0.85,1.85-1.53,2.96-2
			c1.11-0.46,2.3-0.71,3.5-0.71c1.2-0.01,2.39,0.23,3.51,0.68c1.11,0.46,2.13,1.13,2.98,1.97c0.85,0.85,1.53,1.86,2,2.96
			l23.77,56.63c0.35,0.84,0.36,1.78,0.01,2.63c-0.34,0.84-1.01,1.51-1.85,1.87l-10.55,4.43c-0.42,0.18-0.86,0.27-1.31,0.27
			C153.95,291.5,153.5,291.41,153.08,291.24L153.08,291.24z"/>
		<path class="st3" d="M114.7,289.24l22.83-43.71c0.44-0.84,1.2-1.47,2.1-1.76c0.91-0.28,1.89-0.2,2.73,0.24l33.14,17.31
			c0.84,0.44,1.47,1.2,1.76,2.1c0.28,0.91,0.2,1.89-0.24,2.73l-22.83,43.71c-0.44,0.84-1.2,1.47-2.1,1.76
			c-0.91,0.29-1.89,0.2-2.73-0.24l-33.14-17.31c-0.84-0.44-1.47-1.2-1.76-2.1C114.18,291.06,114.27,290.08,114.7,289.24z"/>
		<path class="st7" d="M130.02,269.27c-0.41-1.08-1.06-2.05-1.9-2.83c-0.85-0.78-1.86-1.35-2.97-1.67
			c-1.11-0.32-2.27-0.37-3.41-0.16c-1.13,0.21-2.2,0.69-3.12,1.39l-21.87-14.51l-0.04,13.64l20.78,11.69
			c1.15,1.32,2.72,2.18,4.44,2.46c1.72,0.27,3.49-0.07,4.98-0.97c1.49-0.9,2.63-2.3,3.19-3.95S130.64,270.9,130.02,269.27z"/>
		<path class="st8" d="M102.36,272.33l-17.88-14.16c-1.93-0.65-3.68-1.76-5.09-3.23c-1.41-1.47-2.44-3.27-3.01-5.23
			c-0.57-1.96-0.65-4.03-0.24-6.03c0.41-2,1.3-3.87,2.59-5.45l16.23-21.27c1.13-1.38,2.71-2.3,4.47-2.61
			c1.75-0.31,3.56,0.03,5.09,0.95c1.53,0.92,2.67,2.35,3.23,4.04c0.56,1.69,0.48,3.53-0.2,5.17l-12.84,21.01l18.87,8.95
			c0.44,0.21,0.83,0.51,1.14,0.88c0.31,0.37,0.55,0.8,0.68,1.27c0.14,0.47,0.17,0.96,0.1,1.44c-0.07,0.48-0.24,0.94-0.5,1.35
			l-7.62,12.06c-0.26,0.41-0.6,0.76-1,1.02c-0.4,0.27-0.85,0.45-1.33,0.53c-0.02,0-0.04,0.01-0.06,0.01
			c-0.47,0.07-0.94,0.04-1.4-0.08C103.16,272.84,102.73,272.63,102.36,272.33z"/>
		<path class="st4" d="M106.87,195.54c-0.08-0.23-0.1-0.47-0.07-0.71c0.03-0.24,0.11-0.46,0.25-0.67c0.13-0.2,0.31-0.37,0.51-0.49
			c0.21-0.12,0.44-0.19,0.68-0.21c0.49,0.03,0.97,0.15,1.41,0.37c0.44,0.22,0.83,0.52,1.15,0.89c0.65,0.75,1.41,1.41,2.26,1.94
			c0.87,0.44,2.06,0.38,2.55-0.46c0.47-0.79,0.15-1.84-0.14-2.76c-0.72-2.33-1.12-4.74-1.2-7.18c-0.08-2.72,0.3-5.55,1.81-7.67
			c1.94-2.73,5.41-3.77,8.7-3.7c3.29,0.08,6.52,1.09,9.77,1.73c1.12,0.22,2.44,0.34,3.2-0.54c0.8-0.93,0.51-2.43,0.17-3.68
			c-0.88-3.24-1.82-6.6-3.87-9.22c-2.22-2.72-5.38-4.51-8.86-4.99c-3.34-0.41-6.73-0.03-9.89,1.12c-5.15,1.62-9.68,4.78-12.99,9.05
			c-3.41,4.54-4.88,10.24-4.1,15.87c0.77,4.9,3.36,9.32,7.26,12.38L106.87,195.54z"/>
		<path class="st3" d="M335.37,428.08c-4.8-2.09-9.05-5.27-12.41-9.28c-3.36-4.01-5.75-8.75-6.96-13.85
			c-1.22-5.09-1.23-10.4-0.05-15.5c1.19-5.1,3.54-9.85,6.88-13.89c-3.87,2.83-7.09,6.44-9.46,10.61c-2.37,4.17-3.82,8.79-4.26,13.56
			c-0.44,4.77,0.14,9.58,1.69,14.11c1.56,4.53,4.06,8.68,7.35,12.17c3.28,3.49,7.27,6.24,11.7,8.07c4.43,1.83,9.2,2.7,13.98,2.54
			c4.79-0.15,9.49-1.32,13.79-3.43c4.3-2.11,8.11-5.11,11.16-8.8c-4.76,3.48-10.35,5.65-16.22,6.3
			C346.71,431.34,340.78,430.44,335.37,428.08z"/>
	</g>
</g>
</svg>
