<?xml version="1.0" encoding="utf-8"?>
<!-- Generator: Adobe Illustrator 25.0.0, SVG Export Plug-In . SVG Version: 6.00 Build 0)  -->
<svg version="1.1" id="Layer_1" xmlns="http://www.w3.org/2000/svg" xmlns:xlink="http://www.w3.org/1999/xlink" x="0px" y="0px"
	 viewBox="0 0 671.98 437" style="enable-background:new 0 0 671.98 437;" xml:space="preserve">
<style type="text/css">
	.st0{clip-path:url(#SVGID_2_);}
	.st1{opacity:0.1;}
	.st2{opacity:0.1;fill:#403D56;enable-background:new    ;}
	.st3{opacity:0.1;fill:#575DA7;enable-background:new    ;}
	.st4{opacity:0.1;fill:#010202;enable-background:new    ;}
	.st5{fill:none;stroke:#403D56;stroke-width:4;stroke-miterlimit:10;}
	.st6{fill:#575DA7;}
	.st7{fill:#403D56;}
	.st8{fill:url(#SVGID_3_);}
	.st9{fill:#BE6F72;}
	.st10{fill:#ED6D63;}
	.st11{opacity:0.1;fill:none;stroke:#010202;stroke-miterlimit:10;enable-background:new    ;}
	.st12{fill:url(#SVGID_4_);}
	.st13{fill:#2F2F41;}
	.st14{fill:#F7BDBE;}
	.st15{fill:#E8E8F1;}
	.st16{fill:#ED6C71;}
</style>
<g>
	<defs>
		<rect id="SVGID_1_" x="-90.04" width="762.01" height="397.22"/>
	</defs>
	<clipPath id="SVGID_2_">
		<use xlink:href="#SVGID_1_"  style="overflow:visible;"/>
	</clipPath>
	<g class="st0">
		<g class="st1">
			<path class="st2" d="M243.29,260.57c4.37,0,7.91-4.61,7.91-10.3s-3.54-10.3-7.91-10.3c-4.37,0-7.91,4.61-7.91,10.3
				S238.92,260.57,243.29,260.57z"/>
			<path class="st2" d="M249.55,206.21c1.1-1.92,1.68-4.09,1.65-6.3c0-5.69-3.55-10.3-7.92-10.3s-7.94,4.62-7.94,10.31
				c-0.02,2.21,0.55,4.38,1.65,6.3c-1.09,1.92-1.65,4.09-1.65,6.29c0,2.2,0.57,4.37,1.65,6.29c-1.09,1.92-1.65,4.09-1.65,6.29
				s0.57,4.37,1.65,6.29c-1.11,1.91-1.68,4.09-1.65,6.3c0,5.68,3.55,10.3,7.91,10.3c4.37,0,7.92-4.62,7.92-10.3
				c0.02-2.21-0.55-4.38-1.65-6.3c1.09-1.92,1.65-4.09,1.65-6.29s-0.57-4.37-1.65-6.29c1.09-1.92,1.65-4.09,1.65-6.29
				c0-2.2-0.57-4.37-1.65-6.29L249.55,206.21z"/>
			<path class="st2" d="M243.29,197.64c4.37,0,7.91-4.61,7.91-10.3c0-5.69-3.54-10.3-7.91-10.3c-4.37,0-7.91,4.61-7.91,10.3
				C235.38,193.03,238.92,197.64,243.29,197.64z"/>
			<path class="st2" d="M243.29,185.06c4.37,0,7.91-4.61,7.91-10.3s-3.54-10.3-7.91-10.3c-4.37,0-7.91,4.61-7.91,10.3
				S238.92,185.06,243.29,185.06z"/>
			<path class="st3" d="M213.67,88.62c-1.08-1.37-2.07-2.81-2.95-4.31l20.79-3.39l-22.49,0.17c-2.15-4.67-3.32-9.72-3.44-14.86
				c-0.12-5.13,0.82-10.24,2.75-15l30.17,15.56l-27.81-20.33c2.58-4.52,6.08-8.46,10.27-11.57c4.19-3.11,8.98-5.32,14.08-6.5
				c5.09-1.18,10.38-1.3,15.52-0.35c5.14,0.95,10.03,2.94,14.36,5.86c4.33,2.92,8,6.69,10.79,11.09c2.79,4.4,4.64,9.32,5.42,14.46
				c0.78,5.14,0.49,10.38-0.86,15.41c-1.35,5.02-3.74,9.71-7,13.77c1.68,2.13,3.13,4.43,4.32,6.87l-27,13.97l28.78-9.6
				c2.02,5.94,2.52,12.28,1.46,18.46c-1.07,6.18-3.67,12-7.57,16.92c4.4,5.56,7.13,12.23,7.9,19.26c0.76,7.03-0.48,14.13-3.59,20.49
				c-3.11,6.36-7.95,11.72-13.98,15.48c-6.03,3.75-13,5.74-20.11,5.74c-7.11,0-14.08-1.99-20.11-5.74
				c-6.03-3.75-10.88-9.12-13.98-15.48c-3.11-6.36-4.35-13.46-3.59-20.49c0.76-7.03,3.5-13.71,7.9-19.26
				c-5.26-6.64-8.11-14.85-8.11-23.3c0-8.45,2.86-16.66,8.11-23.3V88.62z"/>
			<path class="st4" d="M281.37,111.92c0.01,8.45-2.85,16.66-8.11,23.3c4.4,5.56,7.13,12.23,7.9,19.27
				c0.76,7.03-0.48,14.13-3.59,20.49c-3.11,6.36-7.95,11.72-13.98,15.48c-6.03,3.75-13,5.74-20.11,5.74
				c-7.11,0-14.08-1.99-20.11-5.74c-6.03-3.75-10.88-9.12-13.98-15.48s-4.35-13.46-3.59-20.49c0.76-7.03,3.5-13.71,7.9-19.27
				C208.59,128.81,281.37,107.69,281.37,111.92z"/>
		</g>
		<g class="st1">
			<path class="st2" d="M335.66,235.95c3.27,0,5.92-3.44,5.92-7.69c0-4.25-2.65-7.69-5.92-7.69c-3.27,0-5.92,3.44-5.92,7.69
				C329.75,232.5,332.4,235.95,335.66,235.95z"/>
			<path class="st2" d="M340.34,195.33c0.82-1.43,1.25-3.05,1.23-4.7c0-4.25-2.65-7.7-5.91-7.7c-3.26,0-5.92,3.46-5.92,7.7
				c-0.02,1.65,0.41,3.27,1.24,4.7c-0.81,1.44-1.24,3.06-1.24,4.7c0,1.65,0.43,3.27,1.24,4.7c-0.81,1.44-1.24,3.06-1.24,4.7
				c0,1.65,0.43,3.27,1.24,4.7c-0.83,1.43-1.26,3.05-1.24,4.7c0,4.25,2.65,7.7,5.92,7.7c3.27,0,5.91-3.46,5.91-7.7
				c0.02-1.65-0.41-3.27-1.23-4.7c0.8-1.44,1.23-3.06,1.23-4.7c0-1.65-0.42-3.26-1.23-4.7c0.8-1.44,1.23-3.06,1.23-4.7
				C341.56,198.39,341.14,196.77,340.34,195.33z"/>
			<path class="st2" d="M335.66,188.92c3.27,0,5.92-3.44,5.92-7.69c0-4.25-2.65-7.69-5.92-7.69c-3.27,0-5.92,3.44-5.92,7.69
				C329.75,185.48,332.4,188.92,335.66,188.92z"/>
			<path class="st2" d="M335.66,179.51c3.27,0,5.92-3.44,5.92-7.69c0-4.25-2.65-7.69-5.92-7.69c-3.27,0-5.92,3.44-5.92,7.69
				C329.75,176.07,332.4,179.51,335.66,179.51z"/>
			<path class="st3" d="M313.53,107.46c-0.81-1.02-1.55-2.1-2.2-3.22l15.54-2.54l-16.8,0.12c-1.61-3.49-2.49-7.27-2.58-11.1
				c-0.09-3.84,0.6-7.65,2.04-11.21l22.55,11.63l-20.79-15.2c1.94-3.35,4.56-6.27,7.69-8.57c3.13-2.3,6.7-3.94,10.5-4.81
				c3.79-0.87,7.73-0.95,11.56-0.24c3.83,0.71,7.47,2.2,10.69,4.37c3.22,2.17,5.96,4.98,8.04,8.25c2.08,3.27,3.46,6.93,4.06,10.76
				c0.6,3.83,0.39,7.73-0.6,11.47c-0.99,3.74-2.75,7.24-5.16,10.28c1.26,1.59,2.34,3.31,3.23,5.14L341.12,123l21.51-7.17
				c1.51,4.44,1.88,9.18,1.09,13.8c-0.8,4.62-2.74,8.96-5.65,12.65c3.29,4.15,5.34,9.14,5.91,14.4c0.57,5.26-0.36,10.57-2.68,15.32
				c-2.32,4.76-5.94,8.77-10.45,11.57c-4.51,2.8-9.72,4.29-15.04,4.29c-5.32,0-10.53-1.49-15.03-4.29
				c-4.51-2.81-8.13-6.82-10.45-11.57c-2.32-4.76-3.25-10.06-2.68-15.32c0.57-5.26,2.62-10.24,5.91-14.4
				c-3.93-4.96-6.06-11.1-6.06-17.41s2.14-12.45,6.06-17.41L313.53,107.46z"/>
			<path class="st4" d="M364.11,124.87c0.01,6.32-2.13,12.45-6.06,17.41c3.29,4.15,5.34,9.14,5.91,14.4
				c0.57,5.26-0.35,10.57-2.68,15.32c-2.32,4.76-5.94,8.77-10.45,11.57c-4.51,2.8-9.72,4.29-15.03,4.29
				c-5.32,0-10.53-1.49-15.04-4.29c-4.51-2.81-8.13-6.82-10.45-11.57c-2.32-4.76-3.25-10.06-2.68-15.32
				c0.57-5.26,2.62-10.24,5.91-14.4C309.74,137.49,364.11,121.71,364.11,124.87z"/>
		</g>
		<g class="st1">
			<path class="st2" d="M632.06,232.92c4.37,0,7.91-4.61,7.91-10.3c0-5.69-3.54-10.3-7.91-10.3c-4.37,0-7.91,4.61-7.91,10.3
				C624.14,228.31,627.69,232.92,632.06,232.92z"/>
			<path class="st2" d="M625.79,178.57c-1.1-1.92-1.67-4.09-1.65-6.3c0-5.69,3.55-10.3,7.92-10.3c4.37,0,7.91,4.61,7.91,10.3
				c0.02,2.21-0.55,4.38-1.65,6.3c1.09,1.92,1.65,4.09,1.65,6.29c0,2.2-0.57,4.37-1.65,6.29c1.09,1.92,1.65,4.09,1.65,6.29
				c0,2.2-0.57,4.37-1.65,6.29c1.11,1.92,1.68,4.09,1.65,6.3c0,5.68-3.55,10.3-7.91,10.3c-4.37,0-7.92-4.62-7.92-10.3
				c-0.02-2.21,0.55-4.38,1.65-6.3c-1.09-1.92-1.65-4.09-1.65-6.29c0-2.2,0.57-4.37,1.65-6.29c-1.09-1.92-1.65-4.09-1.65-6.29
				C624.14,182.66,624.71,180.49,625.79,178.57z"/>
			<path class="st2" d="M632.06,170c4.37,0,7.91-4.61,7.91-10.3s-3.54-10.3-7.91-10.3c-4.37,0-7.91,4.61-7.91,10.3
				S627.69,170,632.06,170z"/>
			<path class="st2" d="M632.06,157.41c4.37,0,7.91-4.61,7.91-10.3c0-5.69-3.54-10.3-7.91-10.3c-4.37,0-7.91,4.61-7.91,10.3
				C624.14,152.8,627.69,157.41,632.06,157.41z"/>
			<path class="st3" d="M661.68,60.98c1.08-1.37,2.07-2.81,2.95-4.31l-20.79-3.39l22.49,0.17c2.15-4.67,3.32-9.72,3.44-14.86
				c0.12-5.13-0.82-10.24-2.75-15l-30.17,15.56l27.81-20.33c-2.58-4.52-6.08-8.46-10.27-11.57c-4.19-3.11-8.98-5.32-14.08-6.5
				c-5.09-1.18-10.38-1.3-15.52-0.35c-5.14,0.95-10.03,2.94-14.36,5.86c-4.33,2.92-8,6.69-10.79,11.09s-4.64,9.32-5.42,14.46
				c-0.78,5.14-0.49,10.38,0.86,15.41c1.35,5.02,3.74,9.71,7,13.77c-1.68,2.13-3.13,4.43-4.32,6.87l27,13.97l-28.78-9.6
				c-2.02,5.94-2.52,12.28-1.46,18.46c1.07,6.18,3.67,12,7.57,16.92c-4.4,5.56-7.13,12.23-7.9,19.27
				c-0.76,7.03,0.48,14.13,3.59,20.49c3.11,6.36,7.95,11.72,13.98,15.48c6.03,3.75,13,5.74,20.11,5.74s14.08-1.99,20.11-5.74
				c6.03-3.75,10.88-9.12,13.98-15.48c3.11-6.36,4.35-13.46,3.59-20.49c-0.76-7.03-3.5-13.71-7.9-19.27
				c5.26-6.64,8.11-14.85,8.11-23.3c0-8.45-2.86-16.66-8.11-23.3V60.98z"/>
			<path class="st4" d="M593.98,84.28c-0.01,8.45,2.85,16.66,8.11,23.3c-4.4,5.56-7.13,12.23-7.9,19.27
				c-0.76,7.03,0.48,14.13,3.59,20.49c3.11,6.36,7.95,11.72,13.98,15.48c6.03,3.75,13,5.74,20.11,5.74s14.08-1.99,20.11-5.74
				c6.03-3.75,10.88-9.12,13.98-15.48c3.11-6.36,4.35-13.46,3.59-20.49c-0.76-7.03-3.5-13.71-7.9-19.27
				C666.76,101.16,593.98,80.05,593.98,84.28z"/>
		</g>
		<g class="st1">
			<path class="st2" d="M555.67,231.8c3.27,0,5.92-3.44,5.92-7.69c0-4.25-2.65-7.69-5.92-7.69c-3.27,0-5.92,3.44-5.92,7.69
				C549.76,228.35,552.41,231.8,555.67,231.8z"/>
			<path class="st2" d="M551,191.19c-0.82-1.43-1.25-3.05-1.23-4.7c0-4.25,2.65-7.7,5.91-7.7c3.26,0,5.92,3.46,5.92,7.7
				c0.02,1.65-0.41,3.27-1.24,4.7c0.81,1.44,1.24,3.06,1.24,4.7c0,1.65-0.43,3.27-1.24,4.7c0.81,1.44,1.24,3.06,1.24,4.7
				c0,1.65-0.43,3.27-1.24,4.7c0.83,1.43,1.26,3.05,1.24,4.7c0,4.25-2.65,7.7-5.92,7.7c-3.27,0-5.91-3.46-5.91-7.7
				c-0.02-1.65,0.41-3.27,1.23-4.7c-0.8-1.44-1.23-3.06-1.23-4.7s0.42-3.26,1.23-4.7c-0.8-1.44-1.23-3.06-1.23-4.7
				C549.77,194.24,550.2,192.63,551,191.19z"/>
			<path class="st2" d="M555.67,184.77c3.27,0,5.92-3.44,5.92-7.69s-2.65-7.69-5.92-7.69c-3.27,0-5.92,3.44-5.92,7.69
				S552.41,184.77,555.67,184.77z"/>
			<path class="st2" d="M555.67,175.37c3.27,0,5.92-3.44,5.92-7.69c0-4.25-2.65-7.69-5.92-7.69c-3.27,0-5.92,3.44-5.92,7.69
				C549.76,171.92,552.41,175.37,555.67,175.37z"/>
			<path class="st3" d="M577.81,103.31c0.81-1.02,1.55-2.1,2.2-3.22l-15.54-2.54l16.8,0.12c1.61-3.49,2.49-7.27,2.59-11.1
				c0.09-3.84-0.6-7.65-2.04-11.21l-22.55,11.63l20.8-15.2c-1.94-3.35-4.56-6.27-7.69-8.57c-3.13-2.3-6.7-3.94-10.5-4.81
				c-3.79-0.87-7.73-0.95-11.56-0.24c-3.83,0.71-7.47,2.2-10.69,4.37c-3.22,2.17-5.96,4.98-8.05,8.25
				c-2.08,3.27-3.46,6.93-4.06,10.76c-0.6,3.83-0.39,7.73,0.6,11.47s2.75,7.24,5.16,10.28c-1.26,1.59-2.34,3.31-3.23,5.14
				l20.16,10.42l-21.46-7.17c-1.51,4.44-1.88,9.18-1.09,13.8c0.8,4.62,2.74,8.96,5.65,12.65c-3.29,4.15-5.34,9.14-5.91,14.4
				c-0.57,5.26,0.36,10.57,2.68,15.32c2.32,4.76,5.94,8.77,10.45,11.57c4.51,2.81,9.72,4.29,15.04,4.29
				c5.32,0,10.53-1.49,15.04-4.29c4.51-2.81,8.13-6.82,10.45-11.57c2.32-4.76,3.25-10.07,2.68-15.32
				c-0.57-5.26-2.62-10.24-5.91-14.4c3.93-4.96,6.06-11.09,6.06-17.41C583.88,114.4,581.75,108.27,577.81,103.31L577.81,103.31z"/>
			<path class="st4" d="M527.22,120.72c-0.01,6.32,2.13,12.45,6.06,17.41c-3.29,4.15-5.34,9.14-5.91,14.4
				c-0.57,5.26,0.36,10.57,2.68,15.32c2.32,4.76,5.94,8.77,10.45,11.57c4.51,2.81,9.72,4.29,15.04,4.29s10.53-1.49,15.04-4.29
				c4.51-2.81,8.13-6.82,10.45-11.57c2.32-4.76,3.25-10.07,2.68-15.32c-0.57-5.26-2.62-10.24-5.91-14.4
				C581.59,133.34,527.22,117.56,527.22,120.72z"/>
		</g>
		<g class="st1">
			<path class="st2" d="M-47.21,232.92c4.37,0,7.91-4.61,7.91-10.3c0-5.69-3.54-10.3-7.91-10.3s-7.91,4.61-7.91,10.3
				C-55.13,228.31-51.58,232.92-47.21,232.92z"/>
			<path class="st2" d="M-40.96,178.57c1.1-1.92,1.67-4.09,1.65-6.3c0-5.69-3.55-10.3-7.91-10.3c-4.37,0-7.91,4.61-7.91,10.3
				c-0.02,2.21,0.55,4.38,1.65,6.3c-1.08,1.92-1.65,4.09-1.65,6.29c0,2.2,0.57,4.37,1.65,6.29c-1.08,1.92-1.65,4.09-1.65,6.29
				c0,2.2,0.57,4.37,1.65,6.29c-1.1,1.92-1.67,4.09-1.65,6.3c0,5.68,3.54,10.3,7.91,10.3s7.93-4.6,7.93-10.28
				c0.02-2.21-0.55-4.38-1.65-6.3c1.08-1.92,1.65-4.09,1.65-6.29c0-2.2-0.57-4.37-1.65-6.29c1.08-1.92,1.65-4.09,1.65-6.29
				c0-2.2-0.57-4.37-1.65-6.29L-40.96,178.57z"/>
			<path class="st2" d="M-47.21,170c4.37,0,7.91-4.61,7.91-10.3s-3.54-10.3-7.91-10.3s-7.91,4.61-7.91,10.3S-51.58,170-47.21,170z"
				/>
			<path class="st2" d="M-47.21,157.41c4.37,0,7.91-4.61,7.91-10.3c0-5.69-3.54-10.3-7.91-10.3s-7.91,4.61-7.91,10.3
				C-55.13,152.8-51.58,157.41-47.21,157.41z"/>
			<path class="st3" d="M-76.83,60.98c-1.08-1.37-2.07-2.81-2.95-4.31l20.8-3.39l-22.51,0.2c-2.15-4.67-3.32-9.72-3.44-14.86
				c-0.12-5.13,0.82-10.24,2.75-15L-52,39.17l-27.81-20.33c2.59-4.5,6.09-8.43,10.28-11.53c4.19-3.1,8.98-5.3,14.06-6.47
				c5.09-1.17,10.36-1.29,15.49-0.34c5.13,0.95,10.01,2.94,14.33,5.85c4.32,2.91,7.99,6.68,10.78,11.07
				c2.79,4.39,4.63,9.3,5.42,14.43c0.79,5.13,0.5,10.37-0.84,15.38c-1.34,5.02-3.71,9.7-6.96,13.76c1.69,2.13,3.14,4.43,4.32,6.87
				l-27,13.94l28.78-9.6c2.02,5.94,2.52,12.28,1.45,18.46c-1.07,6.18-3.67,11.99-7.57,16.92c4.4,5.56,7.13,12.23,7.9,19.26
				c0.76,7.03-0.48,14.13-3.59,20.49c-3.11,6.36-7.95,11.72-13.98,15.48c-6.03,3.75-13,5.74-20.11,5.74
				c-7.11,0-14.08-1.99-20.11-5.74c-6.03-3.75-10.88-9.12-13.98-15.48c-3.11-6.36-4.35-13.46-3.59-20.49
				c0.76-7.03,3.5-13.71,7.9-19.26c-5.26-6.64-8.11-14.85-8.11-23.3c0-8.45,2.86-16.66,8.11-23.3L-76.83,60.98z"/>
			<path class="st4" d="M-9.14,84.28c0.01,8.45-2.85,16.66-8.11,23.3c4.4,5.56,7.13,12.23,7.9,19.27
				c0.76,7.03-0.48,14.13-3.59,20.49c-3.11,6.36-7.95,11.72-13.98,15.48c-6.03,3.75-13,5.74-20.11,5.74
				c-7.11,0-14.08-1.99-20.11-5.74c-6.03-3.75-10.88-9.12-13.98-15.48c-3.11-6.36-4.35-13.46-3.59-20.49
				c0.76-7.03,3.5-13.71,7.9-19.27C-81.92,101.16-9.14,80.05-9.14,84.28z"/>
		</g>
		<g class="st1">
			<path class="st2" d="M29.16,231.8c3.27,0,5.92-3.44,5.92-7.69c0-4.25-2.65-7.69-5.92-7.69c-3.27,0-5.92,3.44-5.92,7.69
				C23.24,228.35,25.89,231.8,29.16,231.8z"/>
			<path class="st2" d="M33.84,191.19c0.82-1.43,1.25-3.05,1.23-4.7c0-4.25-2.64-7.7-5.91-7.7c-3.27,0-5.92,3.46-5.92,7.7
				c-0.01,1.65,0.41,3.27,1.24,4.7c-0.81,1.44-1.24,3.06-1.24,4.7c0,1.65,0.43,3.27,1.24,4.7c-0.81,1.44-1.24,3.06-1.24,4.7
				c0,1.65,0.43,3.27,1.24,4.7c-0.82,1.43-1.25,3.05-1.24,4.7c0,4.25,2.65,7.7,5.92,7.7c3.27,0,5.91-3.46,5.91-7.7
				c0.02-1.65-0.41-3.27-1.23-4.7c0.8-1.44,1.23-3.06,1.23-4.7s-0.42-3.26-1.23-4.7c0.8-1.44,1.23-3.06,1.23-4.7
				C35.07,194.24,34.65,192.63,33.84,191.19z"/>
			<path class="st2" d="M29.16,184.77c3.27,0,5.92-3.44,5.92-7.69s-2.65-7.69-5.92-7.69c-3.27,0-5.92,3.44-5.92,7.69
				S25.89,184.77,29.16,184.77z"/>
			<path class="st2" d="M29.16,175.37c3.27,0,5.92-3.44,5.92-7.69c0-4.25-2.65-7.69-5.92-7.69c-3.27,0-5.92,3.44-5.92,7.69
				C23.24,171.92,25.89,175.37,29.16,175.37z"/>
			<path class="st3" d="M7.02,103.31c-0.81-1.02-1.55-2.1-2.2-3.22l15.54-2.54l-16.8,0.12c-1.61-3.49-2.49-7.27-2.58-11.1
				c-0.09-3.84,0.6-7.65,2.04-11.21l22.55,11.63l-20.8-15.2c1.94-3.35,4.56-6.27,7.69-8.57c3.13-2.3,6.7-3.94,10.5-4.81
				c3.79-0.87,7.73-0.95,11.56-0.24c3.83,0.71,7.47,2.2,10.69,4.37c3.22,2.17,5.96,4.98,8.05,8.25c2.08,3.27,3.46,6.93,4.06,10.76
				c0.6,3.83,0.39,7.73-0.6,11.47c-0.99,3.74-2.75,7.24-5.16,10.28c1.26,1.59,2.35,3.31,3.23,5.14l-20.16,10.42l21.51-7.17
				c1.51,4.44,1.88,9.18,1.09,13.8c-0.8,4.62-2.74,8.96-5.65,12.65c3.29,4.15,5.34,9.14,5.91,14.4c0.57,5.26-0.36,10.57-2.68,15.32
				c-2.32,4.76-5.94,8.77-10.45,11.57c-4.51,2.81-9.72,4.29-15.03,4.29c-5.32,0-10.53-1.49-15.04-4.29
				c-4.51-2.81-8.13-6.82-10.45-11.57c-2.32-4.76-3.25-10.07-2.68-15.32c0.57-5.26,2.62-10.24,5.91-14.4
				C3.13,133.16,1,127.03,1,120.71c0-6.32,2.14-12.45,6.06-17.41L7.02,103.31z"/>
			<path class="st4" d="M57.61,120.72c0.01,6.32-2.13,12.45-6.06,17.41c3.29,4.15,5.34,9.14,5.91,14.4
				c0.57,5.26-0.36,10.57-2.68,15.32c-2.32,4.76-5.94,8.77-10.45,11.57c-4.51,2.81-9.72,4.29-15.03,4.29
				c-5.32,0-10.53-1.49-15.04-4.29c-4.51-2.81-8.13-6.82-10.45-11.57c-2.32-4.76-3.25-10.07-2.68-15.32
				c0.57-5.26,2.62-10.24,5.91-14.4C3.23,133.34,57.61,117.56,57.61,120.72z"/>
		</g>
		<path class="st3" d="M290.97,346.94c210.42,0,381.01-2.74,381.01-6.12c0-3.38-170.58-6.12-381.01-6.12s-381.01,2.74-381.01,6.12
			C-90.04,344.2,80.55,346.94,290.97,346.94z"/>
		<path class="st3" d="M290.97,397.22c210.42,0,381.01-2.74,381.01-6.12c0-3.38-170.58-6.12-381.01-6.12s-381.01,2.74-381.01,6.12
			C-90.04,394.48,80.55,397.22,290.97,397.22z"/>
		<path class="st3" d="M290.97,242.01c210.42,0,381.01-2.74,381.01-6.12s-170.58-6.12-381.01-6.12s-381.01,2.74-381.01,6.12
			S80.55,242.01,290.97,242.01z"/>
		<path class="st3" d="M290.97,294.47c210.42,0,381.01-2.74,381.01-6.12c0-3.38-170.58-6.12-381.01-6.12s-381.01,2.74-381.01,6.12
			C-90.04,291.73,80.55,294.47,290.97,294.47z"/>
		<path class="st3" d="M472.29,76.28c-2.48-0.47-5.05-0.19-7.37,0.8c-1.39,0.62-2.9,0.94-4.43,0.94c-1.53,0-3.04-0.32-4.43-0.94
			c-1.65-0.72-3.44-1.07-5.24-1.04c-1.8,0.03-3.57,0.46-5.19,1.24c-0.92,0.49-1.95,0.74-3,0.75c-4.23,0-7.74-4.23-8.47-9.81
			c0.83-0.62,1.54-1.38,2.09-2.26c2.48-3.97,6.31-6.52,10.62-6.52c4.31,0,8.09,2.52,10.57,6.44c0.74,1.19,1.77,2.16,3,2.83
			c1.23,0.67,2.61,1.01,4.02,1h0.11C467.97,69.68,470.88,72.36,472.29,76.28z"/>
		<path class="st3" d="M485.16,58.76l-6.83,4.3l4.17-7.49c-1.17-0.93-2.63-1.44-4.13-1.46h-0.11c-0.47,0.01-0.93-0.03-1.39-0.1
			l-2.35,1.46l0.99-1.8c-1.64-0.57-3.06-1.64-4.05-3.05l-4.17,2.61l2.61-4.73c-2.42-2.89-5.69-4.66-9.28-4.66
			c-4.31,0-8.14,2.54-10.62,6.51c-0.73,1.19-1.77,2.16-3,2.82c-1.23,0.66-2.62,0.98-4.02,0.94h-0.23c-4.76,0-8.61,5.36-8.61,11.96
			s3.85,11.97,8.61,11.97c1.04-0.01,2.07-0.26,3-0.75c1.62-0.78,3.39-1.21,5.19-1.25c1.8-0.04,3.59,0.32,5.24,1.04
			c1.39,0.62,2.9,0.94,4.43,0.94c1.53,0,3.04-0.32,4.43-0.94c1.64-0.7,3.41-1.05,5.19-1.01c1.78,0.03,3.54,0.45,5.14,1.22
			c0.91,0.48,1.93,0.73,2.96,0.73c4.76,0,8.61-5.36,8.61-11.97C486.98,63.51,486.36,61,485.16,58.76z"/>
		<path class="st3" d="M182,72.54c-1.74-0.33-3.54-0.13-5.17,0.56c-0.97,0.43-2.03,0.66-3.1,0.66c-1.07,0-2.12-0.22-3.1-0.66
			c-1.15-0.5-2.4-0.75-3.66-0.73c-1.26,0.03-2.5,0.32-3.63,0.87c-0.64,0.33-1.36,0.51-2.09,0.52c-2.96,0-5.42-2.96-5.93-6.86
			c0.59-0.43,1.09-0.97,1.48-1.58c1.73-2.76,4.41-4.56,7.43-4.56c3.02,0,5.67,1.76,7.4,4.51c0.52,0.83,1.24,1.51,2.1,1.98
			c0.86,0.47,1.83,0.71,2.81,0.7h0.08C178.96,67.93,181,69.81,182,72.54z"/>
		<path class="st3" d="M191,60.29l-4.78,3.01l2.9-5.25c-0.82-0.65-1.84-1.01-2.89-1.02h-0.08c-0.33,0.01-0.66-0.02-0.99-0.08
			l-1.62,1.02l0.69-1.26c-1.15-0.4-2.14-1.14-2.84-2.14l-2.9,1.82l1.84-3.3c-0.77-0.99-1.75-1.8-2.88-2.36
			c-1.12-0.57-2.36-0.88-3.62-0.91c-3.02,0-5.7,1.78-7.43,4.56c-0.51,0.83-1.24,1.51-2.1,1.97c-0.86,0.46-1.83,0.69-2.81,0.66h-0.16
			c-3.33,0-6.03,3.75-6.03,8.38s2.7,8.38,6.03,8.38c0.73-0.01,1.44-0.19,2.09-0.53c1.13-0.55,2.37-0.84,3.63-0.86
			c1.26-0.02,2.51,0.22,3.66,0.73c0.98,0.44,2.04,0.68,3.12,0.69c1.06,0,2.11-0.22,3.08-0.65c1.15-0.49,2.38-0.74,3.63-0.71
			s2.48,0.31,3.6,0.85c0.64,0.34,1.36,0.51,2.09,0.51c3.32,0,6.02-3.75,6.02-8.38C192.28,63.64,191.85,61.87,191,60.29z"/>
		<path class="st3" d="M97.4,126.73c1.74-0.33,3.53-0.13,5.16,0.56c0.98,0.43,2.03,0.66,3.1,0.66c1.07,0,2.13-0.22,3.1-0.66
			c1.15-0.5,2.4-0.75,3.66-0.73c1.26,0.02,2.5,0.32,3.63,0.87c0.64,0.34,1.36,0.52,2.09,0.53c2.96,0,5.42-2.96,5.92-6.87
			c-0.59-0.43-1.09-0.97-1.47-1.58c-1.74-2.76-4.42-4.55-7.43-4.55c-3.01,0-5.67,1.76-7.4,4.51c-0.52,0.83-1.24,1.51-2.1,1.98
			c-0.86,0.47-1.83,0.71-2.81,0.7h-0.08C100.43,122.15,98.38,124.02,97.4,126.73z"/>
		<path class="st3" d="M88.39,114.5l4.78,3.01l-2.91-5.24c0.82-0.65,1.84-1.02,2.89-1.03h0.08c0.33,0,0.67-0.02,0.99-0.07l1.62,1.02
			l-0.7-1.25c1.15-0.4,2.14-1.15,2.83-2.14l2.9,1.82l-1.81-3.31c0.77-0.99,1.75-1.79,2.88-2.36c1.12-0.56,2.36-0.87,3.62-0.9
			c3.01,0,5.7,1.78,7.43,4.56c0.51,0.83,1.24,1.51,2.1,1.97c0.86,0.46,1.83,0.69,2.81,0.66h0.17c3.32,0,6.02,3.75,6.02,8.38
			c0,4.62-2.7,8.38-6.02,8.38c-0.73,0-1.44-0.18-2.09-0.52c-1.13-0.55-2.37-0.85-3.63-0.87c-1.26-0.03-2.51,0.22-3.66,0.73
			c-0.98,0.45-2.04,0.68-3.11,0.69c-1.06,0-2.11-0.22-3.09-0.65c-1.14-0.49-2.38-0.74-3.63-0.71c-1.25,0.02-2.47,0.31-3.6,0.85
			c-0.64,0.33-1.36,0.51-2.09,0.51c-3.33,0-6.03-3.75-6.03-8.38C87.13,117.86,87.55,116.09,88.39,114.5z"/>
		<path class="st5" d="M371.84,338.83c1.81-3.34-0.24-7.44-2.61-10.42c-2.36-2.98-5.26-6.08-5.19-9.88
			c0.09-5.45,5.92-8.68,10.57-11.57c3.45-2.15,6.64-4.71,9.49-7.6c1.19-1.12,2.18-2.43,2.91-3.88c0.97-2.13,0.94-4.56,0.88-6.91
			c-0.2-7.78-0.59-15.56-1.16-23.33"/>
		<path class="st6" d="M395.57,264.85c-0.07-1.43-0.49-2.81-1.24-4.03c-0.75-1.22-1.79-2.23-3.03-2.94l-1.92,3.77l0.06-4.56
			c-1.74-0.51-3.6-0.46-5.31,0.15c-1.71,0.61-3.18,1.74-4.19,3.23c-1.02,1.49-1.53,3.27-1.47,5.07c0.06,1.8,0.7,3.54,1.82,4.96
			c1.12,1.42,2.66,2.45,4.41,2.94c1.75,0.49,3.6,0.41,5.3-0.21c1.7-0.63,3.16-1.78,4.16-3.28
			C395.16,268.44,395.66,266.66,395.57,264.85z"/>
		<path class="st6" d="M380.31,322.44c-0.86,1.66-2.25,3-3.95,3.8c-1.7,0.8-3.62,1.02-5.46,0.63c-1.84-0.39-3.5-1.38-4.72-2.8
			c-1.22-1.43-1.93-3.21-2.03-5.08c-0.06-1.18,0.13-2.36,0.56-3.46c0.63-1.6,1.73-2.98,3.17-3.95c1.43-0.97,3.13-1.48,4.86-1.47
			c1.73,0.01,3.42,0.54,4.84,1.52c1.42,0.98,2.51,2.37,3.12,3.98l-5.35,4.33l5.88-1.38C381.24,319.91,380.92,321.24,380.31,322.44z"
			/>
		<path class="st6" d="M376.08,305.92c-2.1,0.1-4.16-0.58-5.8-1.89c-1.63-1.32-2.72-3.19-3.06-5.25c-0.33-2.06,0.11-4.18,1.24-5.94
			c1.13-1.76,2.88-3.05,4.9-3.61l-0.05,3.5l1.94-3.81c2.27-0.11,4.49,0.69,6.16,2.21c1.68,1.52,2.68,3.64,2.79,5.89
			c0.11,2.25-0.69,4.46-2.22,6.13c-1.53,1.67-3.66,2.67-5.93,2.77H376.08z"/>
		<path class="st6" d="M396.86,292.18c-1.33,0.07-2.65-0.17-3.87-0.7c-1.22-0.53-2.29-1.33-3.15-2.35c-0.85-1.01-1.45-2.21-1.76-3.5
			c-0.31-1.29-0.3-2.62,0-3.91c0.31-1.29,0.91-2.48,1.76-3.5c0.85-1.01,1.93-1.82,3.15-2.34s2.54-0.77,3.87-0.7
			c1.33,0.07,2.62,0.44,3.77,1.1l-1.51,4.15l3.08-3.03c1.25,1.14,2.13,2.61,2.53,4.24c0.4,1.63,0.31,3.34-0.26,4.92
			c-0.58,1.58-1.61,2.95-2.97,3.95c-1.36,1-2.99,1.57-4.68,1.65L396.86,292.18z"/>
		<path class="st4" d="M394.42,267.12c-1.97,0.21-3.89,0.82-5.88,0.95c-1.99,0.12-4.17-0.35-5.41-1.88
			c-0.58-0.89-1.11-1.81-1.59-2.76c-0.54-0.84-1.28-1.53-2.16-2.02c-0.55,1.08-0.87,2.26-0.93,3.47c-0.06,1.21,0.15,2.42,0.6,3.54
			c0.45,1.12,1.14,2.14,2.01,2.98c0.88,0.84,1.92,1.48,3.07,1.89c1.15,0.41,2.37,0.56,3.58,0.46c1.21-0.1,2.39-0.46,3.45-1.05
			c1.06-0.59,1.99-1.4,2.71-2.37c0.72-0.97,1.23-2.09,1.49-3.27C395.07,267.07,394.74,267.09,394.42,267.12z"/>
		<path class="st4" d="M396.86,292.18c-1.48,0.07-2.94-0.24-4.26-0.9c-1.32-0.66-2.44-1.65-3.26-2.87c-0.82-1.22-1.31-2.63-1.42-4.1
			c-0.11-1.46,0.17-2.93,0.8-4.26c0.68,0.46,1.26,1.04,1.72,1.71c0.51,0.97,1.08,1.91,1.7,2.81c1.34,1.56,3.62,2.07,5.68,1.97
			c2.06-0.1,4.06-0.69,6.12-0.86c0.28,0,0.57-0.04,0.86-0.05c-0.43,1.8-1.43,3.42-2.86,4.6S398.72,292.09,396.86,292.18z"/>
		<path class="st4" d="M376.08,305.92c-1.46,0.07-2.91-0.24-4.22-0.89c-1.31-0.65-2.43-1.62-3.25-2.82
			c-0.82-1.2-1.32-2.59-1.45-4.04c-0.13-1.45,0.12-2.9,0.71-4.23c0.71,0.46,1.32,1.05,1.81,1.73c0.56,0.99,1.18,1.95,1.86,2.87
			c1.44,1.6,3.87,2.16,6.06,2.07c2.18-0.09,4.17-0.56,6.26-0.69c-0.52,1.67-1.54,3.15-2.93,4.22
			C379.53,305.21,377.84,305.84,376.08,305.92z"/>
		<path class="st4" d="M380.31,322.44c-0.86,1.66-2.25,3-3.95,3.8c-1.7,0.8-3.62,1.02-5.46,0.63c-1.84-0.39-3.5-1.38-4.72-2.8
			c-1.22-1.43-1.93-3.21-2.03-5.08c-0.06-1.18,0.13-2.36,0.56-3.46c0.71,0.46,1.34,1.02,1.88,1.67c0.81,0.98,1.35,2.07,2.29,3.02
			c1.75,1.71,4.57,2.41,7.09,2.47C377.41,322.69,378.86,322.61,380.31,322.44z"/>
		<path class="st5" d="M-52.28,289.07c1.81-3.34-0.24-7.44-2.61-10.42c-2.36-2.98-5.26-6.09-5.19-9.88
			c0.09-5.45,5.92-8.68,10.57-11.57c3.45-2.15,6.64-4.71,9.49-7.6c1.19-1.12,2.18-2.43,2.91-3.88c0.97-2.13,0.94-4.56,0.88-6.91
			c-0.2-7.78-0.59-15.56-1.16-23.33"/>
		<path class="st6" d="M-28.54,215.09c-0.07-1.42-0.49-2.81-1.24-4.03c-0.75-1.22-1.79-2.23-3.03-2.94l-1.92,3.77l0.06-4.56
			c-1.74-0.51-3.6-0.46-5.31,0.15c-1.71,0.61-3.18,1.74-4.19,3.23c-1.02,1.49-1.53,3.27-1.47,5.07c0.06,1.8,0.7,3.54,1.82,4.96
			c1.12,1.42,2.66,2.45,4.41,2.94c1.75,0.49,3.6,0.41,5.3-0.21c1.7-0.63,3.16-1.78,4.16-3.28
			C-28.95,218.68-28.46,216.89-28.54,215.09z"/>
		<path class="st6" d="M-43.81,272.68c-0.86,1.66-2.25,3-3.95,3.8c-1.7,0.8-3.62,1.02-5.46,0.63c-1.84-0.39-3.5-1.38-4.72-2.8
			c-1.22-1.43-1.93-3.21-2.03-5.08c-0.06-1.18,0.13-2.36,0.56-3.46c0.63-1.6,1.73-2.98,3.17-3.95c1.43-0.97,3.13-1.48,4.86-1.47
			c1.73,0.01,3.42,0.54,4.84,1.52c1.42,0.98,2.51,2.37,3.12,3.98l-5.35,4.33l5.88-1.38C-42.88,270.15-43.19,271.48-43.81,272.68z"/>
		<path class="st6" d="M-48.03,256.16c-2.1,0.1-4.16-0.58-5.8-1.89c-1.63-1.32-2.72-3.19-3.06-5.25c-0.34-2.06,0.11-4.18,1.24-5.94
			c1.13-1.76,2.88-3.05,4.9-3.61l-0.05,3.5l1.94-3.81c1.12-0.05,2.25,0.12,3.3,0.49c1.06,0.38,2.03,0.96,2.86,1.71
			c0.83,0.75,1.51,1.66,1.98,2.67c0.48,1.01,0.75,2.11,0.8,3.22c0.05,1.12-0.12,2.23-0.5,3.28c-0.38,1.05-0.97,2.02-1.72,2.84
			c-0.76,0.83-1.67,1.5-2.69,1.97c-1.02,0.47-2.12,0.75-3.24,0.8H-48.03z"/>
		<path class="st6" d="M-27.25,242.41c-1.33,0.07-2.65-0.17-3.87-0.7c-1.22-0.53-2.29-1.33-3.15-2.35c-0.85-1.01-1.45-2.21-1.76-3.5
			c-0.3-1.29-0.3-2.62,0-3.91c0.31-1.29,0.91-2.48,1.76-3.5c0.85-1.01,1.93-1.82,3.15-2.34c1.22-0.53,2.54-0.77,3.87-0.7
			c1.33,0.07,2.62,0.44,3.78,1.1l-1.51,4.15l3.08-3.03c1.25,1.14,2.13,2.61,2.53,4.24c0.4,1.63,0.31,3.35-0.26,4.93
			c-0.58,1.58-1.61,2.95-2.97,3.95c-1.36,1-2.99,1.57-4.68,1.65L-27.25,242.41z"/>
		<path class="st4" d="M-29.69,217.36c-1.97,0.21-3.89,0.82-5.88,0.95c-1.99,0.12-4.17-0.35-5.41-1.88
			c-0.58-0.89-1.11-1.81-1.59-2.76c-0.54-0.84-1.28-1.53-2.16-2.02c-0.55,1.08-0.87,2.26-0.93,3.47c-0.06,1.21,0.15,2.42,0.6,3.54
			c0.45,1.12,1.14,2.14,2.01,2.98c0.88,0.84,1.92,1.48,3.07,1.89c1.15,0.41,2.37,0.56,3.58,0.46c1.21-0.1,2.39-0.46,3.46-1.05
			c1.06-0.59,1.99-1.4,2.71-2.37c0.72-0.97,1.23-2.09,1.49-3.27C-29.05,217.3-29.37,217.33-29.69,217.36z"/>
		<path class="st4" d="M-27.25,242.41c-1.48,0.07-2.94-0.24-4.26-0.9c-1.32-0.66-2.44-1.65-3.26-2.87c-0.82-1.22-1.31-2.63-1.42-4.1
			c-0.11-1.46,0.17-2.93,0.8-4.26c0.68,0.46,1.26,1.04,1.72,1.71c0.51,0.97,1.08,1.91,1.7,2.81c1.33,1.56,3.62,2.07,5.68,1.97
			c2.06-0.1,4.06-0.69,6.12-0.86c0.29,0,0.57-0.04,0.86-0.05c-0.43,1.8-1.43,3.42-2.86,4.6C-23.61,241.64-25.39,242.33-27.25,242.41
			z"/>
		<path class="st4" d="M-48.03,256.16c-1.46,0.07-2.91-0.24-4.22-0.89c-1.31-0.65-2.43-1.62-3.25-2.82
			c-0.82-1.2-1.32-2.59-1.45-4.04c-0.13-1.45,0.12-2.9,0.71-4.23c0.71,0.46,1.32,1.05,1.81,1.73c0.56,0.99,1.18,1.95,1.86,2.87
			c1.44,1.6,3.87,2.16,6.06,2.07c2.18-0.09,4.17-0.56,6.26-0.69c-0.52,1.67-1.54,3.15-2.93,4.22
			C-44.59,255.45-46.28,256.07-48.03,256.16z"/>
		<path class="st4" d="M-43.81,272.68c-0.86,1.66-2.25,3-3.95,3.8c-1.7,0.8-3.62,1.02-5.46,0.63c-1.84-0.39-3.5-1.38-4.72-2.8
			c-1.22-1.43-1.93-3.21-2.03-5.08c-0.06-1.18,0.13-2.36,0.56-3.46c0.71,0.46,1.34,1.02,1.88,1.67c0.81,0.98,1.35,2.07,2.29,3.02
			c1.75,1.71,4.57,2.41,7.08,2.47C-46.7,272.93-45.25,272.85-43.81,272.68z"/>
		<path class="st5" d="M230.15,232.14c-1.81-3.34,0.24-7.43,2.61-10.41c2.37-2.98,5.25-6.08,5.19-9.88
			c-0.08-5.46-5.91-8.68-10.57-11.57c-3.45-2.15-6.64-4.7-9.48-7.6c-1.2-1.11-2.19-2.42-2.92-3.88c-0.96-2.14-0.93-4.56-0.88-6.91
			c0.21-7.78,0.6-15.56,1.16-23.33"/>
		<path class="st6" d="M206.42,158.17c0.06-1.43,0.49-2.81,1.24-4.03c0.75-1.22,1.79-2.23,3.03-2.94l1.92,3.77l-0.06-4.56
			c0.91-0.26,1.86-0.38,2.82-0.34c1.69,0.08,3.32,0.65,4.68,1.65c1.36,1,2.4,2.38,2.97,3.96c0.57,1.58,0.66,3.3,0.26,4.93
			c-0.41,1.63-1.29,3.11-2.54,4.24c-1.25,1.13-2.81,1.87-4.49,2.12c-1.67,0.25-3.38,0-4.92-0.71c-1.53-0.71-2.82-1.87-3.69-3.31
			C206.77,161.52,206.34,159.85,206.42,158.17z"/>
		<path class="st6" d="M221.68,215.76c0.9,1.74,2.37,3.11,4.16,3.9c1.8,0.79,3.81,0.93,5.71,0.42c1.89-0.52,3.55-1.66,4.7-3.25
			c1.14-1.59,1.71-3.51,1.59-5.46c-0.12-1.95-0.9-3.8-2.23-5.24c-1.33-1.44-3.11-2.38-5.05-2.67c-1.94-0.29-3.92,0.1-5.62,1.09
			c-1.69,0.99-2.99,2.53-3.67,4.36l5.35,4.33l-5.88-1.38C220.73,213.21,221.06,214.55,221.68,215.76z"/>
		<path class="st6" d="M225.91,199.24c2.1,0.1,4.17-0.57,5.8-1.89c1.64-1.32,2.72-3.18,3.06-5.25c0.34-2.06-0.1-4.18-1.24-5.94
			c-1.13-1.76-2.88-3.05-4.9-3.61l0.04,3.5l-1.94-3.81c-2.27-0.11-4.49,0.68-6.17,2.19c-1.68,1.51-2.69,3.63-2.8,5.89
			c-0.05,0.98,0.08,1.96,0.37,2.9c0.51,1.68,1.54,3.16,2.93,4.24C222.45,198.53,224.14,199.16,225.91,199.24z"/>
		<path class="st6" d="M205.13,185.48c1.33,0.07,2.65-0.17,3.87-0.7c1.22-0.53,2.29-1.33,3.14-2.35c0.85-1.01,1.45-2.21,1.75-3.5
			c0.3-1.29,0.3-2.62,0-3.91c-0.31-1.29-0.91-2.48-1.76-3.5c-0.85-1.01-1.93-1.81-3.15-2.34c-1.22-0.53-2.54-0.77-3.87-0.7
			c-1.33,0.07-2.62,0.44-3.77,1.1l1.52,4.15l-3.12-2.97c-0.83,0.75-1.5,1.65-1.98,2.66c-0.48,1.01-0.75,2.1-0.8,3.21
			c-0.04,0.79,0.03,1.58,0.22,2.34c0.44,1.8,1.45,3.4,2.88,4.57C201.5,184.73,203.28,185.4,205.13,185.48z"/>
		<path class="st4" d="M207.57,160.44c1.97,0.21,3.89,0.82,5.87,0.95c1.98,0.12,4.17-0.35,5.42-1.88c0.58-0.89,1.11-1.81,1.58-2.77
			c0.54-0.84,1.29-1.53,2.16-2.02c0.55,1.08,0.87,2.26,0.93,3.47c0.06,1.21-0.15,2.42-0.6,3.54c-0.45,1.13-1.14,2.14-2.01,2.98
			c-0.88,0.84-1.93,1.49-3.07,1.89c-1.15,0.41-2.37,0.56-3.59,0.46c-1.21-0.1-2.39-0.46-3.46-1.05c-1.06-0.59-1.99-1.4-2.71-2.38
			c-0.72-0.98-1.23-2.09-1.48-3.28C206.93,160.38,207.25,160.4,207.57,160.44z"/>
		<path class="st4" d="M205.13,185.48c1.48,0.07,2.94-0.25,4.26-0.91c1.32-0.66,2.44-1.65,3.26-2.87c0.82-1.22,1.31-2.63,1.42-4.09
			c0.11-1.46-0.16-2.93-0.79-4.26c-0.68,0.46-1.27,1.04-1.72,1.71c-0.51,0.97-1.08,1.91-1.7,2.81c-1.33,1.56-3.61,2.07-5.67,1.97
			c-2.07-0.1-4.06-0.69-6.12-0.86c-0.28,0-0.58-0.04-0.86-0.05c0.43,1.8,1.43,3.42,2.86,4.6
			C201.49,184.71,203.27,185.39,205.13,185.48z"/>
		<path class="st4" d="M225.91,199.24c1.46,0.07,2.92-0.23,4.22-0.88c1.31-0.65,2.43-1.62,3.25-2.82c0.82-1.2,1.32-2.59,1.45-4.04
			c0.13-1.45-0.12-2.91-0.72-4.23c-0.7,0.46-1.32,1.05-1.81,1.73c-0.56,0.99-1.18,1.95-1.86,2.87c-1.45,1.6-3.87,2.16-6.06,2.07
			c-2.19-0.09-4.17-0.56-6.26-0.69c0.52,1.67,1.54,3.15,2.93,4.22C222.46,198.54,224.15,199.16,225.91,199.24z"/>
		<path class="st4" d="M221.68,215.76c1.01,1.93,2.71,3.4,4.77,4.11c2.06,0.72,4.32,0.62,6.31-0.26c1.99-0.88,3.57-2.49,4.41-4.49
			c0.84-2,0.88-4.25,0.12-6.28c-0.71,0.46-1.34,1.02-1.88,1.67c-0.81,0.98-1.39,2.07-2.3,3.02c-1.75,1.71-4.57,2.41-7.09,2.47
			C224.57,216.01,223.12,215.92,221.68,215.76z"/>
		<path class="st7" d="M452.09,233.7c38.38,0,69.5-30.93,69.5-69.08s-31.12-69.09-69.5-69.09s-69.5,30.93-69.5,69.09
			S413.7,233.7,452.09,233.7z"/>
		<path class="st6" d="M481.92,182.43c-2.42-2.41-8.24-6.03-11.12-7.39c-3.33-1.59-4.55-1.56-6.91,0.13
			c-1.96,1.38-3.23,2.72-5.49,2.22c-2.25-0.49-6.72-3.84-11.03-8.11c-4.32-4.28-7.67-8.69-8.15-10.96
			c-0.48-2.27,0.84-3.51,2.25-5.46c1.7-2.34,1.75-3.56,0.13-6.87c-1.39-2.87-5-8.64-7.44-11.06c-2.44-2.42-2.97-1.89-4.3-1.38
			c-1.37,0.57-2.69,1.27-3.94,2.07c-2.42,1.61-3.78,2.95-4.73,4.97c-0.95,2.02-2.03,5.76,3.51,15.57
			c4.09,7.5,9.27,14.37,15.37,20.37c6.06,6.08,12.99,11.23,20.56,15.3c9.86,5.53,13.63,4.43,15.66,3.49
			c2.03-0.94,3.38-2.27,4.99-4.7c0.81-1.24,1.51-2.55,2.09-3.92C483.82,185.38,484.36,184.84,481.92,182.43z"/>
		<path class="st4" d="M452.09,95.53c-13.75-0.01-27.2,4.04-38.64,11.63c-11.44,7.59-20.36,18.38-25.62,31.02
			c-5.27,12.63-6.65,26.53-3.97,39.94c2.68,13.41,9.3,25.73,19.03,35.4c9.73,9.67,22.12,16.25,35.61,18.92
			c13.49,2.66,27.47,1.29,40.18-3.94c12.71-5.23,23.56-14.1,31.2-25.47c7.64-11.37,11.71-24.74,11.7-38.41
			c-0.01-18.32-7.33-35.88-20.36-48.84C488.18,102.82,470.51,95.54,452.09,95.53z M452.09,224.51c-11.92,0-23.57-3.51-33.48-10.09
			c-9.91-6.58-17.63-15.94-22.19-26.88c-4.56-10.95-5.75-22.99-3.43-34.61s8.06-22.29,16.49-30.67
			c8.43-8.38,19.16-14.08,30.85-16.39c11.69-2.31,23.81-1.13,34.82,3.41c11.01,4.53,20.42,12.21,27.04,22.06
			c6.62,9.85,10.16,21.43,10.16,33.28c0,7.87-1.56,15.65-4.59,22.92c-3.03,7.27-7.47,13.87-13.06,19.43
			c-5.6,5.56-12.24,9.97-19.55,12.98C467.84,222.96,460,224.51,452.09,224.51z"/>
		<path class="st7" d="M292.42,338.63c38.38,0,69.5-30.93,69.5-69.08c0-38.16-31.12-69.09-69.5-69.09s-69.5,30.93-69.5,69.09
			C222.92,307.7,254.03,338.63,292.42,338.63z"/>
		<path class="st6" d="M331.94,248.68l-20.81,21.04c-0.04,0.03-0.07,0.08-0.09,0.12s-0.03,0.1-0.03,0.15c0,0.05,0.01,0.1,0.03,0.15
			s0.05,0.09,0.09,0.12l14.6,15.43c0.35,0.35,0.59,0.79,0.68,1.28c0.1,0.48,0.05,0.98-0.14,1.44c-0.19,0.46-0.51,0.85-0.92,1.12
			c-0.41,0.28-0.9,0.42-1.39,0.43c-0.67,0-1.31-0.27-1.78-0.73l-14.52-15.38c-0.07-0.07-0.17-0.11-0.28-0.11s-0.2,0.04-0.28,0.11
			l-3.54,3.55c-1.45,1.47-3.18,2.64-5.09,3.44c-1.91,0.8-3.96,1.21-6.03,1.21c-2.11-0.01-4.2-0.44-6.14-1.26s-3.7-2.02-5.18-3.52
			l-3.4-3.46c-0.07-0.07-0.17-0.11-0.28-0.11c-0.1,0-0.2,0.04-0.28,0.11l-14.49,15.34c-0.23,0.23-0.51,0.42-0.81,0.54
			c-0.31,0.13-0.63,0.19-0.96,0.19c-0.33,0-0.66-0.06-0.96-0.19c-0.3-0.13-0.58-0.31-0.82-0.54s-0.42-0.51-0.55-0.81
			c-0.13-0.3-0.19-0.63-0.19-0.96c0-0.33,0.06-0.65,0.19-0.96c0.13-0.3,0.31-0.58,0.55-0.81l14.55-15.4c0.06-0.08,0.1-0.17,0.1-0.27
			c0-0.1-0.03-0.19-0.1-0.27l-20.81-21.04c-0.05-0.05-0.12-0.09-0.2-0.11c-0.08-0.01-0.15-0.01-0.22,0.02
			c-0.07,0.03-0.13,0.08-0.17,0.14c-0.04,0.06-0.06,0.14-0.06,0.21v42.11c0,1.63,0.66,3.19,1.82,4.34c1.16,1.15,2.73,1.8,4.36,1.81
			h68.05c1.64,0,3.21-0.65,4.36-1.81c1.16-1.15,1.81-2.71,1.82-4.34v-42.08c0-0.08-0.02-0.16-0.06-0.22
			c-0.04-0.07-0.11-0.12-0.18-0.15c-0.07-0.03-0.15-0.04-0.23-0.02C332.07,248.58,332,248.62,331.94,248.68z"/>
		<path class="st6" d="M292.42,277.05c1.41,0.01,2.81-0.25,4.11-0.79c1.3-0.54,2.49-1.32,3.48-2.32l30.31-30.66
			c-1.08-0.89-2.43-1.37-3.82-1.38H258.4c-1.4,0-2.75,0.49-3.82,1.38l30.31,30.66c0.98,0.99,2.16,1.78,3.45,2.31
			C289.63,276.79,291.02,277.06,292.42,277.05z"/>
		<path class="st4" d="M291.54,200.47c-13.75-0.01-27.2,4.04-38.64,11.63c-11.44,7.59-20.36,18.38-25.62,31.02
			c-5.27,12.63-6.65,26.53-3.97,39.94c2.68,13.41,9.3,25.73,19.03,35.4c9.73,9.67,22.12,16.25,35.61,18.92
			c13.49,2.67,27.47,1.29,40.18-3.94c12.71-5.23,23.56-14.1,31.2-25.47c7.64-11.37,11.71-24.74,11.7-38.41
			c-0.01-18.32-7.33-35.88-20.36-48.84C327.64,207.76,309.97,200.48,291.54,200.47z M291.54,329.45c-11.92,0-23.57-3.51-33.48-10.09
			c-9.91-6.58-17.63-15.94-22.19-26.88c-4.56-10.95-5.75-22.99-3.43-34.61c2.32-11.62,8.06-22.29,16.49-30.67
			c8.43-8.38,19.16-14.08,30.85-16.39c11.69-2.31,23.81-1.13,34.82,3.41c11.01,4.53,20.42,12.21,27.04,22.06
			c6.62,9.85,10.16,21.43,10.16,33.28c0,15.89-6.35,31.12-17.65,42.36C322.85,323.14,307.52,329.45,291.54,329.45z"/>
		<path class="st7" d="M127.48,287.04c38.38,0,69.5-30.93,69.5-69.08s-31.12-69.08-69.5-69.08s-69.5,30.93-69.5,69.08
			S89.1,287.04,127.48,287.04z"/>
		<path class="st6" d="M127.48,184.9l-27.71,63.54l2.59,2.57l25.13-11.02l25.13,11.02l2.59-2.57L127.48,184.9z"/>
		<path class="st4" d="M127.48,148.85c-13.75-0.01-27.2,4.04-38.64,11.63c-11.44,7.59-20.35,18.38-25.62,31.01
			c-5.27,12.63-6.65,26.53-3.97,39.94c2.68,13.41,9.3,25.73,19.02,35.4c9.72,9.67,22.11,16.25,35.6,18.92
			c13.49,2.67,27.47,1.3,40.17-3.93c12.71-5.23,23.57-14.09,31.21-25.45c7.64-11.37,11.72-24.73,11.72-38.4
			c0-18.32-7.32-35.9-20.35-48.86C163.59,156.14,145.91,148.86,127.48,148.85z M127.48,277.83c-11.92,0-23.57-3.51-33.48-10.1
			c-9.91-6.58-17.63-15.94-22.19-26.89c-4.56-10.95-5.75-22.99-3.42-34.61c2.33-11.62,8.07-22.29,16.5-30.67
			c8.43-8.38,19.17-14.08,30.86-16.38c11.69-2.31,23.81-1.12,34.82,3.42c11.01,4.54,20.42,12.22,27.04,22.08
			c6.62,9.86,10.15,21.44,10.14,33.29c0,15.89-6.35,31.12-17.65,42.35c-11.3,11.23-26.63,17.54-42.61,17.54V277.83z"/>
		
			<linearGradient id="SVGID_3_" gradientUnits="userSpaceOnUse" x1="528.2564" y1="-36.0177" x2="528.2564" y2="82.9096" gradientTransform="matrix(1 0 0 -1 -84.9557 357.8622)">
			<stop  offset="0" style="stop-color:#808081;stop-opacity:0.25"/>
			<stop  offset="0.54" style="stop-color:#808081;stop-opacity:0.12"/>
			<stop  offset="1" style="stop-color:#808081;stop-opacity:0.1"/>
		</linearGradient>
		<path class="st8" d="M458.48,304.96c-0.63-1.53-1.28-3.05-1.94-4.57c-0.55-1.48-1.35-2.86-2.37-4.07
			c-0.39-0.43-0.86-0.79-1.39-1.04c-0.58-0.21-1.2-0.33-1.81-0.36c-0.95-0.12-1.9-0.14-2.85-0.08c-0.37-0.11-0.79-0.26-1.2-0.42
			c2.06-0.54,3.89-1.72,5.22-3.37c1.33-1.65,2.1-3.68,2.18-5.79c0-0.14,0-0.28,0-0.42c0.01-1.29-0.25-2.58-0.74-3.77
			c-0.49-1.2-1.22-2.29-2.13-3.2c-0.92-0.92-2.01-1.65-3.21-2.15c-1.2-0.5-2.49-0.76-3.79-0.77c-1.83,0-3.63,0.51-5.18,1.47
			c-2.05-0.46-4.2-0.22-6.09,0.69c-1.89,0.91-3.42,2.43-4.34,4.31c-1.15,1.09-2.06,2.42-2.67,3.88c-0.61,1.46-0.91,3.04-0.87,4.62
			c0,0.14,0,0.3,0,0.44c0.18,5.37,3.67,9.68,8.08,10.11c-0.47,0.21-0.9,0.5-1.28,0.85c-1.35,1.29-1.57,3.35-1.72,5.21l-0.1,1.38
			l-2.34,0.83c-0.07,0.03-0.14,0.07-0.19,0.13c-0.05,0.06-0.08,0.13-0.09,0.21c-0.01,0.08,0,0.16,0.03,0.23
			c0.03,0.07,0.08,0.13,0.15,0.18l2.23,1.58c0,0.13,0,0.26,0,0.39s0,0.3,0.04,0.45c-0.38,0.33-0.68,0.75-0.86,1.22
			c-0.22,0.73-0.29,1.49-0.2,2.24l0.08,1.93c-0.01,1.45,0.19,2.9,0.59,4.29c0.29,0.86,1.56,2.92,2.47,2.94
			c-0.84,3.8-1.06,11.82-1.06,11.82c-0.1,0.1,0.19,0.2,0.69,0.28c0.5,3.81,2.13,14.51,5.03,19.22c0.46,1.53,0.82,3.09,1.09,4.67
			c0,0,0.83,10.17,1.92,13.19c0.93,2.57,1.67,8.92,1.87,10.75c-0.19,0.05-0.36,0.15-0.5,0.29c-0.14,0.14-0.23,0.31-0.27,0.5
			c-0.55,1.64-4.11,4.15-4.11,4.15c-1.09,0.54-2.12,1.2-3.07,1.96c-1.12,1-1.08,1.91,3.89,1.34c9.59-1.1,11.24-4.15,11.24-4.15
			s-0.15-0.51-0.38-1.17c-0.29-1.03-0.72-2.02-1.26-2.95c-0.14-0.13-0.28,0.09-0.44,0.44c-0.72-4.41-0.94-8.89-0.65-13.35
			c0,0,0.27-4.67-1.1-7.97c-0.3-1.73-0.3-3.49,0-5.22c0.55-2.2-2.19-12.92-2.19-12.92l-1.57-7.89c0.21,0.27,0.36,0.58,0.44,0.92
			l0.04,0.16l0.04,0.23c0.02,0.08,0.05,0.16,0.11,0.21c1.07,4.42,4,16.68,4,18.47c0,2.2,2.74,7.69,2.74,7.69s1.09,9.07,3.01,12.63
			c1.46,2.72,1.5,6.7,1.43,8.45c0,0-0.33,2.26-0.88,2.81c-0.44,0.54-0.79,1.14-1.04,1.79l-0.06,0.13c0,0-0.82,1.65-0.27,1.93
			c2.09,0.81,4.35,1.1,6.58,0.82c0,0,1.1-1.38,1.1-1.92c-0.02-0.33-0.06-0.66-0.13-0.98c-0.2-1.3-0.58-3.34-0.58-3.37
			c0.23-0.88-0.7-3.34-0.7-3.34l-0.28-7.69c0.51-5.21-0.15-10.46-1.92-15.39c0,0-1.39-4.94-1.09-6.32
			c0.3-1.38-0.55-15.94-0.55-15.94l-0.08-0.21c-0.07-1.03-0.05-2.06,0.08-3.09c0.27-3.3-0.82-10.17-1.1-10.44
			c-0.23-0.74-0.36-1.5-0.39-2.27c0.06-0.57,0.25-2.25,0.51-4.34c2.7-0.09,5.4-0.32,8.08-0.69c0.26,0,0.51-0.1,0.69-0.28
			c0.11-0.17,0.17-0.36,0.16-0.56C461.58,312.81,460.06,308.79,458.48,304.96z M452.97,313.68c0.28-1.97,0.59-3.88,0.9-5.29
			l0.04,0.13c0.53,1.42,0.97,2.88,1.32,4.35C454.5,313.19,453.74,313.47,452.97,313.68z"/>
		<path class="st9" d="M431.67,335.92c0,0,1.64,14.67,5.19,20.37c0.46,1.52,0.82,3.06,1.09,4.62c0,0,0.82,10.05,1.91,13.03
			c1.09,2.99,1.91,11.14,1.91,11.14s3.82,4.34,5.19,0.82c-0.86-4.66-1.14-9.4-0.82-14.13c0,0,0.27-4.62-1.09-7.88
			c-0.3-1.71-0.3-3.45,0-5.16c0.54-2.18-2.19-12.77-2.19-12.77l-2.18-10.6L431.67,335.92z"/>
		<path class="st10" d="M448.89,388.62c0,0-1.64,2.99-11.2,4.07c-4.96,0.56-5-0.33-3.88-1.33c0.95-0.75,1.97-1.4,3.06-1.94
			c0,0,3.55-2.44,4.09-4.07c0.54-1.63,2.46-0.27,2.46-0.27c2.73,4.07,3.28-1.09,3.82-0.55c0.54,0.91,0.97,1.89,1.26,2.91
			C448.74,388.11,448.89,388.62,448.89,388.62z"/>
		<path class="st4" d="M448.89,388.62c0,0-1.64,2.99-11.2,4.07c-4.96,0.56-5-0.33-3.88-1.33c0.78,0.49,2.35,0.69,5.51-0.57
			c4.55-1.85,7.86-2.92,9.18-3.34C448.74,388.11,448.89,388.62,448.89,388.62z"/>
		<path class="st4" d="M446.15,371.78c0,0,0.27-4.62-1.09-7.88c-0.31-1.71-0.31-3.45,0-5.16c0.54-2.18-2.19-12.77-2.19-12.77
			l-2.18-10.6l-1.89,0.11l2.16,10.48c0,0,2.73,10.59,2.19,12.77c-0.31,1.7-0.31,3.45,0,5.16c1.39,3.26,1.09,7.88,1.09,7.88
			c-0.32,4.72-0.04,9.47,0.82,14.13c-0.15,0.44-0.42,0.83-0.79,1.12c1.02,0.46,2.09,0.44,2.71-1.12
			C446.12,381.25,445.84,376.5,446.15,371.78z"/>
		<path class="st7" d="M444.38,276.31c-1.82,0-3.61,0.5-5.16,1.46c-2.04-0.47-4.19-0.24-6.08,0.66c-1.89,0.9-3.43,2.41-4.35,4.28
			c-1.15,1.08-2.05,2.38-2.66,3.83c-0.61,1.45-0.91,3.01-0.88,4.57c0,5.78,3.91,10.46,8.74,10.46c3.48,0,6.52-2.46,7.92-6.02
			c0.8,0.21,1.63,0.32,2.46,0.32c2.61,0,5.11-1.03,6.96-2.87c1.85-1.83,2.88-4.32,2.88-6.91s-1.04-5.08-2.88-6.91
			C449.48,277.34,446.98,276.31,444.38,276.31L444.38,276.31z"/>
		<path class="st9" d="M452.44,337.28l0.82,2.17c0,0,0.82,14.4,0.54,15.76c-0.28,1.36,1.1,6.22,1.1,6.22
			c1.77,4.86,2.42,10.06,1.91,15.21l0.27,7.6c0,0,1.09,2.99,0.55,3.53c-0.54,0.55-4.67-0.48-4.67-0.48s0.55-5.7-1.39-9.23
			s-3-12.5-3-12.5s-2.73-5.43-2.73-7.6c0-2.17-4.37-19.83-4.37-19.83L452.44,337.28z"/>
		<path class="st7" d="M431.12,337.02c0,0,0.28-9.78,1.39-12.77c0.57-1.4,0.97-2.85,1.22-4.33c0,0,16.54,2.97,17.91,1.89
			c0,0,0.27,3.8,0.55,4.07c0.28,0.27,1.39,7.06,1.09,10.33c-0.3,3.26,0,3.26,0,3.26s-11.21,1.63-11.48,0
			c-0.27-1.63-1.09-1.62-1.09-1.62S430.58,337.53,431.12,337.02z"/>
		<g class="st1">
			<path class="st4" d="M440.14,337.01c0,0-6.91-0.19-9-0.56c0,0.35,0,0.56,0,0.56c-0.54,0.54,9.57,0.82,9.57,0.82
				c0.14,0.01,0.27,0.06,0.38,0.15C440.72,337.01,440.14,337.01,440.14,337.01z"/>
			<path class="st4" d="M452.17,325.87c-0.28-0.27-0.55-4.07-0.55-4.07c-0.14,0.09-0.3,0.14-0.47,0.17c0.1,1.15,0.28,2.91,0.47,3.09
				c0.18,0.18,1.39,7.06,1.09,10.33c-0.3,3.26,0,3.26,0,3.26s-8.87,1.29-11.01,0.43c0,0.12,0.06,0.25,0.08,0.39
				c0.27,1.63,11.48,0,11.48,0s-0.28,0,0-3.26C453.54,332.94,452.44,326.15,452.17,325.87z"/>
		</g>
		<path class="st9" d="M443.17,293.42c0.24,0.52,0.59,0.98,1.04,1.34c0.29,0.21,0.62,0.36,0.98,0.42c-0.61,0.35-1.28,0.61-1.89,0.97
			c-0.96,0.64-1.89,1.34-2.78,2.07c-0.91,0.73-2.03,1.16-3.19,1.23c0.41-0.55,0.67-1.19,0.74-1.87c0.08-0.68-0.02-1.37-0.3-1.99
			c-0.25-0.41-0.42-0.87-0.49-1.34c0-0.78,0.69-1.38,1.34-1.8c0.52-0.35,1.06-0.69,1.6-1.03c0.43-0.26,1.06-0.82,1.6-0.79
			c0.54,0.02,0.6,0.49,0.7,0.97C442.66,292.23,442.87,292.84,443.17,293.42z"/>
		<path class="st4" d="M443.17,293.42c0.24,0.52,0.59,0.98,1.04,1.34c0.29,0.21,0.62,0.36,0.98,0.42c-0.61,0.35-1.28,0.61-1.89,0.97
			c-0.96,0.64-1.89,1.34-2.78,2.07c-0.91,0.73-2.03,1.16-3.19,1.23c0.41-0.55,0.67-1.19,0.74-1.87c0.08-0.68-0.02-1.37-0.3-1.99
			c-0.25-0.41-0.42-0.87-0.49-1.34c0-0.78,0.69-1.38,1.34-1.8c0.52-0.35,1.06-0.69,1.6-1.03c0.43-0.26,1.06-0.82,1.6-0.79
			c0.54,0.02,0.6,0.49,0.7,0.97C442.66,292.23,442.87,292.84,443.17,293.42z"/>
		<path class="st9" d="M449.57,309.45c3.47,0,6.29-2.8,6.29-6.25c0-3.45-2.81-6.25-6.29-6.25c-3.47,0-6.28,2.8-6.28,6.25
			C443.28,306.65,446.1,309.45,449.57,309.45z"/>
		<path class="st10" d="M458.45,391.88c0,0.55-1.09,1.9-1.09,1.9c-2.22,0.27-4.47-0.01-6.56-0.82c-0.55-0.27,0.27-1.9,0.27-1.9
			l0.06-0.13c0.25-0.64,0.6-1.24,1.04-1.77c0.54-0.54,0.87-2.76,0.87-2.76c1.7-2.76,4.71,1.2,4.71,1.2s0.38,2.07,0.58,3.33
			C458.4,391.37,458.45,391.74,458.45,391.88z"/>
		<path class="st4" d="M458.45,391.88c0,0.55-1.09,1.9-1.09,1.9c-2.22,0.27-4.47-0.01-6.56-0.82c-0.55-0.27,0.27-1.9,0.27-1.9
			l0.06-0.13c1.86,0.86,3.9,1.28,5.95,1.22l1.24-1.24C458.4,391.37,458.45,391.74,458.45,391.88z"/>
		<path class="st9" d="M437,296.27c3.39,0,6.15-2.74,6.15-6.11s-2.75-6.11-6.15-6.11s-6.15,2.74-6.15,6.11S433.6,296.27,437,296.27z
			"/>
		<path class="st9" d="M432.04,302.38c-1.35,1.28-1.57,3.3-1.71,5.15l-0.21,2.7c-0.08,0.73-0.09,1.46-0.05,2.19
			c0,0.45,0.11,0.9,0.15,1.38c0.04,0.48,0.06,1.08,0.06,1.62v3.99c-0.07,0.82,0.09,1.65,0.44,2.4c0.19,0.36,0.51,0.64,0.9,0.78
			c0.39,0.14,0.81,0.13,1.19-0.03c0.43-0.33,0.74-0.8,0.86-1.33c0.68-1.62,1.15-3.32,1.39-5.06c0.06-0.6,0.06-1.2,0.12-1.8
			c0.06-0.6,0.16-1.23,0.25-1.84c0.39-2.54,0.56-5.11,0.74-7.68c0.05-0.76,0.74-3.75-0.26-4.08c-0.49-0.16-1.5,0.34-1.96,0.5
			C433.25,301.51,432.6,301.89,432.04,302.38z"/>
		<path class="st4" d="M432.04,302.38c-1.35,1.28-1.57,3.3-1.71,5.15l-0.21,2.7c-0.08,0.73-0.09,1.46-0.05,2.19
			c0,0.45,0.11,0.9,0.15,1.38c0.04,0.48,0.06,1.08,0.06,1.62v3.99c-0.07,0.82,0.09,1.65,0.44,2.4c0.19,0.36,0.51,0.64,0.9,0.78
			c0.39,0.14,0.81,0.13,1.19-0.03c0.43-0.33,0.74-0.8,0.86-1.33c0.68-1.62,1.15-3.32,1.39-5.06c0.06-0.6,0.06-1.2,0.12-1.8
			c0.06-0.6,0.16-1.23,0.25-1.84c0.39-2.54,0.56-5.11,0.74-7.68c0.05-0.76,0.74-3.75-0.26-4.08c-0.49-0.16-1.5,0.34-1.96,0.5
			C433.25,301.51,432.6,301.89,432.04,302.38z"/>
		<path class="st10" d="M444.79,294.1c0,0-4.65,3.53-7.38,4.35c0,0-1.62,1.84-1.9,2.28c-0.28,0.44-0.83,5.32-1.39,6.41
			c-0.56,1.09-1.91,3.53,0,5.97c0,0,0.54,2.45,0.27,3.26c-0.27,0.82-1.26,3.8-0.36,3.94c0.9,0.14,3.64,2.03,6.1,1.49
			c2.46-0.54,11.62,2.07,11.62,2.07s1.52-14,2.61-16.47l-2.46-0.82c0,0-6.83-4.07-2.73-10.32
			C449.16,296.27,445.32,295.46,444.79,294.1z"/>
		<path class="st7" d="M427.83,310.46l5.65,3.97c0.07,0.05,0.16,0.08,0.25,0.08s0.17-0.03,0.25-0.08l1.53-1.14
			c0.05-0.04,0.08-0.09,0.11-0.15c0.03-0.06,0.04-0.12,0.04-0.18c0-0.06-0.01-0.12-0.04-0.18c-0.03-0.06-0.06-0.11-0.11-0.15
			l-4.35-3.84c-0.06-0.05-0.13-0.09-0.2-0.1c-0.07-0.02-0.15-0.01-0.22,0.02l-2.79,0.99c-0.07,0.03-0.14,0.07-0.19,0.13
			c-0.05,0.06-0.08,0.13-0.09,0.21c-0.01,0.08,0,0.15,0.03,0.22C427.72,310.35,427.77,310.41,427.83,310.46z"/>
		<path class="st9" d="M429.73,322.43c-0.4-1.38-0.6-2.8-0.59-4.24l-0.08-1.91c-0.08-0.74-0.02-1.5,0.2-2.21
			c0.21-0.49,0.54-0.93,0.94-1.28c0.41-0.35,0.88-0.61,1.4-0.76c1.04-0.29,2.12-0.36,3.19-0.23c0.14,0,0.29,0.04,0.41,0.11
			c0.11,0.1,0.19,0.23,0.22,0.37c0.16,0.31,0.25,0.64,0.27,0.99c0.02,0.34-0.03,0.69-0.15,1.01c-0.16,0.26-0.38,0.49-0.64,0.66
			c-0.76,0.54-1.64,0.9-2.36,1.49c-0.14,0.1-0.26,0.24-0.32,0.4c-0.03,0.14-0.03,0.29,0,0.44c0.09,0.38,0.21,0.75,0.36,1.11
			c0.06,0.18,0.17,0.34,0.31,0.47c0.13,0.11,0.31,0.15,0.45,0.26c0.3,0.24,0.92,0.56,0.89,0.94c-0.1,1.38-0.94,2.93-1.27,4.3
			C432.35,327.01,430.13,323.59,429.73,322.43z"/>
		<g class="st1">
			<path class="st4" d="M438.51,321.8h-0.15c0.59,0.12,1.2,0.12,1.79,0h0.17C439.72,321.72,439.11,321.72,438.51,321.8z"/>
			<path class="st4" d="M452.85,307c-0.98,2.19-2.43,14.06-2.68,16.41c0.96,0.25,1.59,0.43,1.59,0.43s1.5-13.96,2.6-16.44
				L452.85,307z"/>
		</g>
		<path class="st9" d="M449.78,303.39c0.05,0.27,0.16,0.53,0.31,0.76c0.15,0.23,0.35,0.43,0.59,0.58c0.58,0.48,1.11,1.02,1.59,1.6
			c0.69,0.96,1.22,2.02,1.58,3.14c0.52,1.41,0.96,2.84,1.31,4.3c-3.48,1.6-7.43,1.53-11.12,2.58c-1.59,0.42-3.04,1.27-4.17,2.45
			c-0.57,0.6-1,1.31-1.26,2.08c-0.26,0.78-0.36,1.6-0.28,2.42c0.01,0.09,0.03,0.19,0.08,0.27c0.06,0.07,0.14,0.12,0.22,0.15
			c0.08,0.03,0.17,0.05,0.27,0.04c0.92,0,1.82-0.31,2.55-0.87c0.72-0.56,1.38-1.2,1.95-1.91c0.36-0.46,0.84-0.82,1.39-1.02
			c2.01-0.61,4.17-0.57,6.26-0.61c3.12-0.06,6.23-0.3,9.32-0.73c0.11,0.01,0.23,0,0.33-0.04c0.11-0.04,0.2-0.1,0.28-0.18
			c0.08-0.08,0.14-0.18,0.18-0.28c0.04-0.11,0.05-0.22,0.04-0.33c0.31-4.08-1.22-8.06-2.78-11.84c-0.63-1.52-1.27-3.02-1.93-4.53
			c-0.55-1.47-1.35-2.83-2.36-4.02c-0.39-0.43-0.86-0.78-1.39-1.02c-0.6-0.21-1.23-0.33-1.86-0.35c-1.01-0.14-2.04-0.16-3.05-0.06
			c-0.16,0.51-0.26,1.04-0.29,1.57c0.06,1.87,0.88,3.61,1.68,5.3C449.33,303.13,449.62,303.14,449.78,303.39z"/>
		<path class="st11" d="M438.65,306.89c-0.47,0.8-0.71,1.71-0.7,2.64c0,0.37,0.06,0.73,0.17,1.08c0.19,0.49,0.49,0.93,0.87,1.29
			c0.38,0.36,0.84,0.63,1.35,0.79"/>
		<path class="st7" d="M442.19,284.19c-0.34,0-0.68,0.05-1.01,0.16c-0.91-1.38-3.05-2.34-5.56-2.34c-3.32,0-6.01,1.71-6.01,3.81
			c0,2.1,2.69,3.8,6.01,3.8c1.24,0.01,2.48-0.25,3.61-0.76c0.25,0.52,0.65,0.97,1.13,1.29c0.49,0.32,1.05,0.51,1.64,0.54
			c0.58,0.03,1.17-0.09,1.69-0.36c0.52-0.27,0.96-0.67,1.27-1.16c0.31-0.49,0.48-1.06,0.5-1.64c0.02-0.58-0.12-1.16-0.41-1.67
			c-0.28-0.51-0.7-0.93-1.2-1.23c-0.5-0.3-1.08-0.45-1.66-0.45H442.19z"/>
		<path class="st4" d="M442.46,289.89c-0.62,0-1.22-0.17-1.74-0.5c-0.52-0.33-0.94-0.79-1.21-1.35c-1.13,0.51-2.36,0.77-3.61,0.76
			c-3.32,0-6.01-1.7-6.01-3.8c-0.01-0.13-0.01-0.25,0-0.38c-0.2,0.37-0.3,0.78-0.31,1.2c0,2.07,2.69,3.8,6.01,3.8
			c1.24,0.01,2.48-0.25,3.61-0.76c0.3,0.62,0.79,1.12,1.39,1.45c0.61,0.33,1.3,0.45,1.98,0.36c0.68-0.09,1.32-0.39,1.82-0.86
			c0.5-0.47,0.84-1.09,0.97-1.76c-0.26,0.55-0.68,1.01-1.2,1.34C443.67,289.71,443.07,289.88,442.46,289.89z"/>
		<path class="st4" d="M428.79,284.31c0.92-1.87,2.45-3.38,4.35-4.28c1.89-0.9,4.04-1.13,6.08-0.66c1.43-0.88,3.06-1.38,4.74-1.45
			c1.68-0.07,3.35,0.29,4.85,1.04c1.5,0.75,2.78,1.88,3.72,3.26c0.94,1.39,1.51,2.99,1.65,4.65c0-0.27,0-0.54,0-0.82
			c0-1.74-0.47-3.44-1.36-4.94c-0.89-1.5-2.16-2.73-3.69-3.58c-1.53-0.85-3.26-1.27-5-1.23c-1.75,0.04-3.45,0.54-4.94,1.46
			c-2.05-0.47-4.19-0.24-6.08,0.66c-1.89,0.9-3.43,2.41-4.35,4.28c-1.15,1.08-2.05,2.38-2.66,3.83c-0.61,1.45-0.91,3.01-0.88,4.57
			c0,0.28,0,0.55,0,0.82C425.36,289.02,426.64,286.28,428.79,284.31z"/>
		<path class="st5" d="M491.48,286.38c1.81-3.34-0.24-7.44-2.61-10.42c-2.37-2.98-5.25-6.08-5.19-9.88
			c0.08-5.45,5.91-8.67,10.57-11.57c3.45-2.15,6.64-4.7,9.48-7.6c1.2-1.11,2.18-2.42,2.92-3.88c0.96-2.14,0.93-4.56,0.88-6.91
			c-0.2-7.79-0.59-15.56-1.16-23.33"/>
		<path class="st6" d="M515.21,212.38c-0.07-1.42-0.49-2.81-1.24-4.03c-0.75-1.22-1.79-2.23-3.03-2.94l-1.92,3.77l0.06-4.56
			c-0.91-0.27-1.87-0.39-2.82-0.34c-1.69,0.08-3.32,0.65-4.68,1.65c-1.36,1-2.39,2.38-2.97,3.96c-0.57,1.58-0.66,3.3-0.26,4.93
			c0.41,1.63,1.29,3.11,2.54,4.24c1.25,1.13,2.81,1.87,4.49,2.12c1.67,0.25,3.39,0,4.92-0.71c1.53-0.72,2.82-1.87,3.69-3.31
			C514.86,215.73,515.29,214.07,515.21,212.38z"/>
		<path class="st6" d="M499.95,269.98c-0.9,1.74-2.37,3.11-4.17,3.9c-1.8,0.79-3.81,0.93-5.71,0.42c-1.89-0.51-3.55-1.66-4.7-3.25
			c-1.14-1.59-1.7-3.51-1.59-5.46c0.12-1.95,0.9-3.8,2.23-5.24c1.32-1.44,3.11-2.38,5.05-2.67c1.94-0.29,3.92,0.09,5.61,1.09
			c1.69,0.99,2.99,2.53,3.67,4.36l-5.35,4.33l5.88-1.38C500.9,267.43,500.58,268.77,499.95,269.98z"/>
		<path class="st6" d="M495.72,253.45c-2.1,0.1-4.17-0.57-5.8-1.89c-1.63-1.32-2.72-3.19-3.06-5.25c-0.34-2.06,0.1-4.18,1.24-5.94
			c1.13-1.76,2.88-3.05,4.9-3.61l-0.04,3.5l1.94-3.81c2.27-0.1,4.48,0.69,6.16,2.21c1.68,1.52,2.68,3.64,2.79,5.89
			c0.05,1.12-0.12,2.23-0.5,3.28c-0.38,1.05-0.97,2.02-1.72,2.84c-0.76,0.83-1.67,1.5-2.69,1.97c-1.02,0.47-2.12,0.75-3.24,0.8
			L495.72,253.45z"/>
		<path class="st6" d="M516.5,239.71c-1.33,0.07-2.65-0.17-3.87-0.7c-1.22-0.53-2.29-1.33-3.14-2.35c-0.85-1.01-1.45-2.21-1.76-3.5
			c-0.3-1.29-0.3-2.62,0-3.91c0.31-1.28,0.91-2.48,1.76-3.49c0.85-1.01,1.93-1.82,3.15-2.34c1.22-0.53,2.54-0.77,3.87-0.7
			c1.33,0.07,2.62,0.44,3.77,1.1l-1.51,4.15l3.11-2.97c0.83,0.75,1.5,1.65,1.98,2.66c0.48,1.01,0.75,2.1,0.8,3.21
			c0.04,0.79-0.03,1.58-0.22,2.34c-0.44,1.8-1.45,3.4-2.88,4.57C520.13,238.95,518.35,239.63,516.5,239.71z"/>
		<path class="st4" d="M514.06,214.65c-1.97,0.22-3.9,0.83-5.88,0.95c-1.98,0.13-4.17-0.35-5.42-1.89
			c-0.58-0.89-1.11-1.81-1.58-2.76c-0.54-0.84-1.28-1.53-2.16-2.02c-0.55,1.08-0.87,2.26-0.93,3.47c-0.06,1.21,0.15,2.42,0.6,3.54
			c0.45,1.13,1.14,2.14,2.01,2.98c0.88,0.84,1.93,1.48,3.07,1.89c1.15,0.41,2.37,0.56,3.58,0.46c1.21-0.1,2.39-0.46,3.46-1.05
			c1.06-0.59,1.99-1.4,2.71-2.38c0.72-0.97,1.23-2.09,1.48-3.28C514.7,214.6,514.38,214.62,514.06,214.65z"/>
		<path class="st4" d="M516.5,239.71c-1.47,0.07-2.94-0.25-4.26-0.91c-1.32-0.66-2.44-1.65-3.26-2.87c-0.82-1.22-1.31-2.63-1.42-4.1
			s0.17-2.93,0.79-4.26c0.68,0.45,1.27,1.03,1.72,1.71c0.51,0.97,1.07,1.91,1.7,2.81c1.33,1.56,3.61,2.07,5.67,1.98
			c2.06-0.1,4.06-0.69,6.12-0.86c0.28,0,0.58-0.05,0.86-0.05c-0.43,1.8-1.43,3.42-2.86,4.6
			C520.14,238.94,518.36,239.62,516.5,239.71z"/>
		<path class="st4" d="M495.72,253.45c-1.46,0.07-2.92-0.23-4.23-0.88c-1.31-0.65-2.43-1.62-3.26-2.83s-1.32-2.6-1.45-4.05
			c-0.13-1.45,0.12-2.91,0.73-4.24c0.7,0.46,1.31,1.05,1.81,1.73c0.7,0.93,1.08,2.01,1.86,2.87c1.45,1.6,3.87,2.16,6.06,2.11
			c2.19-0.05,4.17-0.57,6.26-0.73c-0.52,1.67-1.54,3.15-2.93,4.23C499.17,252.75,497.48,253.37,495.72,253.45z"/>
		<path class="st4" d="M499.95,269.98c-1.02,1.9-2.73,3.34-4.78,4.04c-2.05,0.7-4.29,0.6-6.26-0.28c-1.98-0.88-3.55-2.46-4.4-4.44
			c-0.85-1.98-0.91-4.21-0.17-6.23c0.71,0.46,1.34,1.02,1.88,1.67c0.82,0.99,1.35,2.07,2.29,3.03c1.75,1.71,4.57,2.41,7.09,2.47
			C497.05,270.23,498.51,270.14,499.95,269.98z"/>
		<path class="st5" d="M602.03,391.44c1.81-3.34-0.24-7.44-2.61-10.42c-2.37-2.98-5.25-6.08-5.19-9.88
			c0.08-5.45,5.91-8.67,10.57-11.57c3.45-2.15,6.64-4.7,9.48-7.6c1.2-1.11,2.18-2.42,2.92-3.88c0.96-2.14,0.93-4.56,0.88-6.91
			c-0.2-7.79-0.59-15.56-1.16-23.33"/>
		<path class="st6" d="M625.76,317.44c-0.07-1.42-0.49-2.81-1.24-4.03c-0.75-1.22-1.79-2.23-3.03-2.94l-1.92,3.77l0.06-4.56
			c-0.9-0.27-1.84-0.38-2.78-0.34c-1.69,0.08-3.32,0.65-4.68,1.65c-1.36,1-2.4,2.38-2.97,3.96c-0.57,1.58-0.66,3.3-0.26,4.93
			c0.41,1.63,1.29,3.11,2.54,4.24c1.25,1.13,2.81,1.87,4.49,2.12c1.67,0.25,3.39,0,4.92-0.71c1.53-0.72,2.82-1.87,3.69-3.31
			c0.87-1.44,1.3-3.11,1.22-4.79H625.76z"/>
		<path class="st6" d="M610.5,375.03c-0.9,1.74-2.37,3.11-4.17,3.9c-1.8,0.79-3.81,0.93-5.71,0.42c-1.89-0.52-3.55-1.66-4.7-3.25
			c-1.14-1.59-1.7-3.51-1.59-5.46c0.12-1.95,0.9-3.8,2.23-5.24c1.33-1.44,3.11-2.38,5.05-2.67c1.94-0.29,3.92,0.1,5.62,1.09
			c1.69,0.99,2.99,2.53,3.67,4.36l-5.35,4.33l5.88-1.38C611.45,372.48,611.12,373.82,610.5,375.03z"/>
		<path class="st6" d="M606.27,358.5c-2.1,0.1-4.17-0.57-5.8-1.89c-1.63-1.32-2.72-3.19-3.06-5.25c-0.34-2.06,0.1-4.18,1.24-5.94
			c1.13-1.76,2.88-3.05,4.9-3.61l-0.04,3.5l1.94-3.81c2.27-0.1,4.48,0.69,6.16,2.21c1.68,1.52,2.68,3.64,2.79,5.89
			c0.05,1.12-0.12,2.23-0.5,3.28c-0.38,1.05-0.97,2.02-1.72,2.84c-0.76,0.83-1.67,1.5-2.69,1.97c-1.02,0.47-2.12,0.75-3.24,0.8
			L606.27,358.5z"/>
		<path class="st6" d="M627.04,344.76c-1.33,0.07-2.65-0.17-3.87-0.7c-1.22-0.53-2.29-1.33-3.14-2.35c-0.85-1.01-1.45-2.21-1.76-3.5
			c-0.3-1.29-0.3-2.62,0-3.91c0.31-1.29,0.91-2.48,1.76-3.5c0.85-1.01,1.93-1.82,3.15-2.34c1.22-0.53,2.54-0.77,3.87-0.7
			c1.33,0.07,2.62,0.44,3.77,1.1l-1.51,4.15l3.11-2.97c0.83,0.75,1.5,1.65,1.98,2.66c0.48,1.01,0.75,2.1,0.8,3.21
			c0.04,0.79-0.03,1.58-0.22,2.34c-0.44,1.79-1.45,3.4-2.88,4.57C630.68,344.01,628.9,344.68,627.04,344.76z"/>
		<path class="st4" d="M624.61,319.7c-1.97,0.22-3.9,0.83-5.88,0.95c-1.98,0.13-4.17-0.35-5.42-1.89c-0.58-0.89-1.11-1.81-1.58-2.76
			c-0.54-0.84-1.28-1.53-2.16-2.02c-0.55,1.08-0.87,2.26-0.93,3.47c-0.06,1.21,0.15,2.42,0.6,3.54c0.45,1.13,1.14,2.14,2.02,2.98
			c0.88,0.84,1.92,1.48,3.07,1.89c1.15,0.41,2.37,0.56,3.58,0.46c1.21-0.1,2.39-0.46,3.46-1.05c1.06-0.59,1.99-1.4,2.71-2.38
			c0.72-0.98,1.23-2.09,1.48-3.28C625.25,319.65,624.93,319.67,624.61,319.7z"/>
		<path class="st4" d="M627.04,344.76c-1.47,0.07-2.94-0.24-4.26-0.91c-1.32-0.66-2.44-1.65-3.26-2.87
			c-0.82-1.22-1.31-2.63-1.42-4.1c-0.11-1.46,0.17-2.93,0.79-4.26c0.68,0.45,1.27,1.03,1.72,1.71c0.51,0.97,1.07,1.91,1.7,2.81
			c1.33,1.56,3.61,2.07,5.67,1.98c2.06-0.1,4.06-0.69,6.12-0.86c0.28,0,0.58-0.05,0.86-0.06c-0.42,1.8-1.43,3.42-2.86,4.6
			C630.68,343.99,628.9,344.68,627.04,344.76z"/>
		<path class="st4" d="M606.27,358.5c-1.46,0.07-2.92-0.23-4.23-0.88c-1.31-0.65-2.43-1.62-3.26-2.83c-0.82-1.2-1.32-2.6-1.45-4.05
			c-0.13-1.45,0.12-2.91,0.73-4.24c0.7,0.46,1.31,1.05,1.81,1.73c0.7,0.93,1.08,2.01,1.86,2.87c1.45,1.6,3.87,2.16,6.06,2.11
			c2.19-0.05,4.17-0.57,6.26-0.72c-0.52,1.67-1.54,3.15-2.93,4.22C609.72,357.8,608.03,358.42,606.27,358.5z"/>
		<path class="st4" d="M610.5,375.03c-1.02,1.9-2.73,3.34-4.77,4.04c-2.05,0.7-4.29,0.6-6.27-0.28c-1.98-0.88-3.55-2.46-4.4-4.44
			c-0.85-1.98-0.91-4.21-0.17-6.23c0.71,0.46,1.34,1.02,1.88,1.67c0.82,0.99,1.39,2.07,2.29,3.03c1.75,1.71,4.57,2.41,7.09,2.47
			C607.6,375.28,609.05,375.2,610.5,375.03z"/>
		
			<linearGradient id="SVGID_4_" gradientUnits="userSpaceOnUse" x1="280.6494" y1="-45972.2188" x2="280.6494" y2="-38932.2773" gradientTransform="matrix(1 0 0 -1 -84.9557 357.8622)">
			<stop  offset="0" style="stop-color:#808081;stop-opacity:0.25"/>
			<stop  offset="0.54" style="stop-color:#808081;stop-opacity:0.12"/>
			<stop  offset="1" style="stop-color:#808081;stop-opacity:0.1"/>
		</linearGradient>
		<path class="st12" d="M242.3,293.92c0.01-1.06-0.23-2.11-0.7-3.06c-0.47-0.95-1.16-1.78-2.01-2.42c-0.01-1.87-0.69-3.68-1.91-5.11
			c-1.22-1.43-2.91-2.38-4.77-2.69c-0.29-1.36-0.93-2.63-1.86-3.66c-0.93-1.04-2.13-1.81-3.45-2.25c-0.32-0.1-0.65-0.18-0.99-0.23
			h-0.1h-0.17h-0.14h-0.15h-0.19h-0.42c-1.85,0.04-3.62,0.73-5.01,1.95c-1.38,1.22-2.29,2.88-2.56,4.7
			c-2.44-0.56-4.67,0.17-5.08,1.7c-0.1,0.41-0.08,0.84,0.07,1.23c0.42,1.19,1.77,2.33,3.59,2.89l0.24,0.07l0.35,0.09h0.08
			c-0.39,0.82-0.59,1.71-0.58,2.62c-0.01,1.11,0.3,2.2,0.87,3.15c0.58,0.95,1.41,1.72,2.4,2.24l-0.16,0.1
			c-0.23,0.2-0.41,0.46-0.53,0.73c-0.44,0.77-0.78,1.59-1.02,2.45c-0.17,0.73-0.2,1.49-0.42,2.22c-0.4,1.33-1.43,2.46-1.55,3.85
			c-0.06,0.62,0.05,1.38-0.4,1.78c-0.11,0.09-0.23,0.18-0.35,0.25c-0.31,0.22-0.57,0.49-0.77,0.81c-0.13,0.29-0.32,0.55-0.54,0.77
			c-0.4,0.3-1.06,0.27-1.26,0.73c-0.19,0.46,0.31,1.01,0.19,1.51c-0.12,0.5-0.55,0.6-0.86,0.88c-0.36,0.39-0.62,0.87-0.74,1.38
			c-0.66,0.12-1.34,0.1-1.98-0.06c-0.65-0.16-1.25-0.47-1.77-0.89c0.18,0.45,0.31,0.91,0.39,1.38c-0.6-0.46-1.29-0.8-2.02-1.01
			c-0.82-0.37-1.56-0.91-2.16-1.59l1.15-0.16l-5.1-7.73l-1.51-0.31l1.35,2.58c-0.11,0.05-0.21,0.13-0.29,0.22
			c-0.08,0.09-0.14,0.2-0.17,0.32c-0.07,0.29-0.09,0.58-0.05,0.88c0.07,0.7,0.19,1.39,0.35,2.07l0.39,1.81
			c0.03,0.17,0.08,0.34,0.13,0.5c-0.51-0.02-1.02,0.03-1.51,0.17c-1.01-0.37-2.06-0.62-3.13-0.74c-0.23-0.05-0.47-0.05-0.7,0
			c-0.26,0.12-0.49,0.3-0.66,0.53c-0.88,1.01-1.66,2.1-2.33,3.26c-2.78,4.74-6.4,8.88-9.83,13.17c-2.36,0.95-4.75,1.86-7.13,2.76
			l-5.13,1.95c-1,0.45-2.09,0.69-3.18,0.69c-0.49,0-1.09-0.1-1.39,0.31c-0.13,0.22-0.24,0.45-0.31,0.69l-0.53,0.06
			c-0.24-0.83-0.66-1.6-1.23-2.25c-0.13,0.02-0.24,0.07-0.34,0.15c-0.1,0.08-0.18,0.18-0.23,0.29c-0.13,0.23-0.2,0.48-0.35,0.69
			c-0.27,0.4-0.75,0.59-1.09,0.93c-0.34,0.34-0.56,0.86-0.93,1.21c-0.51,0.38-1.11,0.61-1.75,0.69c-0.95,0.22-1.87,0.57-2.73,1.03
			c-0.32,0.2-0.65,0.35-1.01,0.46c-0.39,0.08-0.79,0.09-1.19,0.04l-2.71-0.2c-0.24-0.03-0.49-0.02-0.73,0.03
			c-0.27,0.11-0.5,0.3-0.66,0.55c-0.15,0.25-0.23,0.54-0.2,0.83c0.03,0.29,0.13,0.58,0.28,0.83c0.15,0.25,0.35,0.48,0.58,0.65
			c0.47,0.35,0.99,0.61,1.54,0.8c2.35,0.91,4.77,1.62,7.23,2.13v0.55c1.72,0.87,3.63,1.31,5.56,1.31c0.14,0.01,0.29-0.02,0.42-0.08
			c0.18-0.13,0.3-0.32,0.35-0.54c0.58-1.71,0.94-3.49,1.08-5.29c0.34-0.02,0.67-0.11,0.98-0.25c0.93-0.26,1.86,0.38,2.83,0.48
			c1.19,0.13,2.29-0.56,3.41-0.98l0.49-0.16c-0.32,0.41-0.7,0.77-1.13,1.07c-0.47,0.33-0.99,0.58-1.44,0.93
			c-0.38,0.35-0.79,0.66-1.22,0.94c-0.31,0.14-0.62,0.26-0.94,0.36c-0.47,0.18-0.92,0.41-1.34,0.69c-0.37,0.22-0.68,0.52-0.91,0.88
			c-0.11,0.19-0.18,0.4-0.19,0.61c-0.01,0.22,0.03,0.43,0.12,0.63c0.1,0.16,0.23,0.3,0.38,0.41c0.16,0.11,0.33,0.18,0.52,0.21
			c0.37,0.06,0.74,0.06,1.11,0c1.47-0.11,2.94-0.24,4.41-0.37c0.62-0.04,1.24-0.13,1.84-0.26c0.32-0.08,0.64-0.18,0.96-0.27
			c0.55-0.14,1.11-0.22,1.68-0.25c0.16-0.01,0.33,0,0.49,0.05c0.34,0.11,0.58,0.46,0.93,0.52c0.24,0.03,0.47,0,0.7-0.09
			c1.07-0.23,2.16-0.35,3.26-0.35c0.48,0,1.04-0.12,1.27-0.56c0.22-0.44-0.18-1.15-0.36-1.74c-0.09-0.38-0.14-0.76-0.15-1.15
			c-0.08-0.95-0.36-1.88-0.81-2.72c-0.24-0.39-0.44-0.81-0.6-1.24c2.1-0.79,4.11-1.81,6-3.03c1.03-0.74,2.19-1.3,3.42-1.64
			c1.45-0.17,2.92,0,4.3,0.5c3.34,0.96,6.63,2.1,9.85,3.41c1.54,0.63,3.07,1.29,4.65,1.77c0.46,0.62,1.02,1.16,1.65,1.6
			c1.09,0.61,2.32,0.95,3.58,0.98c1.67,0.15,3.36,0.21,5.04,0.19c1.29,0.06,2.57-0.18,3.75-0.69c0.28-0.14,0.55-0.31,0.79-0.52
			c0.45,0.04,0.91-0.02,1.34-0.18c0.43-0.16,0.82-0.4,1.14-0.73c0.91-0.78,1.57-1.81,1.88-2.96c0.41-1.58,0.1-3.46,1.07-4.71
			c0.26-0.35,0.6-0.62,0.86-0.97c0.31-0.47,0.47-1.03,0.44-1.6c0.01-0.02,0.03-0.04,0.04-0.06c0.21-0.51,0.35-1.04,0.42-1.59
			c0.12-0.43,0.27-0.85,0.45-1.26c0.49-1.22,0.93-2.46,1.29-3.73c0.25-0.84,0.45-1.69,0.6-2.56c0.1-0.69,0.17-1.38,0.22-2.07
			c0.07-1.09,0.29-2.16,0.63-3.2c0.87-2.46,1.36-5.05,1.46-7.66v-0.15c1.28-0.15,2.46-0.76,3.31-1.73c0.85-0.97,1.3-2.21,1.27-3.5
			c0-0.77-0.16-1.53-0.48-2.23C241.99,296.35,242.31,295.15,242.3,293.92z M217.43,323.97c0.08,0.27,0.17,0.53,0.26,0.79
			c-0.41-0.39-0.81-0.8-1.22-1.2c0.16,0.06,0.33,0.1,0.48,0.17c0.16,0.06,0.32,0.15,0.46,0.24H217.43z M215.46,322.64
			c-2.41-2.07-5.19-3.68-7.65-5.69c1.34,0.66,2.65,1.42,3.94,2.16c1.53,0.87,3.09,1.71,4.67,2.51c-0.26,0.4-0.59,0.75-0.98,1.03
			H215.46z M216.48,317.41l0.12-0.12c0,0.3,0,0.57,0,0.82l-0.65-0.22c0.18-0.15,0.35-0.31,0.51-0.48H216.48z M195.32,323.01
			c0.99-1.11,1.84-2.33,2.56-3.63c0.95,1.65,2.5,2.85,3.82,4.24C199.58,323.35,197.45,323.12,195.32,323.01z"/>
		<path class="st13" d="M198.74,302.89l1.51,0.3l5.17,7.6l-2.27,0.3L198.74,302.89z"/>
		<path class="st14" d="M161.99,333.7c0.41,1.34,0.92,2.65,1.52,3.92c1.71-0.36,3.4-0.84,5.04-1.43c-0.32-0.48-0.68-0.94-1.05-1.38
			c-0.41-0.44-0.89-0.81-1.43-1.09c-0.57-0.13-1.16-0.13-1.73,0C163.56,333.7,162.78,333.71,161.99,333.7z"/>
		<path class="st13" d="M166.08,335.72c-0.41-0.18-0.78-0.45-1.07-0.79c-0.3-0.34-0.52-0.73-0.65-1.16
			c-0.27-0.86-0.71-1.66-1.31-2.33c-0.13,0.02-0.25,0.07-0.35,0.14c-0.1,0.08-0.18,0.18-0.24,0.29c-0.13,0.22-0.2,0.47-0.34,0.69
			c-0.28,0.39-0.76,0.59-1.11,0.92c-0.35,0.33-0.56,0.85-0.93,1.19c-0.52,0.38-1.12,0.62-1.76,0.69c-0.97,0.22-1.9,0.56-2.78,1.02
			c-0.32,0.19-0.66,0.35-1.02,0.46c-0.4,0.06-0.8,0.06-1.2,0l-2.74-0.19c-0.23-0.04-0.46-0.04-0.69,0c-0.28,0.1-0.52,0.29-0.68,0.54
			c-0.16,0.25-0.23,0.55-0.19,0.84c0.03,0.29,0.13,0.57,0.28,0.82c0.15,0.25,0.35,0.47,0.59,0.64c0.48,0.34,1,0.61,1.56,0.79
			c2.38,0.89,4.84,1.59,7.34,2.07v0.54c1.74,0.85,3.66,1.29,5.6,1.29c0.14,0.01,0.28-0.02,0.42-0.07c0.18-0.13,0.3-0.32,0.35-0.54
			c0.66-1.91,1.04-3.9,1.15-5.92c0.04-0.51,0-1.03-0.12-1.53c-0.15-0.49,0.36-0.28-0.11-0.48"/>
		<path class="st13" d="M218.62,325.46c-8.12,0.48-16.14-1.88-24.28-2.13c-1.01-0.07-2.02,0-3.02,0.19
			c-1.04,0.28-2.04,0.67-2.99,1.15c-4.36,2.02-8.87,3.69-13.38,5.36l-5.18,1.91c-1.01,0.45-2.1,0.69-3.2,0.69
			c-0.49,0-1.1-0.1-1.39,0.3c-0.84,1.24-0.44,3.06,0.11,4.46c0.18,0.45,0.49,0.94,0.97,0.99c0.34-0.02,0.68-0.11,0.99-0.25
			c0.94-0.25,1.88,0.38,2.85,0.48c1.2,0.12,2.31-0.55,3.44-0.97c1.88-0.69,3.92-0.69,5.9-1c3.3-0.55,6.37-2.07,9.23-3.81
			c1.04-0.74,2.21-1.29,3.44-1.62c1.46-0.17,2.94,0,4.33,0.49c3.37,0.95,6.69,2.07,9.94,3.36c1.69,0.73,3.42,1.36,5.19,1.89
			c3.85,1,7.93,0.76,11.63-0.69c1.3-0.51,2.71-1.38,2.78-2.81c0.05-0.79-0.58-1.49-0.99-2.18c-0.26-0.44-0.54-0.87-0.82-1.29
			C222.78,328,221.08,325.31,218.62,325.46z"/>
		<path class="st4" d="M218.62,325.46c-8.12,0.48-16.14-1.88-24.28-2.13c-1.01-0.07-2.02,0-3.02,0.19
			c-1.04,0.28-2.04,0.67-2.99,1.15c-4.36,2.02-8.87,3.69-13.38,5.36l-5.18,1.91c-1.01,0.45-2.1,0.69-3.2,0.69
			c-0.49,0-1.1-0.1-1.39,0.3c-0.84,1.24-0.44,3.06,0.11,4.46c0.18,0.45,0.49,0.94,0.97,0.99c0.34-0.02,0.68-0.11,0.99-0.25
			c0.94-0.25,1.88,0.38,2.85,0.48c1.2,0.12,2.31-0.55,3.44-0.97c1.88-0.69,3.92-0.69,5.9-1c3.3-0.55,6.37-2.07,9.23-3.81
			c1.04-0.74,2.21-1.29,3.44-1.62c1.46-0.17,2.94,0,4.33,0.49c3.37,0.95,6.69,2.07,9.94,3.36c1.69,0.73,3.42,1.36,5.19,1.89
			c3.85,1,7.93,0.76,11.63-0.69c1.3-0.51,2.71-1.38,2.78-2.81c0.05-0.79-0.58-1.49-0.99-2.18c-0.26-0.44-0.54-0.87-0.82-1.29
			C222.78,328,221.08,325.31,218.62,325.46z"/>
		<path class="st14" d="M177.59,334.07c1.27,0.43,2.55,0.82,3.84,1.19c0.69-1.18,2.09-2,2.38-3.36c0.02-0.06,0.02-0.12,0-0.18
			c-0.03-0.06-0.09-0.1-0.15-0.13c-0.93-0.51-1.96-0.81-3.02-0.88c-0.83-0.05-1.22,0.82-1.59,1.42
			C178.92,332.41,177.93,334.2,177.59,334.07z"/>
		<path class="st13" d="M179.37,333.23c-0.38-0.06-0.74-0.21-1.06-0.42c-0.32-0.21-0.6-0.49-0.81-0.81
			c-0.17-0.31-0.37-0.73-0.73-0.69c-0.36,0.04-0.48,0.41-0.56,0.74c-0.24,1.22-0.59,2.43-1.05,3.59c-0.46,1.17-1.24,2.19-2.25,2.94
			c-0.47,0.33-0.99,0.57-1.46,0.91c-0.39,0.34-0.8,0.65-1.23,0.93c-0.31,0.14-0.62,0.25-0.95,0.35c-0.47,0.18-0.93,0.41-1.35,0.69
			c-0.37,0.21-0.69,0.52-0.92,0.88c-0.11,0.18-0.18,0.39-0.19,0.6c-0.01,0.21,0.03,0.43,0.12,0.62c0.1,0.16,0.23,0.3,0.38,0.4
			c0.16,0.11,0.33,0.18,0.51,0.21c0.37,0.06,0.75,0.06,1.12,0c1.48-0.1,2.96-0.24,4.44-0.37c0.62-0.04,1.24-0.13,1.86-0.26
			l0.97-0.26c0.55-0.14,1.12-0.23,1.69-0.25c0.17-0.02,0.33,0,0.49,0.05c0.34,0.11,0.58,0.45,0.94,0.52
			c0.24,0.02,0.47-0.01,0.7-0.09c1.08-0.23,2.18-0.34,3.29-0.34c0.49,0,1.06-0.12,1.28-0.55c0.28-0.54-0.18-1.14-0.37-1.72
			c-0.09-0.37-0.14-0.75-0.15-1.13c-0.08-0.94-0.36-1.85-0.81-2.68c-0.38-0.69-0.89-1.45-0.63-2.18c0.13-0.23,0.22-0.49,0.25-0.75
			C182.79,332.96,180.05,333.38,179.37,333.23z"/>
		<path class="st14" d="M206.44,312.51c-1.44-0.63-2.6-1.77-3.24-3.19c-0.13-0.3-0.24-0.63-0.38-0.93
			c-0.43-1.03-1.09-1.95-1.93-2.67c-0.09-0.09-0.2-0.17-0.32-0.22c-0.12-0.05-0.25-0.08-0.38-0.08c-0.13,0.04-0.25,0.11-0.34,0.21
			c-0.09,0.1-0.16,0.22-0.18,0.35c-0.08,0.28-0.1,0.57-0.06,0.86c0.07,0.68,0.19,1.35,0.35,2.02l0.4,1.78
			c0.05,0.27,0.13,0.54,0.24,0.79c0.17,0.3,0.39,0.56,0.66,0.78c0.36,0.33,0.73,0.65,1.1,0.97c0.21,0.18,0.45,0.34,0.69,0.48
			c0.39,0.18,0.8,0.31,1.23,0.36c1.66,0.22,3.24,0.82,4.62,1.77c0,0,0-1.2,0-1.33c-0.02-0.35-0.14-0.68-0.35-0.96
			C207.92,313.04,207.2,312.7,206.44,312.51z"/>
		<path class="st4" d="M206.44,312.51c-1.44-0.63-2.6-1.77-3.24-3.19c-0.13-0.3-0.24-0.63-0.38-0.93c-0.43-1.03-1.09-1.95-1.93-2.67
			c-0.09-0.09-0.2-0.17-0.32-0.22c-0.12-0.05-0.25-0.08-0.38-0.08c-0.13,0.04-0.25,0.11-0.34,0.21c-0.09,0.1-0.16,0.22-0.18,0.35
			c-0.08,0.28-0.1,0.57-0.06,0.86c0.07,0.68,0.19,1.35,0.35,2.02l0.4,1.78c0.05,0.27,0.13,0.54,0.24,0.79
			c0.17,0.3,0.39,0.56,0.66,0.78c0.36,0.33,0.73,0.65,1.1,0.97c0.21,0.18,0.45,0.34,0.69,0.48c0.39,0.18,0.8,0.31,1.23,0.36
			c1.66,0.22,3.24,0.82,4.62,1.77c0,0,0-1.2,0-1.33c-0.02-0.35-0.14-0.68-0.35-0.96C207.92,313.04,207.2,312.7,206.44,312.51z"/>
		<path class="st13" d="M222.97,298.87c1.09,0,1.97-0.89,1.97-1.98c0-1.09-0.88-1.98-1.97-1.98c-1.09,0-1.97,0.88-1.97,1.98
			C221,297.98,221.88,298.87,222.97,298.87z"/>
		<path class="st13" d="M221.75,295.7c-0.53-0.13-1.09-0.05-1.56,0.22c-0.23,0.2-0.41,0.45-0.54,0.73
			c-0.44,0.76-0.79,1.56-1.03,2.41c-0.17,0.69-0.2,1.47-0.42,2.18c-0.4,1.31-1.44,2.43-1.56,3.79c-0.06,0.61,0.05,1.33-0.4,1.75
			c-0.11,0.09-0.23,0.18-0.36,0.26c-0.31,0.21-0.58,0.48-0.78,0.79c-0.14,0.28-0.32,0.54-0.55,0.75c-0.4,0.3-1.07,0.27-1.27,0.69
			c-0.19,0.42,0.31,1,0.19,1.49c-0.12,0.5-0.56,0.6-0.87,0.87c-0.37,0.39-0.63,0.86-0.75,1.38c-0.66,0.13-1.34,0.11-1.99-0.05
			c-0.65-0.16-1.26-0.46-1.79-0.88c0.46,1.39,0.66,2.84,0.59,4.3c0.03,0.23,0.02,0.47-0.04,0.7c-0.06,0.23-0.17,0.44-0.31,0.63
			c1.57,0.12,3.12,0.38,4.64,0.8c0.66,0.22,1.37,0.22,2.02,0c0.35-0.19,0.67-0.44,0.93-0.73c0.83-0.84,1.71-1.76,1.91-2.93
			c0.05-0.66,0.06-1.32,0.03-1.98c0.08-0.82,0.25-1.63,0.51-2.41c0.44-1.63,0.74-3.29,0.88-4.96c0.09-1.04,0.99-1.87,1.47-2.76
			c0.89-1.75,1.81-3.57,1.87-5.53C222.63,296.56,222.4,295.77,221.75,295.7z"/>
		<path class="st4" d="M221.75,295.7c-0.53-0.13-1.09-0.05-1.56,0.22c-0.23,0.2-0.41,0.45-0.54,0.73c-0.44,0.76-0.79,1.56-1.03,2.41
			c-0.17,0.69-0.2,1.47-0.42,2.18c-0.4,1.31-1.44,2.43-1.56,3.79c-0.06,0.61,0.05,1.33-0.4,1.75c-0.11,0.09-0.23,0.18-0.36,0.26
			c-0.31,0.21-0.58,0.48-0.78,0.79c-0.14,0.28-0.32,0.54-0.55,0.75c-0.4,0.3-1.07,0.27-1.27,0.69c-0.19,0.42,0.31,1,0.19,1.49
			c-0.12,0.5-0.56,0.6-0.87,0.87c-0.37,0.39-0.63,0.86-0.75,1.38c-0.66,0.13-1.34,0.11-1.99-0.05c-0.65-0.16-1.26-0.46-1.79-0.88
			c0.46,1.39,0.66,2.84,0.59,4.3c0.03,0.23,0.02,0.47-0.04,0.7c-0.06,0.23-0.17,0.44-0.31,0.63c1.57,0.12,3.12,0.38,4.64,0.8
			c0.66,0.22,1.37,0.22,2.02,0c0.35-0.19,0.67-0.44,0.93-0.73c0.83-0.84,1.71-1.76,1.91-2.93c0.05-0.66,0.06-1.32,0.03-1.98
			c0.08-0.82,0.25-1.63,0.51-2.41c0.44-1.63,0.74-3.29,0.88-4.96c0.09-1.04,0.99-1.87,1.47-2.76c0.89-1.75,1.81-3.57,1.87-5.53
			C222.63,296.56,222.4,295.77,221.75,295.7z"/>
		<path class="st13" d="M219.9,327.16c-1.69-0.8-2.93-2.29-4.3-3.57c-2.61-2.44-5.8-4.15-8.54-6.45c-1.82-1.51-3.48-3.28-5.44-4.55
			c-1.76-1.11-3.76-1.8-5.83-2.03c-0.23-0.05-0.47-0.05-0.69,0c-0.26,0.11-0.49,0.29-0.66,0.52c-0.89,0.99-1.68,2.07-2.36,3.21
			c-3.48,5.87-8.42,10.81-12.51,16.27c-0.09,0.11-0.16,0.25-0.2,0.39c-0.02,0.21,0.04,0.42,0.15,0.6l0.83,1.62
			c0.47,0.91,1.22,1.97,2.22,1.79c0.45-0.13,0.85-0.39,1.16-0.74l3.74-3.56l3.92-3.73c2.29-2.18,4.63-4.41,6.13-7.2
			c1.17,2.02,3.25,3.34,4.66,5.18c0.54,0.69,0.99,1.47,1.47,2.22c0.77,1.19,1.65,2.31,2.53,3.46l4.5,5.7
			c0.57,0.8,1.28,1.51,2.09,2.07c1.11,0.6,2.35,0.93,3.61,0.96c1.69,0.15,3.39,0.21,5.08,0.18c1.3,0.05,2.59-0.18,3.79-0.69
			c0.6-0.26,1.1-0.68,1.47-1.22c0.36-0.54,0.57-1.17,0.58-1.81c-0.07-0.67-0.29-1.31-0.65-1.89
			C225.02,331.02,222.93,328.59,219.9,327.16z"/>
		<path class="st15" d="M224.19,299.78c0.84,0,1.52-0.68,1.52-1.52c0-0.84-0.68-1.52-1.52-1.52c-0.84,0-1.52,0.68-1.52,1.52
			C222.67,299.1,223.35,299.78,224.19,299.78z"/>
		<path class="st14" d="M223.86,297.12c0.34,0.68,0.4,1.46,0.17,2.18c-0.24,0.71-0.57,1.38-0.98,2.01c-0.35,0.65-0.78,1.25-1.27,1.8
			c2.35,0.11,4.62-0.8,6.69-1.91c1.67-0.89,3.33-1.99,4.22-3.66c-0.27,0.06-0.54,0.07-0.81,0.02c-0.27-0.05-0.52-0.16-0.75-0.31
			c-0.45-0.31-0.85-0.68-1.19-1.1l-1.18-1.31c-0.27-0.29-0.5-0.61-0.69-0.95c-0.26-0.47-0.37-1-0.31-1.53
			c-0.47,0.49-0.99,0.92-1.56,1.29c-0.84,0.55-1.77,0.94-2.61,1.48c-0.29,0.19-0.96,0.5-0.79,0.88
			C222.97,296.4,223.62,296.7,223.86,297.12z"/>
		<path class="st4" d="M223.86,297.12c0.34,0.68,0.4,1.46,0.17,2.18c-0.24,0.71-0.57,1.38-0.98,2.01c-0.35,0.65-0.78,1.25-1.27,1.8
			c2.35,0.11,4.62-0.8,6.69-1.91c1.67-0.89,3.33-1.99,4.22-3.66c-0.27,0.06-0.54,0.07-0.81,0.02c-0.27-0.05-0.52-0.16-0.75-0.31
			c-0.45-0.31-0.85-0.68-1.19-1.1l-1.18-1.31c-0.27-0.29-0.5-0.61-0.69-0.95c-0.26-0.47-0.37-1-0.31-1.53
			c-0.47,0.49-0.99,0.92-1.56,1.29c-0.84,0.55-1.77,0.94-2.61,1.48c-0.29,0.19-0.96,0.5-0.79,0.88
			C222.97,296.4,223.62,296.7,223.86,297.12z"/>
		<path class="st15" d="M223.89,297.35c-0.24,0.33-0.37,0.73-0.37,1.14c0,0.41,0.13,0.81,0.37,1.14c0.07,0.08,0.32,0.6,0.42,0.61
			c0.05,0,0.1-0.02,0.15-0.04c0.05-0.02,0.09-0.06,0.12-0.1c0.54-0.55,1.03-1.14,1.49-1.76c0.47-0.62,1.13-1.05,1.89-1.23
			c0.94-0.04,1.86,0.25,2.61,0.81c0.35,0.16,0.66,0.39,0.9,0.69c0.17,0.3,0.27,0.64,0.29,0.99c0.23,2.09,0.32,4.19,0.26,6.28
			c0.04,1.51-0.06,3.03-0.3,4.53c-0.15,0.77-0.38,1.52-0.48,2.3c-0.08,0.69-0.11,1.38-0.1,2.07v2.89c-0.02,0.53,0.02,1.06,0.11,1.58
			c0.14,0.63,0.44,1.22,0.64,1.83c0.21,0.71,0.35,1.43,0.42,2.16l0.4,2.99c0.13,0.94,0.22,1.97-0.36,2.76
			c-0.26,0.34-0.6,0.61-0.86,0.95c-0.98,1.27-0.69,3.09-1.08,4.65c-0.32,1.14-0.99,2.15-1.91,2.9c-0.33,0.32-0.72,0.57-1.15,0.72
			c-0.43,0.15-0.9,0.21-1.35,0.17c-1.22-0.23-1.95-1.49-2.29-2.69c-0.33-1.2-0.45-2.5-1.18-3.5c-0.66-0.76-1.45-1.42-2.32-1.93
			c-0.88-0.52-1.53-1.36-1.81-2.34c-0.08-0.44,0-0.88-0.08-1.33c-0.06-0.56-0.28-1.09-0.62-1.53c-0.34-0.45-0.8-0.79-1.32-1
			c-0.63-0.24-1.39-0.33-1.75-0.9c0.9-0.56,1.55-1.43,1.83-2.44c0.28-1.01,0.43-2.04,0.44-3.08l0.21-3.46
			c0.1-1.55,0.14-3.09,0.83-4.49c0.31-0.62,0.69-1.21,1.01-1.82c0.42-0.87,0.79-1.76,1.08-2.68c0.5-1.42,1-2.85,1.45-4.28
			c0.17-0.7,0.44-1.37,0.79-2C222.64,298.26,223.18,297.48,223.89,297.35z"/>
		<path class="st13" d="M216.13,319.9h0.92l0.19-1.38c0.03-0.28,0.09-0.55,0.19-0.81c0.15-0.27,0.33-0.53,0.54-0.77
			c0.9-1.28,0.84-2.97,1.06-4.53c0.4-2.05,1.09-4.05,2.03-5.92l1.79-3.97c0.16-0.33,0.29-0.67,0.39-1.02
			c0.08-0.39,0.11-0.78,0.11-1.17c0-0.61,0.2-2.85,0.22-3.46c0-0.23-0.51-0.1-0.61-0.3c-0.22-0.44-0.53,0.75-0.95,1.02
			c-0.4,0.3-0.69,0.72-0.83,1.2c-0.39,0.99-0.63,2.07-0.99,3.06c-0.31,1.03-0.89,1.96-1.68,2.71c-0.37,0.32-0.79,0.57-1.14,0.92
			c-1.11,1.09-1.22,2.83-1.26,4.39C216.11,310.82,215.92,319.9,216.13,319.9z"/>
		<path class="st13" d="M229.44,295.69c-0.43,0.22-0.8,0.54-1.09,0.93c-0.28,0.39-0.48,0.84-0.56,1.31
			c-0.16,0.95-0.44,1.88-0.83,2.76c-1.13,1.95-4,2.52-4.8,4.62c-0.2,0.71-0.31,1.44-0.32,2.18c-0.14,1.51-0.64,2.97-0.79,4.48
			c-0.08,1.17-0.05,2.35,0.08,3.52l1.01,11.9c0.19,1.75,0.09,3.52-0.3,5.24c1.03,0.15,2.09-0.03,3.02-0.5
			c0.94-0.43,1.8-1.02,2.71-1.51c1.56-0.86,3.28-1.46,4.65-2.6c0.25-0.19,0.46-0.43,0.63-0.69c0.21-0.5,0.35-1.02,0.42-1.56
			c0.12-0.42,0.27-0.83,0.45-1.23c0.5-1.2,0.94-2.43,1.31-3.68c0.25-0.82,0.45-1.67,0.6-2.52c0.11-0.69,0.17-1.38,0.23-2.07
			c0.07-1.07,0.29-2.13,0.64-3.15c0.87-2.43,1.37-4.97,1.47-7.55c0.03-0.37,0-0.74-0.08-1.1c-0.15-0.44-0.36-0.87-0.61-1.27
			c-0.42-0.78-0.7-1.64-1.06-2.43c-0.99-1.75-2.4-3.23-4.11-4.29C231.3,295.95,230.35,295.37,229.44,295.69z"/>
		<path class="st14" d="M208.44,315.11c-0.71-0.37-1.36-0.86-1.91-1.44c-0.25-0.29-0.46-0.61-0.7-0.91
			c-0.64-0.69-1.48-1.17-2.41-1.38c-0.91-0.2-1.85-0.29-2.78-0.27c-0.63-0.04-1.26,0.03-1.86,0.22c-0.3,0.1-0.57,0.27-0.78,0.5
			c-0.21,0.23-0.37,0.51-0.45,0.81c-0.03,0.38,0.05,0.75,0.21,1.09c0.17,0.34,0.42,0.63,0.73,0.85c0.54,0.44,1.18,0.75,1.87,0.9
			c0.56,0.1,1.12,0.17,1.69,0.2c3.32,0.35,6.29,2.14,9.21,3.78c2.56,1.45,5.17,2.79,7.83,4.04c0.1-0.79,0.15-1.59,0.13-2.38
			c0-0.59-0.05-1.51-0.61-1.86c-0.8-0.33-1.64-0.58-2.49-0.74c-1.72-0.56-3.39-1.23-5.01-2.02
			C210.19,316.1,209.31,315.62,208.44,315.11z"/>
		<path class="st14" d="M222.97,296.44c3.27,0,5.92-2.65,5.92-5.92c0-3.27-2.65-5.92-5.92-5.92c-3.27,0-5.92,2.65-5.92,5.92
			C217.05,293.79,219.7,296.44,222.97,296.44z"/>
		<path class="st13" d="M231.13,302.4c-0.47,0.66-0.86,1.38-1.15,2.14c-0.69,1.49-1.88,2.76-2.45,4.35
			c-0.58,1.58-0.58,3.61-1.77,4.91c-0.24,0.2-0.42,0.46-0.52,0.75c0,0.18-0.02,0.36-0.06,0.54c-0.17,0.47-0.94,0.49-1.09,0.98
			c-0.04,0.14,0,0.29-0.07,0.43c-0.12,0.31-0.54,0.36-0.81,0.55c-0.58,0.39-0.46,1.29-0.87,1.85c-0.18,0.21-0.41,0.37-0.67,0.46
			c-0.26,0.09-0.54,0.11-0.81,0.06c-0.54-0.11-1.06-0.3-1.54-0.57c-0.17-0.09-0.36-0.15-0.56-0.17c-0.23,0.01-0.45,0.08-0.64,0.22
			c-0.52,0.38-0.95,0.89-1.22,1.48c-0.28,0.58-0.41,1.23-0.38,1.88c0.08,1.3,0.39,2.57,0.92,3.75c0.06,0.2,0.16,0.4,0.3,0.56
			c0.21,0.16,0.46,0.26,0.72,0.28c0.26,0.02,0.53-0.04,0.75-0.17c0.45-0.27,0.94-0.48,1.44-0.64c0.92-0.17,1.81,0.46,2.75,0.41
			c0.68-0.1,1.32-0.38,1.85-0.81c0.94-0.55,1.78-1.25,2.49-2.07c0.4-0.53,0.69-1.13,1.06-1.7c0.46-0.69,0.96-1.35,1.5-1.98
			l3.42-4.15c0.34-0.39,0.65-0.81,0.92-1.26c0.3-0.6,0.54-1.24,0.7-1.9c0.36-1.1,0.6-2.23,0.69-3.38c0.02-0.95-0.06-1.9-0.25-2.83
			c-0.1-0.93-0.34-1.84-0.69-2.7C234.33,302.06,232.53,300.79,231.13,302.4z"/>
		<path class="st16" d="M243.03,294.68c0-1.05-0.24-2.09-0.72-3.02c-0.48-0.94-1.17-1.75-2.02-2.37c-0.03-1.87-0.72-3.66-1.95-5.07
			c-1.23-1.41-2.93-2.33-4.78-2.61c-0.36-1.77-1.33-3.35-2.75-4.48c-1.42-1.12-3.19-1.71-5.01-1.67c-1.81,0.05-3.55,0.73-4.91,1.93
			c-1.36,1.2-2.24,2.83-2.5,4.62c-2.46-0.55-4.71,0.17-5.12,1.67c-0.41,1.51,1.33,3.46,3.92,4.15c0.82,0.23,1.67,0.31,2.52,0.25
			c0.6,0.88,1.39,1.63,2.3,2.2c0.91,0.57,1.93,0.93,3,1.08c0.32,1.43,1.02,2.73,2.05,3.78c1.02,1.05,2.32,1.79,3.74,2.15
			c0.4,0.94,1.01,1.78,1.79,2.45c0,0.19,0,0.38,0,0.57c0,0.65,0.13,1.3,0.38,1.91c0.25,0.61,0.62,1.15,1.09,1.62
			c0.47,0.46,1.02,0.83,1.63,1.08c0.61,0.25,1.26,0.38,1.92,0.38c0.66,0,1.31-0.13,1.92-0.38c0.61-0.25,1.16-0.62,1.63-1.08
			c0.47-0.46,0.83-1.01,1.09-1.62c0.25-0.6,0.38-1.25,0.38-1.91c0-0.76-0.16-1.51-0.48-2.2
			C242.73,297.08,243.05,295.88,243.03,294.68z"/>
		<path class="st4" d="M214.94,284.01c0.41-1.51,2.66-2.23,5.12-1.67c0.29-1.81,1.22-3.47,2.62-4.66c1.4-1.2,3.18-1.87,5.03-1.89
			h0.51c-0.71-0.21-1.44-0.32-2.18-0.33c-1.85,0.02-3.63,0.69-5.03,1.89c-1.4,1.2-2.33,2.85-2.62,4.67
			c-2.46-0.55-4.71,0.17-5.12,1.67c-0.41,1.51,1.33,3.46,3.92,4.15c0.49,0.13,0.99,0.22,1.49,0.26
			C216.19,287.34,214.53,285.55,214.94,284.01z"/>
		<path class="st4" d="M234.22,300.61c-0.01-0.19-0.01-0.38,0-0.57c-0.78-0.66-1.4-1.51-1.79-2.45c-1.42-0.36-2.72-1.1-3.74-2.15
			c-1.02-1.05-1.73-2.36-2.04-3.79c-1.07-0.15-2.09-0.51-3-1.08c-0.91-0.56-1.7-1.31-2.3-2.2c-0.49,0.04-0.99,0.03-1.48-0.04
			c0.61,0.81,1.37,1.5,2.25,2.02c0.88,0.52,1.85,0.86,2.86,1c0.32,1.43,1.02,2.73,2.05,3.78c1.02,1.05,2.32,1.79,3.74,2.15
			c0.4,0.94,1.01,1.78,1.79,2.45c0,0.19,0,0.38,0,0.57c-0.02,1.34,0.49,2.63,1.42,3.6c0.93,0.97,2.22,1.53,3.56,1.56
			c-0.98-0.38-1.83-1.05-2.42-1.92C234.52,302.69,234.21,301.66,234.22,300.61z"/>
		<path class="st14" d="M225.69,292.69c0.4-0.3,0.4-0.98-0.01-1.51c-0.41-0.53-1.06-0.72-1.46-0.42c-0.4,0.3-0.4,0.98,0.01,1.51
			C224.64,292.81,225.29,292.99,225.69,292.69z"/>
	</g>
</g>
</svg>
